<svg id="Layer_1" data-name="Layer 1" xmlns="http://www.w3.org/2000/svg" viewBox="0 0 238.46 116.25"><defs><style>.cls-1{fill:#55565a;}.cls-2{fill:#005cb9;}</style></defs><title>Artboard 1</title><path class="cls-1" d="M203.52,88.1a1.17,1.17,0,0,1,.57.15,1.07,1.07,0,0,1,.43.42,1.15,1.15,0,0,1,0,1.15,1.09,1.09,0,0,1-.43.43,1.15,1.15,0,0,1-1.15,0,1.09,1.09,0,0,1-.43-.43,1.15,1.15,0,0,1,0-1.15,1.07,1.07,0,0,1,.43-.42A1.17,1.17,0,0,1,203.52,88.1Zm0,.23a.94.94,0,0,0-.46.12.86.86,0,0,0-.34.34.93.93,0,0,0,0,.93.88.88,0,0,0,.34.34.92.92,0,0,0,.92,0,.88.88,0,0,0,.34-.34.93.93,0,0,0,0-.93.86.86,0,0,0-.34-.34A1,1,0,0,0,203.52,88.33ZM203,89.87V88.65h.64a.48.48,0,0,1,.19,0,.31.31,0,0,1,.11.12.34.34,0,0,1,0,.18.32.32,0,0,1-.09.23.39.39,0,0,1-.24.12l.09,0,.08.09.09.15.14.25h-.31l-.1-.2a.82.82,0,0,0-.17-.25.27.27,0,0,0-.17-.05h-.06v.5Zm.25-.69h.1l.27,0a.16.16,0,0,0,.11-.15.15.15,0,0,0,0-.09.16.16,0,0,0-.08-.06l-.27,0h-.1Z"/><path class="cls-1" d="M25.09,83.83c0-3.63,2.06-6.36,6-6.36s5.64,2.72,5.64,6.17c0,4-2,6.66-5.88,6.66S25.09,87.62,25.09,83.83Zm10,0c0-3.29-1.56-5-4-5s-4.3,1.75-4.3,5c0,3.44,1.66,5.16,4.18,5.16S35.06,87.34,35.06,83.81Z"/><path class="cls-1" d="M44.06,89.77a6.47,6.47,0,0,1-2.38.53c-1.64,0-2.38-.77-2.38-2.31V82.65c0-.1,0-.17-.14-.17H37.9v-1c1.34-.17,1.71-.7,1.94-2.45h1v2.09c0,.1,0,.17.14.17h2.52v1.18H40.85v5.05c0,1.08.26,1.49,1.23,1.49a4.48,4.48,0,0,0,1.59-.34Z"/><path class="cls-1" d="M51,90.1v-.94l.82-.1c.22,0,.31-.1.31-.34v-4c0-1.27-.22-2.28-1.44-2.28a4.66,4.66,0,0,0-2.71,1.11v5.16c0,.27,0,.31.27.34l1,.12v.93H45.25v-.94l.86-.1c.24,0,.27-.09.27-.34v-10c0-.19-.05-.31-.22-.36l-1-.33.15-.91h2.64v5.09A5.19,5.19,0,0,1,51,81.12c1.83,0,2.64,1.18,2.64,3.12v4.47c0,.27,0,.31.27.34l1,.12v.93Z"/><path class="cls-1" d="M62.9,89.53a6.27,6.27,0,0,1-3.12.77c-3.1,0-4.11-2-4.11-4.59,0-3.14,1.75-4.59,3.91-4.59s3.53,1.13,3.53,4.09c0,.22,0,.57,0,.86H57.32c.05,1.73.75,2.91,2.62,2.91a4.93,4.93,0,0,0,2.47-.62Zm-1.35-4.64c0-2-.93-2.52-2-2.52s-2.11.62-2.24,2.52Z"/><path class="cls-1" d="M64.46,90.1v-.94l.86-.1c.24,0,.27-.09.27-.34V82.89c0-.19-.05-.31-.22-.36l-1-.33.15-.91h2.24L67,82.48l.05,0a3.51,3.51,0,0,1,2.57-1.37,5.4,5.4,0,0,1,1.23.15v2.59l-1.22-.05-.21-1.18c0-.14-.05-.17-.21-.17a3.57,3.57,0,0,0-2,1.08V88.7c0,.27,0,.32.27.34l1.58.14v.93Z"/><path class="cls-1" d="M76.91,83.74l-.21-1.06c0-.12,0-.19-.17-.22a4.46,4.46,0,0,0-1.34-.19c-1.25,0-1.82.55-1.82,1.28,0,1,1,1.18,2.14,1.47,1.34.34,2.79.75,2.79,2.6s-1.66,2.67-3.48,2.67a8.19,8.19,0,0,1-3.1-.58V87.44l1.15.07.21,1.18a.25.25,0,0,0,.21.24,4.83,4.83,0,0,0,1.68.27c1.15,0,1.88-.43,1.88-1.35s-1-1.27-2.07-1.52c-1.34-.31-2.84-.65-2.84-2.54s1.64-2.67,3.41-2.67a7.9,7.9,0,0,1,2.71.48v2.21Z"/><path class="cls-1" d="M85.54,90.1v-.94L87.31,89c.24,0,.27-.09.27-.34V78.91H84.93c-.19,0-.24,0-.27.19l-.27,1.49H83.23V77.7H93.51v2.9H92.36l-.27-1.49c0-.17-.09-.19-.27-.19H89.16V88.7c0,.24,0,.31.27.32l1.88.14v.94Z"/><path class="cls-1" d="M98.82,90.1,98.67,89l-.05,0a4.37,4.37,0,0,1-3.1,1.34A2.13,2.13,0,0,1,93.1,88c0-1.71,1.06-2.52,3.12-2.69l2.31-.19v-.91c0-1.25-.24-1.87-1.73-1.87-1,0-1.8,0-1.82,1.32l-1.47-.15c0-2.11,2-2.35,3.31-2.35,2.43,0,3.26.69,3.26,3v4.54c0,.27,0,.31.27.34l.87.12v.93Zm-.29-3.94-1.94.17c-1.47.14-1.88.57-1.88,1.46s.39,1.3,1.2,1.3a4.46,4.46,0,0,0,2.62-1.32Z"/><path class="cls-1" d="M102.09,90.1v-.94l1.06-.1c.24,0,.27-.09.27-.34v-10c0-.19-.05-.31-.22-.36l-1-.33.15-.91H105V88.71c0,.27,0,.31.27.34l1,.12v.93Z"/><path class="cls-1" d="M112.58,90.1v-.93l1.08-.14-2.14-3.55-1.44,1.61v1.61c0,.27,0,.31.27.34l1,.12v.93h-4.2v-.94l1.06-.1c.24,0,.27-.09.27-.34v-10c0-.19-.05-.31-.22-.36l-1-.33.15-.91h2.66v8.24l3.63-4.11h1.9v.93l-1,.21a.61.61,0,0,0-.43.26l-1.56,1.75,2.6,4.32c.14.21.21.22.5.27l.89.15v.93Z"/><path class="cls-1" d="M117.47,91.83,118,90a.13.13,0,0,0-.09-.17l-.6-.24.38-1.42c1.1,0,1.87.17,1.87,1.1a2.23,2.23,0,0,1-.27.91l-1,1.92Z"/><path class="cls-1" d="M134.52,90.1l-2.16-7.95-2.3,7.95h-2l-2.84-11a.35.35,0,0,0-.34-.33l-1-.17.17-.93h4.3v.93l-1.52.17,2.3,9.61,2.33-8.21h1.76l2.33,8.34L138,78.79l-1.56-.17.17-.93h4v.93l-.89.15c-.24,0-.31.09-.38.34l-2.76,11Z"/><path class="cls-1" d="M147.27,89.53a6.27,6.27,0,0,1-3.12.77c-3.1,0-4.11-2-4.11-4.59,0-3.14,1.75-4.59,3.91-4.59s3.53,1.13,3.53,4.09c0,.22,0,.57,0,.86h-5.76c.05,1.73.75,2.91,2.62,2.91a4.93,4.93,0,0,0,2.47-.62Zm-1.35-4.64c0-2-.93-2.52-2-2.52s-2.11.62-2.24,2.52Z"/><path class="cls-1" d="M153,90.1v-.93l1.08-.12c.24,0,.27-.09.27-.34V79.1c0-.26,0-.32-.27-.34L153,78.64V77.7h4.63v.94l-1.42.14c-.26,0-.27.09-.27.32v9.78h4.35c.19,0,.24,0,.27-.19l.27-1.54h1.15V90.1Z"/><path class="cls-1" d="M163.21,90.1v-.94l1.13-.1c.24,0,.27-.09.27-.34V82.89c0-.19-.05-.31-.22-.36l-1-.33.15-.91h2.6v7.42c0,.27,0,.31.27.34l1.1.12v.93Zm2-10.71a1.09,1.09,0,1,1,0-2.18,1.09,1.09,0,1,1,0,2.18Z"/><path class="cls-1" d="M173.73,83.74l-.21-1.06c0-.12,0-.19-.17-.22a4.45,4.45,0,0,0-1.34-.19c-1.25,0-1.82.55-1.82,1.28,0,1,1,1.18,2.14,1.47,1.34.34,2.79.75,2.79,2.6s-1.66,2.67-3.48,2.67a8.18,8.18,0,0,1-3.1-.58V87.44l1.15.07.21,1.18a.25.25,0,0,0,.21.24,4.82,4.82,0,0,0,1.68.27c1.15,0,1.88-.43,1.88-1.35s-1-1.27-2.07-1.52c-1.34-.31-2.84-.65-2.84-2.54s1.64-2.67,3.41-2.67a7.91,7.91,0,0,1,2.71.48v2.21Z"/><path class="cls-1" d="M182.31,89.77a6.47,6.47,0,0,1-2.38.53c-1.64,0-2.38-.77-2.38-2.31V82.65c0-.1,0-.17-.14-.17h-1.25v-1c1.34-.17,1.71-.7,1.94-2.45h1v2.09c0,.1,0,.17.14.17h2.52v1.18H179.1v5.05c0,1.08.26,1.49,1.23,1.49a4.48,4.48,0,0,0,1.59-.34Z"/><path class="cls-1" d="M190.12,89.53a6.27,6.27,0,0,1-3.12.77c-3.1,0-4.11-2-4.11-4.59,0-3.14,1.75-4.59,3.91-4.59s3.53,1.13,3.53,4.09c0,.22,0,.57,0,.86h-5.76c.05,1.73.75,2.91,2.62,2.91a4.93,4.93,0,0,0,2.47-.62Zm-1.35-4.64c0-2-.93-2.52-2-2.52s-2.11.62-2.24,2.52Z"/><path class="cls-1" d="M197.38,90.1v-.94l.82-.1c.22,0,.31-.1.31-.34V84.65c0-1.11-.22-2.19-1.49-2.19a4.32,4.32,0,0,0-2.66,1.1v5.16c0,.27,0,.31.27.34l1,.12v.93h-3.92v-.94l.86-.1c.24,0,.27-.09.27-.34V82.89c0-.19-.05-.31-.22-.36l-1-.33.15-.91H194l.14,1,.05,0a5.49,5.49,0,0,1,3.17-1.2c2,0,2.71,1.27,2.71,3.14v4.46c0,.27,0,.31.27.34l1,.12v.93Z"/><path class="cls-2" d="M53.94,58.26a24.27,24.27,0,0,1-9.4,1.57c-13.37,0-19.34-7.69-19.34-16.55,0-11.46,9-17.62,19.83-17.62,4.26,0,7.83.78,9.45,1.66l-1.91,7.15a18.91,18.91,0,0,0-7.2-1.37c-5.53,0-10.43,3-10.43,9.55,0,5.68,3.87,9.64,10.67,9.64a20.71,20.71,0,0,0,6.9-1.13Z"/><path class="cls-2" d="M79.69,53.26a34,34,0,0,0,.39,6H71.76l-.49-2.06h-.2c-1.76,2-4.31,2.64-7,2.64-5.29,0-8.42-3.67-8.42-7.59,0-6.46,5.78-9.45,14.88-9.45v-.15c0-.88-.59-2-4.21-2A16.75,16.75,0,0,0,59,42.59l-1.62-5.78a22.81,22.81,0,0,1,10.53-2.25c8.27,0,11.8,4.16,11.8,10.62Zm-8.91-4.89c-4.06,0-6,1-6,3,0,1.37.93,2.15,2.64,2.15A3.56,3.56,0,0,0,70.68,51a5.78,5.78,0,0,0,.1-1.32Z"/><path class="cls-2" d="M82.63,43.52c0-3.43-.1-6.22-.2-8.37h8l.39,3.18h.1C93,35.74,96,34.56,99.61,34.56c4.8,0,10.67,3.82,10.67,12.24,0,9-6.36,13-11.95,13-3,0-5.39-1-6.36-2.35h-.1V69H82.63Zm9.25,4.6a11.1,11.1,0,0,0,0,1.27A4.26,4.26,0,0,0,96,52.92c2.89,0,4.8-2.06,4.8-5.58,0-3.08-1.47-5.73-4.7-5.73a4.4,4.4,0,0,0-4.21,3.77,6.58,6.58,0,0,0,0,1Z"/><path class="cls-2" d="M115.07,33.78h-9.3V26.24h28.05v7.54h-9.5V59.24h-9.25Z"/><path class="cls-2" d="M137.81,50.28c.34,1.81,3.43,2.79,6.61,2.79a23.17,23.17,0,0,0,7.2-1l1.17,6.07a25.38,25.38,0,0,1-9.64,1.66c-9,0-14.1-4.85-14.1-12.48,0-4.75,3.28-12.78,13.22-12.78,8.62,0,11.9,6.41,11.9,12.53a14.85,14.85,0,0,1-.34,3.18Zm7.78-6.22a3.61,3.61,0,0,0-3.77-3.62,4.12,4.12,0,0,0-4.16,3.62Z"/><path class="cls-2" d="M177.32,58.7a19.68,19.68,0,0,1-7.44,1.13C161.36,59.83,156,55,156,47.39c0-6.61,4.7-12.83,14.93-12.83a20.91,20.91,0,0,1,6.22.88l-1.37,6.71a11,11,0,0,0-4.31-.69c-3.48,0-6,2.25-5.92,5.58,0,4,3,5.68,6.27,5.68a12.07,12.07,0,0,0,4.41-.68Z"/><path class="cls-2" d="M179.53,24.19h9.25V37.7h.1A8.24,8.24,0,0,1,192,35.4a8.85,8.85,0,0,1,3.77-.83c5.58,0,9.15,3.72,9.15,10.77v13.9h-9.25V46.71c0-3.13-1.13-4.8-3.52-4.8a3.25,3.25,0,0,0-3.13,2,3.12,3.12,0,0,0-.2,1.32v14h-9.25Z"/><path class="cls-2" d="M209.52,53.43a3,3,0,0,1,1.43.37A2.7,2.7,0,0,1,212,54.88a2.91,2.91,0,0,1,0,2.9A2.74,2.74,0,0,1,211,58.85a2.91,2.91,0,0,1-2.89,0A2.74,2.74,0,0,1,207,57.78a2.91,2.91,0,0,1,0-2.9,2.7,2.7,0,0,1,1.08-1.07A3,3,0,0,1,209.52,53.43Zm0,.57a2.37,2.37,0,0,0-1.15.3,2.17,2.17,0,0,0-.87.86,2.34,2.34,0,0,0,0,2.34,2.21,2.21,0,0,0,.86.86,2.32,2.32,0,0,0,2.32,0,2.23,2.23,0,0,0,.86-.86,2.34,2.34,0,0,0,0-2.34,2.17,2.17,0,0,0-.87-.86A2.38,2.38,0,0,0,209.52,54Zm-1.31,3.89V54.81h1.61a1.21,1.21,0,0,1,.48.12.77.77,0,0,1,.29.3.87.87,0,0,1,.12.44.81.81,0,0,1-.22.57,1,1,0,0,1-.61.29.76.76,0,0,1,.22.12,1.56,1.56,0,0,1,.21.24l.23.38.36.62h-.77l-.26-.5a2.08,2.08,0,0,0-.43-.63.69.69,0,0,0-.43-.13h-.16v1.27Zm.62-1.75h.25a3.06,3.06,0,0,0,.67,0,.39.39,0,0,0,.28-.38.38.38,0,0,0-.07-.23.41.41,0,0,0-.21-.14,3,3,0,0,0-.67,0h-.25Z"/></svg>