<svg xmlns="http://www.w3.org/2000/svg" width="190" height="41" viewBox="0 0 190 41"><path d="M72.68 40.46h-2.52c-8.33 0-15.11-6.74-15.11-15.03V3.4c0-1.15.94-2.08 2.09-2.08 1.16 0 2.1.93 2.1 2.08v22.03c0 5.99 4.9 10.87 10.92 10.87h2.52c6.03 0 10.93-4.88 10.93-10.87V3.4c0-1.15.93-2.08 2.09-2.08 1.15 0 2.09.93 2.09 2.08v22.03c0 8.29-6.78 15.03-15.11 15.03zm102.21 0h-2.52c-8.33 0-15.11-6.74-15.11-15.03V3.4c0-1.15.94-2.08 2.09-2.08 1.16 0 2.1.93 2.1 2.08v22.03c0 5.99 4.9 10.87 10.92 10.87h2.52c6.03 0 10.93-4.88 10.93-10.87V3.4c0-1.15.93-2.08 2.09-2.08 1.15 0 2.09.93 2.09 2.08v22.03c0 8.29-6.78 15.03-15.11 15.03zM33.86 26.54c-.03.2-.06.4-.12.61-.26 1.04-.78 2.14-1.5 3.18-.6.87-1.47 1.75-2.66 2.68-1.01.78-2.1 1.45-3.26 1.96-1.18.53-2.43.91-3.7 1.14-.89.15-1.79.23-2.7.23-8.68 0-15.74-7.11-15.74-15.84S11.24 4.66 19.92 4.66c4.67 0 9.07 2.07 12.07 5.68.74.88 2.05 1 2.95.27a2.07 2.07 0 0 0 .27-2.93C31.41 3.12 25.84.5 19.92.5 8.94.5 0 9.47 0 20.5s8.94 20 19.92 20c1.15 0 2.29-.1 3.42-.29 1.62-.28 3.2-.77 4.7-1.44 1.47-.66 2.85-1.5 4.12-2.49 1.53-1.2 2.69-2.37 3.53-3.6 1-1.44 1.72-3 2.11-4.51.32-1.28.36-2.51.15-3.67-1.13.67-3.38 1.71-4.09 2.04zm8.2-10.27c-.82-.81-2.14-.8-2.96.02a22.555 22.555 0 0 1-4.17 3.34c-.58-.46-1.25-.87-1.98-1.23-1.12-.54-2.39-.95-3.78-1.23a21.62 21.62 0 0 0-4.17-.39c-2.06 0-3.35.78-4.07 1.44-.98.9-1.54 2.18-1.54 3.49 0 2.36 1.88 4.87 5.37 4.87 3.2 0 6.21-.57 9.02-1.72v.01c1.54-.71 2.67-1.24 3.74-1.94 0-.01 0-.01-.01-.01 1.61-1.02 3.13-2.26 4.57-3.71.81-.81.8-2.13-.02-2.94zm-17.3 6.15c-.73 0-1.19-.27-1.19-.71 0-.11.04-.28.2-.43.24-.22.68-.34 1.23-.34 1.17 0 2.3.11 3.35.31.63.13 1.21.29 1.76.48-1.7.46-3.47.69-5.35.69zm114.18 14.29c-3.9-4.62-6.47-8.13-8.54-10.94-.13-.18-.25-.35-.38-.52 1.83-.68 3.58-1.63 5.02-2.96 2.43-2.23 3.66-5.15 3.66-8.67 0-3.57-1.09-6.45-3.25-8.59-3.56-3.52-8.72-3.54-8.92-3.53h-17.68c-1.15 0-2.09.94-2.09 2.08v34.37c0 1.15.94 2.08 2.09 2.08 1.16 0 2.09-.93 2.09-2.08V5.67h15.6c.06 0 3.67.04 5.96 2.32 1.34 1.32 2.02 3.21 2.02 5.63 0 2.34-.76 4.17-2.31 5.6-1.32 1.21-3.05 2.02-4.85 2.55-2.65-3.21-4.89-4.71-9.29-4.71-3.69 0-5.62 2.48-5.62 4.94 0 2.34 1.85 4.82 5.29 4.87.52.03 3.05.18 6.2-.2a23.537 23.537 0 0 0-3.69-3.92c-1.35.03-2.23-.04-2.26-.04h-.17c-.73-.01-1.18-.28-1.18-.71 0-.47.56-.78 1.43-.78 1.68 0 2.79.23 3.91 1.04v-.01c1.15.83 2.31 2.26 4.09 4.67 0 0 .61.83.95 1.3 2 2.72 4.73 6.44 8.71 11.17.42.49 1.01.74 1.61.74.47 0 .95-.16 1.34-.49.89-.74 1-2.05.26-2.93z" fill="#0C9" fill-rule="evenodd"/></svg>