<?xml version="1.0" encoding="utf-8"?>
<!-- Generator: Adobe Illustrator 19.1.0, SVG Export Plug-In . SVG Version: 6.00 Build 0)  -->
<svg version="1.1" id="Layer_1" xmlns="http://www.w3.org/2000/svg" xmlns:xlink="http://www.w3.org/1999/xlink" x="0px" y="0px"
	 viewBox="0 0 593.4 504.7" style="enable-background:new 0 0 593.4 504.7;" xml:space="preserve">
<style type="text/css">
	.st0{display:none;fill:#FFFFFF;}
	.st1{fill:#FFFFFF;}
	.st2{display:none;}
	.st3{display:inline;}
	.st4{fill:#B53204;}
	.st5{fill:#751B00;}
	.st6{fill:#C53C02;}
</style>
<rect x="-343.7" y="-191.7" class="st0" width="1280" height="800"/>
<g>
	<path class="st1" d="M138.4,81.9c0-0.8,0.7-1.5,1.6-1.5h7.9c0.9,0,1.6,0.7,1.6,1.5v44.2h21.8c0.9,0,1.6,0.7,1.6,1.5v6.5
		c0,0.8-0.7,1.5-1.6,1.5H140c-0.9,0-1.6-0.7-1.6-1.5V81.9z M221.2,79.6c17.1,0,30.8,12.7,30.8,28.4c0,15.7-13.7,28.3-30.8,28.3
		c-17.1,0-30.7-12.5-30.7-28.3C190.5,92.3,204.1,79.6,221.2,79.6z M221.2,126.1c10.8,0,19.7-8.1,19.7-18c0-9.9-8.9-18.2-19.7-18.2
		c-10.8,0-19.6,8.3-19.6,18.2C201.6,118,210.4,126.1,221.2,126.1z M303.5,79.6c8.6,0,14.9,2.5,20.7,7.3c0.8,0.6,0.8,1.6,0.1,2.2
		l-5.2,5c-0.6,0.6-1.5,0.6-2.1,0c-3.6-2.9-8.4-4.6-13.2-4.6c-11,0-19.1,8.4-19.1,18.3c0,9.8,8.2,18.2,19.2,18.2
		c5.1,0,9.5-1.8,13.1-4.5c0.7-0.6,1.6-0.5,2.1,0l5.3,5c0.7,0.6,0.5,1.6-0.1,2.1c-5.8,5.2-13.2,7.6-20.8,7.6
		c-17.1,0-30.9-12.5-30.9-28.3C272.6,92.3,286.4,79.6,303.5,79.6z M341.4,133.5l26.6-53c0.3-0.5,0.7-0.9,1.5-0.9h0.9
		c0.9,0,1.2,0.4,1.5,0.9l26.4,53c0.5,1-0.2,2-1.5,2h-7.5c-1.3,0-1.9-0.5-2.5-1.6l-4.2-8.5H357l-4.2,8.5c-0.3,0.8-1.1,1.6-2.5,1.6
		h-7.5C341.6,135.6,340.9,134.5,341.4,133.5z M378.4,116.7l-8.6-17.3h-0.3l-8.4,17.3H378.4z M419.7,81.9c0-0.8,0.7-1.5,1.6-1.5h7.9
		c0.9,0,1.6,0.7,1.6,1.5v44.2h21.8c0.9,0,1.6,0.7,1.6,1.5v6.5c0,0.8-0.7,1.5-1.6,1.5h-31.3c-0.9,0-1.6-0.7-1.6-1.5V81.9z"/>
	<g>
		<path class="st1" d="M224.8,343.4h-23c-1,0-1.7,0.8-1.7,1.7v59.1c0,0.9,0.8,1.7,1.7,1.7h23c18.7,0,34.1-14,34.1-31.4
			C258.9,357.4,243.5,343.4,224.8,343.4z M223.6,395h-11.1v-40.8h11.1c12.6,0,21.8,8.8,21.8,20.4C245.5,386.3,236.2,395,223.6,395z"
			/>
		<path class="st1" d="M331,403.6l-29.9-60.1c-0.3-0.5-0.7-1-1.7-1h-1c-0.9,0-1.4,0.4-1.6,1l-30.2,60.1c-0.6,1.2,0.2,2.3,1.7,2.3
			h8.4c1.6,0,2.4-0.9,2.8-1.8l4.8-9.6h29l4.8,9.6c0.7,1.2,1.4,1.8,2.8,1.8h8.4C330.8,405.9,331.6,404.8,331,403.6z M289.1,384.6
			l9.5-19.7h0.3l9.7,19.7H289.1z"/>
		<g>
			<path class="st1" d="M357.3,375.8L335.2,346c-0.8-1.2,0-2.6,1.6-2.6h9.9c0.8,0,1.3,0.4,1.6,0.8l15.5,20.5l15.5-20.5
				c0.3-0.4,0.8-0.8,1.6-0.8h10c1.6,0,2.3,1.4,1.6,2.6l-22.4,29.7v28.5c0,0.9-0.9,1.7-1.8,1.7h-8.9c-1.1,0-1.8-0.8-1.8-1.7V375.8z"
				/>
		</g>
	</g>
	<g>
		<g>
			<g>
				<path class="st1" d="M129.3,240.4c0-4.9,0-9.8,0.1-14.6c0,0,0,0,0,0c0,0,0,0,0,0c0-0.1,0-0.3,0-0.4c0,0,0,0,0,0c0,0,0,0,0,0
					c0-6.8,0.1-13.5,0.1-20.3c-0.1,0-0.1,0-0.2,0.1c0-0.4-0.2-0.6-0.2-1c0.2,0,0.3-0.1,0.3-0.2c0,0,0.1,0,0.1,0.1
					c0-3.7,0-7.4,0.1-11.1c0-0.2,0-0.4,0-0.5c0,0,0,0,0,0c0-0.8,0-1.6,0-2.4c0,0,0-0.1,0-0.1c0,0,0,0,0,0c0-4.9,0-9.8,0.1-14.7
					c0,0,0-0.1,0-0.1c0,0,0,0,0,0c0-0.7,0-1.3,0-2c-0.2-0.2,0-0.8-0.3-1c0.1,0,0.2,0,0.2,0c0,0,0,0.1,0,0.1c0-2.9,0-5.8,0-8.7
					c-0.3,0-0.5,0-0.8,0c0,0.1,0,0.2,0,0.3c-0.2-0.1-0.2-0.2-0.3-0.3c-1.7,0-3.4,0-5.1,0c0.1,0.3-0.2,0.6,0.1,0.6
					c-0.1,0.1-0.3,0.1-0.5,0.2c0.1-0.2-0.2-0.7,0.3-0.8c-1,0-1.9,0-2.9,0c0,0.2-0.2,0.2,0.1,0.2c-0.1,0.1-0.1,0.3-0.3,0.2
					c0.1-0.1-0.1-0.4,0.2-0.5c-0.1,0-0.1,0-0.2,0c0,0.1-0.1,0.2-0.1,0.2c-0.1-0.1-0.1-0.1-0.1-0.2c-1.9,0-3.8,0-5.7,0
					c0.1,0.2,0.2,0.5,0,0.5c0.1,0.4,0.4,0.4,0.2,0.9c-0.2,0-0.3,0-0.5,0c0.3-0.2,0.4-0.9-0.2-1c0.1-0.2,0.3-0.1,0.5,0
					c0-0.2-0.1-0.3-0.2-0.4c-1.9,0-3.8,0-5.7,0c-0.1,0.1-0.2,0.2-0.1,0.2c0,0.2-0.2,0-0.2-0.2c-1.4,0-2.8,0-4.2,0c0,0.1,0,0.2,0,0.3
					c-0.1,0-0.1-0.2,0-0.2c-0.1,0-0.1-0.1-0.2-0.1c-1,0-1.9,0-2.9,0c0,0-0.1,0.1-0.1,0.1c0,0,0-0.1,0-0.1c-0.8,0-1.6,0-2.3,0
					c0,0.1,0.1,0.3,0.2,0.3c-0.3,0.2-0.5,0-0.6-0.2c0,0,0-0.1,0-0.1c-1.7,0-3.5,0-5.2,0c0,0.2,0,0.4,0.1,0.7
					c-0.2,0.2-0.5,0.1-0.7,0.1c0-0.3-0.1-0.5-0.1-0.7c-0.2,0-0.5,0-0.7,0c0,0.8,0,1.5,0,2.3c0,0,0,0.1,0,0.1c0,0,0,0,0,0
					c0,0.8,0,1.7,0,2.5c0.1,0.1,0.2,0.2,0.3,0.2c0.1,0.2-0.1,0.1-0.3,0.2c0,0.7,0,1.4,0,2c0.2,0.3,0.3,0.7,0.1,1
					c-0.1-0.1-0.1-0.1-0.2-0.2c0,3.7,0,7.3,0,11c0,0.1,0.1,0.1,0.1,0.2c-0.1,0-0.1,0-0.1,0c0,1.9,0,3.8,0,5.7c0.1,0,0.1-0.1,0.2,0
					c0.1,0.1,0.1,0.5,0,0.6c-0.1-0.1-0.2-0.1-0.2-0.3c0,1,0,1.9,0,2.9c0.1,0.2,0.1,0.4,0,0.6c0,0.8,0,1.7,0,2.5
					c0.1,0.3,0.2,0.7,0.1,0.9c0,0-0.1-0.1-0.1-0.1c0,0.7,0,1.4,0,2.2c0.3,0.3,0.3,0.8,0.3,1.2c-0.2,0-0.3,0-0.3-0.1
					c0,6.7-0.1,13.5-0.1,20.2c0,0,0.1,0.1,0.2,0.1c-0.2,0.3,0.1,0.7-0.2,0.9c0,0,0,0,0,0c0,0.7,0,1.4,0,2c0,0,0,0,0,0
					c0.1,0.3,0.5,0.7,0.2,1.1c-0.1,0-0.2,0-0.3-0.1c0,0.6,0,1.2,0,1.8c-1.3,0.1-2.7,0.2-4,0.3c0,0.2-0.4,0.1-0.6,0.2
					c0,0,0-0.1,0-0.1c-0.8,0.1-1.6,0.1-2.3,0.2c-0.1,0.2-0.3,0.3-0.6,0.2c0-0.1,0-0.1-0.1-0.1c-0.4,0-0.8,0.1-1.2,0.1
					c0,0.6,0.5,1.2,0.1,1.7c-0.4-0.4-0.4-1.1-0.4-1.7c-0.4,0-0.8,0.1-1.1,0.1c-0.1,0-0.1,0-0.2,0c-0.5,0-1,0.1-1.5,0.1
					c0.4,0.2,0.4,1,0.5,1.6c-0.1,0-0.1-0.1-0.1-0.2c-0.1,0.1-0.1,0.3-0.4,0.2c-0.2-0.8,0.1-1.3-0.1-1.7c-0.3,0-0.7,0-1,0.1
					c-0.1,0-0.2,0-0.3,0c-0.4,0-0.9,0.1-1.3,0.1c0.2,0.3,0.4,0.9,0.4,1.5c-0.1,0.2-0.4,0.2-0.7,0.2c0.1-0.6-0.1-1.1-0.1-1.6
					c-0.8,0.1-1.6,0.1-2.4,0.2c0.1,0.5,0,1.2-0.1,1.7c-0.7-0.1-0.7-0.9-0.6-1.6c-0.8,0.1-1.6,0.1-2.5,0.2c0.1,0.5,0.2,0.9,0.1,1.5
					c-0.7,0.2-0.8-1.4-0.6-1.4c0,0,0-0.1-0.1-0.1c-1,0.1-2,0.1-2.9,0.2c0,0,0,0,0,0c0,0,0,0,0,0c-1,0.1-1.9,0.1-2.9,0.2
					c0.3,0.3,0.5,1,0.2,1.4c-0.6,0-0.6-0.9-0.5-1.4c-1,0.1-1.9,0.1-2.9,0.2c0.3,0.4,0.3,0.9,0.3,1.3c-0.1,0-0.3,0-0.4,0
					c0.1-0.5-0.2-0.9-0.1-1.3c-0.8,0.1-1.7,0.1-2.5,0.2c0,0.2,0.1,0.5,0.4,0.7c-0.1,0.3-0.3,0.4-0.3,0.7c-0.2,0.1-0.3-0.4-0.3,0
					c-0.1-0.3-0.1-0.8-0.2-1.2c-0.1,0.2-0.2,0.1-0.1-0.1c-0.9,0.1-1.8,0.1-2.6,0.2c0.1,0.4,0.2,0.8,0.3,1.1
					c-0.1,0.1-0.3,0.2-0.5,0.2c-0.1-0.5-0.1-0.8-0.2-1.2c-0.9,0.1-1.8,0.1-2.8,0.2c0.1,0.4,0.1,0.7,0,1c-0.3-0.1-0.2-0.7-0.2-0.8
					c-0.1,0-0.2-0.1-0.2-0.2c-0.8,0.1-1.6,0.1-2.4,0.2c0.1,0.3,0,0.7,0,1c-0.4-0.1-0.4-0.5-0.5-0.9c-0.8,0.1-1.6,0.1-2.4,0.2
					c0-4.8,0-9.6,0-14.4c-0.1,0-0.1,0.1-0.1,0.1c-0.2,0-0.1-0.3-0.2-0.2c0.1-0.2,0.2-0.2,0.4-0.2c0-3.7,0-7.4,0-11.1c0,0,0,0,0,0
					c0,0,0,0,0,0c0-1.4,0-2.8,0-4.2c0,0,0,0,0,0c-0.1,0-0.1-0.1,0-0.1c0-0.3,0-0.6,0-0.9c0,0,0,0-0.1,0c-0.1-0.4,0-0.6,0.1-0.8
					c0-0.6,0-1.1,0-1.7c-0.1,0-0.2-0.1-0.3-0.2c0-0.1,0-0.1,0.1-0.1c0-0.1,0-0.1,0-0.2c0.1,0,0.1,0.2,0.2,0.2c0,0,0,0,0,0
					c0-0.1,0-0.2,0-0.3c-0.1-0.1-0.2-0.2-0.2-0.4c0.1,0,0.2,0,0.2,0c0,0,0,0,0,0c0,0-0.2-0.1-0.1-0.3c0,0,0.1,0,0.1,0
					c0-0.2,0-0.4,0-0.6c0,0,0,0,0,0c-0.1-0.1-0.2-0.1-0.3-0.1c0-0.1,0.1-0.1,0.2-0.1c0.1-0.1,0.2-0.2,0.2-0.4c0,0,0,0,0,0
					c0-0.4,0-0.7,0-1.1c0,0,0,0,0,0c0,0,0,0,0-0.1c0-0.1,0-0.1,0-0.2c0,0,0,0,0,0c-0.2,0.1,0.1-0.4-0.1-0.2c0-0.2,0-0.4-0.1-0.8
					c0.1,0,0.2,0,0.2,0c0-0.5,0-0.9,0-1.4c0,0-0.1,0-0.1,0c0.3-0.4-0.7-1.3,0.1-1.7c-0.1-0.2-0.1-0.1-0.3-0.1c0-0.2,0.2-0.2,0.4-0.3
					c0-0.5,0-0.9,0-1.4c-0.1,0-0.1,0-0.1,0c0,0,0-0.4,0.1-0.5c0,0,0,0,0,0c-0.4-0.3-0.4-0.9-0.1-1.3c0,0,0,0,0.1,0
					c0-0.4,0-0.8,0-1.2c-0.1-0.1-0.2-0.6-0.1-0.9c0,0,0.1,0,0.1,0c0,0,0-0.1,0-0.1c-0.1,0-0.2,0.1-0.3,0c-0.1-0.4,0.2-0.6,0.1-0.9
					c0.1,0,0.2-0.1,0.2-0.2c0-0.1,0-0.2,0-0.3c-0.1,0-0.2,0.1-0.1,0.2c-0.2,0,0-0.3,0-0.3c0.1,0,0.1,0,0.1,0c0-0.4,0-0.7,0-1.1
					c-0.1-0.2-0.3-0.5-0.4-0.6c0.3-0.3,0.3-0.8,0-1.1c0.2,0.4,0.3-0.1,0.4-0.3c0-0.1,0-0.3,0-0.4c-0.1,0-0.3-0.1-0.4-0.1
					c0-0.2,0.3-0.6,0.1-0.7c0.1-0.2,0.1-0.1,0.3-0.1c0,0,0,0,0,0c0-0.1-0.2-0.1-0.2-0.4c0.1,0,0.1,0,0.2,0.1c0-0.2,0-0.3,0-0.5
					c-0.1,0-0.2-0.1-0.2-0.1c0-0.1,0.1-0.1,0.2-0.1c0,0,0,0,0,0c0-0.1-0.3,0-0.3-0.2c0-0.1,0.2,0,0.3-0.1c0-0.3,0-0.7,0-1
					c-0.1,0-0.1,0-0.2,0c0.1-0.2,0.1-0.5-0.2-0.4c-0.2-0.3,0.3-0.4,0.1-0.4c0-0.1,0.1,0,0.1,0c0.1,0,0.2-0.1,0.2-0.2
					c0.1,0,0.1,0.1,0.1,0.1c0-0.8,0-1.5,0-2.3c-0.1,0-0.3-0.1-0.5,0c0-0.9-0.1-1.1-0.1-1.6c0.6,0.2,0.3,0.9,0.5,1.5c0,0,0.1,0,0.1,0
					c0-0.1,0-0.2,0-0.3c-0.1,0-0.1-0.1-0.1-0.2c0,0,0.1,0,0.1,0c0-0.9,0-1.8,0-2.7c-0.1,0-0.2,0.1-0.4,0.1c-0.1-0.1,0-0.2-0.2-0.2
					c0-0.3,0.2-0.2,0.2-0.4c-0.2,0.2-0.2-0.5-0.2-0.6c0.4,0,0.4,0.5,0.6,0.7c0-0.8,0-1.6,0-2.4c-0.4,0-0.8,0-1.2,0c0,0,0,0.1,0,0.1
					c-0.2,0-0.3-0.1-0.6-0.1c0.4,0.1,0.3,0.3,0.1,0.6c0.2,0.1,0.2,0.3,0.3,0.5c-0.1,0.1-0.2,0.3-0.5,0.2c0-0.5,0-1-0.1-1.4
					c-0.3,0-0.7,0-1,0c0,0,0.1,0,0.1,0.1c-0.1,0.2-0.2,0.1-0.3-0.1c-0.9,0-1.8,0-2.8,0c-0.1,0-0.1,0.1-0.2,0
					c0.1,0.2,0.2-0.1,0.3,0.1c0,0.2-0.3,0-0.4,0.1c0-0.1,0-0.1-0.1-0.2c-0.8,0-1.6,0-2.4,0c0,0,0,0.1,0.1,0.1
					c-0.2,0.1-0.2,0-0.3-0.1c-0.9,0-1.9,0-2.8,0c0,0.1,0,0.3,0,0.4c-0.1,0-0.2,0-0.3,0c-0.1-0.1,0-0.3,0.1-0.4c-0.9,0-1.8,0-2.7,0
					c0,0.2,0,0.3,0,0.5c-0.3-0.1-0.3-0.3-0.2-0.5c-0.8,0-1.5,0-2.3,0c0.1,0.1,0.1,0.3,0.1,0.6c-0.3,0-0.2-0.3-0.2-0.6
					c-1,0-2.1,0-3.1,0c0.1,0.1,0.2,0.1,0.2,0.3c-0.1,0.3-0.1,0.1,0,0.4c-0.1-0.2-0.4-0.4-0.5-0.7c-0.9,0-1.8,0-2.7,0
					c0,0.1,0.1,0.2,0,0.3c0.3-0.2,0.3,0,0.3,0.3c-0.1,0.3,0-0.3-0.2-0.2c-0.2,0,0,0.3-0.1,0.4c-0.4-0.1-0.1-0.6-0.2-0.8
					c-4.9,0-9.8,0-14.7,0c0,12,0,24,0,36c0.1-0.2,0-0.3,0.2-0.5c0.2,0.1,0,0.5-0.2,0.5c0,31.4,0,62.7,0,94.1c0.1-0.1,0.3-0.1,0.3,0
					c0,0.1-0.1,0.1-0.1,0c0,0.2-0.1,0.2-0.2,0.3c0,0.3,0,0.7,0,1c0,0,0.1,0,0.1,0c0,0.1-0.1,0.2-0.1,0.3c0,1.7,0,3.3,0,5
					c0,0,0.1-0.1,0.2-0.1c0,0.2,0,0.1,0.1,0.2c-0.2,0.1-0.2,0.1-0.3,0.1c0,0.4,0,0.8,0,1.2c0,0,0,0,0,0c0,0,0,0,0,0
					c0,1.3,0,2.6,0,3.9c0,0,0,0.1,0,0.1c0,0.4,0,0.7,0,1.1c0.1,0,0.1,0,0.2,0c0,0.1-0.1,0.2-0.2,0.3c0,1.7,0,3.3,0,5
					c0.3-0.3,0.5-0.4,0.9-0.5c0.1,0.4-0.7,0.6-0.7,1c-0.1,0-0.2,0.1-0.2,0.1c0,2,0,4,0,6c0.1-0.1,0.2-0.2,0.2-0.3c0.1,0,0.1,0,0.2,0
					c0,0.2-0.3,0.4-0.3,0.7c-0.1,0-0.1,0-0.2,0.1c0,1.7,0,3.4,0,5c0.1,0,0.1,0,0.2,0c-0.1,0.1-0.1,0.2-0.2,0.3c0,4,0,8.1,0,12.2
					c0.2-0.2,0.4-0.3,0.7-0.5c0,0.1,0.1,0.1,0.1,0.1c0,0.1-0.1,0.1-0.1,0.1c0.1,0.1-0.1,0.4-0.2,0.6c-0.2,0-0.4,0.1-0.5,0.1
					c0,0.3,0,0.7,0,1c0,0,0,0,0.1-0.1c0.1,0.2-0.2,0.2,0.1,0.4c-0.1,0-0.1,0-0.1,0c0,1.7,0,3.4,0,5.1c0.1-0.1,0.2,0,0.4-0.1
					c-0.1,0.1-0.2,0.4-0.4,0.4c0,1.8,0,3.5,0,5.3c0.1-0.2,0.4-0.3,0.7-0.4c0.1,0.2,0,0.3-0.1,0.5c3.1-0.7,6.2-1.5,9.4-2.2
					c-0.1,0-0.2,0-0.3-0.1c0-0.4,0.8-0.9,1.1-0.8c-0.1,0.3-0.5,0.6-0.7,0.9c1.9-0.4,3.8-0.9,5.7-1.3c0.1-0.1,0.2-0.1,0.3-0.2
					c0,0,0,0.1-0.1,0.1c1.2-0.3,2.4-0.5,3.6-0.8c-0.1,0-0.1,0-0.1-0.1c0.1,0,0.1-0.1,0-0.1c0.1-0.2,0.5-0.4,0.5-0.5
					c0.2,0.1,0,0.5-0.3,0.6c2.4-0.5,4.9-1.1,7.3-1.6c0,0,0,0,0,0c1.2-0.3,2.4-0.5,3.7-0.8c0-0.2,0.3-0.3,0.3-0.5
					c0.1,0,0.1,0.1,0.2,0.2c-0.1,0.1-0.2,0.1-0.2,0.2c-0.1-0.1-0.1,0-0.2,0.1c2.3-0.5,4.6-1,6.9-1.5c0-1,0-2.1,0-3.1
					c0,0.1-0.1,0.2-0.3,0.3c-0.3-0.1,0-0.3-0.2-0.3c0-0.3,0.3-0.3,0.5-0.3c0-2,0-4,0-6.1c-0.2,0-0.4,0.1-0.5,0
					c0.2-0.2,0.3-0.5,0.6-0.7c0-0.3,0-0.5,0-0.8c-0.1,0-0.1,0-0.2-0.1c0.1,0,0.1-0.1,0.2-0.2c0-1.8,0-3.7,0-5.5
					c-0.2,0.2-0.5,0.3-0.6,0.7c-0.2,0.1-0.2-0.2-0.3-0.3c0.2-0.1,0.6-0.6,0.9-0.7c0-0.4,0-0.8,0-1.2c-0.1,0.1-0.1,0.1-0.2,0.2
					c-0.2,0-0.2-0.1-0.3-0.3c0.2-0.2,0.3-0.3,0.5-0.4c0-0.2,0-0.4,0-0.7c-0.1,0-0.2-0.1-0.2-0.2c0.1,0,0.2-0.1,0.2-0.1
					c0-1.2,0-2.5,0-3.7c-0.1,0.1-0.2,0.2-0.1,0.3c-0.3,0.1-0.5,0.2-0.7,0.2c-0.1-0.2,0.4-0.4,0.5-0.4c0.1,0,0.1-0.3,0-0.3
					c0-0.1,0.2-0.2,0.4-0.3c0-0.2,0-0.4,0-0.6c-0.1,0-0.2,0.1-0.3,0.1c-0.1-0.2,0.1-0.4,0.3-0.5c0-1.7,0-3.3,0-5
					c-0.2,0.2-0.4,0.3-0.6,0.5c0.1-0.1,0-0.3-0.2-0.5c0.2-0.1,0.5-0.2,0.5-0.4c0,0.2,0.1,0.1,0.2,0.1c0.1-0.1-0.1,0,0-0.2
					c0.1,0,0.1-0.1,0.2-0.1c0-0.2,0-0.3,0-0.5c-0.2,0-0.4,0-0.5-0.2c0.1-0.1,0.3-0.3,0.5-0.5c0-0.3,0-0.7,0-1c0,0,0,0,0,0
					c0,0,0,0,0,0c0-0.7,0-1.4,0-2.1c-0.3,0.1-0.8,0.4-0.9,0.7c-0.3,0-0.1-0.2-0.1-0.3c-0.2,0.3-0.2-0.4,0-0.4c0,0.1,0.1,0.1,0.1,0.2
					c0.1-0.3,0.4-0.5,0.7-0.7c0.2,0.3,0,0.4,0.1,0.6c0-0.4,0-0.8,0-1.3c0,0.1-0.1,0.2-0.1,0.3c0-0.2-0.3-0.2-0.3,0
					c-0.6-0.4,0.2-0.5,0.5-0.9c0-0.2,0-0.5,0-0.7c-0.1,0-0.1,0-0.2,0.1c-0.1-0.1-0.2-0.3-0.2-0.4c0.1,0,0.2-0.1,0.3-0.1
					c0-1.2,0-2.5,0-3.7c-0.2,0.2-0.5,0.3-0.7,0.5c0.4,0.1-0.1,0.3-0.2-0.1c0.2-0.1,0.5-0.4,0.6-0.6c0.2-0.1,0.3,0.1,0.4,0
					c0-0.3,0-0.6,0-1c-0.2,0.1-0.4,0.2-0.5,0.3c-0.1-0.1-0.1-0.2-0.2-0.4c0.3,0.1,0.5-0.2,0.7-0.4c0-0.3,0-0.6,0-0.8
					c-0.1,0-0.1-0.1-0.2-0.3c0.1,0,0-0.1,0-0.1c0.1,0,0.2-0.1,0.2,0c0-0.8,0-1.5,0-2.3c0,0,0,0-0.1-0.1c-0.3,0.3-0.8,0.7-1.1,1.1
					c-0.2,0.1-0.4-0.4-0.1-0.5c0.3-0.2,0.3-0.3,0.5-0.3c-0.2-0.3,0.2,0,0.3-0.1c0,0,0.1-0.2,0-0.2c0.1-0.1,0.3,0,0.5-0.1
					c0-0.7,0-1.4,0-2.1c-0.1,0-0.2,0.1-0.2,0.1c-0.1-0.2-0.2-0.1-0.2-0.3c0.2-0.1,0.3-0.2,0.4-0.2c0-1.5,0-3,0-4.5
					c-0.1,0.1-0.2,0.2-0.3,0.3c0-0.1,0-0.1,0-0.2c-0.2,0.1,0,0.2,0,0.3c-0.1,0-0.2-0.2-0.3-0.1c-0.2-0.6,0.6-0.5,0.6-1
					c0,0,0.1,0,0.1,0c0-0.2,0-0.5,0-0.7c-0.1,0.1-0.3,0.2-0.4,0.2c-0.1-0.2-0.1-0.3-0.1-0.4c0.1-0.1,0.4-0.1,0.5-0.2
					c0-0.7,0-1.5,0-2.2c0,0-0.1,0.1-0.2,0.1c0-0.1,0.3-0.2,0.1-0.4c0,0,0.1,0,0.1,0c0-0.7,0-1.5,0-2.2c-0.1,0.2-0.4,0.3-0.6,0.3
					c-0.1-0.1,0-0.2,0-0.3c0.1-0.1,0.1,0.1,0.3,0.1c0.1-0.1,0-0.2,0-0.3c0.1,0.1,0.2,0,0.4,0c0,0,0,0,0,0.1c0-0.3,0-0.7,0-1
					c0,0,0,0-0.1,0c-0.1-0.1-0.2-0.2-0.3-0.2c0-0.2,0.1-0.3,0.3-0.4c-0.1,0.1,0,0.1,0,0.1c0-0.1,0-0.2,0-0.2c0,0,0,0,0,0
					c0,0,0,0,0,0c0-0.3,0-0.6,0-0.9c0-0.1-0.1-0.1-0.1-0.2c0,0,0.1,0,0.1,0c0-1.1,0-2.2,0-3.4c-0.3,0-0.3,0-0.6,0.3
					c0-0.2-0.1-0.3,0.1-0.5c0.1,0.3,0.3,0,0.2-0.1c0.1,0,0.2,0.2,0.3,0.3c0-0.1,0-0.1,0-0.2c-0.1,0-0.2-0.2-0.2-0.3
					c0.1,0,0.1,0.1,0.2,0.1c0-0.3,0-0.7,0-1c-0.1,0.1-0.2,0-0.2,0.1c-0.1-0.1,0-0.2,0.1-0.3c0,0.1,0.1,0.1,0.1,0.2
					c0-0.9,0-1.9,0-2.8c0.2,0,0.5-0.1,0.7-0.1c0,0-0.1-0.1-0.1-0.1c0.1,0,0.1-0.1,0.2-0.1c0,0.2,0.2,0.1,0.2,0.2
					c0.6-0.1,1.2-0.1,1.8-0.2c0,0,0,0,0,0c0,0,0.1,0,0.1,0c1.7-0.2,3.3-0.4,5-0.6c0.1,0,0.2-0.1,0.3-0.2c0,0.1-0.1,0.1-0.1,0.2
					c1.6-0.2,3.1-0.4,4.7-0.6c0.2-0.1,0.3-0.1,0.6-0.3c0.2-0.1-0.3,0.2,0,0.2c5.6-0.7,11.2-1.3,16.8-1.9c-0.1-0.4,0-1.2,0.1-1.3
					c0.4,0.1,0.4,0.6,0.6,0.8c0,0.2-0.1,0.3-0.1,0.4c0.9-0.1,1.7-0.2,2.6-0.3c0-0.1,0-0.3,0.1-0.4c0.2,0,0.3,0.2,0.3,0.4
					c3.7-0.4,7.4-0.8,11.2-1.2c0,1.8,0,3.7,0,5.5c0,0,0,0,0,0c0.1,0.3-0.1,0.6,0.2,1c-0.1,0-0.1,0-0.2,0.1c0,0.7,0,1.5,0,2.2
					c0.1,0,0.1,0,0.2,0c0,0.3,0,1.2-0.1,1.5c-0.1,0-0.1-0.1-0.1-0.1c0,1,0,1.9,0,2.9c0.1,0,0.2,0,0.2-0.1c0.1,0.1,0,0.2-0.1,0.2
					c0.1,0.2,0.2-0.1,0.3,0c0,0.1,0,0.1,0.1,0.2c0,0.3-0.2,0.2-0.2,0.4c-0.2,0,0-0.3,0.1-0.2c-0.1-0.1-0.3,0-0.4-0.2
					c0,3.8,0,7.6,0,11.4c0,0,0.1-0.1,0.1-0.1c0.1,0.1,0,0.2-0.1,0.3c0,2,0,4,0,6.1c0.1-0.1,0.3-0.1,0.5-0.3
					c-0.1,0.2-0.3,0.4-0.5,0.4c0,4.7,0,9.4-0.1,14.1c0.1,0,0.1,0,0.2,0c0,0.1-0.1,0.1-0.2,0.2c0,2.4,0,4.9,0,7.3
					c0.1-0.1,0.2-0.1,0.3-0.1c0.1,0.2-0.4,0.2-0.2,0.3c0,0,0,0-0.1,0c0,1.7,0,3.3,0,5c0.2-0.1,0.4-0.1,0.6-0.3
					c0.2,0.3-0.4,0.4-0.5,0.3c-0.1,0.2,0.2,0.2,0,0.3c-0.1,0-0.1-0.1-0.1-0.1c0,0.5,0,0.9,0,1.4c0,0,0,0,0.1,0
					c0.1,0.1,0,0.1-0.1,0.2c0,2,0,4,0,6.1c0,0,0,0,0,0c0,0,0.1,0.1,0.1,0.2c0.1-0.2,0.2-0.2,0.3-0.3c0.1,0.2-0.1,0.2-0.2,0.1
					c-0.1,0.1,0.2,0,0.2,0.2c-0.2,0.1-0.2,0.2-0.3,0.2c0.1,0,0.2,0.1,0.2,0.3c-0.1,0-0.2-0.1-0.2-0.3c0,0.6,0,1.3,0,1.9
					c2.1-0.4,4.2-0.7,6.3-1c-0.2,0-0.3-0.1-0.4-0.4c0.3-0.2,0.7,0,0.5-0.4c0.2-0.2,0.5-0.1,0.4,0c-0.1,0.2-0.1,0-0.2,0
					c-0.1,0.2,0.1,0.2,0.1,0.4c-0.1,0-0.3,0.2-0.4,0.3c0.4-0.1,0.8-0.1,1.3-0.2c0.1-0.1,0.1-0.2,0.3-0.3c0,0.1,0,0.2,0,0.2
					c10.1-1.7,20.2-3.3,30.3-4.8c0.1-28.4,0.3-56.9,0.4-85.4C129.2,240.8,129.2,240.6,129.3,240.4z"/>
			</g>
		</g>
		<g>
			<g>
				<path class="st1" d="M547.7,264.9C547.8,264.9,547.8,264.9,547.7,264.9c-0.3-0.9-0.7-1.7-1.1-2.5c-0.1,0.1-0.2,0.2-0.4,0.3
					c-0.1-0.1,0.1-0.4-0.1-0.3c0-0.2,0.2-0.3,0.3-0.4c-0.4-0.9-0.8-1.7-1.2-2.6c0,0.2-0.3,0.4-0.5,0.4c0-0.1,0.1-0.1,0.2-0.2
					c0-0.1-0.1-0.1-0.1,0c0.1-0.1,0.2-0.2,0.4-0.2c-0.1-0.1-0.1-0.3-0.2-0.4c4-2.7,7.4-5.7,10.4-9c0-0.1,0-0.1,0.1-0.2
					c0,0,0.1,0,0.1,0c1-1.1,2-2.3,2.8-3.5c-0.2-0.2-0.3-0.4-0.4-0.7c0.2,0,0.3,0.3,0.4-0.1c0.1,0.1,0.1,0,0.3,0.2
					c0.2-0.1,0.1-0.2,0.4-0.3c-0.1-0.2-0.3,0.2-0.3-0.1c0.2-0.1,0.4-0.2,0.6-0.3c0,0.1-0.1,0.1-0.1,0.2c0,0,0,0,0,0.1
					c2.5-3.5,4.6-7.3,6.2-11.3c0,0-0.1-0.1-0.1-0.1c0,0,0,0,0,0c0,0,0,0,0,0c0,0-0.1,0-0.1,0c0-0.1,0.1-0.1,0.1,0c0,0,0,0,0,0
					c0.1-0.1,0.2-0.2,0.2-0.2c0.2-0.5,0.4-1.1,0.6-1.6c0-0.1,0-0.1,0.1-0.2c0-0.1,0.1-0.2,0.1-0.3c-0.2,0.1-0.5,0.3-0.6,0.5
					c-0.1-0.1-0.2-0.3-0.2-0.4c0.4,0,0.3-0.2,0.7-0.5c0.1,0.2,0.3,0,0.3,0.1c3.4-9.3,5.1-19.6,5.8-30.5c-0.1-0.1-0.1-0.1-0.2-0.2
					c0-0.1,0.1-0.1,0.2-0.1c0.2-3.3,0.4-6.6,0.5-10c-0.2,0.1-0.4,0-0.4-0.2c0-0.1,0.2-0.2,0.1-0.3c0.2,0.1,0.2,0.1,0.3,0.1
					c0.1-3.9,0.1-7.9,0.2-12c-0.1,0-0.1-0.1-0.1-0.2c0,0,0.1,0,0.1,0c0-1.7,0-3.4,0-5.1c-0.1,0.1-0.2,0-0.3-0.2
					c0.1-0.1,0.2-0.1,0.3-0.1c0-1.8,0-3.6,0-5.4c-4.7,0-9.3,0-14,0c-0.1,0.1-0.2,0.1-0.3,0c-0.6,0-1.3,0-1.9,0c0,0,0,0-0.1,0
					c0,0.1,0.1,0,0.2,0c0.1,0.3-0.1,0.2-0.3,0c-1.9,0-3.7,0-5.6,0c0,0.1-0.5,0.4-0.2,0.6c-0.2,0.1-0.4,0.2-0.6,0.4
					c-0.1-0.1-0.1-0.2-0.2-0.3c0.2-0.1,0.4-0.2,0.2-0.4c0.3-0.2,0.5-0.2,0.8-0.3c-0.8,0-1.6,0-2.4,0c-0.2,0.1-0.4,0.1-0.5,0.2
					c0-0.1,0-0.1,0-0.2c-0.6,0-1.3,0-1.9,0c0,0,0,0.1,0.1,0.1c-0.1,0-0.2-0.1-0.2-0.1c-1.9,0-3.9,0-5.8,0c-0.2,0.2-0.5,0.4-0.8,0.6
					c0-0.2,0.2-0.4,0.4-0.6c-0.5,0-1.1,0-1.6,0c0,0,0,0,0,0c0,0,0,0,0,0c-0.7,0-1.5,0-2.2,0c-0.2,0.1-0.5,0.2-0.7,0.2
					c0-0.1-0.1-0.1-0.1-0.2c-0.2,0-0.3,0-0.5,0c0,1.2,0,2.4,0,3.5c0.1-0.2,0.2-0.3,0.3-0.5c0.1,0.1,0,0.2-0.1,0.2
					c0.1,0.2,0.2,0.1,0.3,0.4c-0.1,0-0.4,0.1-0.5,0.2c0,0.4,0,0.8,0,1.2c0.1,0,0.2,0,0.3,0.1c-0.1,0.1-0.3,0.2-0.3,0.3c0,0,0,0,0,0
					c0,0,0,0.1,0,0.1c0,0,0,0,0,0c0,2.2,0,4.4,0,6.5c0.2-0.2,0.4-0.2,0.4-0.5c0.3-0.1,0.5,0.1,0.8,0c0,0.1-0.2,0.1-0.1,0.3
					c-0.1-0.1-0.2-0.1-0.4-0.2c-0.2,0.2,0.2,0.2,0.2,0.3c-0.2,0.2-0.8,0.3-0.5,0.5c0.3,0-0.1,0.1-0.2,0.1c-0.1-0.1-0.1-0.2-0.2-0.3
					c0,0.5,0,0.9,0,1.4c0.1-0.1,0.3-0.3,0.4-0.5c0.1,0.5,0.6-0.1,0.7,0.3c-0.1,0-0.4-0.2-0.3,0.1c-0.1-0.1-0.3,0-0.4-0.2
					c-0.1,0.1-0.2,0.6-0.1,0.6c0,0.2-0.5,0-0.3,0.3c0,0-0.1,0-0.1,0c0,0.3,0,0.7,0,1c0,0,0,0,0,0c0,0.1,0.1,0.1,0.1,0.2
					c-0.1,0-0.1,0.1-0.1,0.1c0,0.5,0,1,0,1.4c0,0.1,0,0.2,0,0.4c0,0.9,0,1.9-0.1,2.8c0,0,0-0.1,0.1-0.1c0.1,0.1,0.2,0.1,0.4,0.2
					c0.1-0.1,0-0.2-0.1-0.3c0.2-0.2,0.3-0.1,0.5-0.2c-0.1,0-0.2,0-0.3-0.1c0.2-0.1,0.3-0.1,0.5-0.1c0,0.2-0.1,0.5-0.1,0.7
					c-0.1,0-0.2-0.1-0.3-0.1c0,0.1-0.3,0.6-0.6,0.3c-0.1,0.2,0.3,0.2,0,0.4c0-0.3-0.1-0.1-0.2,0c0,0.4,0,0.7,0,1.1
					c0.1,0,0.2,0,0.3-0.2c0.2,0.4,0.5,0.3,0.7,0.1c0,0.5-0.7,0.5-0.7,1c-0.1,0-0.3,0-0.4,0.1c0,0.3,0,0.7,0,1c0.4-0.1,0.5,0,0.9-0.3
					c0.1,0.3-0.4,0.5-0.7,0.5c0.1,0.3,0,0.5-0.2,0.7c0,0.4,0,0.8-0.1,1.1c0,0,0,0,0.1,0c0,0.1,0,0.2-0.1,0.3
					c-0.1,1.1-0.2,2.3-0.3,3.4c0,0,0.1,0,0.2-0.1c0.1,0.2,0.2,0.3,0.3,0.5c-0.2,0-0.3-0.2-0.5-0.3c-0.2,1.8-0.4,3.6-0.6,5.3
					c0.1-0.1,0.1-0.2,0.2-0.2c0.1,0.1,0.7-0.2,0.7-0.5c0.3-0.1,0.1,0.3,0,0.5c0.2,0.1,0.2-0.3,0.4,0c-0.5,0.2-0.1,0.4-0.7,0.7
					c-0.2,0-0.1-0.1-0.1-0.2c-0.3,0.2,0,0.5-0.3,0.7c-0.1-0.1-0.1-0.2-0.2-0.3c-0.1,0.6-0.2,1.1-0.3,1.7c0.5-0.4,1-1.3,1.1-0.6
					c-0.2,0.4-0.5,0.8-1,1.1c0-0.1-0.1-0.2-0.1-0.2c-0.3,1.3-0.6,2.6-0.9,3.9c0.4-0.2,0.5-0.4,0.9-0.7c0.1,0.1-0.1,0.4,0.2,0.3
					c-0.2,0.4-0.6,0.6-1,0.7c0.4,0.2-0.2,0,0,0.3c-0.1,0-0.1,0-0.2-0.1c-0.1,0.5-0.3,1-0.4,1.5c0,0,0.1-0.1,0.1-0.1
					c0.1,0.2-0.2,0.4-0.1,0.6c-0.1,0-0.1-0.1-0.1-0.2c-0.1,0.5-0.3,1-0.5,1.4c0,0,0,0,0,0c-0.4,1.2-0.9,2.3-1.4,3.4
					c0.1,0,0.1,0,0.2,0c0.3,0.4-0.2,0.4-0.3,0.6c0-0.1-0.1-0.1-0.2-0.1c-0.1,0.1-0.1,0.3-0.2,0.4c0,0,0,0.1,0,0.1c0,0-0.1,0-0.1,0
					c-0.3,0.5-0.6,1.1-0.9,1.6c0.1-0.1,0.2-0.2,0.3-0.3c0.1,0.6-0.3,1.2-1,1.4c-0.6,0.9-1.2,1.8-2,2.6c0.1-0.1,0.2-0.1,0.3-0.2
					c0,0.1-0.1,0.2,0,0.2c-0.5,0.3-0.8,1.2-1.3,1.3c0,0-0.1,0-0.1,0c-1.3,1.3-2.8,2.5-4.5,3.5c-0.1,0.1-0.2,0.2-0.2,0.3
					c-0.1,0-0.1,0-0.2,0c-0.6,0.4-1.3,0.7-2,1c0,0,0,0,0,0c0,0,0,0-0.1,0c-0.1,0-0.2,0.1-0.3,0.2c0,0,0.1,0,0.1,0
					c-0.1,0.2-0.6,1-0.9,0.4c0.2,0,0.3-0.1,0.4-0.2c-1.4,0.6-2.9,1-4.6,1.4c0,0.2-0.3,0.4-0.4,0.5c-0.1-0.1-0.1-0.2-0.2-0.3
					c0,0,0.1,0,0.1-0.1c-0.5,0.1-1.1,0.2-1.6,0.3c-0.1,0.1-0.2,0.2-0.4,0.3c-0.1-0.1-0.1-0.1-0.1-0.2c-1.1,0.2-2.3,0.3-3.6,0.3
					c-0.2,0.2-0.5,0.4-0.8,0.5c0,0.2-0.5,0.6-0.7,0.2c0.3-0.1,0.6-0.4,0.9-0.7c-0.8,0-1.6,0.1-2.4,0c-0.3,0.2-0.5-0.2-0.6,0.2
					c-0.1,0-0.1-0.1-0.2-0.1c0,0-0.1-0.1-0.1-0.1c0,0,0,0,0,0c-0.6,0-1.2,0-1.8-0.1c-0.1,0.1-0.2,0.1-0.3,0.1c0,0,0-0.1,0-0.1
					c-0.2,0-0.3,0-0.5,0c-0.9-0.1-1.8-0.1-2.7-0.2c0-1,0-2.1,0-3.1c-0.2,0.3-0.5,0.6-0.6,0.8c-0.2,0.1-0.3-0.3-0.5-0.5
					c0.5-0.3,0.7-0.7,1.1-0.9c0-0.4,0-0.7,0-1.1c-0.1,0-0.2,0.1-0.3,0.1c0-0.2,0.1-0.4,0.3-0.6c0-2.2,0-4.5,0-6.7
					c-0.1,0-0.2,0-0.2,0c0.1,0.3-0.5,0.8-0.7,0.2c0.3-0.2,0.7-0.5,1-0.9c0-0.2,0-0.5,0-0.7c0,0-0.1,0-0.1,0
					c-0.2-0.2-0.3-0.4-0.4-0.7c0.2,0,0.3-0.1,0.5-0.3c0-1,0-2.1,0-3.1c-0.5,0.2-1.1,0.9-1.9,1.4c-0.2-0.2-0.2-0.3-0.3-0.6
					c0.5-0.3,1.7-1.7,2.2-1c0-0.7,0-1.3,0-2c-0.4,0.3-0.4,1.1-1.3,1c0.1-0.7,0.7-1,1.3-1.4c0,0,0,0,0,0.1c0-0.4,0-0.8,0-1.2
					c-0.2,0.2-0.4,0.4-0.6,0.7c-0.1-0.2-0.3-0.1-0.5-0.3c0.3-0.4,0.7-0.7,1.1-0.9c0-0.3,0-0.6,0-0.9c0,0,0,0,0,0
					c-0.3-0.1-0.4-0.3-0.4-0.6c0.2,0,0.3-0.1,0.4-0.2c0-2.1,0-4.3,0-6.4c-0.1,0-0.2,0-0.3,0c0,0.3-0.1,0.3-0.4,0.4
					c-0.5-0.8,0.1-0.9,0.7-1.2c0-0.4,0-0.9,0-1.3c-0.1,0-0.2,0.1-0.3,0c-0.1-0.2-0.2-0.4-0.3-0.6c0.2-0.1,0.4-0.2,0.6-0.4
					c0-1.6,0-3.2,0-4.8c0,0-0.1,0-0.1,0c0,0,0.1-0.1,0.1-0.1c0-0.5,0-1.1,0-1.6c-0.2,0.1-0.2,0.3-0.2,0.5c-0.1,0-0.1,0,0-0.1
					c-0.2-0.2-0.5,0.6-0.9,0.2c-0.1-0.6,0.7-0.6,1.1-1c0-0.3,0-0.6,0-0.9c-0.1,0.1-0.1,0.2-0.2,0.3c0-0.5-0.4,0.1-0.5-0.4
					c0.3-0.1,0.5-0.4,0.8-0.7c0-0.4,0-0.7,0-1.1c-0.1-0.2-0.3-0.4-0.3-0.6c0.1,0,0.2-0.1,0.3-0.1c0-1,0-2,0-3
					c-0.1,0-0.2-0.2-0.3-0.1c-0.2,0.5-0.7,1.2-1.5,1.3c-0.1-0.2,0.1-0.3,0-0.5c0.6-0.6,1.3-0.9,1.8-1.2c0-0.3,0-0.6,0-0.9
					c-0.2,0.3-0.5,0.5-0.8,0.5c-0.1-0.2-0.2-0.4-0.3-0.6c0.3-0.2,0.7-0.5,0.8-0.7c0.1,0,0.2,0,0.3,0.1c0-0.3,0-0.5,0-0.8
					c0,0,0,0.1-0.1,0.1c-0.3-0.3-0.6-0.4-0.6-0.8c0.3,0.1,0.5-0.1,0.7-0.3c0-0.5,0-0.9,0-1.4c0,0,0,0-0.1,0c0,0,0,0,0.1-0.1
					c0-1.2,0-2.3,0-3.5c-0.1,0.1-0.3,0.1-0.3-0.1c0.1-0.1,0.2-0.1,0.3-0.1c0-0.5,0-1,0-1.5c-0.3,0.3-0.7,0.6-0.9,0.9
					c-0.2,0-0.3-0.2-0.4-0.3c0.3,0.1,0.2-0.2,0.4-0.4c0.1,0,0.1,0.1,0.1,0.2c0.1-0.2,0.2-0.3,0.1-0.6c0.2-0.1,0.4-0.2,0.6-0.3
					c0-0.3,0-0.6,0-0.8c-0.1,0.1-0.2,0.1-0.4,0.2c-0.1-0.1-0.1-0.2-0.2-0.3c0.2-0.1,0.2-0.2,0.2-0.4c0.1,0,0.3,0,0.4,0
					c0-0.6,0-1.2,0-1.8c0-0.1-0.1-0.2-0.1-0.2c0,0,0.1,0,0.1,0c0-1.1,0-2.1,0-3.2c0,0-0.1,0-0.1,0c-0.4,0.3-0.9,0.6-0.9,1.1
					c-0.2,0.1-0.6-0.1-0.3,0.3c-0.3-0.1-0.3-0.6-0.4-0.8c0.4,0.1,0.5-0.4,0.8-0.6c-0.6,0-1.3,0-1.9,0c-0.2,0.2-0.5,0.4-0.6,0.5
					c-0.3-0.1,0-0.3,0.2-0.5c-0.7,0-1.5,0-2.2,0c-0.1,0.1-0.2,0.2-0.3,0.3c0-0.1-0.1-0.1-0.2-0.1c0-0.1,0-0.1,0.1-0.2
					c-0.6,0-1.1,0-1.7,0c0,0.1-0.1,0.1-0.2,0.2c0-0.1,0-0.1-0.1-0.2c-3.1,0-6.2,0-9.3,0c0,0-0.1,0-0.1,0.1c0,0,0,0,0-0.1
					c-0.8,0-1.5,0-2.3,0c0,0,0,0,0,0c0,0,0,0,0,0c-3.8,0-7.6,0-11.4,0c0,0.1-0.1,0.1-0.2,0.1c0,0,0-0.1,0-0.1c-2.3,0-4.6,0-6.9,0
					c0,8.3,0.1,16.6,0.1,25c0.2-0.1,0.3,0,0.5-0.1c0.1,0.2-0.3,0.4-0.4,0.3c0.1,0.2,0.1,0.3-0.1,0.5c0,2.8,0,5.6,0,8.5
					c0,0,0.1,0,0.1,0c0.1-0.1-0.2-0.1-0.1-0.3c0.1,0,0.1,0.1,0.2,0.1c0.1-0.1,0.1-0.2,0-0.2c0.1-0.1,0.3-0.2,0.6-0.2
					c0.3,0-0.1,0.1-0.2,0c-0.1,0.1,0,0.2,0,0.4c-0.3,0-0.4,0.1-0.3,0.4c-0.1,0-0.2-0.1-0.3-0.1c0,0,0,0.1,0,0.1c0,2.3,0,4.5,0,6.8
					c0,0,0.1,0,0.2-0.1c0,0.1,0,0.2,0.1,0.4c0,0-0.2,0-0.3,0.1c0,0.6,0,1.2,0,1.9c0,0,0.1,0.1,0.1,0.2c0,0,0,0-0.1,0
					c0,2.2,0,4.5,0,6.7c0,0.1,0.1,0.2,0.2,0.3c-0.1,0-0.1,0-0.1,0c0,3,0,6,0,8.9c0.3-0.1,0-0.3,0.2-0.3c0.2-0.1,0.5,0.2,0.6-0.2
					c0,0.2-0.4,0.7-0.7,0.9c-0.1-0.2,0.1-0.2-0.1-0.4c0,3.7,0,7.4,0.1,11.2c0.1,0,0.1,0,0.2,0c-0.1,0.1-0.1,0.2-0.2,0.3
					c0,5.5,0.1,11,0.1,16.5c0.1,0,0.1-0.1,0.2-0.2c0.1,0.1,0,0.5,0.2,0.5c-0.1,0.2-0.3,0.2-0.4,0.3c0.1,11.1,0.1,22.2,0.2,33.4
					c0,0.1-0.1,0.3,0.1,0.2c0,0.1-0.1,0-0.1,0.1c0,0,0,0,0,0c0,3.7,0,7.5,0.1,11.2c0,0,0.1,0,0.1,0c0.1,0.4-0.2,0.6,0,0.7
					c0,0-0.1,0-0.1,0.1c0,0.3,0,0.7,0,1c0.1,0.1,0,0.4,0,0.3c0,0,0,0,0,0c0,0,0,0.1,0,0.1c0,0-0.1,0-0.1,0c0,0,0,0.1,0,0.1
					c0.1,0.1,0,0.2,0.2,0.2c-0.1,0.1-0.1,0.1-0.2,0.1c0,0.4,0,0.8,0,1.2c0,0,0-0.1,0.1-0.1c0.3,0.2,0.1,0.3,0.2,0.7
					c-0.1,0-0.2,0-0.3,0c0,0.4,0,0.9,0,1.3c0-0.1,0-0.1,0-0.2c0.1,0,0.1-0.1,0.2,0c0,0.2,0,0.2,0,0.3c0,0.1-0.2,0-0.2,0.1
					c0,0.1,0.1-0.1,0.2,0c0,0.1,0,0.2,0.1,0.2c0,0.2-0.3,0.1-0.4,0.1c0-0.1,0.2,0,0.2-0.1c0-0.1-0.2,0-0.2-0.1c0,1.6,0,3.1,0,4.7
					c0.1,0.1,0,0.2,0,0.4c0,0,0,0,0,0c0,0.6,0,1.2,0,1.7c0,0,0,0.1,0.1,0.1c0,0-0.1,0-0.1,0c0,0.4,0,0.9,0,1.3c0,0.2,0.1,0.3,0,0.4
					c0,4,0,7.9,0.1,11.9c0.1,0,0.1,0,0.2,0.1c0,0.1-0.1,0.2-0.2,0.2c0,0.4,0,0.9,0,1.3c0,0,0,0,0,0c0.1,0.1,0.2,0.3,0,0.4
					c0.1,0,0.1,0.3,0.2,0.3c-0.1,0.1-0.1,0.1-0.2,0.1c0,0.1,0,0.2,0,0.3c3.3,0.5,6.7,1,10,1.5c0,0,0-0.1,0-0.1
					c0.1,0,0.1,0.1,0.2,0.1c0.5,0.1,1.1,0.2,1.6,0.2c0-0.1,0-0.2-0.1-0.2c0.1-0.1,0.1-0.1,0.2-0.1c0,0.1,0,0.2,0,0.4
					c2,0.3,4.1,0.6,6.1,0.9c-0.1-0.1,0.1-0.2-0.1-0.2c0.1-0.3,0.4-0.3,0.5,0c0,0.2-0.2,0.2-0.4,0.2c0.9,0.1,1.9,0.3,2.8,0.4
					c0,0,0,0,0,0c0-0.1,0.1,0,0.2,0c0,0,0,0,0,0c1.4,0.2,2.8,0.4,4.1,0.7c0-0.1,0.1-0.2,0.2-0.2c0,0.1,0,0.2,0,0.2
					c4.1,0.7,8.2,1.3,12.3,2c-0.1-21.4-0.2-42.7-0.3-64.1c4.8,0.5,9.4,1,14.3,0.6c10.8,23.2,21.5,47.2,32.1,72.2
					c13.7,2.8,27.4,5.8,41,9.1c0-2.5,0-4.9,0-7.4c-12-27.8-24.1-54.3-36.2-79.7C548,265.4,547.9,265.1,547.7,264.9z"/>
			</g>
		</g>
		<g>
			<path class="st1" d="M279,283c-0.1,0-0.5-1-0.5-1c-0.6-1.2-1.1-2.4-1.7-3.7c0,0-0.1-0.1-0.1-0.1c-0.9-2-27.3-60.2-28.6-62.9
				c-0.1,0-0.3,0-0.4,0c0.1-0.1,0.2-0.2,0.2-0.3c-1.7-3.7-3.4-7.5-5-11.2c-0.1-0.1-0.2-0.1-0.1-0.3c0,0,0,0,0,0
				c-1.8-4-3.6-8-5.4-12.1c-0.1-0.1-0.1-0.1-0.1-0.3c0,0,0,0,0,0c-0.6-1.4-1.3-2.8-1.9-4.2c-0.1,0.2-0.1-0.2,0-0.1
				c-3.3-7.4-6.6-14.4-9.9-22.4c-2.5,0-4.9,0-7.4,0c0.1,0,0.2,0.4,0.1,0.5c0-0.2,0-0.3-0.2-0.4c0,0,0.1-0.1,0.1-0.1
				c-2.9,0-5.8,0-8.7,0c-1.8,4-3.6,8.2-5.4,12.2c0,0,0.5,0.2,0.5,0.2c0,0.1,0.1,0.3,0.1,0.4c0,0,0,0,0,0c0,0.3-0.7,0.6-0.8,0.9
				c0,0.1-0.1,0.1,0,0c0,0.1,0,0.2-0.2,0.2c0,0-0.1-0.1-0.2-0.1c-0.5,1.1-1,2.2-1.5,3.3c0,0,0,0,0,0.1c0,0-0.1,0-0.1,0.1
				c0,0,0,0,0,0c0,0,0,0.1,0,0c0,0.1,0,0-0.1,0.1c-0.7,1.6-1.4,3.2-2.1,4.7c0,0,0,0,0,0.1c0,0,0,0-0.1,0c-0.1,0.3-0.2,0.5-0.3,0.8
				c0.1,0.1,0.1,0.1,0.1,0.2c-0.2,0,0,0.2-0.1,0.2c0,0-0.1,0-0.1,0c0,0,0-0.1,0-0.1c-0.1,0.2-0.2,0.5-0.3,0.7
				c0.1,0.1,0.2,0.2,0.3,0.4c-0.1,0-0.1,0.1-0.2,0.1c0-0.2-0.1-0.1-0.2-0.2c0,0,0,0,0,0c-0.5,1.2-1.1,2.4-1.6,3.7
				c0.1,0.1,0.1,0.1,0.2,0.2c0,0.1-0.2,0.1-0.2,0.2c0-0.1,0-0.1-0.1-0.2c-0.1,0.3-0.2,0.5-0.4,0.8c0.3,0,0.3,0.3,0.4,0.6
				c-0.3,0-0.4-0.3-0.4-0.5c-0.7,1.6-1.4,3.2-2.1,4.8c0.1,0.1,0.2,0.3,0.2,0.5c-0.1,0-0.2-0.2-0.3-0.3c-0.1,0.3-0.3,0.6-0.4,0.9
				c0.1,0.1,0.2,0.2,0.3,0.2c-0.1,0,0,0.2-0.1,0.2c-0.1-0.1-0.2-0.2-0.3-0.3c-0.1,0.2-0.2,0.5-0.3,0.7c0,0,0.1,0,0.1,0.1
				c0,0-0.1,0-0.1,0c-0.3,0.6-0.5,1.2-0.8,1.7c0,0,0,0,0.1,0.1c0,0-0.1,0-0.1,0c0,0,0,0,0,0c0,0,0,0,0,0.1c0,0-0.1,0-0.1,0
				c-0.1,0.2-0.2,0.5-0.3,0.7c0,0,0.1,0,0.1,0c0,0.1,0.1,0.3,0.3,0.2c0.1,0.3-0.5,0.5-0.4,0.5c-0.1,0-0.1-0.1-0.2-0.1
				c-0.1,0.2-0.2,0.4-0.3,0.6c0,0,0,0,0,0c0.1,0.4,0.2,0.3,0.4,0.6c-0.1,0-0.1,0.1-0.2,0.2c0-0.2-0.1-0.2-0.2-0.2
				c0-0.2,0-0.3-0.1-0.3c-0.1,0.3-0.2,0.5-0.3,0.8c0,0,0.1,0,0.1,0c0.1,0.1,0,0.2-0.1,0.2c0-0.1-0.1-0.1-0.1-0.1
				c-0.4,1-0.8,1.9-1.3,2.9c0.1,0.1,0.1,0.2,0,0.4c-0.1,0-0.1,0-0.1-0.1c-0.1,0.3-0.3,0.6-0.4,0.9c0.1,0.1,0.2,0.1,0.2,0.3
				c0.1,0.1,0.2-0.2,0.3,0c-0.2,0.1-0.3,0.2-0.5,0.3c0-0.1,0-0.2-0.1-0.2c-0.1,0.3-0.2,0.5-0.3,0.8c0.2,0.1,0.4,0.2,0.2,0.4
				c0.1,0,0.2,0.2,0.4,0.1c0,0.1-0.1,0.1-0.2,0.2c-0.1-0.2-0.3-0.4-0.5-0.6c-0.5,1.2-1.1,2.4-1.6,3.6c0.1,0.2,0.3,0.4,0.3,0.5
				c-0.2,0.3-0.3,0-0.4-0.2c-0.1,0.2-0.2,0.4-0.3,0.6c0,0,0,0.1,0,0.1c0.1,0.2,0.3-0.2,0.4,0.1c-0.1-0.1-0.1,0-0.2,0
				c0.1,0,0.2,0.2,0.2,0.3c0,0,0.1-0.1,0-0.1c0.2,0,0,0.2-0.1,0.2c0.1,0.1,0.1-0.1,0.2-0.1c0.3,0.4-0.3,0.5-0.6,0.7
				c-0.1,0-0.2-0.2-0.4-0.1c0.1-0.1,0-0.2,0-0.3c0,0.1-0.1,0.3-0.1,0.3c0,0,0,0,0,0c0.1,0,0,0.2,0,0.3c0,0-0.1,0-0.1,0
				c-0.4,0.9-0.8,1.8-1.2,2.7c0.1,0,0.1,0,0.1,0c-0.1,0-0.2,0.1-0.2,0.1c0,0,0,0,0,0.1c0,0.1,0,0.1-0.1,0.2c0,0,0,0,0,0
				c-0.1,0.2-0.2,0.4-0.3,0.6c0.2,0.1,0.2,0.4,0.3,0.6c-0.3,0.1-0.3-0.1-0.5-0.1c-0.1,0.2-0.2,0.5-0.3,0.7c0,0,0,0,0.1,0
				c0.2,0.4,0.5,0.5,0.6,0.9c-0.1,0.1-0.2,0.1-0.3,0.1c-0.1-0.2-0.3-0.5-0.5-0.8c-0.4,0.9-0.8,1.8-1.2,2.8c0,0.1,0.1,0.1,0.1,0.2
				c0,0.1-0.1,0.1-0.2,0.1c-0.1,0.3-0.3,0.6-0.4,1c0.1,0.1,0.2,0.3,0.3,0.4c-0.2,0.1-0.3,0-0.4-0.1c-0.1,0.2-0.2,0.5-0.3,0.7
				c0.1,0.1,0.3,0.2,0.4,0.4c-0.1,0,0,0.1,0,0.2c-0.1,0-0.1,0.1-0.2,0.1c-0.1-0.1-0.2-0.2-0.4-0.3c-0.6,1.3-1.1,2.6-1.7,3.8
				c0,0,0,0.1,0,0.1c0,0,0,0-0.1,0c-0.1,0.3-0.3,0.7-0.4,1c0.1,0.1,0.2,0.2,0.3,0.4c-0.1,0-0.2,0.1-0.3,0.1c-0.1,0-0.1-0.1-0.2-0.2
				c-0.1,0.2-0.2,0.5-0.3,0.7c0.2,0.2,0.5,0.5,0.4,0.7c-0.1-0.2-0.3-0.4-0.4-0.6c-0.1,0.3-0.3,0.6-0.4,0.9c0.2,0.3,0.5,0.4,0.7,0.8
				c0,0.1,0,0.1-0.1,0.2c-0.2-0.3-0.7-0.4-0.6-0.8c0-0.1-0.1-0.1-0.1-0.1c-0.4,0.9-0.8,1.8-1.2,2.8c0.1,0.1,0.2,0.3,0.1,0.4
				c-0.1,0-0.2,0-0.3-0.1c-0.1,0.3-0.2,0.6-0.4,0.9c0.1,0.1,0.1,0.3,0.3,0.5c-0.1,0-0.2-0.1-0.4-0.2c-0.1,0.3-0.2,0.6-0.4,0.8
				c0.1,0.1,0.4,0.3,0.4,0.6c-0.3,0-0.4-0.3-0.5-0.4c-0.2,0.4-0.3,0.7-0.5,1.1c0.2,0.1,0.3,0.5,0.5,0.6c-0.3,0.2-0.6-0.3-0.5-0.6
				c-0.4,1-0.8,2-1.3,3c0.1,0.1,0.1,0.3,0.3,0.4c0,0.1-0.1,0.1-0.1,0.1c-0.1-0.1-0.1-0.2-0.1-0.4c0,0-0.1,0-0.1,0
				c-0.2,0.4-0.3,0.7-0.5,1.1c0,0,0.1-0.1,0.2-0.1c0.2,0.1,0.3,0.3,0.4,0.4c0,0.1-0.3-0.1-0.1,0.2c0,0.1-0.2-0.1-0.2,0
				c-0.1,0-0.2-0.2-0.3-0.4c-0.4,0.9-0.8,1.9-1.2,2.9c0,0,0,0.1,0,0.1c0,0,0,0,0,0c-10,23.3-20,47-30,71.3c0,2,0,3.9,0,5.9
				c12.2-1.4,24.4-2.7,36.6-3.9c2.9-6.7,5.8-13.4,8.7-20.1c9.3-0.7,18.7-1.3,28-1.8c-0.1,0-0.1-0.1-0.3,0c-0.1-0.2,0.1-0.2,0.1-0.4
				c0.3-0.1,0.1,0.3,0.3,0.3c0,0.1,0,0.1-0.1,0.1c3.3-0.2,6.6-0.4,9.9-0.5c0.1-0.1,0.2-0.2,0.2-0.3c0.2,0,0.2,0.2,0.2,0.3
				c0.5,0,0.9,0,1.4-0.1c0.1-0.4-0.1-0.7,0-1.3c0.2,0.1,0.2,0.3,0.4,0.3c-0.2,0.4,0.1,0.7-0.2,1c0.4,0,0.7,0,1.1-0.1
				c0-0.2,0.1-0.5,0.2-0.6c0.1,0.1,0.1,0.4,0.1,0.6c2.9-0.1,5.9-0.3,8.8-0.4c0-0.1,0-0.1-0.1-0.2c0.2-0.1,0.3,0,0.4,0.2
				c0.9,0,1.8-0.1,2.7-0.1c0-0.1,0-0.1,0-0.2c0.1,0,0.1,0.1,0.2,0.2c0.5,0,1,0,1.5-0.1c0.1-0.3-0.2-0.2-0.2-0.5c0.3,0,0-0.3,0.2-0.4
				c-0.2,0-0.3-0.6-0.1-0.9c0.3,0,0.4,0.6,0.2,0.7c0,0.2,0.3,0,0.4,0.1c-0.1,0.3,0,0.5,0,0.9c0.3,0,0.6,0,0.9,0c0-0.1,0-0.1,0-0.2
				c0.1,0,0.2,0,0.2,0.1c0.5,0,0.9,0,1.4-0.1c0.6,1.2,1.1,2.4,1.7,3.7c0-0.3,0,0.1,0-0.1c0.8,0.2,0.7-1.3,0.6,2.7c0,0-0.1,0-0.1,0
				c0.8,0,1.6,2.7,2.4,4.5c0-0.2,0-0.6,0.1-0.8c0.2,0.4,0.6,0.9,0.6,1.3c0,0.2-0.1,0.1-0.2,0c1.1,2.5,2.3,4.9,3.4,7.3
				c0.5,0,1,0.2,1.6,0.2c-0.2-0.2-0.3-0.5-0.4-0.5c0.1,0,0.3,0,0.4,0c0.1,0-0.2,0,0.1,0c0,0.3,0,0.2,0,0.4c0.9,0,1.9-0.1,2.8-0.2
				c0-0.1,0-0.2,0-0.2c0.1,0.1,0.2,0.1,0.2-0.2c0.1,0.1,0.1,0.2,0.2,0.4c0.9,0,1.7-0.1,2.6-0.1c0-0.1,0-0.2,0-0.3
				c0.1-0.1,0.2,0,0.2-0.2c0.1,0,0.1,0,0.1,0.1c0,0.1,0.1,0,0.1,0c0.1,0.1,0.1,0.2,0.1,0.4c0.8,0,1.7-0.1,2.5-0.1
				c-0.2-0.5-0.2-1.2,0.4-1.3c-0.3,0.4,0.1,0.8,0.3,1.3c0.8,0,1.6,0,2.4-0.1c-0.1-0.3-0.1-0.7,0-0.8c0.1-0.1,0.1,0,0.3-0.1
				c-0.1,0.3,0.1,0.6,0.2,0.9c0.8,0,1.7-0.1,2.5-0.1c0-0.3,0.1-0.6,0.1-0.8c0.3,0.1,0.4,0.4,0.4,0.8c0.9,0,1.7,0,2.6-0.1
				c0-0.3,0.1-0.6,0.2-0.7c0.3,0.1,0.4,0.4,0.4,0.7c0.9,0,1.8,0,2.7,0c-0.1-0.4-0.1-0.8-0.1-0.8c0-0.6,0.3,0.5,0.5,0.7c0,0,0,0,0,0
				c0.9,0,1.9,0,2.8,0c-0.2-0.3-0.2-0.4-0.2-0.7c0.4,0,0.3,0.6,0.2,0.7c1.1,0,2.2,0,3.2-0.1c0-0.4-0.2-0.5-0.3-0.8
				c-0.1-0.3,0.2-0.2,0.2-0.5c0.6-0.1,0.6,0.8,0.6,0.7c0,0.1,0.3,0.3,0.2,0.5c0.9,0,1.8,0,2.6,0c-0.2-0.2-0.1-0.8-0.2-0.9
				c0.3-0.2,1.3,0.6,1.1,0.9c1.3,0,0.6-0.1,4.6-0.1c0-1.8,0-3.7,0-5.5C292.6,310.1,279.4,284,279,283z M199.5,187.8
				c0-0.1,0.1-0.1,0-0.2c0,0.1,0.1,0.1,0.1,0.2C199.6,187.9,199.6,187.8,199.5,187.8z M233.9,266.4c-0.2,0-29.2,0.3-33.3,0.5
				c0.3-0.7,0.6-1.4,0.9-2.1c-0.2,0-0.3-0.1-0.2-0.3c0.1,0,0.1,0,0.1,0.1c0,0.1,0.1,0.1,0.2,0c2.2-5.3,4.3-10.6,6.5-15.8
				c0-0.1,0-0.1,0-0.1c0,0,0.1,0,0.1,0c0.2-0.5,0.5-1,0.7-1.5c-0.1,0,0,0,0,0c0-0.1,0,1.1,0,1.1s-0.1,0-0.1,0c0.6-4,1.2-3.7,1.9-5.2
				c-0.1,0-0.1-0.5,0-0.6c0,0.1,0-0.1,0.1,0c0.3-0.7,0.6-1.6,0.9-2.3c0-0.1,0-0.2-0.1-0.2c0.1-0.2,0.2-0.1,0.2,0
				c0.4-1,0.8-2,1.3-3.1c0-0.1-0.1-0.2-0.1-0.3c0.1,0,0.1,0,0.2,0c0.1-0.3,0.2-0.6,0.4-0.9c-0.1,0-0.1-0.2-0.2-0.3
				c0.1,0,0.2,0.1,0.2,0.2c0.7-1.6,1.3-3.3,2-4.9c0,0,0,0,0,0c0.1-0.2-0.4-0.8-0.1-0.6c0.1,0,0.2,0.1,0.3,0.1c0.6-1.3,1.1-2.7,1.7-4
				c0,0.1,1,2.4,1.5,3.5c0.1-0.1,4.5,10.6,4.6,10.6c0,0,1.5,3.2,1.4,3.3c0,0,1.6,3.7,1.6,3.7c0,0,0,0,0,0.1c0.8,2,1.7,3.9,2.5,5.9
				c0-0.1,0-0.2,0.1-0.2c0.1,0,0.1,0,0.2,0.1c0,0,0-0.1,0-0.1c0,0,0.1,0,0.1,0.1c0,0,0,0,0,0c0.1,0.1,0,0.5,0,0.7
				c-0.1,0-0.1-0.1-0.2-0.2c0.1,0.2,0.2,0.4,0.3,0.6c0,0,0.1,0,0.1,0c0,0.2,0,0.3,0,0.4C229.7,255.4,234.2,266.1,233.9,266.4z"/>
		</g>
		<g>
			<g>
				<path class="st1" d="M417.7,262.2c-0.1,0.2-0.2,0.5-0.3,0.7c-1.6,0.4-3.4,0.5-5.2,0.1c-6.3-1.7-13.9,8.2-10.6,13.8
					c0.9,1.5,1.6,3.1,1.5,4.9c-2.5,2.6-9.7,6.6-13.8,7.8c-1.4-0.8-2.6-2.2-3.4-3.6c-0.9-1.6-2.7-2.5-4.8-2.9
					c-2.7,0.8-5.7,1.2-8.8,1.3c-1.9,0.9-3.3,2.3-3.8,4c-0.4,1.7-1.2,3.3-2.5,4.5c-1.3,0-3.1-0.2-4.9-0.7c0,0,0,0.1,0,0.1
					c-0.1,0-0.2,0-0.2-0.1c-3.5-0.8-7.3-2.2-9.8-3.2c-0.3-1.8-0.5-3.6-0.1-5.3c0.1-0.4,0.2-0.9,0.2-1.3c0,0.1-0.2,0.1-0.2,0.3
					c-0.2-0.1,0.2-0.7-0.2-0.7c0.1-0.2,0.3,0.1,0.3,0.2c0-1.1-0.3-2.2-0.8-3.3c0,0,0,0-0.1,0c0,0,0,0,0-0.1
					c-0.2-0.4-0.5-0.8-0.8-1.3c-1.6-1.2-3.1-2.4-4.5-3.8c-2.7-1.5-5.8-2-7.9-0.7c-0.9,0.5-1.9,0.9-2.9,1.1c0,0.2-0.3,0.5-0.3,0.6
					c-0.2,0-0.1-0.3,0-0.6c-0.5,0.1-1.1,0.1-1.6,0.1c0,0,0,0,0,0.1c0,0,0,0,0-0.1c-0.1,0-0.3,0-0.4,0c-0.3-0.4-0.7-0.9-1.1-1.4
					c-0.1,0-0.2,0-0.3,0c0.1-0.2-0.1-0.4-0.2-0.5c0-0.1,0-0.1,0-0.2c-2.4-3.4-5.1-8.4-5.9-10.9c0.6-1.6,1.8-2.8,3.3-3.7
					c0-0.1,0-0.2,0.1-0.3c0.1,0,0.1,0,0.2,0c0,0.1-0.1,0.1-0.2,0.1c0,0,0,0.1,0.1,0.1c0.1,0,0.1-0.1,0.2-0.1
					c0.2-0.1,0.4-0.3,0.6-0.5c0-0.1-0.1-0.3-0.1-0.5c0.2,0.2,0.2-0.2,0.3-0.3c0,0,0,0,0,0c0.1,0,0.2,0.2,0.3,0.4
					c0.4-0.3,0.7-0.7,1-1.1c-0.1-0.2,0.1-0.5,0.1-0.6c0.1,0.1,0.1,0.2,0.2,0.2c0-0.1,0.1-0.1,0.1-0.2c-0.1-0.1-0.1-0.1-0.1-0.3
					c0.1,0,0.2,0,0.2,0.1c1.6-2.9,1.8-6.9,0.3-10c-0.2,0-0.2,0.2-0.4,0.2c0.2-0.3-0.1-0.1-0.2-0.2c0-0.2,0.2-0.3,0.3-0.4
					c0,0,0-0.1-0.1-0.1c0,0.1-0.1,0.1-0.1,0.2c-0.3,0,0.1-0.4-0.1-0.4c0,0,0,0,0,0c-1-1.6-2.5-2.9-4.5-3.5c0,0,0,0-0.1,0
					c0,0,0,0-0.1-0.1c-0.1,0-0.1-0.1-0.2-0.1c-1.9-0.5-4.2-2.1-4.6-2.9c0-0.3,0.1-0.6,0.1-1c0,0,0,0,0,0c0-0.1,0-0.1,0-0.2
					c0.1-0.4,0.1-0.9,0.2-1.5c0,0,0,0-0.1,0c0,0,0.1,0,0.1,0c0.2-1,0.4-2.1,0.7-3.2c-0.1,0-0.1-0.8,0.2-0.7c0.6-2.2,1.2-4.5,1.8-6.2
					c0-0.1,0-0.1,0-0.2c0.1,0,0.1,0,0.1,0c0.2-0.5,0.4-0.9,0.5-1.3c1.7-0.7,3.7-0.8,5.7-0.3c2.1,0.5,4.3-0.4,6.2-2
					c0.5-1.1,1.1-2.2,1.7-3.3c-0.1,0.1-0.2,0.1-0.3,0.1c0-0.1-0.1-0.1-0.1-0.2c0.1-0.2,0.3-0.1,0.3-0.2c0.1,0,0.1,0,0.2,0.1
					c0.1-0.1,0-0.2,0-0.3c0.2,0,0.1,0,0.2-0.1c0,0,0,0,0,0.1c0.5-0.9,1.1-1.7,1.7-2.6c0,0,0,0,0,0c0.1,0,0.1-0.1,0.2-0.1
					c0.3-0.4,0.6-0.8,1-1.2c0.1-0.7,0.2-1.4,0.2-2c-0.2,0.2-0.3,0.3-0.1,0.6c-0.2-0.1-0.4-0.1-0.5-0.4c0.2-0.1,0.1,0,0.3-0.1
					c0.1-0.1,0.1-0.4-0.1-0.2c0-0.2,0.2-0.2,0.3-0.3c-0.1-0.6-0.2-1.2-0.5-1.7c-0.2-0.4-0.4-0.7-0.5-1.1c-0.1,0-0.2,0.1-0.3,0.1
					c-0.1-0.1,0.1-0.2,0-0.3c0.1,0,0.2,0,0.2,0c-0.3-1.1-0.4-2.2-0.6-3.3c-0.1,0.1-0.2,0.1-0.3,0.2c-0.1,0-0.1-0.1-0.2-0.2
					c0-0.2,0.3,0,0.2-0.2c0.1-0.1,0.2-0.1,0.3-0.1c0-0.1,0-0.2,0-0.3c1.4-1.2,3.8-2.7,6.3-4.2c0.1-0.1,0.1-0.1,0.2-0.2c0,0,0,0,0,0
					c0.4-0.2,0.9-0.5,1.3-0.7c-0.1-0.2,0.6-0.6,0.7-0.7c0,0.2-0.1,0.3-0.3,0.5c1.9-1,3.6-1.8,4.9-2.2c0.6,0.2,1.2,0.7,1.9,1.3
					c0.2-0.2,0.3-0.4,0.5-0.4c0.1,0.2-0.3,0.2-0.1,0.4c-0.1,0-0.2,0.1-0.3,0.2c0.5,0.4,0.9,1,1.3,1.5c0,0,0.1,0,0.1,0
					c0,0.1,0,0.1,0,0.1c0.1,0.2,0.3,0.4,0.4,0.6c0.2,0.4,0.6,0.7,0.9,1.1c0.1-0.1,0.1-0.1,0.2-0.2c-0.1,0-0.2,0.1-0.2,0.2
					c0.3,0.2,0.5,0.4,0.8,0.6c0.4-0.1,0.6-0.5,0.9-0.7c0.1,0.4-0.3,0.7-0.6,0.9c0.1,0,0.1,0.1,0.2,0.1c1.3-0.3,2.6-0.6,4-0.7
					c0,0,0-0.1,0.1-0.1c0,0,0.1,0.1,0.1,0.1c0.2,0,0.4,0,0.6-0.1c-0.1,0-0.2-0.2-0.2-0.3c0.1-0.1,0.3-0.2,0.3-0.1
					c0.1-0.1-0.1-0.1-0.1-0.2c0.1-0.1,0.2,0,0.2-0.1c-0.1,0.3,0.1,0.1,0.2,0c0.1,0.2,0,0.4,0.3,0.2c0,0.2-0.2,0.2-0.3,0.3
					c-0.1-0.1,0-0.1,0-0.2c-0.1,0.1-0.1,0.1-0.1,0.3c-0.1-0.1-0.3-0.2-0.3,0.1c0.6-0.1,1.2-0.1,1.8-0.1c0.1-0.2,0.3-0.3,0.6-0.5
					c-0.1,0.3-0.4,0.1,0,0.4c-0.1,0-0.2,0.1-0.3,0.1c0.5,0,1,0,1.5,0c0,0,0,0,0-0.1c0.1,0,0.2,0,0.2,0.1c0.3,0,0.6,0,0.9,0
					c1,0,2.1,0.1,3,0.1c0.4-0.3,0.7-0.5,1-0.8c-0.2,0.1-0.4,0.1-0.6,0.2c-0.1-0.1,0-0.2-0.1-0.3c0.2,0.1,0.3-0.1,0.4-0.2
					c0,0.1,0.1,0,0.2,0c0,0,0,0.1,0,0.1c0.2-0.2-0.2-0.3-0.1-0.5c0.1-0.1,0.2,0.1,0.3,0c0,0.2-0.2-0.1-0.3,0.1
					c0.1-0.1,0.2,0.2,0.3,0.2c0,0.1-0.1,0.2-0.1,0.2c0.6-0.7,1.1-1.4,1.4-2.3c0.2-0.7,0.5-1.5,0.9-2.1c-0.1,0-0.1-0.3,0.1-0.3
					c0,0,0,0.1,0.1,0.1c0,0,0.1-0.1,0.1-0.1c0,0,0,0,0-0.1c0.5-0.8,1.1-1.5,1.7-1.9c5,0.5,11.8,2.5,14.6,3.9
					c0.4,1.3,0.6,3.5,0.2,5.3c-1.5,5.8,8.8,13.5,13.8,10.6c1.6-0.9,3.3-1.3,5-1.2c2.2,2.6,5.9,8.4,7.3,12.7
					c6.4,0.2,12.7,0.5,19.5,0.8c-5.8-41.9-37.8-59.3-67.7-59.7c0.1,0.3-0.5,0.4-0.6,0.7c-0.2,0,0-0.2-0.2-0.4c0.2,0,0.6-0.3,0.8-0.3
					c-0.4,0-0.8,0-1.2,0c-1.3,0-2.6,0-3.9,0.1c0,0,0,0.1,0,0.1c-0.1,0-0.1-0.1-0.2-0.1c-1,0.1-2,0.1-2.9,0.2c0,0.1,0,0.1,0.1,0.2
					c-0.3,0.2-0.3,0.3-0.6,0.4c-0.1,0-0.1-0.1-0.2-0.2c0.3-0.1,0.3-0.2,0.4-0.4c-0.5,0-1,0.1-1.6,0.2c0,0,0,0,0.1,0.1
					c-0.1,0-0.3,0-0.4,0c-0.4,0-0.8,0.1-1.2,0.1c0,0,0,0.1,0,0.1c-0.1,0-0.1,0-0.2,0c-1,0.1-2,0.3-3,0.5c0.1,0.1,0,0.3,0.2,0.3
					c-0.4,0.3-0.6,0.2-0.9,0.4c-0.1-0.1-0.2-0.3-0.2-0.4c0.1-0.1,0.1-0.1,0.2-0.1c-0.9,0.2-1.8,0.3-2.7,0.5
					c-0.1,0.2-0.3,0.4-0.3,0.4c0,0,0,0.1-0.1,0.1c0.1,0.1,0.2,0.1,0.3,0.1c-0.1,0.2-0.5,0.2-0.6,0.4c-0.1,0-0.3-0.1-0.2-0.3
					c0.2,0.3,0.1-0.2,0.4-0.1c0.1-0.2,0.2-0.3,0.3-0.4c-0.6,0.1-1.2,0.3-1.9,0.5c-0.1,0-0.1,0.1-0.2,0.1c0,0,0,0,0-0.1
					c-0.2,0.1-0.5,0.1-0.7,0.2c0,0,0.1,0.1,0.1,0.1c0.1,0.1-0.2,0.1-0.2,0c-0.1,0,0,0,0,0.1c-0.1,0.1,0-0.1-0.1-0.1
					c-0.8,0.2-1.5,0.4-2.3,0.6c0,0,0,0,0,0c-0.1,0-0.1,0.1-0.2,0.1c0,0,0,0-0.1-0.1c-0.1,0-0.2,0-0.3,0.1c0,0.1,0,0.1,0,0.2
					c0,0-0.1,0-0.1,0c0,0,0,0-0.1,0c0,0,0-0.1,0-0.1c-0.9,0.3-1.9,0.6-2.8,0.9c-0.1,0.2-0.7,0.3-0.7,0.2c-0.3,0.1-0.6,0.2-0.9,0.3
					c0,0.2-0.1,0.2-0.2,0.1c-1.2,0.5-2.5,1-3.7,1.5c-0.1,0.2-0.9,0.6-1,0.4c-1.7,0.8-3.4,1.6-5,2.5c0,0-0.1,0.1-0.1,0.1c0,0,0,0,0,0
					c-0.5,0.3-1.1,0.6-1.6,0.9c0,0,0,0,0,0c0,0-0.1,0-0.1,0c-0.2,0.1-0.4,0.2-0.6,0.3c-0.1,0.1-0.4,0.3-0.4,0.3
					c-0.3,0.2-0.5,0.3-0.8,0.5c0,0,0,0.1-0.1,0c-0.1,0.1-0.2,0.1-0.3,0.2c0,0.2-0.8,0.5-0.8,0.5c-0.4,0.3-0.9,0.6-1.3,0.9
					c0,0-0.7,0.6-0.7,0.5c-2,1.4-3.9,2.9-5.8,4.5c0.1,0-1,1.1-1.1,0.9c-0.2,0.2-0.4,0.4-0.6,0.6c0,0,0,0,0,0.1c-0.1,0-0.1,0-0.1,0
					c-0.2,0.2-0.4,0.4-0.6,0.5c0,0.3-0.2,0.6-0.5,0.5c-0.1,0.2-0.2,0.2-0.3,0.2c-0.6,0.6-1.2,1.2-1.7,1.7c0,0-0.7,0.8-0.7,0.8
					c-0.7,0.7-1.3,1.5-2,2.2c0.1,0,0,0.2-0.1,0.2c-0.2,0.2-0.4,0.5-0.6,0.7c-0.6,0.7-1.2,1.5-1.8,2.3c0,0,0.1-0.1,0.1-0.1
					c0,0.2-0.1,0.2-0.1,0.1c-0.1,0.2-0.3,0.3-0.4,0.5c0,0.1,0,0.1,0,0.2c-0.1,0.1-0.2,0.1-0.2,0.1c-0.3,0.4-0.6,0.9-0.9,1.3
					c0.4-0.1-0.1,0.3-0.1,0.1c-0.6,0.8-1.2,1.7-1.7,2.6c0.1,0.1-0.1,0.6-0.4,0.7c-0.3,0.5-0.6,0.9-0.8,1.4c0.2-0.2,0.4,0.2-0.1,0.2
					c-1,1.8-2,3.7-2.9,5.7c0.1,0.1-0.1,0.4-0.3,0.5c-0.2,0.5-0.4,1-0.7,1.5c0,0,0.1,0.2-0.1,0.3c0,0,0,0.1,0,0.1c0,0,0,0,0,0
					c0,0.1,0,0.1,0,0.1c-0.2,0.5-0.4,0.9-0.6,1.4c0.1,0,0,0.2-0.1,0.2c-0.9,2.4-1.8,4.9-2.5,7.6c0.1,0,0,0.4-0.1,0.3
					c-1.6,5.9-2.5,12.3-2.8,19.2c0.1,0.2,0.1,0.7,0,0.6c0,0.9-0.1,1.8-0.1,2.7c0,5,0.4,9.8,1.2,14.4c0.1-0.1,0.1-0.1,0.3-0.1
					c0,0.2-0.2,0.3-0.2,0.4c0.2,1,0.3,2,0.5,3c0,0.1,0.1,0.1,0.3,0c-0.1,0.1-0.2,0.3-0.2,0.5c0.4,1.7,0.8,3.4,1.3,5.1
					c0-0.2,0.1-0.5,0.2-0.7c0.3,0.2,0,0.6,0.2,0.9c-0.1,0-0.2,0-0.3,0.1c0.6,2.2,1.3,4.3,2.1,6.4c0,0,0.1,0,0.1,0
					c0,0.1,0.1,0.3,0.1,0.5c3.3,8.5,8,15.9,13.6,22.1c0-0.1,0-0.2,0.1-0.3c0.2,0.2,0.3,0.4,0.3,0.7c2,2.1,4,4.1,6.2,6
					c0.1-0.1,0.2-0.2,0.4-0.2c-0.1,0.1,0,0.4,0,0.6c1,0.9,2,1.7,3.1,2.5c0-0.1,0-0.1,0-0.2c0,0.1,0,0.2,0.1,0.2
					c2.5,1.9,5.1,3.6,7.8,5.2c0-0.1,0-0.2-0.1-0.3c0.2-0.2,0.2-0.2,0.3-0.5c0.2,0.2,0.1,0.6,0.2,1c11.6,6.6,24.7,10.3,37.8,11.1
					c14.3,0.9,28.9-1.5,41.1-8.6c0-0.1,0-0.2,0-0.2c0.1,0,0.2,0.1,0.2,0.1c1.1-0.7,2.2-1.3,3.3-2.1c0-0.1,0.1-0.3,0.1-0.4
					c0,0.1,0,0.2,0,0.3c0.2-0.2,0.5-0.4,0.7-0.5c0,0-0.1-0.1-0.2-0.1c0.1-0.2,0.2,0,0.3-0.1c0,0,0,0,0,0c1.1-0.8,2.1-1.6,3.1-2.4
					c-0.1-0.1,0.2-0.1,0.1-0.2c0,0,0.1,0,0.1,0.1c0.2-0.2,0.5-0.4,0.7-0.6c0,0,0,0-0.1,0c0-0.1,0.2-0.3,0-0.3
					c0.1-0.1,0.2,0.1,0.3,0.2c0.2-0.2,0.5-0.4,0.7-0.7c0-0.1-0.1-0.1-0.2-0.2c0-0.1,0.1-0.1,0.2-0.1c0-0.1-0.1-0.1-0.1-0.2
					c-0.1,0-0.1,0.1-0.1,0.1c-0.1,0.1,0.1-0.2,0.1-0.3c0.1,0,0,0.1,0.2,0.1c-0.3,0.1,0.1,0.3-0.1,0.5c0,0,0,0.1,0.1,0.1
					c0.2-0.2,0.4-0.4,0.6-0.6c0-0.1,0-0.2,0-0.3c0.1,0,0.1,0.1,0.1,0.2c0,0,0,0,0,0c0-0.1,0-0.3,0-0.4c0,0,0.1,0,0.1,0
					c0-0.1-0.1-0.1-0.1-0.2c0.1-0.1,0.1,0.2,0.1,0c0,0.1,0,0.1,0.2,0c0,0.1,0,0.1,0,0.2c0.1-0.1,0.3-0.3,0.4-0.4
					c0-0.1,0.1-0.3,0-0.4c0-0.1,0.1-0.1,0.2,0c0-0.1-0.1-0.1-0.1-0.2c0.2,0,0.2,0.2,0.2,0.3c0.2-0.2,0.4-0.4,0.6-0.6
					c0-0.1,0-0.4-0.1-0.3c-0.1-0.1,0.1-0.2,0.1-0.4c0,0,0.1,0,0.1,0c0.1,0.1,0.1,0.2,0.1,0.4c0.2-0.2,0.3-0.4,0.5-0.6h0
					c0-0.3,0-0.5,0-0.7c0.2-0.1,0.1,0.2,0.3,0.1c0,0.1,0,0.2,0,0.2c0.2-0.2,0.4-0.4,0.6-0.7c0,0,0,0,0,0c0-0.1,0-0.1,0.1-0.1
					c0,0,0.1-0.1,0.1-0.1c-0.1,0-0.1,0-0.2,0c0.2-0.2,0-0.4-0.1-0.5c0.2-0.1,0.1-0.2,0-0.3c0.2,0,0.1,0.3,0.3,0.3
					c-0.1,0.2-0.1,0.3,0,0.5c0.2-0.3,0.5-0.5,0.7-0.8c0-0.1-0.1-0.3-0.1-0.2c-0.1,0,0.1-0.1,0-0.2c0.1,0,0.1,0,0.2,0
					c0,0.1,0,0.1,0,0.3c0.2-0.2,0.4-0.5,0.5-0.7c0,0,0,0,0,0c0-0.2,0.2-0.2,0.2-0.5c0.1,0,0.1,0,0.1,0.1c0.2-0.2,0.4-0.5,0.6-0.7
					c-0.1,0-0.1-0.1-0.1-0.2c0.1,0,0.1,0,0.2,0c0,0,0,0,0,0c0-0.1-0.2-0.1-0.1-0.3c0,0-0.1,0-0.1,0.1c-0.1-0.1,0-0.2,0-0.4
					c0.1,0,0.3-0.2,0.1-0.2c0-0.1,0-0.2,0.2-0.2c-0.1,0.2,0,0.2,0,0.5c0,0,0.1,0.1,0.2,0.2c0.3-0.4,0.5-0.7,0.7-1.1
					c-0.1,0-0.2,0-0.2,0.1c-0.1-0.1,0-0.4,0-0.6c0.2,0.1,0.2-0.2,0.5-0.1c0,0.1-0.1,0.1-0.1,0.2c0,0.1,0.1,0.1,0.1,0
					c0.1-0.1,0.2-0.3,0.3-0.4c0,0,0,0,0,0c0,0,0,0,0,0c0.9-1.3,1.7-2.7,2.5-4.2c-0.1-0.1,0-0.3,0.1-0.3c-0.1-0.1-0.2-0.1-0.1-0.3
					c0.1,0,0.1,0,0.1,0c0.1,0.1,0.1,0.2,0.1,0.4c0.2-0.4,0.4-0.8,0.6-1.2c0.3-0.6,0.6-1.3,0.9-1.9c0,0,0-0.1-0.1-0.1
					c0,0,0-0.1,0-0.2c0.1,0,0.1,0,0.1,0c0,0.1,0,0,0,0c-0.1,0-0.1,0.1,0,0.1c0-0.1,0-0.1,0.1-0.2c0-0.1-0.1-0.3,0-0.4
					c0.1,0,0.1,0.1,0.2,0.2c2.9-6.4,5-13.9,6-22.6C431.1,263,424.4,262.6,417.7,262.2z"/>
			</g>
		</g>
		<g>
			<circle class="st1" cx="369.4" cy="244.6" r="13.5"/>
		</g>
	</g>
	<g>
		<g>
			<path class="st1" d="M273.1,13.3c0.9,0.4,1.6,0.9,2.3,1.5s1.1,1.3,1.5,2.2c0.4,0.8,0.6,1.7,0.6,2.7v35.7c0,0.3-0.1,0.6-0.3,0.8
				c-0.2,0.2-0.5,0.3-0.8,0.3h-8.5c-0.3,0-0.6-0.1-0.8-0.3c-0.2-0.2-0.3-0.5-0.3-0.8V22.7h-6.8v32.6c0,0.3-0.1,0.6-0.3,0.8
				c-0.2,0.2-0.5,0.3-0.8,0.3h-7.7c-0.3,0-0.6-0.1-0.8-0.3c-0.2-0.2-0.3-0.5-0.3-0.8V22.7h-6.8v32.6c0,0.7-0.4,1.1-1.2,1.1h-8.4
				c-0.8,0-1.2-0.4-1.2-1.1V13.9c0-0.7,0.4-1.1,1.2-1.1h36.8C271.3,12.7,272.2,12.9,273.1,13.3z"/>
		</g>
		<g>
			<path class="st1" d="M314.4,45.9c0.3,0,0.6,0.1,0.8,0.3c0.2,0.2,0.3,0.5,0.3,0.8v8.2c0,0.3-0.1,0.6-0.3,0.8
				c-0.2,0.2-0.5,0.3-0.8,0.3h-29c-0.8,0-1.2-0.4-1.2-1.2V13.9c0-0.8,0.4-1.2,1.2-1.2h8.9c0.8,0,1.2,0.4,1.2,1.2v30.8
				c0,0.3,0.1,0.6,0.4,0.8c0.2,0.2,0.5,0.3,0.9,0.3H314.4z"/>
		</g>
		<g>
			<path class="st1" d="M359.1,12.7c0.3,0,0.6,0.1,0.9,0.3c0.2,0.2,0.4,0.5,0.4,0.8v41.4c0,0.3-0.1,0.6-0.4,0.8
				c-0.2,0.2-0.5,0.3-0.9,0.3h-9c-0.3,0-0.6-0.1-0.9-0.3c-0.2-0.2-0.4-0.5-0.4-0.8V40.9c0-0.3-0.1-0.6-0.3-0.8
				c-0.2-0.2-0.5-0.3-0.8-0.3h-12.8c-0.3,0-0.6,0.1-0.9,0.3c-0.2,0.2-0.4,0.5-0.4,0.8v14.4c0,0.8-0.4,1.2-1.2,1.2h-8.9
				c-0.8,0-1.2-0.4-1.2-1.2V13.9c0-0.8,0.4-1.2,1.2-1.2h8.9c0.8,0,1.2,0.4,1.2,1.2v14c0,0.8,0.4,1.2,1.2,1.2h12.8
				c0.3,0,0.6-0.1,0.8-0.3c0.2-0.2,0.3-0.5,0.3-0.8v-14c0-0.3,0.1-0.6,0.4-0.8c0.2-0.2,0.5-0.3,0.9-0.3H359.1z"/>
		</g>
	</g>
</g>
<g id="minimum" class="st2">
	<path class="st3" d="M256.9,174c0-0.2,0.2-0.4,0.4-0.4h2c0.2,0,0.4,0.2,0.4,0.4v11h5.5c0.2,0,0.4,0.2,0.4,0.4v1.6
		c0,0.2-0.2,0.4-0.4,0.4h-7.8c-0.2,0-0.4-0.2-0.4-0.4V174z M277.6,173.4c4.3,0,7.7,3.2,7.7,7.1c0,3.9-3.4,7.1-7.7,7.1
		c-4.3,0-7.7-3.1-7.7-7.1C269.9,176.6,273.3,173.4,277.6,173.4z M277.6,185c2.7,0,4.9-2,4.9-4.5c0-2.5-2.2-4.5-4.9-4.5
		c-2.7,0-4.9,2.1-4.9,4.5C272.7,183,274.9,185,277.6,185z M298.1,173.4c2.2,0,3.7,0.6,5.2,1.8c0.2,0.2,0.2,0.4,0,0.6L302,177
		c-0.2,0.2-0.4,0.2-0.5,0c-0.9-0.7-2.1-1.2-3.3-1.2c-2.7,0-4.8,2.1-4.8,4.6c0,2.5,2.1,4.5,4.8,4.5c1.3,0,2.4-0.5,3.3-1.1
		c0.2-0.1,0.4-0.1,0.5,0l1.3,1.3c0.2,0.1,0.1,0.4,0,0.5c-1.5,1.3-3.3,1.9-5.2,1.9c-4.3,0-7.7-3.1-7.7-7.1
		C290.4,176.6,293.8,173.4,298.1,173.4z M307.6,186.9l6.7-13.2c0.1-0.1,0.2-0.2,0.4-0.2h0.2c0.2,0,0.3,0.1,0.4,0.2l6.6,13.2
		c0.1,0.3,0,0.5-0.4,0.5h-1.9c-0.3,0-0.5-0.1-0.6-0.4l-1-2.1h-6.4l-1,2.1c-0.1,0.2-0.3,0.4-0.6,0.4H308
		C307.6,187.4,307.5,187.1,307.6,186.9z M316.8,182.7l-2.1-4.3h-0.1l-2.1,4.3H316.8z M327.2,174c0-0.2,0.2-0.4,0.4-0.4h2
		c0.2,0,0.4,0.2,0.4,0.4v11h5.5c0.2,0,0.4,0.2,0.4,0.4v1.6c0,0.2-0.2,0.4-0.4,0.4h-7.8c-0.2,0-0.4-0.2-0.4-0.4V174z"/>
	<g class="st3">
		<path d="M278.4,245.9h-5.8c-0.2,0-0.4,0.2-0.4,0.4v14.8c0,0.2,0.2,0.4,0.4,0.4h5.8c4.7,0,8.5-3.5,8.5-7.8
			C287,249.4,283.1,245.9,278.4,245.9z M278.2,258.8h-2.8v-10.2h2.8c3.2,0,5.5,2.2,5.5,5.1C283.6,256.6,281.3,258.8,278.2,258.8z"/>
		<path d="M305,260.9l-7.5-15c-0.1-0.1-0.2-0.2-0.4-0.2h-0.2c-0.2,0-0.3,0.1-0.4,0.2l-7.5,15c-0.1,0.3,0,0.6,0.4,0.6h2.1
			c0.4,0,0.6-0.2,0.7-0.4l1.2-2.4h7.3l1.2,2.4c0.2,0.3,0.3,0.4,0.7,0.4h2.1C304.9,261.5,305.1,261.2,305,260.9z M294.5,256.1
			l2.4-4.9h0.1l2.4,4.9H294.5z"/>
		<g>
			<path d="M311.6,254l-5.5-7.5c-0.2-0.3,0-0.6,0.4-0.6h2.5c0.2,0,0.3,0.1,0.4,0.2l3.9,5.1l3.9-5.1c0.1-0.1,0.2-0.2,0.4-0.2h2.5
				c0.4,0,0.6,0.4,0.4,0.6l-5.6,7.4v7.1c0,0.2-0.2,0.4-0.5,0.4H312c-0.3,0-0.5-0.2-0.5-0.4V254z"/>
		</g>
	</g>
	<g class="st3">
		<g>
			<g>
				<path d="M254.6,216.4c0-1.2,0-2.4,0-3.7h0c0,0,0,0,0,0c0,0,0-0.1,0-0.1c0,0,0,0,0,0l0,0c0-1.7,0-3.4,0-5.1c0,0,0,0,0,0
					c0-0.1,0-0.2-0.1-0.2c0.1,0,0.1,0,0.1-0.1c0,0,0,0,0,0c0-0.9,0-1.8,0-2.8c0,0,0-0.1,0-0.1c0,0,0,0,0,0c0-0.2,0-0.4,0-0.6
					c0,0,0,0,0,0c0,0,0,0,0,0c0-1.2,0-2.5,0-3.7c0,0,0,0,0,0c0,0,0,0,0,0c0-0.2,0-0.3,0-0.5c0-0.1,0-0.2-0.1-0.2c0,0,0,0,0.1,0
					c0,0,0,0,0,0c0-0.7,0-1.4,0-2.2c-0.1,0-0.1,0-0.2,0c0,0,0,0.1,0,0.1c0,0-0.1,0-0.1-0.1c-0.4,0-0.8,0-1.3,0c0,0.1,0,0.1,0,0.2
					c0,0-0.1,0-0.1,0c0-0.1-0.1-0.2,0.1-0.2c-0.2,0-0.5,0-0.7,0c0,0-0.1,0.1,0,0.1c0,0,0,0.1-0.1,0.1c0,0,0-0.1,0.1-0.1c0,0,0,0,0,0
					c0,0,0,0,0,0.1c0,0,0,0,0-0.1c-0.5,0-1,0-1.4,0c0,0,0.1,0.1,0,0.1c0,0.1,0.1,0.1,0.1,0.2c0,0-0.1,0-0.1,0c0.1,0,0.1-0.2,0-0.2
					c0-0.1,0.1,0,0.1,0c0-0.1,0-0.1-0.1-0.1c-0.5,0-0.9,0-1.4,0c0,0-0.1,0,0,0.1c0,0,0,0,0-0.1c-0.3,0-0.7,0-1,0c0,0,0,0,0,0.1
					c0,0,0,0,0,0c0,0,0,0,0,0c-0.2,0-0.5,0-0.7,0c0,0,0,0,0,0c0,0,0,0,0,0c-0.2,0-0.4,0-0.6,0c0,0,0,0.1,0,0.1c-0.1,0-0.1,0-0.2-0.1
					c0,0,0,0,0,0c-0.4,0-0.9,0-1.3,0c0,0.1,0,0.1,0,0.2c-0.1,0-0.1,0-0.2,0c0-0.1,0-0.1,0-0.2c-0.1,0-0.1,0-0.2,0c0,0.2,0,0.4,0,0.6
					c0,0,0,0,0,0c0,0,0,0,0,0c0,0.2,0,0.4,0,0.6c0,0,0.1,0.1,0.1,0c0,0,0,0-0.1,0c0,0.2,0,0.3,0,0.5c0.1,0.1,0.1,0.2,0,0.3
					c0,0,0,0,0,0c0,0.9,0,1.8,0,2.7c0,0,0,0,0,0c0,0,0,0,0,0c0,0.5,0,0.9,0,1.4c0,0,0,0,0.1,0c0,0,0,0.1,0,0.1c0,0-0.1,0-0.1-0.1
					c0,0.2,0,0.5,0,0.7c0,0,0,0.1,0,0.1c0,0.2,0,0.4,0,0.6c0,0.1,0,0.2,0,0.2c0,0,0,0,0,0c0,0.2,0,0.4,0,0.5
					c0.1,0.1,0.1,0.2,0.1,0.3c0,0-0.1,0-0.1,0c0,1.7,0,3.4,0,5.1c0,0,0,0,0,0c0,0.1,0,0.2,0,0.2c0,0,0,0,0,0c0,0.2,0,0.3,0,0.5
					c0,0,0,0,0,0c0,0.1,0.1,0.2,0.1,0.3c0,0-0.1,0-0.1,0c0,0.1,0,0.3,0,0.4c-0.3,0-0.7,0-1,0.1c0,0.1-0.1,0-0.2,0c0,0,0,0,0,0
					c-0.2,0-0.4,0-0.6,0c0,0-0.1,0.1-0.2,0c0,0,0,0,0,0c-0.1,0-0.2,0-0.3,0c0,0.1,0.1,0.3,0,0.4c-0.1-0.1-0.1-0.3-0.1-0.4
					c-0.1,0-0.2,0-0.3,0c0,0,0,0-0.1,0c-0.1,0-0.2,0-0.4,0c0.1,0,0.1,0.3,0.1,0.4c0,0,0,0,0,0c0,0,0,0.1-0.1,0.1
					c-0.1-0.2,0-0.3,0-0.4c-0.1,0-0.2,0-0.3,0c0,0-0.1,0-0.1,0c-0.1,0-0.2,0-0.3,0c0.1,0.1,0.1,0.2,0.1,0.4c0,0-0.1,0-0.2,0
					c0-0.2,0-0.3,0-0.4c-0.2,0-0.4,0-0.6,0c0,0.1,0,0.3,0,0.4c-0.2,0-0.2-0.2-0.1-0.4c-0.2,0-0.4,0-0.6,0c0,0.1,0,0.2,0,0.4
					c-0.2,0-0.2-0.4-0.1-0.3c0,0,0,0,0,0c-0.2,0-0.5,0-0.7,0.1c0,0,0,0,0,0c0,0,0,0,0,0c-0.2,0-0.5,0-0.7,0.1
					c0.1,0.1,0.1,0.3,0.1,0.4c-0.1,0-0.1-0.2-0.1-0.3c-0.2,0-0.5,0-0.7,0.1c0.1,0.1,0.1,0.2,0.1,0.3c0,0-0.1,0-0.1,0
					c0-0.1,0-0.2,0-0.3c-0.2,0-0.4,0-0.6,0c0,0.1,0,0.1,0.1,0.2c0,0.1-0.1,0.1-0.1,0.2c-0.1,0-0.1-0.1-0.1,0c0-0.1,0-0.2,0-0.3
					c0,0,0,0,0,0c-0.2,0-0.4,0-0.7,0c0,0.1,0,0.2,0.1,0.3c0,0-0.1,0-0.1,0c0-0.1,0-0.2,0-0.3c-0.2,0-0.5,0-0.7,0.1
					c0,0.1,0,0.2,0,0.2c-0.1,0-0.1-0.2,0-0.2c0,0,0,0-0.1,0c-0.2,0-0.4,0-0.6,0c0,0.1,0,0.2,0,0.2c-0.1,0-0.1-0.1-0.1-0.2
					c-0.2,0-0.4,0-0.6,0c0-1.2,0-2.4,0-3.6c0,0,0,0,0,0c0,0,0-0.1-0.1-0.1c0,0,0.1-0.1,0.1,0c0-0.9,0-1.9,0-2.8c0,0,0,0,0,0
					c0,0,0,0,0,0c0-0.3,0-0.7,0-1c0,0,0,0,0,0c0,0,0,0,0,0c0-0.1,0-0.1,0-0.2c0,0,0,0,0,0c0-0.1,0-0.2,0-0.2c0-0.1,0-0.3,0-0.4
					c0,0,0,0-0.1,0c0,0,0,0,0,0c0,0,0,0,0,0c0,0,0,0,0,0c0,0,0,0,0,0c0,0,0,0,0-0.1c0,0,0-0.1,0-0.1c0,0,0,0,0,0c0,0,0,0,0,0
					c0,0,0,0,0-0.1c0,0,0,0,0,0c0-0.1,0-0.1,0-0.2c0,0,0,0,0,0c0,0,0,0-0.1,0c0,0,0,0,0,0c0,0,0-0.1,0-0.1c0,0,0,0,0,0
					c0-0.1,0-0.2,0-0.3c0,0,0,0,0,0c0,0,0,0,0,0c0,0,0,0,0-0.1c0,0,0,0,0,0c0,0,0-0.1,0,0c0-0.1,0-0.1,0-0.2c0,0,0,0,0.1,0
					c0-0.1,0-0.2,0-0.3c0,0,0,0,0,0c0.1-0.1-0.2-0.3,0-0.4c0-0.1,0,0-0.1,0c0,0,0.1-0.1,0.1-0.1c0-0.1,0-0.2,0-0.3c0,0,0,0,0,0
					c0,0,0-0.1,0-0.1c0,0,0,0,0,0c-0.1-0.1-0.1-0.2,0-0.3c0,0,0,0,0,0c0-0.1,0-0.2,0-0.3c0,0,0-0.2,0-0.2c0,0,0,0,0,0c0,0,0,0,0,0
					c0,0,0,0-0.1,0c0-0.1,0.1-0.1,0-0.2c0,0,0,0,0.1,0c0,0,0-0.1,0-0.1c0,0-0.1,0,0,0c-0.1,0,0-0.1,0-0.1c0,0,0,0,0,0
					c0-0.1,0-0.2,0-0.3c0-0.1-0.1-0.1-0.1-0.2c0.1-0.1,0.1-0.2,0-0.3c0.1,0.1,0.1,0,0.1-0.1c0,0,0-0.1,0-0.1c0,0-0.1,0-0.1,0
					c0-0.1,0.1-0.1,0-0.2c0-0.1,0,0,0.1,0v0c0,0-0.1,0,0-0.1c0,0,0,0,0,0c0,0,0-0.1,0-0.1c0,0,0,0-0.1,0c0,0,0,0,0.1,0c0,0,0,0,0,0
					c0,0-0.1,0-0.1,0c0,0,0,0,0.1,0c0-0.1,0-0.2,0-0.2c0,0,0,0,0,0c0-0.1,0-0.1-0.1-0.1c0-0.1,0.1-0.1,0-0.1c0,0,0,0,0,0
					c0,0,0,0,0,0c0,0,0,0,0,0c0-0.2,0-0.4,0-0.6c0,0-0.1,0-0.1,0c0-0.2,0-0.3,0-0.4c0.2,0.1,0.1,0.2,0.1,0.4c0,0,0,0,0,0
					c0,0,0,0,0-0.1c0,0,0,0,0-0.1c0,0,0,0,0,0c0-0.2,0-0.4,0-0.7c0,0,0,0-0.1,0c0,0,0-0.1,0-0.1c0-0.1,0.1-0.1,0.1-0.1
					c-0.1,0.1,0-0.1-0.1-0.2c0.1,0,0.1,0.1,0.1,0.2c0-0.2,0-0.4,0-0.6c-0.1,0-0.2,0-0.3,0c0,0,0,0,0,0c0,0-0.1,0-0.1,0
					c0.1,0,0.1,0.1,0,0.1c0.1,0,0.1,0.1,0.1,0.1c0,0,0,0.1-0.1,0.1c0-0.1,0-0.3,0-0.3c-0.1,0-0.2,0-0.3,0c0,0,0,0,0,0
					c0,0-0.1,0-0.1,0c-0.2,0-0.5,0-0.7,0c0,0,0,0-0.1,0c0,0.1,0.1,0,0.1,0c0,0-0.1,0-0.1,0c0,0,0,0,0-0.1c-0.2,0-0.4,0-0.6,0
					c0,0,0,0,0,0c0,0-0.1,0-0.1,0c-0.2,0-0.5,0-0.7,0c0,0,0,0.1,0,0.1c0,0-0.1,0-0.1,0c0,0,0-0.1,0-0.1c-0.2,0-0.5,0-0.7,0
					c0,0,0,0.1,0,0.1c-0.1,0-0.1-0.1-0.1-0.1c-0.2,0-0.4,0-0.6,0c0,0,0,0.1,0,0.1c-0.1,0-0.1-0.1,0-0.1c-0.3,0-0.5,0-0.8,0
					c0,0,0,0,0.1,0.1c0,0.1,0,0,0,0.1c0,0-0.1-0.1-0.1-0.2c-0.2,0-0.4,0-0.7,0c0,0,0,0.1,0,0.1c0.1-0.1,0.1,0,0.1,0.1
					c0,0.1,0-0.1,0-0.1c0,0,0,0.1,0,0.1c-0.1,0,0-0.1-0.1-0.2c-1.2,0-2.5,0-3.7,0c0,3,0,6,0,9c0,0,0-0.1,0-0.1c0,0,0,0.1,0,0.1
					c0,7.8,0,15.7,0,23.5c0,0,0.1,0,0.1,0c0,0,0,0,0,0c0,0,0,0.1,0,0.1c0,0.1,0,0.2,0,0.3c0,0,0,0,0,0c0,0,0,0,0,0.1
					c0,0.4,0,0.8,0,1.3c0,0,0,0,0,0c0,0,0,0,0,0.1c0,0,0,0-0.1,0c0,0.1,0,0.2,0,0.3c0,0,0,0,0,0c0,0,0,0,0,0c0,0.3,0,0.7,0,1
					c0,0,0,0,0,0c0,0.1,0,0.2,0,0.3c0,0,0,0,0.1,0c0,0,0,0.1-0.1,0.1c0,0.4,0,0.8,0,1.3c0.1-0.1,0.1-0.1,0.2-0.1
					c0,0.1-0.2,0.1-0.2,0.2c0,0,0,0-0.1,0c0,0.5,0,1,0,1.5c0,0,0.1,0,0.1-0.1c0,0,0,0,0,0c0,0.1-0.1,0.1-0.1,0.2c0,0,0,0,0,0
					c0,0.4,0,0.8,0,1.3c0,0,0,0,0,0c0,0,0,0,0,0.1c0,1,0,2,0,3c0,0,0.1-0.1,0.2-0.1c0,0,0,0,0,0c0,0,0,0,0,0c0,0,0,0.1,0,0.1
					c0,0-0.1,0-0.1,0c0,0.1,0,0.2,0,0.3c0,0,0,0,0,0c0,0,0,0.1,0,0.1c0,0,0,0,0,0c0,0.4,0,0.9,0,1.3c0,0,0.1,0,0.1,0
					c0,0,0,0.1-0.1,0.1c0,0.4,0,0.9,0,1.3c0,0,0.1-0.1,0.2-0.1c0,0,0,0.1,0,0.1c0.8-0.2,1.6-0.4,2.3-0.5c0,0,0,0-0.1,0
					c0-0.1,0.2-0.2,0.3-0.2c0,0.1-0.1,0.2-0.2,0.2c0.5-0.1,1-0.2,1.4-0.3c0,0,0.1,0,0.1,0c0,0,0,0,0,0c0.3-0.1,0.6-0.1,0.9-0.2
					c0,0,0,0,0,0c0,0,0,0,0,0c0,0,0.1-0.1,0.1-0.1c0.1,0,0,0.1-0.1,0.2c0.6-0.1,1.2-0.3,1.8-0.4c0,0,0,0,0,0
					c0.3-0.1,0.6-0.1,0.9-0.2c0,0,0.1-0.1,0.1-0.1c0,0,0,0,0,0c0,0,0,0,0,0.1c0,0,0,0-0.1,0c0.6-0.1,1.1-0.2,1.7-0.4
					c0-0.3,0-0.5,0-0.8c0,0,0,0.1-0.1,0.1c-0.1,0,0-0.1-0.1-0.1c0-0.1,0.1-0.1,0.1-0.1c0-0.5,0-1,0-1.5c-0.1,0-0.1,0-0.1,0
					c0.1,0,0.1-0.1,0.1-0.2c0-0.1,0-0.1,0-0.2c0,0,0,0,0,0c0,0,0,0,0,0c0-0.5,0-0.9,0-1.4c-0.1,0.1-0.1,0.1-0.1,0.2
					c0,0-0.1,0-0.1-0.1c0.1,0,0.1-0.1,0.2-0.2c0-0.1,0-0.2,0-0.3c0,0,0,0,0,0.1c-0.1,0-0.1,0-0.1-0.1c0.1,0,0.1-0.1,0.1-0.1
					c0-0.1,0-0.1,0-0.2c0,0,0,0-0.1-0.1c0,0,0,0,0.1,0c0-0.3,0-0.6,0-0.9c0,0,0,0,0,0.1c-0.1,0-0.1,0.1-0.2,0c0,0,0.1-0.1,0.1-0.1
					c0,0,0-0.1,0-0.1c0,0,0.1-0.1,0.1-0.1c0-0.1,0-0.1,0-0.2c0,0,0,0-0.1,0c0-0.1,0-0.1,0.1-0.1c0-0.4,0-0.8,0-1.2
					c-0.1,0-0.1,0.1-0.2,0.1c0,0,0-0.1,0-0.1c0,0,0.1,0,0.1-0.1c0,0,0,0,0.1,0c0,0,0,0,0,0c0,0,0,0,0,0c0,0,0-0.1,0-0.1
					c0,0-0.1,0-0.1,0c0,0,0.1-0.1,0.1-0.1c0-0.1,0-0.2,0-0.3c0,0,0,0,0,0c0,0,0,0,0,0c0-0.2,0-0.3,0-0.5c-0.1,0-0.2,0.1-0.2,0.2
					c-0.1,0,0,0,0-0.1c0,0.1-0.1-0.1,0-0.1c0,0,0,0,0,0.1c0-0.1,0.1-0.1,0.2-0.2c0,0.1,0,0.1,0,0.1c0-0.1,0-0.2,0-0.3c0,0,0,0,0,0.1
					c0,0-0.1,0-0.1,0c-0.2-0.1,0.1-0.1,0.1-0.2c0-0.1,0-0.1,0-0.2c0,0,0,0,0,0c0,0,0-0.1,0-0.1c0,0,0.1,0,0.1,0c0-0.3,0-0.6,0-0.9
					c0,0-0.1,0.1-0.2,0.1c0.1,0,0,0.1-0.1,0c0.1,0,0.1-0.1,0.2-0.1c0,0,0.1,0,0.1,0c0-0.1,0-0.2,0-0.2c0,0-0.1,0.1-0.1,0.1
					c0,0,0-0.1-0.1-0.1c0.1,0,0.1-0.1,0.2-0.1c0-0.1,0-0.1,0-0.2c0,0,0,0-0.1-0.1c0,0,0,0,0,0c0,0,0,0,0.1,0c0-0.2,0-0.4,0-0.6
					c0,0,0,0,0,0c-0.1,0.1-0.2,0.2-0.3,0.3c-0.1,0-0.1-0.1,0-0.1c0.1-0.1,0.1-0.1,0.1-0.1c-0.1-0.1,0.1,0,0.1,0c0,0,0-0.1,0-0.1
					c0,0,0.1,0,0.1,0c0-0.2,0-0.3,0-0.5c0,0,0,0-0.1,0c0,0-0.1,0,0-0.1c0,0,0.1,0,0.1-0.1c0-0.4,0-0.8,0-1.1c0,0-0.1,0-0.1,0.1
					c0,0,0,0,0,0c-0.1,0,0,0.1,0,0.1c0,0,0-0.1-0.1,0c-0.1-0.2,0.1-0.1,0.2-0.3c0,0,0,0,0,0c0-0.1,0-0.1,0-0.2c0,0-0.1,0.1-0.1,0.1
					c0,0,0-0.1,0-0.1c0,0,0.1,0,0.1,0c0-0.2,0-0.4,0-0.5c0,0,0,0-0.1,0c0,0,0.1-0.1,0-0.1c0,0,0,0,0,0c0-0.2,0-0.4,0-0.6
					c0,0-0.1,0.1-0.1,0.1c0,0,0-0.1,0-0.1c0,0,0,0,0.1,0c0,0,0,0,0-0.1c0,0,0.1,0,0.1,0c0,0,0,0,0,0c0-0.1,0-0.2,0-0.2c0,0,0,0,0,0
					c0,0,0,0-0.1,0c0,0,0-0.1,0.1-0.1c0,0,0,0,0,0c0,0,0,0,0-0.1c0,0,0,0,0,0c0,0,0,0,0,0c0-0.1,0-0.2,0-0.2c0,0,0,0,0,0
					c0,0,0,0,0,0c0-0.3,0-0.6,0-0.8c-0.1,0-0.1,0-0.2,0.1c0,0,0-0.1,0-0.1c0,0.1,0.1,0,0.1,0c0,0,0,0,0.1,0.1c0,0,0,0,0,0
					c0,0-0.1,0,0-0.1c0,0,0,0,0.1,0c0-0.1,0-0.2,0-0.3c0,0,0,0-0.1,0c0,0,0-0.1,0-0.1c0,0,0,0,0,0.1c0-0.2,0-0.5,0-0.7
					c0.1,0,0.1,0,0.2,0c0,0,0,0,0,0c0,0,0,0,0.1,0c0,0,0,0,0.1,0.1c0.1,0,0.3,0,0.4-0.1c0,0,0,0,0,0c0,0,0,0,0,0
					c0.4-0.1,0.8-0.1,1.3-0.1c0,0,0,0,0.1,0c0,0,0,0,0,0c0.4,0,0.8-0.1,1.2-0.1c0.1,0,0.1,0,0.1-0.1c0.1,0-0.1,0.1,0,0.1
					c1.4-0.2,2.8-0.3,4.2-0.5c0-0.1,0-0.3,0-0.3c0.1,0,0.1,0.1,0.2,0.2c0,0,0,0.1,0,0.1c0.2,0,0.4,0,0.7-0.1c0,0,0-0.1,0-0.1
					c0,0,0.1,0,0.1,0.1c0.9-0.1,1.9-0.2,2.8-0.3c0,0.5,0,0.9,0,1.4c0,0,0,0,0,0c0,0.1,0,0.1,0,0.2c0,0,0,0,0,0c0,0.2,0,0.4,0,0.6
					c0,0,0,0,0,0c0,0.1,0,0.3,0,0.4c0,0,0,0,0,0c0,0.2,0,0.5,0,0.7c0,0,0,0,0.1,0c0,0,0,0,0,0c0,0.1,0,0,0.1,0c0,0,0,0,0,0
					c0,0.1-0.1,0.1-0.1,0.1c0,0,0-0.1,0-0.1c0,0-0.1,0-0.1,0c0,1,0,1.9,0,2.9c0,0,0,0,0,0c0,0,0,0.1,0,0.1c0,0.5,0,1,0,1.5
					c0,0,0.1,0,0.1-0.1c0,0.1-0.1,0.1-0.1,0.1c0,1.2,0,2.4,0,3.5c0,0,0,0,0,0c0,0,0,0,0,0c0,0.6,0,1.2,0,1.8c0,0,0.1,0,0.1,0
					c0,0-0.1,0-0.1,0.1c0,0,0,0,0,0c0,0.4,0,0.8,0,1.2c0,0,0.1,0,0.1-0.1c0,0.1-0.1,0.1-0.1,0.1c0,0,0.1,0,0,0.1c0,0,0,0,0,0
					c0,0.1,0,0.2,0,0.3c0,0,0,0,0,0c0,0,0,0,0,0c0,0.5,0,1,0,1.5c0,0,0,0,0,0c0,0,0,0,0,0c0,0,0-0.1,0.1-0.1c0,0,0,0-0.1,0
					c0,0,0,0,0,0c-0.1,0,0,0.1-0.1,0c0,0,0,0,0,0.1c0,0,0,0-0.1-0.1c0,0.2,0,0.3,0,0.5c0.5-0.1,1-0.2,1.6-0.3c0,0-0.1,0-0.1-0.1
					c0.1-0.1,0.2,0,0.1-0.1c0-0.1,0.1,0,0.1,0c0,0,0,0,0,0c0,0,0,0,0,0.1c0,0-0.1,0-0.1,0.1c0.1,0,0.2,0,0.3-0.1c0,0,0,0,0.1-0.1
					c0,0,0,0,0,0.1c2.5-0.4,5-0.8,7.6-1.2c0-7.1,0.1-14.2,0.1-21.3C254.5,216.5,254.5,216.4,254.6,216.4z"/>
			</g>
		</g>
		<g>
			<g>
				<path d="M359.2,222.5C359.2,222.5,359.2,222.5,359.2,222.5c-0.1-0.2-0.2-0.4-0.3-0.6c0,0-0.1,0.1-0.1,0.1c0,0,0-0.1,0-0.1
					c0,0,0-0.1,0.1-0.1c-0.1-0.2-0.2-0.4-0.3-0.7c0,0-0.1,0.1-0.1,0.1c0,0,0,0,0,0c0,0,0,0,0,0c0,0,0.1-0.1,0.1,0c0,0,0-0.1-0.1-0.1
					c1-0.7,1.9-1.4,2.6-2.2c0,0,0,0,0,0c0,0,0,0,0,0c0.2-0.3,0.5-0.6,0.7-0.9c-0.1,0-0.1-0.1-0.1-0.2c0.1,0,0.1,0.1,0.1,0
					c0,0,0,0,0.1,0c0,0,0-0.1,0.1-0.1c0,0-0.1,0.1-0.1,0c0,0,0.1-0.1,0.1-0.1c0,0,0,0,0,0c0,0,0,0,0,0c0.6-0.9,1.1-1.8,1.6-2.8
					c0,0,0,0,0,0c0,0,0,0,0,0c0,0,0,0,0,0c0,0,0,0,0,0c0,0,0,0,0,0c0,0,0,0,0,0c0,0,0,0,0.1,0c0.1-0.1,0.1-0.3,0.2-0.4
					c0,0,0,0,0-0.1c0,0,0,0,0-0.1c-0.1,0-0.1,0.1-0.2,0.1c0,0,0-0.1-0.1-0.1c0.1,0,0.1,0,0.2-0.1c0,0,0.1,0,0.1,0
					c0.9-2.3,1.3-4.9,1.5-7.6c0,0,0,0,0-0.1c0,0,0,0,0.1,0c0.1-0.8,0.1-1.7,0.1-2.5c0,0-0.1,0-0.1,0c0,0,0,0,0-0.1c0,0,0.1,0,0.1,0
					c0-1,0-2,0-3c0,0,0,0,0-0.1c0,0,0,0,0,0c0-0.4,0-0.8,0-1.3c0,0-0.1,0-0.1,0c0,0,0.1,0,0.1,0c0-0.5,0-0.9,0-1.4
					c-1.2,0-2.3,0-3.5,0c0,0-0.1,0-0.1,0c-0.2,0-0.3,0-0.5,0c0,0,0,0,0,0c0,0,0,0,0,0c0,0.1,0,0-0.1,0c-0.5,0-0.9,0-1.4,0
					c0,0-0.1,0.1,0,0.2c-0.1,0-0.1,0.1-0.2,0.1c0,0,0-0.1-0.1-0.1c0,0,0.1,0,0-0.1c0.1-0.1,0.1,0,0.2-0.1c-0.2,0-0.4,0-0.6,0
					c0,0-0.1,0-0.1,0c0,0,0,0,0,0c-0.2,0-0.3,0-0.5,0c0,0,0,0,0,0c0,0,0,0-0.1,0c-0.5,0-1,0-1.5,0c-0.1,0.1-0.1,0.1-0.2,0.1
					c0,0,0-0.1,0.1-0.1c-0.1,0-0.3,0-0.4,0c0,0,0,0,0,0c0,0,0,0,0,0c-0.2,0-0.4,0-0.5,0c0,0-0.1,0.1-0.2,0c0,0,0,0,0,0
					c0,0-0.1,0-0.1,0c0,0.3,0,0.6,0,0.9c0,0,0-0.1,0.1-0.1c0,0,0,0,0,0.1c0,0.1,0.1,0,0.1,0.1c0,0-0.1,0-0.1,0.1c0,0.1,0,0.2,0,0.3
					c0,0,0.1,0,0.1,0c0,0-0.1,0-0.1,0.1c0,0,0,0,0,0c0,0,0,0,0,0c0,0,0,0,0,0c0,0.5,0,1.1,0,1.6c0,0,0.1-0.1,0.1-0.1
					c0.1,0,0.1,0,0.2,0c0,0,0,0,0,0.1c0,0,0,0-0.1,0c0,0,0,0.1,0.1,0.1c-0.1,0.1-0.2,0.1-0.1,0.1c0.1,0,0,0-0.1,0c0,0,0,0,0-0.1
					c0,0.1,0,0.2,0,0.3c0,0,0.1-0.1,0.1-0.1c0,0.1,0.1,0,0.2,0.1c0,0-0.1,0-0.1,0c0,0-0.1,0-0.1,0c0,0-0.1,0.1,0,0.1
					c0,0-0.1,0-0.1,0.1c0,0,0,0,0,0c0,0.1,0,0.2,0,0.2c0,0,0,0,0,0c0,0,0,0,0,0.1c0,0,0,0,0,0c0,0.1,0,0.2,0,0.4c0,0,0,0.1,0,0.1
					c0,0.2,0,0.5,0,0.7c0,0,0,0,0,0c0,0,0.1,0,0.1,0c0,0,0-0.1,0-0.1c0.1,0,0.1,0,0.1-0.1c0,0-0.1,0-0.1,0c0,0,0.1,0,0.1,0
					c0,0.1,0,0.1,0,0.2c0,0,0,0-0.1,0c0,0-0.1,0.1-0.1,0.1c0,0,0.1,0.1,0,0.1c0-0.1,0,0-0.1,0c0,0.1,0,0.2,0,0.3c0,0,0.1,0,0.1-0.1
					c0,0.1,0.1,0.1,0.2,0c0,0.1-0.2,0.1-0.2,0.2c0,0-0.1,0-0.1,0c0,0.1,0,0.2,0,0.2c0.1,0,0.1,0,0.2-0.1c0,0.1-0.1,0.1-0.2,0.1
					c0,0.1,0,0.1-0.1,0.2c0,0.1,0,0.2,0,0.3c0,0,0,0,0,0c0,0,0,0.1,0,0.1c0,0.3,0,0.6-0.1,0.8c0,0,0,0,0,0c0,0,0,0.1,0.1,0.1
					c0,0-0.1-0.1-0.1-0.1c0,0.5-0.1,0.9-0.2,1.3c0,0,0,0,0-0.1c0,0,0.2,0,0.2-0.1c0.1,0,0,0.1,0,0.1c0,0,0.1-0.1,0.1,0
					c-0.1,0.1,0,0.1-0.2,0.2c0,0,0,0,0-0.1c-0.1,0,0,0.1-0.1,0.2c0,0,0-0.1,0-0.1c0,0.1,0,0.3-0.1,0.4c0.1-0.1,0.2-0.3,0.3-0.1
					c0,0.1-0.1,0.2-0.3,0.3c0,0,0,0,0-0.1c-0.1,0.3-0.1,0.7-0.2,1c0.1,0,0.1-0.1,0.2-0.2c0,0,0,0.1,0,0.1c0,0.1-0.2,0.1-0.3,0.2
					c0.1,0-0.1,0,0,0.1c0,0,0,0,0,0c0,0.1-0.1,0.2-0.1,0.4c0,0,0,0,0,0c0,0.1-0.1,0.1,0,0.2c0,0,0,0,0,0c0,0.1-0.1,0.2-0.1,0.4
					c0,0,0,0,0,0c-0.1,0.3-0.2,0.6-0.4,0.9c0,0,0,0,0.1,0c0.1,0.1,0,0.1-0.1,0.2c0,0,0,0,0,0c0,0,0,0.1-0.1,0.1c0,0,0,0,0,0
					c0,0,0,0,0,0c-0.1,0.1-0.1,0.3-0.2,0.4c0,0,0,0,0.1-0.1c0,0.1-0.1,0.3-0.2,0.3c-0.2,0.2-0.3,0.4-0.5,0.7c0,0,0.1,0,0.1-0.1
					c0,0,0,0.1,0,0c-0.1,0.1-0.2,0.3-0.3,0.3c0,0,0,0,0,0c-0.3,0.3-0.7,0.6-1.1,0.9c0,0,0,0,0,0.1c0,0,0,0,0,0
					c-0.2,0.1-0.3,0.2-0.5,0.3c0,0,0,0,0,0c0,0,0,0,0,0c0,0-0.1,0-0.1,0c0,0,0,0,0,0c0,0.1-0.2,0.2-0.2,0.1c0,0,0.1,0,0.1,0
					c-0.4,0.1-0.7,0.3-1.1,0.3c0,0.1-0.1,0.1-0.1,0.1c0,0,0,0,0-0.1c0,0,0,0,0,0c-0.1,0-0.3,0-0.4,0.1c0,0-0.1,0-0.1,0.1
					c0,0,0,0,0,0c-0.3,0-0.6,0.1-0.9,0.1c-0.1,0.1-0.1,0.1-0.2,0.1c0,0.1-0.1,0.1-0.2,0c0.1,0,0.2-0.1,0.2-0.2c-0.2,0-0.4,0-0.6,0
					c-0.1,0-0.1-0.1-0.1,0.1c0,0,0,0,0,0c0,0,0,0,0,0c0,0,0,0,0,0c-0.1,0-0.3,0-0.4,0c0,0,0,0-0.1,0c0,0,0,0,0,0c0,0-0.1,0-0.1,0
					c-0.2,0-0.5,0-0.7,0c0-0.3,0-0.5,0-0.8c-0.1,0.1-0.1,0.1-0.2,0.2c-0.1,0-0.1-0.1-0.1-0.1c0.1-0.1,0.2-0.2,0.3-0.2
					c0-0.1,0-0.2,0-0.3c0,0-0.1,0-0.1,0c0,0,0-0.1,0.1-0.1c0-0.6,0-1.1,0-1.7c0,0,0,0-0.1,0c0,0.1-0.1,0.2-0.2,0.1
					c0.1,0,0.2-0.1,0.2-0.2c0-0.1,0-0.1,0-0.2c0,0,0,0,0,0c-0.1-0.1-0.1-0.1-0.1-0.2c0,0,0.1,0,0.1-0.1c0-0.3,0-0.5,0-0.8
					c-0.1,0-0.3,0.2-0.5,0.4c-0.1,0-0.1-0.1-0.1-0.1c0.1-0.1,0.4-0.4,0.5-0.3c0-0.2,0-0.3,0-0.5c-0.1,0.1-0.1,0.3-0.3,0.3
					c0-0.2,0.2-0.2,0.3-0.4c0,0,0,0,0,0c0-0.1,0-0.2,0-0.3c-0.1,0.1-0.1,0.1-0.2,0.2c0,0-0.1,0-0.1-0.1c0.1-0.1,0.2-0.2,0.3-0.2
					c0-0.1,0-0.1,0-0.2c0,0,0,0,0,0c-0.1,0-0.1-0.1-0.1-0.2c0,0,0.1,0,0.1,0c0-0.5,0-1.1,0-1.6c0,0,0,0-0.1,0c0,0.1,0,0.1-0.1,0.1
					c-0.1-0.2,0-0.2,0.2-0.3c0-0.1,0-0.2,0-0.3c0,0,0,0-0.1,0c0,0-0.1-0.1-0.1-0.1c0,0,0.1-0.1,0.1-0.1c0-0.4,0-0.8,0-1.2
					c0,0,0,0,0,0c0,0,0,0,0,0c0-0.1,0-0.3,0-0.4c0,0-0.1,0.1,0,0.1c0,0,0,0,0,0c0-0.1-0.1,0.1-0.2,0.1c0-0.1,0.2-0.2,0.3-0.3
					c0-0.1,0-0.2,0-0.2c0,0,0,0-0.1,0.1c0-0.1-0.1,0-0.1-0.1c0.1,0,0.1-0.1,0.2-0.2c0-0.1,0-0.2,0-0.3c0-0.1-0.1-0.1-0.1-0.2
					c0,0,0,0,0.1,0c0-0.3,0-0.5,0-0.8c0,0,0,0-0.1,0c-0.1,0.1-0.2,0.3-0.4,0.3c0,0,0-0.1,0-0.1c0.1-0.1,0.3-0.2,0.4-0.3
					c0-0.1,0-0.1,0-0.2c0,0.1-0.1,0.1-0.2,0.1c0,0-0.1-0.1-0.1-0.1c0.1,0,0.2-0.1,0.2-0.2c0,0,0.1,0,0.1,0c0-0.1,0-0.1,0-0.2
					c0,0,0,0,0,0c-0.1-0.1-0.2-0.1-0.1-0.2c0.1,0,0.1,0,0.2-0.1c0-0.1,0-0.2,0-0.3c0,0,0,0,0,0c0,0,0,0,0,0c0-0.3,0-0.6,0-0.9
					c0,0-0.1,0-0.1,0c0,0,0.1,0,0.1,0c0-0.1,0-0.2,0-0.4c-0.1,0.1-0.2,0.1-0.2,0.2c0,0-0.1,0-0.1-0.1c0.1,0,0.1-0.1,0.1-0.1
					c0,0,0,0,0,0.1c0,0,0.1-0.1,0-0.1c0.1,0,0.1,0,0.1-0.1c0-0.1,0-0.1,0-0.2c0,0-0.1,0-0.1,0.1c0,0,0-0.1-0.1-0.1c0,0,0-0.1,0-0.1
					c0,0,0.1,0,0.1,0c0-0.2,0-0.3,0-0.5c0,0,0,0,0-0.1c0,0,0,0,0,0c0-0.3,0-0.5,0-0.8c0,0,0,0,0,0c-0.1,0.1-0.2,0.2-0.2,0.3
					c0,0-0.1,0-0.1,0.1c-0.1,0-0.1-0.1-0.1-0.2c0.1,0,0.1-0.1,0.2-0.2c-0.2,0-0.3,0-0.5,0c-0.1,0-0.1,0.1-0.2,0.1
					c-0.1,0,0-0.1,0.1-0.1c-0.2,0-0.4,0-0.6,0c0,0,0,0.1-0.1,0.1c0,0,0,0,0,0c0,0,0,0,0-0.1c-0.1,0-0.3,0-0.4,0c0,0,0,0,0,0
					c0,0,0,0,0,0c-0.8,0-1.5,0-2.3,0c0,0,0,0,0,0c0,0,0,0,0,0c-0.2,0-0.4,0-0.6,0c0,0,0,0,0,0c0,0,0,0,0,0c-1,0-1.9,0-2.8,0
					c0,0,0,0,0,0c0,0,0,0,0,0c-0.6,0-1.2,0-1.7,0c0,2.1,0,4.2,0,6.2c0,0,0.1,0,0.1,0c0,0.1-0.1,0.1-0.1,0.1c0,0,0,0.1,0,0.1
					c0,0.7,0,1.4,0,2.1c0,0,0,0,0,0c0,0,0,0,0-0.1c0,0,0,0,0,0c0,0,0-0.1,0,0c0,0,0.1,0,0.1,0c0.1,0,0,0,0,0c0,0,0,0.1,0,0.1
					c-0.1,0-0.1,0-0.1,0.1c0,0,0,0-0.1,0c0,0,0,0,0,0c0,0.6,0,1.1,0,1.7c0,0,0,0,0,0c0,0,0,0.1,0,0.1c0,0-0.1,0-0.1,0
					c0,0.2,0,0.3,0,0.5c0,0,0,0,0,0c0,0,0,0,0,0c0,0.6,0,1.1,0,1.7c0,0,0,0,0,0.1c0,0,0,0,0,0c0,0.7,0,1.5,0,2.2
					c0.1,0,0-0.1,0.1-0.1c0.1,0,0.1,0,0.1,0c0,0.1-0.1,0.2-0.2,0.2c0-0.1,0-0.1,0-0.1c0,0.9,0,1.9,0,2.8c0,0,0,0,0,0c0,0,0,0,0,0.1
					c0,1.4,0,2.7,0,4.1c0,0,0,0,0.1,0c0,0,0,0.1,0.1,0.1c0,0-0.1,0.1-0.1,0.1c0,2.8,0,5.6,0,8.3c0,0,0,0.1,0,0.1c0,0,0,0,0,0
					c0,0,0,0,0,0c0,0.9,0,1.9,0,2.8c0,0,0,0,0,0c0,0.1,0,0.1,0,0.2c0,0,0,0,0,0c0,0.1,0,0.2,0,0.2c0,0,0,0.1,0,0.1c0,0,0,0,0,0
					c0,0,0,0,0,0c0,0,0,0,0,0c0,0,0,0,0,0c0,0,0,0,0,0c0,0,0,0,0,0c0,0.1,0,0.2,0,0.3c0,0,0,0,0,0c0.1,0,0,0.1,0,0.2c0,0,0,0-0.1,0
					c0,0.1,0,0.2,0,0.3c0,0,0,0,0,0c0,0,0,0,0.1,0c0,0,0,0.1,0,0.1c0,0,0,0,0,0c0,0,0,0,0.1,0c0,0,0,0.1,0,0c0,0-0.1,0-0.1,0
					c0,0,0.1,0,0,0c0,0,0,0-0.1,0c0,0.4,0,0.8,0,1.2c0,0,0,0.1,0,0.1c0,0,0,0,0,0c0,0.1,0,0.3,0,0.4c0,0,0,0,0,0c0,0,0,0,0,0
					c0,0.1,0,0.2,0,0.3c0,0,0,0.1,0,0.1c0,1,0,2,0,3c0,0,0,0,0.1,0c0,0,0,0,0,0.1c0,0.1,0,0.2,0,0.3c0,0,0,0,0,0c0,0,0,0.1,0,0.1
					c0,0,0,0.1,0,0.1c0,0,0,0-0.1,0c0,0,0,0.1,0,0.1c0.8,0.1,1.7,0.2,2.5,0.4c0,0,0,0,0,0c0,0,0,0,0,0c0.1,0,0.3,0,0.4,0.1
					c0,0,0,0,0,0c0,0,0,0,0.1,0c0,0,0,0.1,0,0.1c0.5,0.1,1,0.2,1.5,0.2c0,0,0,0,0,0c0-0.1,0.1-0.1,0.1,0c0,0.1-0.1,0.1-0.1,0
					c0.2,0,0.5,0.1,0.7,0.1c0,0,0,0,0,0c0,0,0,0,0,0c0,0,0,0,0,0c0.3,0.1,0.7,0.1,1,0.2c0,0,0,0,0.1,0c0,0,0,0,0,0.1
					c1,0.2,2,0.3,3.1,0.5c0-5.3,0-10.7-0.1-16c1.2,0.1,2.3,0.3,3.6,0.1c2.7,5.8,5.4,11.8,8,18c3.4,0.7,6.8,1.5,10.3,2.3
					c0-0.6,0-1.2,0-1.9c-3-7-6-13.6-9.1-19.9C359.2,222.6,359.2,222.5,359.2,222.5z"/>
			</g>
		</g>
		<g>
			<path d="M292,227c0,0-0.1-0.2-0.1-0.3c-0.1-0.3-0.3-0.6-0.4-0.9c0,0,0,0,0,0c-0.2-0.5-6.8-15-7.1-15.7c0,0-0.1,0-0.1,0
				c0,0,0-0.1,0.1-0.1c-0.4-0.9-0.8-1.9-1.3-2.8c0,0,0,0,0-0.1c0,0,0,0,0,0c-0.5-1-0.9-2-1.4-3c0,0,0,0,0-0.1c0,0,0,0,0,0
				c-0.2-0.3-0.3-0.7-0.5-1.1c0,0.1,0,0,0,0c-0.8-1.9-1.7-3.6-2.5-5.6c-0.6,0-1.2,0-1.8,0c0,0,0.1,0.1,0,0.1c0,0,0-0.1,0-0.1
				c0,0,0,0,0,0c-0.7,0-1.4,0-2.2,0c-0.4,1-0.9,2-1.3,3.1c0,0,0.1,0,0.1,0c0,0,0,0.1,0,0.1c0,0,0,0,0,0c0,0.1-0.2,0.1-0.2,0.2
				c0,0,0,0,0,0c0,0,0,0,0,0.1c0,0,0,0,0,0c-0.1,0.3-0.3,0.6-0.4,0.8c0,0,0,0,0,0c0,0,0,0,0,0c0,0,0,0,0,0c0,0,0,0,0,0c0,0,0,0,0,0
				c-0.2,0.4-0.3,0.8-0.5,1.2c0,0,0,0,0,0c0,0,0,0,0,0c0,0.1-0.1,0.1-0.1,0.2c0,0,0,0,0,0.1c0,0,0,0,0,0c0,0,0,0,0,0c0,0,0,0,0,0
				c0,0.1-0.1,0.1-0.1,0.2c0,0,0,0.1,0.1,0.1c0,0,0,0,0,0c0,0,0,0-0.1,0c0,0,0,0,0,0c-0.1,0.3-0.3,0.6-0.4,0.9c0,0,0,0,0,0.1
				c0,0,0,0-0.1,0c0,0,0,0,0,0c0,0.1-0.1,0.1-0.1,0.2c0.1,0,0.1,0.1,0.1,0.1c-0.1,0-0.1-0.1-0.1-0.1c-0.2,0.4-0.4,0.8-0.5,1.2
				c0,0,0.1,0.1,0.1,0.1c0,0,0,0-0.1-0.1c0,0.1-0.1,0.1-0.1,0.2c0,0,0.1,0,0.1,0.1c0,0,0,0,0,0c0,0,0,0-0.1-0.1
				c0,0.1-0.1,0.1-0.1,0.2c0,0,0,0,0,0c0,0,0,0,0,0c-0.1,0.1-0.1,0.3-0.2,0.4c0,0,0,0,0,0c0,0,0,0,0,0c0,0,0,0,0,0c0,0,0,0,0,0
				c0,0,0,0,0,0c0,0.1-0.1,0.1-0.1,0.2c0,0,0,0,0,0c0,0,0,0.1,0.1,0c0,0.1-0.1,0.1-0.1,0.1c0,0,0,0-0.1,0c0,0.1,0,0.1-0.1,0.2
				c0,0,0,0,0,0c0,0.1,0.1,0.1,0.1,0.2c0,0,0,0,0,0c0,0,0-0.1-0.1-0.1c0-0.1,0-0.1,0-0.1c0,0.1-0.1,0.1-0.1,0.2c0,0,0,0,0,0
				c0,0,0,0,0,0.1c0,0,0,0,0,0c-0.1,0.2-0.2,0.5-0.3,0.7c0,0,0,0.1,0,0.1c0,0,0,0,0,0c0,0.1-0.1,0.1-0.1,0.2c0,0,0,0,0.1,0.1
				c0,0,0-0.1,0.1,0c0,0-0.1,0.1-0.1,0.1c0,0,0,0,0-0.1c0,0.1-0.1,0.1-0.1,0.2c0,0,0.1,0.1,0.1,0.1c0,0,0.1,0,0.1,0c0,0,0,0,0,0.1
				c0-0.1-0.1-0.1-0.1-0.2c-0.1,0.3-0.3,0.6-0.4,0.9c0,0.1,0.1,0.1,0.1,0.1c-0.1,0.1-0.1,0-0.1,0c0,0,0,0.1-0.1,0.1c0,0,0,0,0,0
				c0,0,0.1-0.1,0.1,0c0,0,0,0-0.1,0c0,0,0,0,0.1,0.1c0,0,0,0,0,0c0,0,0,0,0,0.1c0,0,0,0,0,0c0.1,0.1-0.1,0.1-0.1,0.2
				c0,0-0.1-0.1-0.1,0c0,0,0-0.1,0-0.1c0,0,0,0.1,0,0.1c0,0,0,0,0,0c0,0,0,0.1,0,0.1c0,0,0,0,0,0c-0.1,0.2-0.2,0.4-0.3,0.7
				c0,0,0,0,0,0c0,0,0,0-0.1,0c0,0,0,0,0,0c0,0,0,0,0,0.1c0,0,0,0,0,0c0,0.1,0,0.1-0.1,0.2c0,0,0.1,0.1,0.1,0.2c-0.1,0-0.1,0-0.1,0
				c0,0.1-0.1,0.1-0.1,0.2c0,0,0,0,0,0c0.1,0.1,0.1,0.1,0.2,0.2c0,0,0,0-0.1,0c0,0-0.1-0.1-0.1-0.2c-0.1,0.2-0.2,0.5-0.3,0.7
				c0,0,0,0,0,0c0,0,0,0,0,0c0,0.1-0.1,0.2-0.1,0.2c0,0,0,0.1,0.1,0.1c0,0-0.1,0-0.1,0c0,0.1-0.1,0.1-0.1,0.2c0,0,0.1,0.1,0.1,0.1
				c0,0,0,0,0,0c0,0,0,0,0,0c0,0-0.1-0.1-0.1-0.1c-0.1,0.3-0.3,0.6-0.4,1c0,0,0,0,0,0c0,0,0,0,0,0c0,0.1-0.1,0.2-0.1,0.3
				c0,0,0,0.1,0.1,0.1c0,0,0,0-0.1,0c0,0,0,0,0,0c0,0.1-0.1,0.1-0.1,0.2c0.1,0,0.1,0.1,0.1,0.2c0,0-0.1-0.1-0.1-0.1
				c0,0.1-0.1,0.2-0.1,0.2c0,0.1,0.1,0.1,0.2,0.2c0,0,0,0,0,0c-0.1-0.1-0.2-0.1-0.1-0.2c0,0,0,0,0,0c-0.1,0.2-0.2,0.5-0.3,0.7
				c0,0,0,0.1,0,0.1c0,0,0,0-0.1,0c0,0.1-0.1,0.1-0.1,0.2c0,0,0,0.1,0.1,0.1c0,0-0.1,0-0.1-0.1c0,0.1-0.1,0.1-0.1,0.2
				c0,0,0.1,0.1,0.1,0.1c-0.1,0-0.1-0.1-0.1-0.1c0,0.1-0.1,0.2-0.1,0.3c0,0,0.1,0.1,0.1,0.2c-0.1,0-0.1-0.1-0.1-0.1
				c-0.1,0.2-0.2,0.5-0.3,0.7c0,0,0,0.1,0.1,0.1c0,0,0,0,0,0c0,0,0-0.1,0-0.1c0,0,0,0,0,0c0,0.1-0.1,0.2-0.1,0.3c0,0,0,0,0,0
				c0,0,0.1,0.1,0.1,0.1c0,0-0.1,0,0,0c0,0-0.1,0,0,0c0,0-0.1-0.1-0.1-0.1c-0.1,0.2-0.2,0.5-0.3,0.7c0,0,0,0,0,0c0,0,0,0,0,0
				c-2.5,5.8-5,11.7-7.5,17.8c0,0.5,0,1,0,1.5c3-0.4,6.1-0.7,9.1-1c0.7-1.7,1.4-3.4,2.2-5c2.3-0.2,4.7-0.3,7-0.5c0,0,0,0-0.1,0
				c0-0.1,0-0.1,0-0.1c0.1,0,0,0.1,0.1,0.1c0,0,0,0,0,0c0.8,0,1.7-0.1,2.5-0.1c0,0,0,0,0-0.1c0.1,0,0.1,0,0,0.1c0.1,0,0.2,0,0.3,0
				c0-0.1,0-0.2,0-0.3c0,0,0,0.1,0.1,0.1c-0.1,0.1,0,0.2-0.1,0.2c0.1,0,0.2,0,0.3,0c0-0.1,0-0.1,0-0.1c0,0,0,0.1,0,0.1
				c0.7,0,1.5-0.1,2.2-0.1c0,0,0,0,0,0c0,0,0.1,0,0.1,0c0.2,0,0.4,0,0.7,0c0,0,0,0,0-0.1c0,0,0,0,0,0c0.1,0,0.2,0,0.4,0
				c0-0.1-0.1-0.1,0-0.1c0.1,0,0-0.1,0-0.1c-0.1,0-0.1-0.2,0-0.2c0.1,0,0.1,0.1,0.1,0.2c0,0,0.1,0,0.1,0c0,0.1,0,0.1,0,0.2
				c0.1,0,0.1,0,0.2,0c0,0,0,0,0,0c0,0,0,0,0.1,0c0.1,0,0.2,0,0.3,0c0.1,0.3,0.3,0.6,0.4,0.9c0-0.1,0,0,0,0c0.2,0,0.2-0.3,0.2,0.7
				c0,0,0,0,0,0c0.2,0,0.4,0.7,0.6,1.1c0,0,0-0.2,0-0.2c0.1,0.1,0.2,0.2,0.2,0.3c0,0,0,0-0.1,0c0.3,0.6,0.6,1.2,0.8,1.8
				c0.1,0,0.3,0.1,0.4,0.1c-0.1,0-0.1-0.1-0.1-0.1c0,0,0.1,0,0.1,0c0,0-0.1,0,0,0c0,0.1,0,0,0,0.1c0.2,0,0.5,0,0.7,0c0,0,0,0,0-0.1
				c0,0,0,0,0,0c0,0,0,0.1,0,0.1c0.2,0,0.4,0,0.6,0c0,0,0,0,0-0.1c0,0,0.1,0,0.1,0c0,0,0,0,0,0c0,0,0,0,0,0c0,0,0,0.1,0,0.1
				c0.2,0,0.4,0,0.6,0c0-0.1,0-0.3,0.1-0.3c-0.1,0.1,0,0.2,0.1,0.3c0.2,0,0.4,0,0.6,0c0-0.1,0-0.2,0-0.2c0,0,0,0,0.1,0
				c0,0.1,0,0.2,0,0.2c0.2,0,0.4,0,0.6,0c0-0.1,0-0.1,0-0.2c0.1,0,0.1,0.1,0.1,0.2c0.2,0,0.4,0,0.7,0c0-0.1,0-0.1,0-0.2
				c0.1,0,0.1,0.1,0.1,0.2c0.2,0,0.4,0,0.7,0c0-0.1,0-0.2,0-0.2c0-0.2,0.1,0.1,0.1,0.2c0,0,0,0,0,0c0.2,0,0.5,0,0.7,0
				c-0.1-0.1-0.1-0.1,0-0.2c0.1,0,0.1,0.1,0,0.2c0.3,0,0.5,0,0.8,0c0-0.1-0.1-0.1-0.1-0.2c0-0.1,0.1-0.1,0-0.1
				c0.2,0,0.2,0.2,0.1,0.2c0,0,0.1,0.1,0,0.1c0.2,0,0.4,0,0.7,0c0-0.1,0-0.2,0-0.2c0.1-0.1,0.3,0.1,0.3,0.2c0.3,0,0.2,0,1.2,0
				c0-0.5,0-0.9,0-1.4C295.4,233.8,292.1,227.3,292,227z M272.1,203.2C272.1,203.2,272.2,203.2,272.1,203.2
				C272.2,203.2,272.2,203.2,272.1,203.2C272.2,203.2,272.2,203.2,272.1,203.2z M280.7,222.8c0,0-7.3,0.1-8.3,0.1
				c0.1-0.2,0.1-0.3,0.2-0.5c0,0-0.1,0-0.1-0.1c0,0,0,0,0,0c0,0,0,0,0.1,0c0.5-1.3,1.1-2.6,1.6-4c0,0,0,0,0,0c0,0,0,0,0,0
				c0.1-0.1,0.1-0.2,0.2-0.4c0,0,0,0,0,0c0,0,0,0.3,0,0.3s0,0,0,0c0.2-1,0.3-0.9,0.5-1.3c0,0,0-0.1,0-0.2c0,0,0,0,0,0
				c0.1-0.2,0.2-0.4,0.2-0.6c0,0,0,0,0-0.1c0,0,0,0,0.1,0c0.1-0.3,0.2-0.5,0.3-0.8c0,0,0,0,0-0.1c0,0,0,0,0,0c0-0.1,0.1-0.2,0.1-0.2
				c0,0,0-0.1,0-0.1c0,0,0,0,0.1,0.1c0.2-0.4,0.3-0.8,0.5-1.2c0,0,0,0,0,0c0,0-0.1-0.2,0-0.1c0,0,0.1,0,0.1,0c0.1-0.3,0.3-0.7,0.4-1
				c0,0,0.3,0.6,0.4,0.9c0,0,1.1,2.6,1.1,2.6c0,0,0.4,0.8,0.3,0.8c0,0,0.4,0.9,0.4,0.9c0,0,0,0,0,0c0.2,0.5,0.4,1,0.6,1.5
				c0,0,0,0,0-0.1c0,0,0,0,0.1,0c0,0,0,0,0,0c0,0,0,0,0,0c0,0,0,0,0,0c0,0,0,0.1,0,0.2c0,0,0,0,0,0c0,0.1,0,0.1,0.1,0.2c0,0,0,0,0,0
				c0,0,0,0.1,0,0.1C279.7,220.1,280.8,222.8,280.7,222.8z"/>
		</g>
		<g>
			<g>
				<path d="M326.7,221.8c0,0.1,0,0.1-0.1,0.2c-0.4,0.1-0.9,0.1-1.3,0c-1.6-0.4-3.5,2-2.7,3.5c0.2,0.4,0.4,0.8,0.4,1.2
					c-0.6,0.6-2.4,1.7-3.5,1.9c-0.3-0.2-0.6-0.5-0.8-0.9c-0.2-0.4-0.7-0.6-1.2-0.7c-0.7,0.2-1.4,0.3-2.2,0.3c-0.5,0.2-0.8,0.6-0.9,1
					c-0.1,0.4-0.3,0.8-0.6,1.1c-0.3,0-0.8-0.1-1.2-0.2c0,0,0,0,0,0c0,0,0,0-0.1,0c-0.9-0.2-1.8-0.5-2.5-0.8c-0.1-0.4-0.1-0.9,0-1.3
					c0-0.1,0-0.2,0-0.3c0,0,0,0,0,0.1c-0.1,0,0.1-0.2,0-0.2c0,0,0.1,0,0.1,0.1c0-0.3-0.1-0.6-0.2-0.8c0,0,0,0,0,0c0,0,0,0,0,0
					c-0.1-0.1-0.1-0.2-0.2-0.3c-0.4-0.3-0.8-0.6-1.1-1c-0.7-0.4-1.4-0.5-2-0.2c-0.2,0.1-0.5,0.2-0.7,0.3c0,0-0.1,0.1-0.1,0.2
					c0,0,0-0.1,0-0.1c-0.1,0-0.3,0-0.4,0c0,0,0,0,0,0c0,0,0,0,0,0c0,0-0.1,0-0.1,0c-0.1-0.1-0.2-0.2-0.3-0.3c0,0-0.1,0-0.1,0
					c0-0.1,0-0.1-0.1-0.1c0,0,0,0,0,0c-0.6-0.8-1.3-2.1-1.5-2.7c0.1-0.4,0.5-0.7,0.8-0.9c0,0,0,0,0-0.1c0,0,0,0,0,0c0,0,0,0,0,0
					c0,0,0,0,0,0c0,0,0,0,0,0c0.1,0,0.1-0.1,0.2-0.1c0,0,0-0.1,0-0.1c0.1,0.1,0.1,0,0.1-0.1c0,0,0,0,0,0c0,0,0.1,0.1,0.1,0.1
					c0.1-0.1,0.2-0.2,0.2-0.3c0,0,0-0.1,0-0.2c0,0,0,0,0,0.1c0,0,0,0,0,0c0,0,0,0,0-0.1c0,0,0,0,0.1,0c0.4-0.7,0.5-1.7,0.1-2.5
					c0,0,0,0-0.1,0c0.1-0.1,0,0-0.1-0.1c0-0.1,0-0.1,0.1-0.1c0,0,0,0,0,0c0,0,0,0,0,0c-0.1,0,0-0.1,0-0.1c0,0,0,0,0,0
					c-0.2-0.4-0.6-0.7-1.1-0.9c0,0,0,0,0,0c0,0,0,0,0,0c0,0,0,0-0.1,0c-0.5-0.1-1.1-0.5-1.2-0.7c0-0.1,0-0.2,0-0.2c0,0,0,0,0,0
					c0,0,0,0,0-0.1c0-0.1,0-0.2,0.1-0.4c0,0,0,0,0,0c0,0,0,0,0,0c0-0.2,0.1-0.5,0.2-0.8c0,0,0-0.2,0-0.2c0.1-0.6,0.3-1.1,0.5-1.6
					c0,0,0,0,0,0c0,0,0,0,0,0c0-0.1,0.1-0.2,0.1-0.3c0.4-0.2,0.9-0.2,1.4-0.1c0.5,0.1,1.1-0.1,1.6-0.5c0.1-0.3,0.3-0.6,0.4-0.8
					c0,0-0.1,0-0.1,0c0,0,0,0,0-0.1c0,0,0.1,0,0.1-0.1c0,0,0,0,0,0c0,0,0,0,0-0.1c0,0,0,0,0.1,0c0,0,0,0,0,0
					c0.1-0.2,0.3-0.4,0.4-0.6c0,0,0,0,0,0c0,0,0,0,0,0c0.1-0.1,0.2-0.2,0.2-0.3c0-0.2,0.1-0.3,0-0.5c0,0-0.1,0.1,0,0.2
					c0,0-0.1,0-0.1-0.1c0,0,0,0,0.1,0c0,0,0-0.1,0-0.1c0,0,0-0.1,0.1-0.1c0-0.2-0.1-0.3-0.1-0.4c-0.1-0.1-0.1-0.2-0.1-0.3
					c0,0,0,0-0.1,0c0,0,0,0,0-0.1c0,0,0,0,0.1,0c-0.1-0.3-0.1-0.6-0.1-0.8c0,0-0.1,0-0.1,0.1c0,0,0,0,0,0c0,0,0.1,0,0-0.1
					c0,0,0,0,0.1,0c0,0,0,0,0-0.1c0.4-0.3,1-0.7,1.6-1c0,0,0,0,0.1,0c0,0,0,0,0,0c0.1-0.1,0.2-0.1,0.3-0.2c0,0,0.2-0.1,0.2-0.2
					c0,0,0,0.1-0.1,0.1c0.5-0.2,0.9-0.5,1.2-0.5c0.1,0.1,0.3,0.2,0.5,0.3c0,0,0.1-0.1,0.1-0.1c0,0-0.1,0,0,0.1c0,0-0.1,0-0.1,0
					c0.1,0.1,0.2,0.2,0.3,0.4c0,0,0,0,0,0c0,0,0,0,0,0c0,0,0.1,0.1,0.1,0.1c0.1,0.1,0.1,0.2,0.2,0.3c0,0,0,0,0.1,0c0,0,0,0,0,0.1
					c0.1,0.1,0.1,0.1,0.2,0.2c0.1,0,0.1-0.1,0.2-0.2c0,0.1-0.1,0.2-0.2,0.2c0,0,0,0,0.1,0c0.3-0.1,0.7-0.1,1-0.2c0,0,0,0,0,0
					c0,0,0,0,0,0c0.1,0,0.1,0,0.2,0c0,0,0-0.1,0-0.1c0,0,0.1,0,0.1,0c0,0,0,0,0,0c0,0,0,0,0.1,0c0,0.1,0,0,0,0c0,0,0,0.1,0.1,0.1
					c0,0,0,0-0.1,0.1c0,0,0,0,0,0c0,0,0,0,0,0.1c0,0-0.1-0.1-0.1,0c0.1,0,0.3,0,0.4,0c0,0,0.1-0.1,0.1-0.1c0,0.1-0.1,0,0,0.1
					c0,0-0.1,0-0.1,0c0.1,0,0.2,0,0.4,0c0,0,0,0,0,0c0,0,0,0,0.1,0c0.1,0,0.2,0,0.2,0c0.3,0,0.5,0,0.8,0c0.1-0.1,0.2-0.1,0.3-0.2
					c0,0-0.1,0-0.1,0.1c0,0,0,0,0-0.1c0,0,0.1,0,0.1-0.1c0,0,0,0,0.1,0c0,0,0,0,0,0c0-0.1,0-0.1,0-0.1c0,0,0,0,0.1,0
					c0,0.1,0,0-0.1,0c0,0,0,0,0.1,0c0,0,0,0,0,0.1c0.2-0.2,0.3-0.4,0.3-0.6c0-0.2,0.1-0.4,0.2-0.5c0,0,0-0.1,0-0.1c0,0,0,0,0,0
					c0,0,0,0,0,0c0,0,0,0,0,0c0.1-0.2,0.3-0.4,0.4-0.5c1.3,0.1,2.9,0.6,3.6,1c0.1,0.3,0.2,0.9,0,1.3c-0.4,1.4,2.2,3.4,3.5,2.7
					c0.4-0.2,0.8-0.3,1.2-0.3c0.5,0.7,1.5,2.1,1.8,3.2c1.6,0.1,3.2,0.1,4.9,0.2c-1.4-10.5-9.4-14.8-16.9-14.9c0,0.1-0.1,0.1-0.2,0.2
					c0,0,0-0.1-0.1-0.1c0.1,0,0.1-0.1,0.2-0.1c-0.1,0-0.2,0-0.3,0c-0.3,0-0.7,0-1,0c0,0,0,0,0,0c0,0,0,0,0,0c-0.2,0-0.5,0-0.7,0
					c0,0,0,0,0,0.1c-0.1,0-0.1,0.1-0.1,0.1c0,0,0,0,0,0c0.1,0,0.1-0.1,0.1-0.1c-0.1,0-0.3,0-0.4,0c0,0,0,0,0,0c0,0-0.1,0-0.1,0
					c-0.1,0-0.2,0-0.3,0c0,0,0,0,0,0c0,0,0,0,0,0c-0.3,0-0.5,0.1-0.8,0.1c0,0,0,0.1,0.1,0.1c-0.1,0.1-0.1,0-0.2,0.1
					c0,0,0-0.1-0.1-0.1c0,0,0,0,0,0c-0.2,0-0.5,0.1-0.7,0.1c0,0-0.1,0.1-0.1,0.1c0,0,0,0,0,0c0,0,0,0,0.1,0c0,0-0.1,0-0.1,0.1
					c0,0-0.1,0-0.1-0.1c0.1,0.1,0,0,0.1,0c0,0,0-0.1,0.1-0.1c-0.2,0-0.3,0.1-0.5,0.1c0,0,0,0,0,0c0,0,0,0,0,0c-0.1,0-0.1,0-0.2,0
					c0,0,0,0,0,0c0,0,0,0,0,0c0,0,0,0,0,0c0,0,0,0,0,0c-0.2,0-0.4,0.1-0.6,0.2c0,0,0,0,0,0c0,0,0,0-0.1,0c0,0,0,0,0,0c0,0,0,0-0.1,0
					c0,0,0,0,0,0c0,0,0,0,0,0c0,0,0,0,0,0c0,0,0,0,0,0c-0.2,0.1-0.5,0.1-0.7,0.2c0,0.1-0.2,0.1-0.2,0.1c-0.1,0-0.2,0.1-0.2,0.1
					c0,0,0,0.1-0.1,0c-0.3,0.1-0.6,0.2-0.9,0.4c0,0.1-0.2,0.1-0.2,0.1c-0.4,0.2-0.8,0.4-1.3,0.6c0,0,0,0,0,0c0,0,0,0,0,0
					c-0.1,0.1-0.3,0.1-0.4,0.2c0,0,0,0,0,0c0,0,0,0,0,0c0,0-0.1,0.1-0.1,0.1c0,0-0.1,0.1-0.1,0.1c-0.1,0-0.1,0.1-0.2,0.1
					c0,0,0,0,0,0c0,0,0,0-0.1,0c0,0-0.2,0.1-0.2,0.1c-0.1,0.1-0.2,0.1-0.3,0.2c0,0-0.2,0.1-0.2,0.1c-0.5,0.4-1,0.7-1.5,1.1
					c0,0-0.2,0.3-0.3,0.2c-0.1,0-0.1,0.1-0.2,0.1c0,0,0,0,0,0c0,0,0,0,0,0c0,0-0.1,0.1-0.1,0.1c0,0.1,0,0.2-0.1,0.1
					c0,0,0,0.1-0.1,0.1c-0.1,0.1-0.3,0.3-0.4,0.4c0,0-0.2,0.2-0.2,0.2c-0.2,0.2-0.3,0.4-0.5,0.6c0,0,0,0.1,0,0
					c-0.1,0-0.1,0.1-0.2,0.2c-0.2,0.2-0.3,0.4-0.4,0.6c0,0,0,0,0,0c0,0,0,0,0,0c0,0-0.1,0.1-0.1,0.1c0,0,0,0,0,0.1c0,0,0,0-0.1,0
					c-0.1,0.1-0.1,0.2-0.2,0.3c0.1,0,0,0.1,0,0c-0.1,0.2-0.3,0.4-0.4,0.6c0,0,0,0.1-0.1,0.2c-0.1,0.1-0.1,0.2-0.2,0.3
					c0.1-0.1,0.1,0,0,0.1c-0.3,0.5-0.5,0.9-0.7,1.4c0,0,0,0.1-0.1,0.1c-0.1,0.1-0.1,0.3-0.2,0.4c0,0,0,0,0,0.1c0,0,0,0,0,0
					c0,0,0,0,0,0c0,0,0,0,0,0c0,0.1-0.1,0.2-0.1,0.4c0,0,0,0.1,0,0c-0.2,0.6-0.4,1.2-0.6,1.9c0,0,0,0.1,0,0.1
					c-0.4,1.5-0.6,3.1-0.7,4.8c0,0,0,0.2,0,0.2c0,0.2,0,0.4,0,0.7c0,1.3,0.1,2.5,0.3,3.6c0,0,0,0,0.1,0c0,0,0,0.1-0.1,0.1
					c0,0.3,0.1,0.5,0.1,0.8c0,0,0,0,0.1,0c0,0,0,0.1-0.1,0.1c0.1,0.4,0.2,0.9,0.3,1.3c0-0.1,0-0.1,0-0.2c0.1,0.1,0,0.1,0,0.2
					c0,0,0,0-0.1,0c0.2,0.6,0.3,1.1,0.5,1.6c0,0,0,0,0,0c0,0,0,0.1,0,0.1c0.8,2.1,2,4,3.4,5.5c0,0,0,0,0-0.1c0.1,0,0.1,0.1,0.1,0.2
					c0.5,0.5,1,1,1.5,1.5c0,0,0-0.1,0.1-0.1c0,0,0,0.1,0,0.1c0.3,0.2,0.5,0.4,0.8,0.6c0,0,0,0,0,0c0,0,0,0,0,0.1
					c0.6,0.5,1.3,0.9,2,1.3c0,0,0-0.1,0-0.1c0,0,0-0.1,0.1-0.1c0,0,0,0.2,0.1,0.3c2.9,1.7,6.2,2.6,9.5,2.8c3.6,0.2,7.2-0.4,10.3-2.2
					c0,0,0,0,0-0.1c0,0,0,0,0.1,0c0.3-0.2,0.5-0.3,0.8-0.5c0,0,0-0.1,0-0.1c0,0,0,0,0,0.1c0.1,0,0.1-0.1,0.2-0.1c0,0,0,0,0,0
					c0,0,0.1,0,0.1,0c0,0,0,0,0,0c0.3-0.2,0.5-0.4,0.8-0.6c0,0,0,0,0-0.1c0,0,0,0,0,0c0.1-0.1,0.1-0.1,0.2-0.2c0,0,0,0,0,0
					c0,0,0-0.1,0-0.1c0,0,0,0,0.1,0c0.1-0.1,0.1-0.1,0.2-0.2c0,0,0,0,0-0.1c0,0,0,0,0.1,0c0,0,0,0,0,0c0,0,0,0,0,0c0,0,0-0.1,0-0.1
					c0,0,0,0,0,0c-0.1,0,0,0.1,0,0.1c0,0,0,0,0,0c0.1,0,0.1-0.1,0.2-0.1c0,0,0,0,0-0.1c0,0,0,0,0,0.1c0,0,0,0,0,0c0,0,0-0.1,0-0.1
					c0,0,0,0,0,0c0,0,0,0,0-0.1c0,0,0,0.1,0,0c0,0,0,0,0,0c0,0,0,0,0,0.1c0,0,0.1-0.1,0.1-0.1c0,0,0-0.1,0-0.1c0,0,0,0,0,0
					c0,0,0,0,0-0.1c0,0,0,0,0,0.1c0-0.1,0.1-0.1,0.1-0.2c0,0,0-0.1,0-0.1c0,0,0-0.1,0-0.1c0,0,0,0,0,0c0,0,0,0.1,0,0.1
					c0,0,0.1-0.1,0.1-0.1h0c0-0.1,0-0.1,0-0.2c0.1,0,0,0,0.1,0c0,0,0,0,0,0.1c0-0.1,0.1-0.1,0.1-0.2c0,0,0,0,0,0c0,0,0,0,0,0
					c0,0,0,0,0,0c0,0,0,0,0,0c0,0,0-0.1,0-0.1c0,0,0,0,0-0.1c0.1,0,0,0.1,0.1,0.1c0,0,0,0.1,0,0.1c0.1-0.1,0.1-0.1,0.2-0.2
					c0,0,0-0.1,0,0c0,0,0,0,0-0.1c0,0,0,0,0,0c0,0,0,0,0,0.1c0-0.1,0.1-0.1,0.1-0.2c0,0,0,0,0,0c0-0.1,0.1,0,0-0.1c0,0,0,0,0,0
					c0-0.1,0.1-0.1,0.1-0.2c0,0,0,0,0,0c0,0,0,0,0.1,0c0,0,0,0,0,0c0,0,0,0,0-0.1c0,0,0,0,0,0c0,0,0,0,0-0.1c0,0,0.1-0.1,0,0
					c0,0,0-0.1,0,0c0,0.1,0,0.1,0,0.1c0,0,0,0,0,0c0.1-0.1,0.1-0.2,0.2-0.3c0,0,0,0,0,0c0,0,0-0.1,0-0.1c0.1,0,0-0.1,0.1,0
					c0,0,0,0,0,0c0,0,0,0,0,0c0,0,0-0.1,0.1-0.1c0,0,0,0,0,0c0,0,0,0,0,0c0.2-0.3,0.4-0.7,0.6-1c0,0,0-0.1,0-0.1c0,0,0,0,0-0.1
					c0,0,0,0,0,0c0,0,0,0.1,0,0.1c0.1-0.1,0.1-0.2,0.2-0.3c0.1-0.2,0.2-0.3,0.2-0.5c0,0,0,0,0,0c0,0,0,0,0,0c0,0,0,0,0,0
					c0,0,0,0,0,0c0,0,0,0,0,0c0,0,0,0,0,0c0,0,0-0.1,0-0.1c0,0,0,0,0,0c0.7-1.6,1.3-3.5,1.5-5.7C330,222,328.4,221.9,326.7,221.8z"
					/>
			</g>
		</g>
		<g>
			<circle cx="314.6" cy="217.4" r="3.4"/>
		</g>
	</g>
	<g class="st3">
		<g>
			<path d="M290.5,155.3c0.2,0.1,0.4,0.2,0.6,0.4s0.3,0.3,0.4,0.5c0.1,0.2,0.1,0.4,0.1,0.7v8.9c0,0.1,0,0.1-0.1,0.2
				c-0.1,0.1-0.1,0.1-0.2,0.1h-2.1c-0.1,0-0.1,0-0.2-0.1c-0.1-0.1-0.1-0.1-0.1-0.2v-8.2h-1.7v8.2c0,0.1,0,0.1-0.1,0.2
				c-0.1,0.1-0.1,0.1-0.2,0.1H285c-0.1,0-0.2,0-0.2-0.1c-0.1-0.1-0.1-0.1-0.1-0.2v-8.2H283v8.2c0,0.2-0.1,0.3-0.3,0.3h-2.1
				c-0.2,0-0.3-0.1-0.3-0.3v-10.4c0-0.2,0.1-0.3,0.3-0.3h9.2C290.1,155.2,290.3,155.2,290.5,155.3z"/>
		</g>
		<g>
			<path d="M300.9,163.5c0.1,0,0.2,0,0.2,0.1c0.1,0.1,0.1,0.1,0.1,0.2v2.1c0,0.1,0,0.2-0.1,0.2c-0.1,0.1-0.1,0.1-0.2,0.1h-7.3
				c-0.2,0-0.3-0.1-0.3-0.3v-10.3c0-0.2,0.1-0.3,0.3-0.3h2.2c0.2,0,0.3,0.1,0.3,0.3v7.7c0,0.1,0,0.2,0.1,0.2
				c0.1,0.1,0.1,0.1,0.2,0.1H300.9z"/>
		</g>
		<g>
			<path d="M312,155.2c0.1,0,0.2,0,0.2,0.1c0.1,0.1,0.1,0.1,0.1,0.2v10.3c0,0.1,0,0.2-0.1,0.2c-0.1,0.1-0.1,0.1-0.2,0.1h-2.2
				c-0.1,0-0.2,0-0.2-0.1c-0.1-0.1-0.1-0.1-0.1-0.2v-3.6c0-0.1,0-0.2-0.1-0.2c-0.1-0.1-0.1-0.1-0.2-0.1H306c-0.1,0-0.2,0-0.2,0.1
				c-0.1,0.1-0.1,0.1-0.1,0.2v3.6c0,0.2-0.1,0.3-0.3,0.3h-2.2c-0.2,0-0.3-0.1-0.3-0.3v-10.3c0-0.2,0.1-0.3,0.3-0.3h2.2
				c0.2,0,0.3,0.1,0.3,0.3v3.5c0,0.2,0.1,0.3,0.3,0.3h3.2c0.1,0,0.2,0,0.2-0.1c0.1-0.1,0.1-0.1,0.1-0.2v-3.5c0-0.1,0-0.2,0.1-0.2
				s0.1-0.1,0.2-0.1H312z"/>
		</g>
	</g>
</g>
<g class="st2">
	<path class="st3" d="M421.9,501.1c-3.9,0.6-7.8,1.2-11.7,1.9c0-6.9,0.1-13.9,0.1-20.8c-4.6,0.5-9.2,1-13.8,1.6
		c0,7.3,0,14.6-0.1,21.8c-3.9,0.8-7.8,1.7-11.6,2.6c0-19,0-38,0-56.9c3.8,0,7.8,0,11.7,0c0,6.6,0,13.2,0,19.7
		c4.6-0.4,9.2-0.7,13.8-1c0-6.3,0.1-12.5,0.1-18.8c3.9,0,7.8,0,11.7,0C422.1,467.8,422,484.4,421.9,501.1z"/>
	<path class="st3" d="M463.9,491.4c-5.9,0.2-11.8,0.6-17.7,1c-0.9,2-1.8,4.1-2.7,6.2c-3.7,0.3-7.5,0.7-11.2,1.2c0-0.6,0-1.2,0-1.8
		c6.8-16.6,13.6-32.2,20.4-47.4c1.6,0,3.3,0,4.9,0c6.7,15.1,13.4,29.8,20.2,44.6c0,0.6,0,1.1,0,1.7c-3.8,0-7.5,0.1-11.3,0.3
		C465.6,495.2,464.7,493.3,463.9,491.4z M455,469.4c-1.7,4.1-3.4,8.3-5.1,12.5c3.4-0.2,6.8-0.3,10.3-0.4
		C458.4,477.4,456.7,473.4,455,469.4z"/>
	<path class="st3" d="M540.3,500.9c-0.1-16.6-0.2-33.2-0.3-49.8c3.8,0,7.7,0,11.6,0c0,6.5,0.1,13,0.1,19.5c0.3,0,0.6,0,0.8,0.1
		c11.4,0.9,10.8-9.5,10.8-19.5c3.9,0,7.8,0,11.8,0c0,11.4,0.3,22.3-8.6,28.2c4.1,8.4,8.1,17.2,12.1,26.5c0,0.8,0,1.5,0,2.3
		c-4.2-1-8.4-1.9-12.6-2.8c-3.3-7.7-6.6-15-9.9-22.1c-1.5,0.1-2.9,0-4.4-0.2c0,6.6,0.1,13.1,0.1,19.7
		C547.9,502,544.1,501.4,540.3,500.9z"/>
	<g class="st3">
		<g>
			<g>
				<path d="M521.4,480.4c0,0.1-0.1,0.1-0.1,0.2c-0.5,0.1-1.1,0.2-1.6,0c-1.9-0.5-4.3,2.5-3.3,4.3c0.3,0.5,0.5,1,0.5,1.5
					c-0.8,0.8-3,2-4.3,2.4c-0.4-0.2-0.8-0.7-1.1-1.1c-0.3-0.5-0.8-0.8-1.5-0.9c-0.9,0.2-1.8,0.4-2.7,0.4c-0.6,0.3-1,0.7-1.2,1.2
					c-0.1,0.5-0.4,1-0.8,1.4c-0.4,0-1-0.1-1.5-0.2c0,0,0,0,0,0c0,0-0.1,0-0.1,0c-1.1-0.2-2.3-0.7-3-1c-0.1-0.5-0.2-1.1,0-1.6
					c0-0.1,0.1-0.3,0.1-0.4c0,0-0.1,0-0.1,0.1c-0.1,0,0.1-0.2-0.1-0.2c0-0.1,0.1,0,0.1,0.1c0-0.3-0.1-0.7-0.3-1c0,0,0,0,0,0
					c0,0,0,0,0,0c-0.1-0.1-0.2-0.3-0.2-0.4c-0.5-0.4-1-0.8-1.4-1.2c-0.8-0.5-1.8-0.6-2.5-0.2c-0.3,0.2-0.6,0.3-0.9,0.3
					c0,0.1-0.1,0.1-0.1,0.2c-0.1,0,0-0.1,0-0.2c-0.2,0-0.3,0-0.5,0c0,0,0,0,0,0c0,0,0,0,0,0c0,0-0.1,0-0.1,0
					c-0.1-0.1-0.2-0.3-0.3-0.4c0,0-0.1,0-0.1,0c0-0.1,0-0.1-0.1-0.2c0,0,0,0,0-0.1c-0.7-1-1.6-2.6-1.8-3.4c0.2-0.5,0.6-0.9,1-1.2
					c0,0,0-0.1,0-0.1c0,0,0,0,0.1,0c0,0,0,0-0.1,0c0,0,0,0,0,0c0,0,0,0,0,0c0.1,0,0.1-0.1,0.2-0.1c0,0,0-0.1,0-0.2
					c0.1,0.1,0.1-0.1,0.1-0.1c0,0,0,0,0,0c0,0,0.1,0.1,0.1,0.1c0.1-0.1,0.2-0.2,0.3-0.4c0,0,0-0.2,0-0.2c0,0,0,0,0.1,0.1
					c0,0,0,0,0-0.1c0,0,0,0,0-0.1c0,0,0.1,0,0.1,0c0.5-0.9,0.6-2.1,0.1-3.1c-0.1,0-0.1,0.1-0.1,0.1c0.1-0.1,0,0-0.1-0.1
					c0-0.1,0.1-0.1,0.1-0.1c0,0,0,0,0,0c0,0,0,0,0,0.1c-0.1,0,0-0.1,0-0.1c0,0,0,0,0,0c-0.3-0.5-0.8-0.9-1.4-1.1c0,0,0,0,0,0
					c0,0,0,0,0,0c0,0,0,0-0.1,0c-0.6-0.2-1.3-0.6-1.4-0.9c0-0.1,0-0.2,0-0.3c0,0,0,0,0,0c0,0,0,0,0-0.1c0-0.1,0-0.3,0.1-0.5
					c0,0,0,0,0,0c0,0,0,0,0,0c0.1-0.3,0.1-0.6,0.2-1c0,0,0-0.2,0.1-0.2c0.2-0.7,0.4-1.4,0.6-1.9c0,0,0,0,0-0.1c0,0,0,0,0,0
					c0.1-0.2,0.1-0.3,0.2-0.4c0.5-0.2,1.2-0.3,1.8-0.1c0.6,0.2,1.3-0.1,1.9-0.6c0.2-0.4,0.3-0.7,0.5-1c0,0-0.1,0-0.1,0
					c0,0,0,0,0-0.1c0-0.1,0.1,0,0.1-0.1c0,0,0,0,0.1,0c0,0,0-0.1,0-0.1c0,0,0,0,0.1,0c0,0,0,0,0,0c0.2-0.3,0.3-0.5,0.5-0.8
					c0,0,0,0,0,0c0,0,0,0,0.1,0c0.1-0.1,0.2-0.2,0.3-0.4c0-0.2,0.1-0.4,0.1-0.6c0,0.1-0.1,0.1,0,0.2c-0.1,0-0.1,0-0.1-0.1
					c0.1,0,0,0,0.1,0c0,0,0-0.1,0-0.1c0-0.1,0-0.1,0.1-0.1c0-0.2-0.1-0.4-0.2-0.5c-0.1-0.1-0.1-0.2-0.2-0.3c0,0-0.1,0-0.1,0
					c0,0,0-0.1,0-0.1c0,0,0,0,0.1,0c-0.1-0.3-0.1-0.7-0.2-1c0,0-0.1,0-0.1,0.1c0,0,0,0-0.1-0.1c0-0.1,0.1,0,0-0.1c0,0,0.1,0,0.1,0
					c0,0,0-0.1,0-0.1c0.4-0.4,1.2-0.8,2-1.3c0,0,0,0,0.1,0c0,0,0,0,0,0c0.1-0.1,0.3-0.1,0.4-0.2c0-0.1,0.2-0.2,0.2-0.2
					c0,0,0,0.1-0.1,0.2c0.6-0.3,1.1-0.6,1.5-0.7c0.2,0.1,0.4,0.2,0.6,0.4c0.1-0.1,0.1-0.1,0.2-0.1c0,0-0.1,0.1,0,0.1
					c0,0-0.1,0-0.1,0.1c0.1,0.1,0.3,0.3,0.4,0.5c0,0,0,0,0,0c0,0,0,0,0,0c0,0.1,0.1,0.1,0.1,0.2c0.1,0.1,0.2,0.2,0.3,0.3
					c0,0,0,0,0.1-0.1c0,0-0.1,0-0.1,0.1c0.1,0.1,0.2,0.1,0.3,0.2c0.1,0,0.2-0.2,0.3-0.2c0,0.1-0.1,0.2-0.2,0.3c0,0,0,0,0.1,0
					c0.4-0.1,0.8-0.2,1.2-0.2c0,0,0,0,0,0c0,0,0,0,0,0c0.1,0,0.1,0,0.2,0c0,0-0.1-0.1-0.1-0.1c0,0,0.1-0.1,0.1,0c0,0,0,0,0,0
					c0,0,0.1,0,0.1,0c0,0.1,0,0,0.1,0c0,0.1,0,0.1,0.1,0.1c0,0.1,0,0.1-0.1,0.1c0,0,0,0,0-0.1c0,0,0,0,0,0.1c0,0-0.1-0.1-0.1,0
					c0.2,0,0.4,0,0.5,0c0,0,0.1-0.1,0.2-0.2c0,0.1-0.1,0,0,0.1c0,0-0.1,0-0.1,0c0.2,0,0.3,0,0.5,0c0,0,0,0,0,0c0,0,0.1,0,0.1,0
					c0.1,0,0.2,0,0.3,0c0.3,0,0.6,0,0.9,0c0.1-0.1,0.2-0.2,0.3-0.3c-0.1,0-0.1,0-0.2,0.1c0,0,0-0.1,0-0.1c0.1,0,0.1,0,0.1-0.1
					c0,0,0,0,0.1,0c0,0,0,0,0,0c0.1-0.1-0.1-0.1,0-0.1c0,0,0.1,0,0.1,0c0,0.1-0.1,0-0.1,0c0,0,0.1,0.1,0.1,0c0,0,0,0,0,0.1
					c0.2-0.2,0.4-0.4,0.4-0.7c0.1-0.2,0.2-0.5,0.3-0.7c0,0,0-0.1,0-0.1c0,0,0,0,0,0c0,0,0,0,0,0c0,0,0,0,0,0
					c0.2-0.3,0.3-0.5,0.5-0.6c1.6,0.2,3.6,0.8,4.5,1.2c0.1,0.4,0.2,1.1,0.1,1.6c-0.5,1.8,2.7,4.2,4.3,3.3c0.5-0.3,1-0.4,1.5-0.4
					c0.7,0.8,1.8,2.6,2.3,3.9c2,0.1,3.9,0.1,6,0.2c-1.8-13-11.7-18.4-20.9-18.5c0,0.1-0.2,0.1-0.2,0.2c-0.1,0,0-0.1-0.1-0.1
					c0.1,0,0.2-0.1,0.2-0.1c-0.1,0-0.3,0-0.4,0c-0.4,0-0.8,0-1.2,0c0,0,0,0,0,0c0,0,0,0-0.1,0c-0.3,0-0.6,0-0.9,0.1c0,0,0,0,0,0.1
					c-0.1,0-0.1,0.1-0.2,0.1c0,0,0,0-0.1-0.1c0.1,0,0.1-0.1,0.1-0.1c-0.2,0-0.3,0-0.5,0.1c0,0,0,0,0,0c0,0-0.1,0-0.1,0
					c-0.1,0-0.2,0-0.4,0c0,0,0,0,0,0c0,0,0,0,0,0c-0.3,0-0.6,0.1-0.9,0.1c0,0,0,0.1,0.1,0.1c-0.1,0.1-0.2,0.1-0.3,0.1
					c0,0-0.1-0.1-0.1-0.1c0,0,0,0,0.1,0c-0.3,0.1-0.6,0.1-0.8,0.2c0,0-0.1,0.1-0.1,0.1c0,0,0,0,0,0c0,0,0,0,0.1,0
					c0,0.1-0.2,0.1-0.2,0.1c0,0-0.1,0-0.1-0.1c0.1,0.1,0-0.1,0.1,0c0,0,0.1-0.1,0.1-0.1c-0.2,0-0.4,0.1-0.6,0.1c0,0,0,0-0.1,0
					c0,0,0,0,0,0c-0.1,0-0.2,0-0.2,0.1c0,0,0,0,0,0c0,0-0.1,0-0.1,0c0,0,0,0,0,0c0,0,0,0,0,0c-0.2,0.1-0.5,0.1-0.7,0.2c0,0,0,0,0,0
					c0,0,0,0-0.1,0c0,0,0,0,0,0c0,0-0.1,0-0.1,0c0,0,0,0,0,0.1c0,0,0,0,0,0c0,0,0,0,0,0c0,0,0,0,0,0c-0.3,0.1-0.6,0.2-0.9,0.3
					c0,0.1-0.2,0.1-0.2,0.1c-0.1,0-0.2,0.1-0.3,0.1c0,0,0,0.1-0.1,0c-0.4,0.1-0.8,0.3-1.1,0.5c0,0.1-0.3,0.2-0.3,0.1
					c-0.5,0.2-1,0.5-1.6,0.8c0,0,0,0,0,0c0,0,0,0,0,0c-0.2,0.1-0.3,0.2-0.5,0.3c0,0,0,0,0,0c0,0,0,0,0,0c-0.1,0-0.1,0.1-0.2,0.1
					c0,0-0.1,0.1-0.1,0.1c-0.1,0.1-0.2,0.1-0.2,0.2c0,0,0,0,0,0c0,0-0.1,0-0.1,0.1c0,0.1-0.2,0.2-0.2,0.2c-0.1,0.1-0.3,0.2-0.4,0.3
					c0,0-0.2,0.2-0.2,0.2c-0.6,0.4-1.2,0.9-1.8,1.4c0,0-0.3,0.3-0.3,0.3c-0.1,0.1-0.1,0.1-0.2,0.2c0,0,0,0,0,0c0,0,0,0,0,0
					c-0.1,0.1-0.1,0.1-0.2,0.2c0,0.1,0,0.2-0.1,0.1c0,0.1-0.1,0.1-0.1,0.1c-0.2,0.2-0.4,0.4-0.5,0.5c0,0-0.2,0.2-0.2,0.2
					c-0.2,0.2-0.4,0.5-0.6,0.7c0,0,0,0.1,0,0.1c-0.1,0.1-0.1,0.1-0.2,0.2c-0.2,0.2-0.4,0.5-0.6,0.7c0,0,0,0,0,0c0,0.1,0,0,0,0
					c0,0.1-0.1,0.1-0.1,0.2c0,0,0,0,0,0.1c0,0-0.1,0-0.1,0c-0.1,0.1-0.2,0.3-0.3,0.4c0.1,0,0,0.1,0,0c-0.2,0.3-0.4,0.5-0.5,0.8
					c0,0,0,0.2-0.1,0.2c-0.1,0.1-0.2,0.3-0.3,0.4c0.1-0.1,0.1,0.1,0,0.1c-0.3,0.6-0.6,1.2-0.9,1.8c0,0,0,0.1-0.1,0.2
					c-0.1,0.2-0.1,0.3-0.2,0.5c0,0,0,0.1,0,0.1c0,0,0,0,0,0c0,0,0,0,0,0c0,0,0,0,0,0c-0.1,0.1-0.1,0.3-0.2,0.4c0,0,0,0.1,0,0
					c-0.3,0.8-0.5,1.5-0.8,2.3c0,0,0,0.1,0,0.1c-0.5,1.8-0.8,3.8-0.9,5.9c0,0,0,0.2,0,0.2c0,0.3,0,0.6,0,0.8c0,1.6,0.1,3,0.4,4.5
					c0,0,0,0,0.1,0c0,0.1,0,0.1-0.1,0.1c0.1,0.3,0.1,0.6,0.2,0.9c0,0,0,0,0.1,0c0,0-0.1,0.1-0.1,0.2c0.1,0.5,0.2,1.1,0.4,1.6
					c0-0.1,0-0.2,0.1-0.2c0.1,0.1,0,0.2,0.1,0.3c0,0-0.1,0-0.1,0c0.2,0.7,0.4,1.3,0.6,2c0,0,0,0,0,0c0,0,0,0.1,0,0.1
					c1,2.6,2.5,4.9,4.2,6.8c0,0,0-0.1,0-0.1c0.1,0,0.1,0.1,0.1,0.2c0.6,0.7,1.2,1.3,1.9,1.8c0,0,0.1-0.1,0.1-0.1c0,0,0,0.1,0,0.2
					c0.3,0.3,0.6,0.5,1,0.8c0,0,0,0,0-0.1c0,0,0,0.1,0,0.1c0.8,0.6,1.6,1.1,2.4,1.6c0,0,0-0.1,0-0.1c0-0.1,0-0.1,0.1-0.2
					c0,0.1,0,0.2,0.1,0.3c3.6,2,7.7,3.2,11.7,3.4c4.4,0.3,8.9-0.5,12.7-2.7c0,0,0-0.1,0-0.1c0,0,0.1,0,0.1,0c0.3-0.2,0.7-0.4,1-0.6
					c0,0,0-0.1,0-0.1c0,0,0,0,0,0.1c0.1-0.1,0.2-0.1,0.2-0.2c0,0,0,0,0,0c0-0.1,0.1,0,0.1,0c0,0,0,0,0,0c0.3-0.2,0.7-0.5,1-0.8
					c0,0,0,0,0-0.1c0,0,0,0,0,0c0.1-0.1,0.1-0.1,0.2-0.2c0,0,0,0,0,0c0,0,0.1-0.1,0-0.1c0,0,0.1,0,0.1,0c0.1-0.1,0.2-0.1,0.2-0.2
					c0,0,0,0-0.1-0.1c0,0,0,0,0.1,0c0,0,0,0,0-0.1c0,0,0,0,0,0c0,0,0-0.1,0-0.1c0,0,0,0,0.1,0c-0.1,0,0,0.1,0,0.2c0,0,0,0,0,0
					c0.1-0.1,0.1-0.1,0.2-0.2c0,0,0,0,0-0.1c0,0,0,0,0,0.1c0,0,0,0,0,0c0,0,0-0.1,0-0.1c0,0,0,0,0,0c0,0,0,0,0-0.1c0,0,0,0.1,0,0
					c0,0,0,0,0.1,0c0,0,0,0,0,0.1c0,0,0.1-0.1,0.1-0.1c0,0,0-0.1,0-0.1c0,0,0,0,0.1,0c0,0,0,0,0-0.1c0.1,0,0.1,0.1,0.1,0.1
					c0.1-0.1,0.1-0.1,0.2-0.2c0,0,0-0.1,0-0.1c0,0,0-0.1,0-0.1c0,0,0,0,0,0c0,0,0,0.1,0,0.1c0.1-0.1,0.1-0.1,0.2-0.2h0
					c0-0.1,0-0.1,0-0.2c0.1,0,0,0.1,0.1,0c0,0,0,0,0,0.1c0.1-0.1,0.1-0.1,0.2-0.2c0,0,0,0,0,0c0,0,0,0,0,0c0,0,0,0,0,0
					c0,0,0,0-0.1,0c0-0.1,0-0.1,0-0.2c0,0,0-0.1,0-0.1c0.1,0,0,0.1,0.1,0.1c0,0.1,0,0.1,0,0.1c0.1-0.1,0.1-0.2,0.2-0.3
					c0,0,0-0.1,0-0.1c0,0,0,0,0-0.1c0,0,0,0,0.1,0c0,0,0,0,0,0.1c0.1-0.1,0.1-0.1,0.2-0.2c0,0,0,0,0,0c0-0.1,0.1-0.1,0.1-0.1
					c0,0,0,0,0,0c0.1-0.1,0.1-0.1,0.2-0.2c0,0,0,0,0-0.1c0,0,0,0,0.1,0c0,0,0,0,0,0c0,0,0,0,0-0.1c0,0,0,0,0,0c0,0,0-0.1,0-0.1
					c0,0,0.1-0.1,0-0.1c0,0,0-0.1,0.1-0.1c0,0.1,0,0.1,0,0.1c0,0,0,0,0,0.1c0.1-0.1,0.2-0.2,0.2-0.3c0,0,0,0-0.1,0c0,0,0-0.1,0-0.2
					c0.1,0,0.1-0.1,0.1,0c0,0,0,0,0,0.1c0,0,0,0,0,0c0,0,0.1-0.1,0.1-0.1c0,0,0,0,0,0c0,0,0,0,0,0c0.3-0.4,0.5-0.8,0.8-1.3
					c0,0,0-0.1,0-0.1c0,0-0.1,0,0-0.1c0,0,0,0,0,0c0,0,0,0.1,0,0.1c0.1-0.1,0.1-0.2,0.2-0.4c0.1-0.2,0.2-0.4,0.3-0.6c0,0,0,0,0,0
					c0,0,0,0,0-0.1c0,0,0,0,0,0c0,0,0,0,0,0c0,0,0,0,0,0c0,0,0,0,0,0c0,0,0-0.1,0-0.1c0,0,0,0,0,0.1c0.9-2,1.6-4.3,1.9-7
					C525.6,480.7,523.5,480.6,521.4,480.4z"/>
			</g>
		</g>
		<g>
			<circle cx="506.5" cy="475" r="4.2"/>
		</g>
	</g>
</g>
<polygon class="st4" points="584.3,399.3 456.3,399.3 456.3,433.3 584.3,433.3 549.3,416.3 "/>
<polygon class="st4" points="8.3,399.3 136.3,399.3 136.3,433.3 8.3,433.3 43.3,416.3 "/>
<polygon class="st5" points="504.3,432.8 456.3,399.3 456.3,496.3 504.3,496.3 "/>
<polygon class="st5" points="88.3,432.8 136.3,399.3 136.3,496.3 88.3,496.3 "/>
<rect x="88.5" y="433.2" class="st6" width="415.8" height="63.8"/>
<g>
	<g>
		<path class="st1" d="M316.4,461.8H304c-0.3,0-0.6,0.3-0.6,0.6v6c0,0.3,0.3,0.6,0.6,0.6h4.8v7.5c0,0-1.1,0.4-4.1,0.4
			c-3.5,0-8.5-1.3-8.5-12.1c0-10.9,5.1-12.3,10-12.3c4.2,0,6,0.7,7.1,1.1c0.4,0.1,0.7-0.2,0.7-0.6l1.4-5.8c0-0.1-0.1-0.3-0.2-0.5
			c-0.5-0.3-3.3-1.9-10.5-1.9c-8.3,0-16.7,3.5-16.7,20.4c0,16.9,9.7,19.4,17.9,19.4c6.8,0,10.9-2.9,10.9-2.9
			c0.2-0.1,0.2-0.3,0.2-0.4v-18.8C317,462.1,316.7,461.8,316.4,461.8z"/>
		<path class="st1" d="M380.1,446.8c0-0.3-0.3-0.6-0.6-0.6h-7c-0.3,0-0.6,0.3-0.6,0.6l0,13.5h-10.8v-13.5c0-0.3-0.3-0.6-0.6-0.6h-7
			c-0.3,0-0.6,0.3-0.6,0.6v36.4c0,0.3,0.3,0.6,0.6,0.6h7c0.3,0,0.6-0.3,0.6-0.6v-15.6H372l0,15.6c0,0.3,0.3,0.6,0.6,0.6h7
			c0.3,0,0.6-0.3,0.6-0.6V446.8z"/>
		<g>
			<g>
				<path class="st1" d="M329.5,451.6c0-2.5-2-4.5-4.5-4.5c-2.5,0-4.5,2-4.5,4.5c0,2.5,2,4.5,4.5,4.5
					C327.5,456.1,329.5,454.1,329.5,451.6z"/>
				<path class="st1" d="M329,475.5c0-0.9,0-16.8,0-16.8c0-0.3-0.3-0.6-0.6-0.6h-6.9c-0.3,0-0.6,0.3-0.6,0.6c0,0,0,20.2,0,24.1
					c0,0.7,0.4,0.9,1,0.9c0,0,3,0,6.3,0c0.7,0,0.9-0.3,0.9-0.9C329,481.6,329,476.5,329,475.5z"/>
			</g>
		</g>
		<path class="st1" d="M406.6,458.2h-6.9c-0.3,0-0.6,0.3-0.6,0.6v17.9c0,0-1.8,1.3-4.2,1.3s-3.2-1.1-3.2-3.6c0-2.4,0-15.6,0-15.6
			c0-0.3-0.3-0.6-0.6-0.6h-7c-0.3,0-0.6,0.3-0.6,0.6c0,0,0,9.5,0,16.8c0,7.2,4,9,9.6,9c4.6,0,8.2-2.5,8.2-2.5s0.2,1.3,0.3,1.5
			c0.1,0.2,0.3,0.3,0.5,0.3l4.5,0c0.3,0,0.6-0.3,0.6-0.6l0-24.4C407.1,458.5,406.9,458.2,406.6,458.2z"/>
		<path class="st1" d="M425.4,457.4c-3.9,0-6.6,1.8-6.6,1.8v-12.3c0-0.3-0.3-0.6-0.6-0.6h-7c-0.3,0-0.6,0.3-0.6,0.6v36.4
			c0,0.3,0.3,0.6,0.6,0.6h4.8c0.2,0,0.4-0.1,0.5-0.3c0.1-0.2,0.3-1.7,0.3-1.7s2.9,2.7,8.3,2.7c6.3,0,10-3.2,10-14.4
			C435.2,458.8,429.4,457.4,425.4,457.4z M422.7,477.9c-2.4-0.1-4-1.2-4-1.2v-11.5c0,0,1.6-1,3.6-1.2c2.5-0.2,4.9,0.5,4.9,6.5
			C427.1,476.8,426.1,478,422.7,477.9z"/>
		<path class="st1" d="M349,458.1h-5.2l0-6.9c0-0.3-0.1-0.4-0.4-0.4h-7.1c-0.3,0-0.4,0.1-0.4,0.4v7.1c0,0-3.6,0.9-3.8,0.9
			c-0.2,0.1-0.4,0.3-0.4,0.6v4.5c0,0.3,0.3,0.6,0.6,0.6h3.6c0,0,0,4.7,0,10.8c0,8,5.6,8.8,9.4,8.8c1.7,0,3.8-0.6,4.1-0.7
			c0.2-0.1,0.3-0.3,0.3-0.5l0-4.9c0-0.3-0.3-0.6-0.6-0.6c-0.3,0-1.1,0.1-1.9,0.1c-2.6,0-3.4-1.2-3.4-2.7c0-1.5,0-10.2,0-10.2h5.2
			c0.3,0,0.6-0.3,0.6-0.6v-5.6C349.6,458.4,349.4,458.1,349,458.1z"/>
	</g>
	<g>
		<path class="st1" d="M170.7,474.8h-2v-8.2h-9.2v8.2h-2v-17.4h2v7.4h9.2v-7.4h2V474.8z"/>
		<path class="st1" d="M187.4,468.2c0,2.1-0.5,3.8-1.6,5c-1.1,1.2-2.6,1.8-4.4,1.8c-1.2,0-2.2-0.3-3.1-0.8c-0.9-0.5-1.6-1.3-2.1-2.4
			c-0.5-1-0.7-2.2-0.7-3.6c0-2.1,0.5-3.8,1.6-5c1.1-1.2,2.5-1.8,4.4-1.8c1.8,0,3.3,0.6,4.4,1.8C186.8,464.5,187.4,466.2,187.4,468.2
			z M177.4,468.2c0,1.7,0.3,2.9,1,3.8c0.7,0.9,1.7,1.3,2.9,1.3c1.3,0,2.3-0.4,3-1.3c0.7-0.9,1-2.1,1-3.8c0-1.7-0.3-2.9-1-3.8
			c-0.7-0.9-1.7-1.3-3-1.3c-1.3,0-2.3,0.4-2.9,1.3C177.7,465.3,177.4,466.6,177.4,468.2z"/>
		<path class="st1" d="M200.1,471.2c0,1.2-0.5,2.2-1.4,2.8c-0.9,0.7-2.2,1-3.8,1c-1.7,0-3.1-0.3-4.1-0.8v-1.8c0.6,0.3,1.3,0.6,2,0.8
			c0.7,0.2,1.4,0.3,2.1,0.3c1,0,1.8-0.2,2.4-0.5c0.6-0.3,0.8-0.8,0.8-1.5c0-0.5-0.2-0.9-0.7-1.3c-0.4-0.4-1.3-0.8-2.6-1.3
			c-1.2-0.5-2.1-0.8-2.6-1.2s-0.9-0.7-1.1-1.2c-0.3-0.4-0.4-0.9-0.4-1.5c0-1.1,0.4-1.9,1.3-2.5c0.9-0.6,2.1-0.9,3.6-0.9
			c1.4,0,2.8,0.3,4.1,0.9l-0.7,1.6c-1.3-0.5-2.5-0.8-3.6-0.8c-0.9,0-1.6,0.1-2.1,0.4c-0.5,0.3-0.7,0.7-0.7,1.2
			c0,0.4,0.1,0.6,0.3,0.9c0.2,0.2,0.5,0.5,0.9,0.7c0.4,0.2,1.2,0.5,2.3,1c1.6,0.6,2.6,1.1,3.1,1.7
			C199.9,469.6,200.1,470.4,200.1,471.2z"/>
		<path class="st1" d="M208.4,473.4c0.4,0,0.7,0,1-0.1c0.3-0.1,0.6-0.1,0.8-0.2v1.5c-0.2,0.1-0.5,0.2-0.9,0.3
			c-0.4,0.1-0.8,0.1-1.1,0.1c-2.5,0-3.8-1.3-3.8-4v-7.8h-1.9v-1l1.9-0.8l0.8-2.8h1.1v3h3.8v1.5h-3.8v7.7c0,0.8,0.2,1.4,0.6,1.8
			C207.3,473.2,207.8,473.4,208.4,473.4z"/>
		<path class="st1" d="M219.2,475c-1.9,0-3.5-0.6-4.6-1.8c-1.1-1.2-1.7-2.8-1.7-4.9c0-2.1,0.5-3.8,1.6-5c1-1.2,2.4-1.9,4.2-1.9
			c1.6,0,2.9,0.5,3.9,1.6s1.4,2.5,1.4,4.3v1.3h-9c0,1.5,0.4,2.7,1.2,3.5c0.7,0.8,1.8,1.2,3.1,1.2c1.4,0,2.8-0.3,4.2-0.9v1.8
			c-0.7,0.3-1.4,0.5-2,0.7S220.1,475,219.2,475z M218.7,463.1c-1,0-1.9,0.3-2.5,1c-0.6,0.7-1,1.6-1.1,2.8h6.8c0-1.2-0.3-2.2-0.8-2.9
			C220.5,463.5,219.7,463.1,218.7,463.1z"/>
		<path class="st1" d="M237.2,473H237c-0.9,1.3-2.3,2-4.1,2c-1.7,0-3-0.6-4-1.8c-1-1.2-1.4-2.8-1.4-5c0-2.2,0.5-3.8,1.4-5
			c1-1.2,2.3-1.8,4-1.8c1.8,0,3.1,0.6,4.1,1.9h0.2l-0.1-0.9l0-0.9v-5.3h2v18.6h-1.6L237.2,473z M233.2,473.4c1.4,0,2.3-0.4,2.9-1.1
			c0.6-0.7,0.9-1.9,0.9-3.6v-0.4c0-1.9-0.3-3.2-0.9-4c-0.6-0.8-1.6-1.2-3-1.2c-1.2,0-2,0.5-2.7,1.4c-0.6,0.9-0.9,2.2-0.9,3.8
			c0,1.7,0.3,2.9,0.9,3.8C231.1,472.9,232,473.4,233.2,473.4z"/>
		<path class="st1" d="M251.6,457.3h4.9c2.3,0,4,0.3,5,1c1,0.7,1.6,1.8,1.6,3.3c0,1-0.3,1.9-0.9,2.6c-0.6,0.7-1.4,1.1-2.5,1.3v0.1
			c2.6,0.5,4,1.8,4,4.2c0,1.6-0.5,2.8-1.6,3.7s-2.5,1.3-4.4,1.3h-6.1V457.3z M253.6,464.8h3.3c1.4,0,2.5-0.2,3.1-0.7
			c0.6-0.4,0.9-1.2,0.9-2.3c0-1-0.4-1.7-1-2.1c-0.7-0.4-1.8-0.7-3.3-0.7h-3V464.8z M253.6,466.5v6.5h3.6c1.4,0,2.5-0.3,3.2-0.8
			s1.1-1.4,1.1-2.6c0-1.1-0.4-1.9-1.1-2.4c-0.7-0.5-1.8-0.8-3.3-0.8H253.6z"/>
		<path class="st1" d="M265.9,461.7h2.1l2.9,7.5c0.6,1.7,1,2.9,1.2,3.7h0.1c0.1-0.4,0.3-1.1,0.7-2.1c0.3-1,1.4-4,3.2-9.1h2.1
			l-5.6,14.9c-0.6,1.5-1.2,2.5-2,3.1c-0.7,0.6-1.7,0.9-2.7,0.9c-0.6,0-1.2-0.1-1.8-0.2v-1.6c0.4,0.1,0.9,0.1,1.5,0.1
			c1.4,0,2.3-0.8,2.9-2.3l0.7-1.9L265.9,461.7z"/>
	</g>
</g>
</svg>
