<?xml version="1.0" encoding="utf-8"?>
<!-- Generator: Adobe Illustrator 19.1.0, SVG Export Plug-In . SVG Version: 6.00 Build 0)  -->
<svg version="1.1" id="Layer_1" xmlns="http://www.w3.org/2000/svg" xmlns:xlink="http://www.w3.org/1999/xlink" x="0px" y="0px"
	 viewBox="-102 148.3 593.4 504.7" style="enable-background:new -102 148.3 593.4 504.7;" xml:space="preserve">
<style type="text/css">
	.st0{display:none;fill:#FFFFFF;}
	.st1{display:none;}
	.st2{display:inline;}
	.st3{fill:#B53204;}
	.st4{fill:#751B00;}
	.st5{fill:#C53C02;}
	.st6{fill:#FFFFFF;}
</style>
<rect x="-445.7" y="-43.4" class="st0" width="1280" height="800"/>
<g>
	<path d="M36.4,230.2c0-0.8,0.7-1.5,1.6-1.5h7.9c0.9,0,1.6,0.7,1.6,1.5v44.2h21.8c0.9,0,1.6,0.7,1.6,1.5v6.5c0,0.8-0.7,1.5-1.6,1.5
		H38c-0.9,0-1.6-0.7-1.6-1.5V230.2z M119.2,227.9c17.1,0,30.8,12.7,30.8,28.4s-13.7,28.3-30.8,28.3s-30.7-12.5-30.7-28.3
		C88.5,240.6,102.1,227.9,119.2,227.9z M119.2,274.4c10.8,0,19.7-8.1,19.7-18c0-9.9-8.9-18.2-19.7-18.2s-19.6,8.3-19.6,18.2
		C99.6,266.3,108.4,274.4,119.2,274.4z M201.5,227.9c8.6,0,14.9,2.5,20.7,7.3c0.8,0.6,0.8,1.6,0.1,2.2l-5.2,5
		c-0.6,0.6-1.5,0.6-2.1,0c-3.6-2.9-8.4-4.6-13.2-4.6c-11,0-19.1,8.4-19.1,18.3c0,9.8,8.2,18.2,19.2,18.2c5.1,0,9.5-1.8,13.1-4.5
		c0.7-0.6,1.6-0.5,2.1,0l5.3,5c0.7,0.6,0.5,1.6-0.1,2.1c-5.8,5.2-13.2,7.6-20.8,7.6c-17.1,0-30.9-12.5-30.9-28.3
		C170.6,240.6,184.4,227.9,201.5,227.9z M239.4,281.8l26.6-53c0.3-0.5,0.7-0.9,1.5-0.9h0.9c0.9,0,1.2,0.4,1.5,0.9l26.4,53
		c0.5,1-0.2,2-1.5,2h-7.5c-1.3,0-1.9-0.5-2.5-1.6l-4.2-8.5H255l-4.2,8.5c-0.3,0.8-1.1,1.6-2.5,1.6h-7.5
		C239.6,283.9,238.9,282.8,239.4,281.8z M276.4,265l-8.6-17.3h-0.3l-8.4,17.3H276.4z M317.7,230.2c0-0.8,0.7-1.5,1.6-1.5h7.9
		c0.9,0,1.6,0.7,1.6,1.5v44.2h21.8c0.9,0,1.6,0.7,1.6,1.5v6.5c0,0.8-0.7,1.5-1.6,1.5h-31.3c-0.9,0-1.6-0.7-1.6-1.5V230.2z"/>
	<g>
		<path d="M122.8,491.7h-23c-1,0-1.7,0.8-1.7,1.7v59.1c0,0.9,0.8,1.7,1.7,1.7h23c18.7,0,34.1-14,34.1-31.4
			C156.9,505.7,141.5,491.7,122.8,491.7z M121.6,543.3h-11.1v-40.8h11.1c12.6,0,21.8,8.8,21.8,20.4
			C143.5,534.6,134.2,543.3,121.6,543.3z"/>
		<path d="M229,551.9l-29.9-60.1c-0.3-0.5-0.7-1-1.7-1h-1c-0.9,0-1.4,0.4-1.6,1l-30.2,60.1c-0.6,1.2,0.2,2.3,1.7,2.3h8.4
			c1.6,0,2.4-0.9,2.8-1.8l4.8-9.6h29l4.8,9.6c0.7,1.2,1.4,1.8,2.8,1.8h8.4C228.8,554.2,229.6,553.1,229,551.9z M187.1,532.9
			l9.5-19.7h0.3l9.7,19.7H187.1z"/>
		<g>
			<path d="M255.3,524.1l-22.1-29.8c-0.8-1.2,0-2.6,1.6-2.6h9.9c0.8,0,1.3,0.4,1.6,0.8l15.5,20.5l15.5-20.5c0.3-0.4,0.8-0.8,1.6-0.8
				h10c1.6,0,2.3,1.4,1.6,2.6L268.1,524v28.5c0,0.9-0.9,1.7-1.8,1.7h-8.9c-1.1,0-1.8-0.8-1.8-1.7v-28.4H255.3z"/>
		</g>
	</g>
	<g>
		<g>
			<g>
				<path d="M27.3,388.7c0-4.9,0-9.8,0.1-14.6l0,0l0,0c0-0.1,0-0.3,0-0.4l0,0l0,0c0-6.8,0.1-13.5,0.1-20.3c-0.1,0-0.1,0-0.2,0.1
					c0-0.4-0.2-0.6-0.2-1c0.2,0,0.3-0.1,0.3-0.2c0,0,0.1,0,0.1,0.1c0-3.7,0-7.4,0.1-11.1c0-0.2,0-0.4,0-0.5l0,0c0-0.8,0-1.6,0-2.4
					v-0.1l0,0c0-4.9,0-9.8,0.1-14.7v-0.1l0,0c0-0.7,0-1.3,0-2c-0.2-0.2,0-0.8-0.3-1c0.1,0,0.2,0,0.2,0v0.1c0-2.9,0-5.8,0-8.7
					c-0.3,0-0.5,0-0.8,0c0,0.1,0,0.2,0,0.3c-0.2-0.1-0.2-0.2-0.3-0.3c-1.7,0-3.4,0-5.1,0c0.1,0.3-0.2,0.6,0.1,0.6
					c-0.1,0.1-0.3,0.1-0.5,0.2c0.1-0.2-0.2-0.7,0.3-0.8c-1,0-1.9,0-2.9,0c0,0.2-0.2,0.2,0.1,0.2c-0.1,0.1-0.1,0.3-0.3,0.2
					c0.1-0.1-0.1-0.4,0.2-0.5c-0.1,0-0.1,0-0.2,0c0,0.1-0.1,0.2-0.1,0.2c-0.1-0.1-0.1-0.1-0.1-0.2c-1.9,0-3.8,0-5.7,0
					c0.1,0.2,0.2,0.5,0,0.5c0.1,0.4,0.4,0.4,0.2,0.9c-0.2,0-0.3,0-0.5,0c0.3-0.2,0.4-0.9-0.2-1c0.1-0.2,0.3-0.1,0.5,0
					c0-0.2-0.1-0.3-0.2-0.4c-1.9,0-3.8,0-5.7,0c-0.1,0.1-0.2,0.2-0.1,0.2c0,0.2-0.2,0-0.2-0.2c-1.4,0-2.8,0-4.2,0c0,0.1,0,0.2,0,0.3
					c-0.1,0-0.1-0.2,0-0.2c-0.1,0-0.1-0.1-0.2-0.1c-1,0-1.9,0-2.9,0l-0.1,0.1v-0.1c-0.8,0-1.6,0-2.3,0c0,0.1,0.1,0.3,0.2,0.3
					c-0.3,0.2-0.5,0-0.6-0.2v-0.1c-1.7,0-3.5,0-5.2,0c0,0.2,0,0.4,0.1,0.7c-0.2,0.2-0.5,0.1-0.7,0.1c0-0.3-0.1-0.5-0.1-0.7
					c-0.2,0-0.5,0-0.7,0c0,0.8,0,1.5,0,2.3v0.1l0,0c0,0.8,0,1.7,0,2.5c0.1,0.1,0.2,0.2,0.3,0.2c0.1,0.2-0.1,0.1-0.3,0.2
					c0,0.7,0,1.4,0,2c0.2,0.3,0.3,0.7,0.1,1c-0.1-0.1-0.1-0.1-0.2-0.2c0,3.7,0,7.3,0,11c0,0.1,0.1,0.1,0.1,0.2c-0.1,0-0.1,0-0.1,0
					c0,1.9,0,3.8,0,5.7c0.1,0,0.1-0.1,0.2,0s0.1,0.5,0,0.6c-0.1-0.1-0.2-0.1-0.2-0.3c0,1,0,1.9,0,2.9c0.1,0.2,0.1,0.4,0,0.6
					c0,0.8,0,1.7,0,2.5c0.1,0.3,0.2,0.7,0.1,0.9l-0.1-0.1c0,0.7,0,1.4,0,2.2c0.3,0.3,0.3,0.8,0.3,1.2c-0.2,0-0.3,0-0.3-0.1
					c0,6.7-0.1,13.5-0.1,20.2c0,0,0.1,0.1,0.2,0.1c-0.2,0.3,0.1,0.7-0.2,0.9l0,0c0,0.7,0,1.4,0,2l0,0c0.1,0.3,0.5,0.7,0.2,1.1
					c-0.1,0-0.2,0-0.3-0.1c0,0.6,0,1.2,0,1.8c-1.3,0.1-2.7,0.2-4,0.3c0,0.2-0.4,0.1-0.6,0.2v-0.1c-0.8,0.1-1.6,0.1-2.3,0.2
					c-0.1,0.2-0.3,0.3-0.6,0.2c0-0.1,0-0.1-0.1-0.1c-0.4,0-0.8,0.1-1.2,0.1c0,0.6,0.5,1.2,0.1,1.7c-0.4-0.4-0.4-1.1-0.4-1.7
					c-0.4,0-0.8,0.1-1.1,0.1c-0.1,0-0.1,0-0.2,0c-0.5,0-1,0.1-1.5,0.1c0.4,0.2,0.4,1,0.5,1.6c-0.1,0-0.1-0.1-0.1-0.2
					c-0.1,0.1-0.1,0.3-0.4,0.2c-0.2-0.8,0.1-1.3-0.1-1.7c-0.3,0-0.7,0-1,0.1c-0.1,0-0.2,0-0.3,0c-0.4,0-0.9,0.1-1.3,0.1
					c0.2,0.3,0.4,0.9,0.4,1.5c-0.1,0.2-0.4,0.2-0.7,0.2c0.1-0.6-0.1-1.1-0.1-1.6c-0.8,0.1-1.6,0.1-2.4,0.2c0.1,0.5,0,1.2-0.1,1.7
					c-0.7-0.1-0.7-0.9-0.6-1.6c-0.8,0.1-1.6,0.1-2.5,0.2c0.1,0.5,0.2,0.9,0.1,1.5c-0.7,0.2-0.8-1.4-0.6-1.4c0,0,0-0.1-0.1-0.1
					c-1,0.1-2,0.1-2.9,0.2l0,0l0,0c-1,0.1-1.9,0.1-2.9,0.2c0.3,0.3,0.5,1,0.2,1.4c-0.6,0-0.6-0.9-0.5-1.4c-1,0.1-1.9,0.1-2.9,0.2
					c0.3,0.4,0.3,0.9,0.3,1.3c-0.1,0-0.3,0-0.4,0c0.1-0.5-0.2-0.9-0.1-1.3c-0.8,0.1-1.7,0.1-2.5,0.2c0,0.2,0.1,0.5,0.4,0.7
					c-0.1,0.3-0.3,0.4-0.3,0.7c-0.2,0.1-0.3-0.4-0.3,0c-0.1-0.3-0.1-0.8-0.2-1.2c-0.1,0.2-0.2,0.1-0.1-0.1c-0.9,0.1-1.8,0.1-2.6,0.2
					c0.1,0.4,0.2,0.8,0.3,1.1c-0.1,0.1-0.3,0.2-0.5,0.2c-0.1-0.5-0.1-0.8-0.2-1.2c-0.9,0.1-1.8,0.1-2.8,0.2c0.1,0.4,0.1,0.7,0,1
					c-0.3-0.1-0.2-0.7-0.2-0.8c-0.1,0-0.2-0.1-0.2-0.2c-0.8,0.1-1.6,0.1-2.4,0.2c0.1,0.3,0,0.7,0,1c-0.4-0.1-0.4-0.5-0.5-0.9
					c-0.8,0.1-1.6,0.1-2.4,0.2c0-4.8,0-9.6,0-14.4c-0.1,0-0.1,0.1-0.1,0.1c-0.2,0-0.1-0.3-0.2-0.2c0.1-0.2,0.2-0.2,0.4-0.2
					c0-3.7,0-7.4,0-11.1l0,0l0,0c0-1.4,0-2.8,0-4.2l0,0c-0.1,0-0.1-0.1,0-0.1c0-0.3,0-0.6,0-0.9c0,0,0,0-0.1,0
					c-0.1-0.4,0-0.6,0.1-0.8c0-0.6,0-1.1,0-1.7c-0.1,0-0.2-0.1-0.3-0.2c0-0.1,0-0.1,0.1-0.1c0-0.1,0-0.1,0-0.2
					c0.1,0,0.1,0.2,0.2,0.2l0,0c0-0.1,0-0.2,0-0.3c-0.1-0.1-0.2-0.2-0.2-0.4c0.1,0,0.2,0,0.2,0l0,0c0,0-0.2-0.1-0.1-0.3h0.1
					c0-0.2,0-0.4,0-0.6l0,0c-0.1-0.1-0.2-0.1-0.3-0.1c0-0.1,0.1-0.1,0.2-0.1c0.1-0.1,0.2-0.2,0.2-0.4l0,0c0-0.4,0-0.7,0-1.1l0,0
					c0,0,0,0,0-0.1c0-0.1,0-0.1,0-0.2l0,0c-0.2,0.1,0.1-0.4-0.1-0.2c0-0.2,0-0.4-0.1-0.8c0.1,0,0.2,0,0.2,0c0-0.5,0-0.9,0-1.4h-0.1
					c0.3-0.4-0.7-1.3,0.1-1.7c-0.1-0.2-0.1-0.1-0.3-0.1c0-0.2,0.2-0.2,0.4-0.3c0-0.5,0-0.9,0-1.4c-0.1,0-0.1,0-0.1,0s0-0.4,0.1-0.5
					l0,0c-0.4-0.3-0.4-0.9-0.1-1.3c0,0,0,0,0.1,0c0-0.4,0-0.8,0-1.2c-0.1-0.1-0.2-0.6-0.1-0.9h0.1v-0.1c-0.1,0-0.2,0.1-0.3,0
					c-0.1-0.4,0.2-0.6,0.1-0.9c0.1,0,0.2-0.1,0.2-0.2c0-0.1,0-0.2,0-0.3c-0.1,0-0.2,0.1-0.1,0.2c-0.2,0,0-0.3,0-0.3
					c0.1,0,0.1,0,0.1,0c0-0.4,0-0.7,0-1.1c-0.1-0.2-0.3-0.5-0.4-0.6c0.3-0.3,0.3-0.8,0-1.1c0.2,0.4,0.3-0.1,0.4-0.3
					c0-0.1,0-0.3,0-0.4c-0.1,0-0.3-0.1-0.4-0.1c0-0.2,0.3-0.6,0.1-0.7c0.1-0.2,0.1-0.1,0.3-0.1l0,0c0-0.1-0.2-0.1-0.2-0.4
					c0.1,0,0.1,0,0.2,0.1c0-0.2,0-0.3,0-0.5c-0.1,0-0.2-0.1-0.2-0.1c0-0.1,0.1-0.1,0.2-0.1l0,0c0-0.1-0.3,0-0.3-0.2
					c0-0.1,0.2,0,0.3-0.1c0-0.3,0-0.7,0-1c-0.1,0-0.1,0-0.2,0c0.1-0.2,0.1-0.5-0.2-0.4c-0.2-0.3,0.3-0.4,0.1-0.4c0-0.1,0.1,0,0.1,0
					c0.1,0,0.2-0.1,0.2-0.2c0.1,0,0.1,0.1,0.1,0.1c0-0.8,0-1.5,0-2.3c-0.1,0-0.3-0.1-0.5,0c0-0.9-0.1-1.1-0.1-1.6
					c0.6,0.2,0.3,0.9,0.5,1.5h0.1c0-0.1,0-0.2,0-0.3c-0.1,0-0.1-0.1-0.1-0.2h0.1c0-0.9,0-1.8,0-2.7c-0.1,0-0.2,0.1-0.4,0.1
					c-0.1-0.1,0-0.2-0.2-0.2c0-0.3,0.2-0.2,0.2-0.4c-0.2,0.2-0.2-0.5-0.2-0.6c0.4,0,0.4,0.5,0.6,0.7c0-0.8,0-1.6,0-2.4
					c-0.4,0-0.8,0-1.2,0v0.1c-0.2,0-0.3-0.1-0.6-0.1c0.4,0.1,0.3,0.3,0.1,0.6c0.2,0.1,0.2,0.3,0.3,0.5c-0.1,0.1-0.2,0.3-0.5,0.2
					c0-0.5,0-1-0.1-1.4c-0.3,0-0.7,0-1,0c0,0,0.1,0,0.1,0.1c-0.1,0.2-0.2,0.1-0.3-0.1c-0.9,0-1.8,0-2.8,0c-0.1,0-0.1,0.1-0.2,0
					c0.1,0.2,0.2-0.1,0.3,0.1c0,0.2-0.3,0-0.4,0.1c0-0.1,0-0.1-0.1-0.2c-0.8,0-1.6,0-2.4,0c0,0,0,0.1,0.1,0.1
					c-0.2,0.1-0.2,0-0.3-0.1c-0.9,0-1.9,0-2.8,0c0,0.1,0,0.3,0,0.4c-0.1,0-0.2,0-0.3,0c-0.1-0.1,0-0.3,0.1-0.4c-0.9,0-1.8,0-2.7,0
					c0,0.2,0,0.3,0,0.5c-0.3-0.1-0.3-0.3-0.2-0.5c-0.8,0-1.5,0-2.3,0c0.1,0.1,0.1,0.3,0.1,0.6c-0.3,0-0.2-0.3-0.2-0.6
					c-1,0-2.1,0-3.1,0c0.1,0.1,0.2,0.1,0.2,0.3c-0.1,0.3-0.1,0.1,0,0.4c-0.1-0.2-0.4-0.4-0.5-0.7c-0.9,0-1.8,0-2.7,0
					c0,0.1,0.1,0.2,0,0.3c0.3-0.2,0.3,0,0.3,0.3c-0.1,0.3,0-0.3-0.2-0.2c-0.2,0,0,0.3-0.1,0.4c-0.4-0.1-0.1-0.6-0.2-0.8
					c-4.9,0-9.8,0-14.7,0c0,12,0,24,0,36c0.1-0.2,0-0.3,0.2-0.5c0.2,0.1,0,0.5-0.2,0.5c0,31.4,0,62.7,0,94.1c0.1-0.1,0.3-0.1,0.3,0
					s-0.1,0.1-0.1,0c0,0.2-0.1,0.2-0.2,0.3c0,0.3,0,0.7,0,1h0.1c0,0.1-0.1,0.2-0.1,0.3c0,1.7,0,3.3,0,5c0,0,0.1-0.1,0.2-0.1
					c0,0.2,0,0.1,0.1,0.2c-0.2,0.1-0.2,0.1-0.3,0.1c0,0.4,0,0.8,0,1.2l0,0l0,0c0,1.3,0,2.6,0,3.9v0.1c0,0.4,0,0.7,0,1.1
					c0.1,0,0.1,0,0.2,0c0,0.1-0.1,0.2-0.2,0.3c0,1.7,0,3.3,0,5c0.3-0.3,0.5-0.4,0.9-0.5c0.1,0.4-0.7,0.6-0.7,1
					c-0.1,0-0.2,0.1-0.2,0.1c0,2,0,4,0,6c0.1-0.1,0.2-0.2,0.2-0.3c0.1,0,0.1,0,0.2,0c0,0.2-0.3,0.4-0.3,0.7c-0.1,0-0.1,0-0.2,0.1
					c0,1.7,0,3.4,0,5c0.1,0,0.1,0,0.2,0c-0.1,0.1-0.1,0.2-0.2,0.3c0,4,0,8.1,0,12.2c0.2-0.2,0.4-0.3,0.7-0.5c0,0.1,0.1,0.1,0.1,0.1
					c0,0.1-0.1,0.1-0.1,0.1c0.1,0.1-0.1,0.4-0.2,0.6c-0.2,0-0.4,0.1-0.5,0.1c0,0.3,0,0.7,0,1c0,0,0,0,0.1-0.1
					c0.1,0.2-0.2,0.2,0.1,0.4c-0.1,0-0.1,0-0.1,0c0,1.7,0,3.4,0,5.1c0.1-0.1,0.2,0,0.4-0.1c-0.1,0.1-0.2,0.4-0.4,0.4
					c0,1.8,0,3.5,0,5.3c0.1-0.2,0.4-0.3,0.7-0.4c0.1,0.2,0,0.3-0.1,0.5c3.1-0.7,6.2-1.5,9.4-2.2c-0.1,0-0.2,0-0.3-0.1
					c0-0.4,0.8-0.9,1.1-0.8c-0.1,0.3-0.5,0.6-0.7,0.9c1.9-0.4,3.8-0.9,5.7-1.3c0.1-0.1,0.2-0.1,0.3-0.2c0,0,0,0.1-0.1,0.1
					c1.2-0.3,2.4-0.5,3.6-0.8c-0.1,0-0.1,0-0.1-0.1c0.1,0,0.1-0.1,0-0.1c0.1-0.2,0.5-0.4,0.5-0.5c0.2,0.1,0,0.5-0.3,0.6
					c2.4-0.5,4.9-1.1,7.3-1.6l0,0c1.2-0.3,2.4-0.5,3.7-0.8c0-0.2,0.3-0.3,0.3-0.5c0.1,0,0.1,0.1,0.2,0.2c-0.1,0.1-0.2,0.1-0.2,0.2
					c-0.1-0.1-0.1,0-0.2,0.1c2.3-0.5,4.6-1,6.9-1.5c0-1,0-2.1,0-3.1c0,0.1-0.1,0.2-0.3,0.3c-0.3-0.1,0-0.3-0.2-0.3
					c0-0.3,0.3-0.3,0.5-0.3c0-2,0-4,0-6.1c-0.2,0-0.4,0.1-0.5,0c0.2-0.2,0.3-0.5,0.6-0.7c0-0.3,0-0.5,0-0.8c-0.1,0-0.1,0-0.2-0.1
					c0.1,0,0.1-0.1,0.2-0.2c0-1.8,0-3.7,0-5.5c-0.2,0.2-0.5,0.3-0.6,0.7c-0.2,0.1-0.2-0.2-0.3-0.3c0.2-0.1,0.6-0.6,0.9-0.7
					c0-0.4,0-0.8,0-1.2c-0.1,0.1-0.1,0.1-0.2,0.2c-0.2,0-0.2-0.1-0.3-0.3c0.2-0.2,0.3-0.3,0.5-0.4c0-0.2,0-0.4,0-0.7
					c-0.1,0-0.2-0.1-0.2-0.2c0.1,0,0.2-0.1,0.2-0.1c0-1.2,0-2.5,0-3.7c-0.1,0.1-0.2,0.2-0.1,0.3c-0.3,0.1-0.5,0.2-0.7,0.2
					c-0.1-0.2,0.4-0.4,0.5-0.4s0.1-0.3,0-0.3c0-0.1,0.2-0.2,0.4-0.3c0-0.2,0-0.4,0-0.6c-0.1,0-0.2,0.1-0.3,0.1
					c-0.1-0.2,0.1-0.4,0.3-0.5c0-1.7,0-3.3,0-5c-0.2,0.2-0.4,0.3-0.6,0.5c0.1-0.1,0-0.3-0.2-0.5c0.2-0.1,0.5-0.2,0.5-0.4
					c0,0.2,0.1,0.1,0.2,0.1c0.1-0.1-0.1,0,0-0.2c0.1,0,0.1-0.1,0.2-0.1c0-0.2,0-0.3,0-0.5c-0.2,0-0.4,0-0.5-0.2
					c0.1-0.1,0.3-0.3,0.5-0.5c0-0.3,0-0.7,0-1l0,0l0,0c0-0.7,0-1.4,0-2.1c-0.3,0.1-0.8,0.4-0.9,0.7c-0.3,0-0.1-0.2-0.1-0.3
					c-0.2,0.3-0.2-0.4,0-0.4c0,0.1,0.1,0.1,0.1,0.2c0.1-0.3,0.4-0.5,0.7-0.7c0.2,0.3,0,0.4,0.1,0.6c0-0.4,0-0.8,0-1.3
					c0,0.1-0.1,0.2-0.1,0.3c0-0.2-0.3-0.2-0.3,0c-0.6-0.4,0.2-0.5,0.5-0.9c0-0.2,0-0.5,0-0.7c-0.1,0-0.1,0-0.2,0.1
					c-0.1-0.1-0.2-0.3-0.2-0.4c0.1,0,0.2-0.1,0.3-0.1c0-1.2,0-2.5,0-3.7c-0.2,0.2-0.5,0.3-0.7,0.5c0.4,0.1-0.1,0.3-0.2-0.1
					c0.2-0.1,0.5-0.4,0.6-0.6c0.2-0.1,0.3,0.1,0.4,0c0-0.3,0-0.6,0-1c-0.2,0.1-0.4,0.2-0.5,0.3c-0.1-0.1-0.1-0.2-0.2-0.4
					c0.3,0.1,0.5-0.2,0.7-0.4c0-0.3,0-0.6,0-0.8c-0.1,0-0.1-0.1-0.2-0.3c0.1,0,0-0.1,0-0.1c0.1,0,0.2-0.1,0.2,0c0-0.8,0-1.5,0-2.3
					c0,0,0,0-0.1-0.1c-0.3,0.3-0.8,0.7-1.1,1.1c-0.2,0.1-0.4-0.4-0.1-0.5c0.3-0.2,0.3-0.3,0.5-0.3c-0.2-0.3,0.2,0,0.3-0.1
					c0,0,0.1-0.2,0-0.2c0.1-0.1,0.3,0,0.5-0.1c0-0.7,0-1.4,0-2.1c-0.1,0-0.2,0.1-0.2,0.1c-0.1-0.2-0.2-0.1-0.2-0.3
					c0.2-0.1,0.3-0.2,0.4-0.2c0-1.5,0-3,0-4.5c-0.1,0.1-0.2,0.2-0.3,0.3c0-0.1,0-0.1,0-0.2c-0.2,0.1,0,0.2,0,0.3
					c-0.1,0-0.2-0.2-0.3-0.1c-0.2-0.6,0.6-0.5,0.6-1h0.1c0-0.2,0-0.5,0-0.7c-0.1,0.1-0.3,0.2-0.4,0.2c-0.1-0.2-0.1-0.3-0.1-0.4
					c0.1-0.1,0.4-0.1,0.5-0.2c0-0.7,0-1.5,0-2.2c0,0-0.1,0.1-0.2,0.1c0-0.1,0.3-0.2,0.1-0.4h0.1c0-0.7,0-1.5,0-2.2
					c-0.1,0.2-0.4,0.3-0.6,0.3c-0.1-0.1,0-0.2,0-0.3c0.1-0.1,0.1,0.1,0.3,0.1c0.1-0.1,0-0.2,0-0.3c0.1,0.1,0.2,0,0.4,0
					c0,0,0,0,0,0.1c0-0.3,0-0.7,0-1c0,0,0,0-0.1,0c-0.1-0.1-0.2-0.2-0.3-0.2c0-0.2,0.1-0.3,0.3-0.4c-0.1,0.1,0,0.1,0,0.1
					c0-0.1,0-0.2,0-0.2l0,0l0,0c0-0.3,0-0.6,0-0.9c0-0.1-0.1-0.1-0.1-0.2h0.1c0-1.1,0-2.2,0-3.4c-0.3,0-0.3,0-0.6,0.3
					c0-0.2-0.1-0.3,0.1-0.5c0.1,0.3,0.3,0,0.2-0.1c0.1,0,0.2,0.2,0.3,0.3c0-0.1,0-0.1,0-0.2c-0.1,0-0.2-0.2-0.2-0.3
					c0.1,0,0.1,0.1,0.2,0.1c0-0.3,0-0.7,0-1c-0.1,0.1-0.2,0-0.2,0.1c-0.1-0.1,0-0.2,0.1-0.3c0,0.1,0.1,0.1,0.1,0.2
					c0-0.9,0-1.9,0-2.8c0.2,0,0.5-0.1,0.7-0.1l-0.1-0.1c0.1,0,0.1-0.1,0.2-0.1c0,0.2,0.2,0.1,0.2,0.2c0.6-0.1,1.2-0.1,1.8-0.2l0,0
					h0.1c1.7-0.2,3.3-0.4,5-0.6c0.1,0,0.2-0.1,0.3-0.2c0,0.1-0.1,0.1-0.1,0.2c1.6-0.2,3.1-0.4,4.7-0.6c0.2-0.1,0.3-0.1,0.6-0.3
					c0.2-0.1-0.3,0.2,0,0.2c5.6-0.7,11.2-1.3,16.8-1.9c-0.1-0.4,0-1.2,0.1-1.3c0.4,0.1,0.4,0.6,0.6,0.8c0,0.2-0.1,0.3-0.1,0.4
					c0.9-0.1,1.7-0.2,2.6-0.3c0-0.1,0-0.3,0.1-0.4c0.2,0,0.3,0.2,0.3,0.4c3.7-0.4,7.4-0.8,11.2-1.2c0,1.8,0,3.7,0,5.5l0,0
					c0.1,0.3-0.1,0.6,0.2,1c-0.1,0-0.1,0-0.2,0.1c0,0.7,0,1.5,0,2.2c0.1,0,0.1,0,0.2,0c0,0.3,0,1.2-0.1,1.5c-0.1,0-0.1-0.1-0.1-0.1
					c0,1,0,1.9,0,2.9c0.1,0,0.2,0,0.2-0.1c0.1,0.1,0,0.2-0.1,0.2c0.1,0.2,0.2-0.1,0.3,0c0,0.1,0,0.1,0.1,0.2c0,0.3-0.2,0.2-0.2,0.4
					c-0.2,0,0-0.3,0.1-0.2c-0.1-0.1-0.3,0-0.4-0.2c0,3.8,0,7.6,0,11.4l0.1-0.1c0.1,0.1,0,0.2-0.1,0.3c0,2,0,4,0,6.1
					c0.1-0.1,0.3-0.1,0.5-0.3c-0.1,0.2-0.3,0.4-0.5,0.4c0,4.7,0,9.4-0.1,14.1c0.1,0,0.1,0,0.2,0c0,0.1-0.1,0.1-0.2,0.2
					c0,2.4,0,4.9,0,7.3c0.1-0.1,0.2-0.1,0.3-0.1c0.1,0.2-0.4,0.2-0.2,0.3c0,0,0,0-0.1,0c0,1.7,0,3.3,0,5c0.2-0.1,0.4-0.1,0.6-0.3
					c0.2,0.3-0.4,0.4-0.5,0.3c-0.1,0.2,0.2,0.2,0,0.3c-0.1,0-0.1-0.1-0.1-0.1c0,0.5,0,0.9,0,1.4c0,0,0,0,0.1,0
					c0.1,0.1,0,0.1-0.1,0.2c0,2,0,4,0,6.1l0,0c0,0,0.1,0.1,0.1,0.2c0.1-0.2,0.2-0.2,0.3-0.3c0.1,0.2-0.1,0.2-0.2,0.1
					c-0.1,0.1,0.2,0,0.2,0.2c-0.2,0.1-0.2,0.2-0.3,0.2c0.1,0,0.2,0.1,0.2,0.3c-0.1,0-0.2-0.1-0.2-0.3c0,0.6,0,1.3,0,1.9
					c2.1-0.4,4.2-0.7,6.3-1c-0.2,0-0.3-0.1-0.4-0.4c0.3-0.2,0.7,0,0.5-0.4c0.2-0.2,0.5-0.1,0.4,0c-0.1,0.2-0.1,0-0.2,0
					c-0.1,0.2,0.1,0.2,0.1,0.4c-0.1,0-0.3,0.2-0.4,0.3c0.4-0.1,0.8-0.1,1.3-0.2c0.1-0.1,0.1-0.2,0.3-0.3c0,0.1,0,0.2,0,0.2
					c10.1-1.7,20.2-3.3,30.3-4.8c0.1-28.4,0.3-56.9,0.4-85.4C27.2,389.1,27.2,388.9,27.3,388.7z"/>
			</g>
		</g>
		<g>
			<g>
				<path d="M445.7,413.2C445.8,413.2,445.8,413.2,445.7,413.2c-0.3-0.9-0.7-1.7-1.1-2.5c-0.1,0.1-0.2,0.2-0.4,0.3
					c-0.1-0.1,0.1-0.4-0.1-0.3c0-0.2,0.2-0.3,0.3-0.4c-0.4-0.9-0.8-1.7-1.2-2.6c0,0.2-0.3,0.4-0.5,0.4c0-0.1,0.1-0.1,0.2-0.2
					c0-0.1-0.1-0.1-0.1,0c0.1-0.1,0.2-0.2,0.4-0.2c-0.1-0.1-0.1-0.3-0.2-0.4c4-2.7,7.4-5.7,10.4-9c0-0.1,0-0.1,0.1-0.2h0.1
					c1-1.1,2-2.3,2.8-3.5c-0.2-0.2-0.3-0.4-0.4-0.7c0.2,0,0.3,0.3,0.4-0.1c0.1,0.1,0.1,0,0.3,0.2c0.2-0.1,0.1-0.2,0.4-0.3
					c-0.1-0.2-0.3,0.2-0.3-0.1c0.2-0.1,0.4-0.2,0.6-0.3c0,0.1-0.1,0.1-0.1,0.2c0,0,0,0,0,0.1c2.5-3.5,4.6-7.3,6.2-11.3l-0.1-0.1l0,0
					l0,0h-0.1c0-0.1,0.1-0.1,0.1,0l0,0c0.1-0.1,0.2-0.2,0.2-0.2c0.2-0.5,0.4-1.1,0.6-1.6c0-0.1,0-0.1,0.1-0.2c0-0.1,0.1-0.2,0.1-0.3
					c-0.2,0.1-0.5,0.3-0.6,0.5c-0.1-0.1-0.2-0.3-0.2-0.4c0.4,0,0.3-0.2,0.7-0.5c0.1,0.2,0.3,0,0.3,0.1c3.4-9.3,5.1-19.6,5.8-30.5
					c-0.1-0.1-0.1-0.1-0.2-0.2c0-0.1,0.1-0.1,0.2-0.1c0.2-3.3,0.4-6.6,0.5-10c-0.2,0.1-0.4,0-0.4-0.2c0-0.1,0.2-0.2,0.1-0.3
					c0.2,0.1,0.2,0.1,0.3,0.1c0.1-3.9,0.1-7.9,0.2-12c-0.1,0-0.1-0.1-0.1-0.2h0.1c0-1.7,0-3.4,0-5.1c-0.1,0.1-0.2,0-0.3-0.2
					c0.1-0.1,0.2-0.1,0.3-0.1c0-1.8,0-3.6,0-5.4c-4.7,0-9.3,0-14,0c-0.1,0.1-0.2,0.1-0.3,0c-0.6,0-1.3,0-1.9,0c0,0,0,0-0.1,0
					c0,0.1,0.1,0,0.2,0c0.1,0.3-0.1,0.2-0.3,0c-1.9,0-3.7,0-5.6,0c0,0.1-0.5,0.4-0.2,0.6c-0.2,0.1-0.4,0.2-0.6,0.4
					c-0.1-0.1-0.1-0.2-0.2-0.3c0.2-0.1,0.4-0.2,0.2-0.4c0.3-0.2,0.5-0.2,0.8-0.3c-0.8,0-1.6,0-2.4,0c-0.2,0.1-0.4,0.1-0.5,0.2
					c0-0.1,0-0.1,0-0.2c-0.6,0-1.3,0-1.9,0c0,0,0,0.1,0.1,0.1c-0.1,0-0.2-0.1-0.2-0.1c-1.9,0-3.9,0-5.8,0c-0.2,0.2-0.5,0.4-0.8,0.6
					c0-0.2,0.2-0.4,0.4-0.6c-0.5,0-1.1,0-1.6,0l0,0l0,0c-0.7,0-1.5,0-2.2,0c-0.2,0.1-0.5,0.2-0.7,0.2c0-0.1-0.1-0.1-0.1-0.2
					c-0.2,0-0.3,0-0.5,0c0,1.2,0,2.4,0,3.5c0.1-0.2,0.2-0.3,0.3-0.5c0.1,0.1,0,0.2-0.1,0.2c0.1,0.2,0.2,0.1,0.3,0.4
					c-0.1,0-0.4,0.1-0.5,0.2c0,0.4,0,0.8,0,1.2c0.1,0,0.2,0,0.3,0.1c-0.1,0.1-0.3,0.2-0.3,0.3l0,0v0.1l0,0c0,2.2,0,4.4,0,6.5
					c0.2-0.2,0.4-0.2,0.4-0.5c0.3-0.1,0.5,0.1,0.8,0c0,0.1-0.2,0.1-0.1,0.3c-0.1-0.1-0.2-0.1-0.4-0.2c-0.2,0.2,0.2,0.2,0.2,0.3
					c-0.2,0.2-0.8,0.3-0.5,0.5c0.3,0-0.1,0.1-0.2,0.1c-0.1-0.1-0.1-0.2-0.2-0.3c0,0.5,0,0.9,0,1.4c0.1-0.1,0.3-0.3,0.4-0.5
					c0.1,0.5,0.6-0.1,0.7,0.3c-0.1,0-0.4-0.2-0.3,0.1c-0.1-0.1-0.3,0-0.4-0.2c-0.1,0.1-0.2,0.6-0.1,0.6c0,0.2-0.5,0-0.3,0.3h-0.1
					c0,0.3,0,0.7,0,1l0,0c0,0.1,0.1,0.1,0.1,0.2c-0.1,0-0.1,0.1-0.1,0.1c0,0.5,0,1,0,1.4c0,0.1,0,0.2,0,0.4c0,0.9,0,1.9-0.1,2.8
					c0,0,0-0.1,0.1-0.1c0.1,0.1,0.2,0.1,0.4,0.2c0.1-0.1,0-0.2-0.1-0.3c0.2-0.2,0.3-0.1,0.5-0.2c-0.1,0-0.2,0-0.3-0.1
					c0.2-0.1,0.3-0.1,0.5-0.1c0,0.2-0.1,0.5-0.1,0.7c-0.1,0-0.2-0.1-0.3-0.1c0,0.1-0.3,0.6-0.6,0.3c-0.1,0.2,0.3,0.2,0,0.4
					c0-0.3-0.1-0.1-0.2,0c0,0.4,0,0.7,0,1.1c0.1,0,0.2,0,0.3-0.2c0.2,0.4,0.5,0.3,0.7,0.1c0,0.5-0.7,0.5-0.7,1c-0.1,0-0.3,0-0.4,0.1
					c0,0.3,0,0.7,0,1c0.4-0.1,0.5,0,0.9-0.3c0.1,0.3-0.4,0.5-0.7,0.5c0.1,0.3,0,0.5-0.2,0.7c0,0.4,0,0.8-0.1,1.1c0,0,0,0,0.1,0
					c0,0.1,0,0.2-0.1,0.3c-0.1,1.1-0.2,2.3-0.3,3.4c0,0,0.1,0,0.2-0.1c0.1,0.2,0.2,0.3,0.3,0.5c-0.2,0-0.3-0.2-0.5-0.3
					c-0.2,1.8-0.4,3.6-0.6,5.3c0.1-0.1,0.1-0.2,0.2-0.2c0.1,0.1,0.7-0.2,0.7-0.5c0.3-0.1,0.1,0.3,0,0.5c0.2,0.1,0.2-0.3,0.4,0
					c-0.5,0.2-0.1,0.4-0.7,0.7c-0.2,0-0.1-0.1-0.1-0.2c-0.3,0.2,0,0.5-0.3,0.7c-0.1-0.1-0.1-0.2-0.2-0.3c-0.1,0.6-0.2,1.1-0.3,1.7
					c0.5-0.4,1-1.3,1.1-0.6c-0.2,0.4-0.5,0.8-1,1.1c0-0.1-0.1-0.2-0.1-0.2c-0.3,1.3-0.6,2.6-0.9,3.9c0.4-0.2,0.5-0.4,0.9-0.7
					c0.1,0.1-0.1,0.4,0.2,0.3c-0.2,0.4-0.6,0.6-1,0.7c0.4,0.2-0.2,0,0,0.3c-0.1,0-0.1,0-0.2-0.1c-0.1,0.5-0.3,1-0.4,1.5l0.1-0.1
					c0.1,0.2-0.2,0.4-0.1,0.6c-0.1,0-0.1-0.1-0.1-0.2c-0.1,0.5-0.3,1-0.5,1.4l0,0c-0.4,1.2-0.9,2.3-1.4,3.4c0.1,0,0.1,0,0.2,0
					c0.3,0.4-0.2,0.4-0.3,0.6c0-0.1-0.1-0.1-0.2-0.1c-0.1,0.1-0.1,0.3-0.2,0.4v0.1h-0.1c-0.3,0.5-0.6,1.1-0.9,1.6
					c0.1-0.1,0.2-0.2,0.3-0.3c0.1,0.6-0.3,1.2-1,1.4c-0.6,0.9-1.2,1.8-2,2.6c0.1-0.1,0.2-0.1,0.3-0.2c0,0.1-0.1,0.2,0,0.2
					c-0.5,0.3-0.8,1.2-1.3,1.3h-0.1c-1.3,1.3-2.8,2.5-4.5,3.5c-0.1,0.1-0.2,0.2-0.2,0.3c-0.1,0-0.1,0-0.2,0c-0.6,0.4-1.3,0.7-2,1
					l0,0c0,0,0,0-0.1,0s-0.2,0.1-0.3,0.2h0.1c-0.1,0.2-0.6,1-0.9,0.4c0.2,0,0.3-0.1,0.4-0.2c-1.4,0.6-2.9,1-4.6,1.4
					c0,0.2-0.3,0.4-0.4,0.5c-0.1-0.1-0.1-0.2-0.2-0.3c0,0,0.1,0,0.1-0.1c-0.5,0.1-1.1,0.2-1.6,0.3c-0.1,0.1-0.2,0.2-0.4,0.3
					c-0.1-0.1-0.1-0.1-0.1-0.2c-1.1,0.2-2.3,0.3-3.6,0.3c-0.2,0.2-0.5,0.4-0.8,0.5c0,0.2-0.5,0.6-0.7,0.2c0.3-0.1,0.6-0.4,0.9-0.7
					c-0.8,0-1.6,0.1-2.4,0c-0.3,0.2-0.5-0.2-0.6,0.2c-0.1,0-0.1-0.1-0.2-0.1l-0.1-0.1l0,0c-0.6,0-1.2,0-1.8-0.1
					c-0.1,0.1-0.2,0.1-0.3,0.1V379c-0.2,0-0.3,0-0.5,0c-0.9-0.1-1.8-0.1-2.7-0.2c0-1,0-2.1,0-3.1c-0.2,0.3-0.5,0.6-0.6,0.8
					c-0.2,0.1-0.3-0.3-0.5-0.5c0.5-0.3,0.7-0.7,1.1-0.9c0-0.4,0-0.7,0-1.1c-0.1,0-0.2,0.1-0.3,0.1c0-0.2,0.1-0.4,0.3-0.6
					c0-2.2,0-4.5,0-6.7c-0.1,0-0.2,0-0.2,0c0.1,0.3-0.5,0.8-0.7,0.2c0.3-0.2,0.7-0.5,1-0.9c0-0.2,0-0.5,0-0.7h-0.1
					c-0.2-0.2-0.3-0.4-0.4-0.7c0.2,0,0.3-0.1,0.5-0.3c0-1,0-2.1,0-3.1c-0.5,0.2-1.1,0.9-1.9,1.4c-0.2-0.2-0.2-0.3-0.3-0.6
					c0.5-0.3,1.7-1.7,2.2-1c0-0.7,0-1.3,0-2c-0.4,0.3-0.4,1.1-1.3,1c0.1-0.7,0.7-1,1.3-1.4c0,0,0,0,0,0.1c0-0.4,0-0.8,0-1.2
					c-0.2,0.2-0.4,0.4-0.6,0.7c-0.1-0.2-0.3-0.1-0.5-0.3c0.3-0.4,0.7-0.7,1.1-0.9c0-0.3,0-0.6,0-0.9l0,0c-0.3-0.1-0.4-0.3-0.4-0.6
					c0.2,0,0.3-0.1,0.4-0.2c0-2.1,0-4.3,0-6.4c-0.1,0-0.2,0-0.3,0c0,0.3-0.1,0.3-0.4,0.4c-0.5-0.8,0.1-0.9,0.7-1.2
					c0-0.4,0-0.9,0-1.3c-0.1,0-0.2,0.1-0.3,0c-0.1-0.2-0.2-0.4-0.3-0.6c0.2-0.1,0.4-0.2,0.6-0.4c0-1.6,0-3.2,0-4.8h-0.1l0.1-0.1
					c0-0.5,0-1.1,0-1.6c-0.2,0.1-0.2,0.3-0.2,0.5c-0.1,0-0.1,0,0-0.1c-0.2-0.2-0.5,0.6-0.9,0.2c-0.1-0.6,0.7-0.6,1.1-1
					c0-0.3,0-0.6,0-0.9c-0.1,0.1-0.1,0.2-0.2,0.3c0-0.5-0.4,0.1-0.5-0.4c0.3-0.1,0.5-0.4,0.8-0.7c0-0.4,0-0.7,0-1.1
					c-0.1-0.2-0.3-0.4-0.3-0.6c0.1,0,0.2-0.1,0.3-0.1c0-1,0-2,0-3c-0.1,0-0.2-0.2-0.3-0.1c-0.2,0.5-0.7,1.2-1.5,1.3
					c-0.1-0.2,0.1-0.3,0-0.5c0.6-0.6,1.3-0.9,1.8-1.2c0-0.3,0-0.6,0-0.9c-0.2,0.3-0.5,0.5-0.8,0.5c-0.1-0.2-0.2-0.4-0.3-0.6
					c0.3-0.2,0.7-0.5,0.8-0.7c0.1,0,0.2,0,0.3,0.1c0-0.3,0-0.5,0-0.8c0,0,0,0.1-0.1,0.1c-0.3-0.3-0.6-0.4-0.6-0.8
					c0.3,0.1,0.5-0.1,0.7-0.3c0-0.5,0-0.9,0-1.4c0,0,0,0-0.1,0c0,0,0,0,0.1-0.1c0-1.2,0-2.3,0-3.5c-0.1,0.1-0.3,0.1-0.3-0.1
					c0.1-0.1,0.2-0.1,0.3-0.1c0-0.5,0-1,0-1.5c-0.3,0.3-0.7,0.6-0.9,0.9c-0.2,0-0.3-0.2-0.4-0.3c0.3,0.1,0.2-0.2,0.4-0.4
					c0.1,0,0.1,0.1,0.1,0.2c0.1-0.2,0.2-0.3,0.1-0.6c0.2-0.1,0.4-0.2,0.6-0.3c0-0.3,0-0.6,0-0.8c-0.1,0.1-0.2,0.1-0.4,0.2
					c-0.1-0.1-0.1-0.2-0.2-0.3c0.2-0.1,0.2-0.2,0.2-0.4c0.1,0,0.3,0,0.4,0c0-0.6,0-1.2,0-1.8c0-0.1-0.1-0.2-0.1-0.2h0.1
					c0-1.1,0-2.1,0-3.2h-0.1c-0.4,0.3-0.9,0.6-0.9,1.1c-0.2,0.1-0.6-0.1-0.3,0.3c-0.3-0.1-0.3-0.6-0.4-0.8c0.4,0.1,0.5-0.4,0.8-0.6
					c-0.6,0-1.3,0-1.9,0c-0.2,0.2-0.5,0.4-0.6,0.5c-0.3-0.1,0-0.3,0.2-0.5c-0.7,0-1.5,0-2.2,0c-0.1,0.1-0.2,0.2-0.3,0.3
					c0-0.1-0.1-0.1-0.2-0.1c0-0.1,0-0.1,0.1-0.2c-0.6,0-1.1,0-1.7,0c0,0.1-0.1,0.1-0.2,0.2c0-0.1,0-0.1-0.1-0.2c-3.1,0-6.2,0-9.3,0
					c0,0-0.1,0-0.1,0.1c0,0,0,0,0-0.1c-0.8,0-1.5,0-2.3,0l0,0l0,0c-3.8,0-7.6,0-11.4,0c0,0.1-0.1,0.1-0.2,0.1v-0.1
					c-2.3,0-4.6,0-6.9,0c0,8.3,0.1,16.6,0.1,25c0.2-0.1,0.3,0,0.5-0.1c0.1,0.2-0.3,0.4-0.4,0.3c0.1,0.2,0.1,0.3-0.1,0.5
					c0,2.8,0,5.6,0,8.5h0.1c0.1-0.1-0.2-0.1-0.1-0.3c0.1,0,0.1,0.1,0.2,0.1c0.1-0.1,0.1-0.2,0-0.2c0.1-0.1,0.3-0.2,0.6-0.2
					c0.3,0-0.1,0.1-0.2,0c-0.1,0.1,0,0.2,0,0.4c-0.3,0-0.4,0.1-0.3,0.4c-0.1,0-0.2-0.1-0.3-0.1v0.1c0,2.3,0,4.5,0,6.8
					c0,0,0.1,0,0.2-0.1c0,0.1,0,0.2,0.1,0.4c0,0-0.2,0-0.3,0.1c0,0.6,0,1.2,0,1.9c0,0,0.1,0.1,0.1,0.2c0,0,0,0-0.1,0
					c0,2.2,0,4.5,0,6.7c0,0.1,0.1,0.2,0.2,0.3c-0.1,0-0.1,0-0.1,0c0,3,0,6,0,8.9c0.3-0.1,0-0.3,0.2-0.3c0.2-0.1,0.5,0.2,0.6-0.2
					c0,0.2-0.4,0.7-0.7,0.9c-0.1-0.2,0.1-0.2-0.1-0.4c0,3.7,0,7.4,0.1,11.2c0.1,0,0.1,0,0.2,0c-0.1,0.1-0.1,0.2-0.2,0.3
					c0,5.5,0.1,11,0.1,16.5c0.1,0,0.1-0.1,0.2-0.2c0.1,0.1,0,0.5,0.2,0.5c-0.1,0.2-0.3,0.2-0.4,0.3c0.1,11.1,0.1,22.2,0.2,33.4
					c0,0.1-0.1,0.3,0.1,0.2c0,0.1-0.1,0-0.1,0.1l0,0c0,3.7,0,7.5,0.1,11.2h0.1c0.1,0.4-0.2,0.6,0,0.7c0,0-0.1,0-0.1,0.1
					c0,0.3,0,0.7,0,1c0.1,0.1,0,0.4,0,0.3l0,0v0.1h-0.1v0.1c0.1,0.1,0,0.2,0.2,0.2c-0.1,0.1-0.1,0.1-0.2,0.1c0,0.4,0,0.8,0,1.2
					c0,0,0-0.1,0.1-0.1c0.3,0.2,0.1,0.3,0.2,0.7c-0.1,0-0.2,0-0.3,0c0,0.4,0,0.9,0,1.3c0-0.1,0-0.1,0-0.2c0.1,0,0.1-0.1,0.2,0
					c0,0.2,0,0.2,0,0.3c0,0.1-0.2,0-0.2,0.1s0.1-0.1,0.2,0c0,0.1,0,0.2,0.1,0.2c0,0.2-0.3,0.1-0.4,0.1c0-0.1,0.2,0,0.2-0.1
					s-0.2,0-0.2-0.1c0,1.6,0,3.1,0,4.7c0.1,0.1,0,0.2,0,0.4l0,0c0,0.6,0,1.2,0,1.7c0,0,0,0.1,0.1,0.1h-0.1c0,0.4,0,0.9,0,1.3
					c0,0.2,0.1,0.3,0,0.4c0,4,0,7.9,0.1,11.9c0.1,0,0.1,0,0.2,0.1c0,0.1-0.1,0.2-0.2,0.2c0,0.4,0,0.9,0,1.3l0,0
					c0.1,0.1,0.2,0.3,0,0.4c0.1,0,0.1,0.3,0.2,0.3c-0.1,0.1-0.1,0.1-0.2,0.1c0,0.1,0,0.2,0,0.3c3.3,0.5,6.7,1,10,1.5v-0.1
					c0.1,0,0.1,0.1,0.2,0.1c0.5,0.1,1.1,0.2,1.6,0.2c0-0.1,0-0.2-0.1-0.2c0.1-0.1,0.1-0.1,0.2-0.1c0,0.1,0,0.2,0,0.4
					c2,0.3,4.1,0.6,6.1,0.9c-0.1-0.1,0.1-0.2-0.1-0.2c0.1-0.3,0.4-0.3,0.5,0c0,0.2-0.2,0.2-0.4,0.2c0.9,0.1,1.9,0.3,2.8,0.4l0,0
					c0-0.1,0.1,0,0.2,0l0,0c1.4,0.2,2.8,0.4,4.1,0.7c0-0.1,0.1-0.2,0.2-0.2c0,0.1,0,0.2,0,0.2c4.1,0.7,8.2,1.3,12.3,2
					c-0.1-21.4-0.2-42.7-0.3-64.1c4.8,0.5,9.4,1,14.3,0.6c10.8,23.2,21.5,47.2,32.1,72.2c13.7,2.8,27.4,5.8,41,9.1
					c0-2.5,0-4.9,0-7.4c-12-27.8-24.1-54.3-36.2-79.7C446,413.7,445.9,413.4,445.7,413.2z"/>
			</g>
		</g>
		<g>
			<path d="M177,431.3c-0.1,0-0.5-1-0.5-1c-0.6-1.2-1.1-2.4-1.7-3.7l-0.1-0.1c-0.9-2-27.3-60.2-28.6-62.9c-0.1,0-0.3,0-0.4,0
				c0.1-0.1,0.2-0.2,0.2-0.3c-1.7-3.7-3.4-7.5-5-11.2c-0.1-0.1-0.2-0.1-0.1-0.3l0,0c-1.8-4-3.6-8-5.4-12.1c-0.1-0.1-0.1-0.1-0.1-0.3
				l0,0c-0.6-1.4-1.3-2.8-1.9-4.2c-0.1,0.2-0.1-0.2,0-0.1c-3.3-7.4-6.6-14.4-9.9-22.4c-2.5,0-4.9,0-7.4,0c0.1,0,0.2,0.4,0.1,0.5
				c0-0.2,0-0.3-0.2-0.4l0.1-0.1c-2.9,0-5.8,0-8.7,0c-1.8,4-3.6,8.2-5.4,12.2l0.5,0.2c0,0.1,0.1,0.3,0.1,0.4l0,0
				c0,0.3-0.7,0.6-0.8,0.9c0,0.1-0.1,0.1,0,0c0,0.1,0,0.2-0.2,0.2c0,0-0.1-0.1-0.2-0.1c-0.5,1.1-1,2.2-1.5,3.3c0,0,0,0,0,0.1
				c0,0-0.1,0-0.1,0.1l0,0c0,0,0,0.1,0,0c0,0.1,0,0-0.1,0.1c-0.7,1.6-1.4,3.2-2.1,4.7c0,0,0,0,0,0.1c0,0,0,0-0.1,0
				c-0.1,0.3-0.2,0.5-0.3,0.8c0.1,0.1,0.1,0.1,0.1,0.2c-0.2,0,0,0.2-0.1,0.2h-0.1V336c-0.1,0.2-0.2,0.5-0.3,0.7
				c0.1,0.1,0.2,0.2,0.3,0.4c-0.1,0-0.1,0.1-0.2,0.1c0-0.2-0.1-0.1-0.2-0.2l0,0c-0.5,1.2-1.1,2.4-1.6,3.7c0.1,0.1,0.1,0.1,0.2,0.2
				c0,0.1-0.2,0.1-0.2,0.2c0-0.1,0-0.1-0.1-0.2c-0.1,0.3-0.2,0.5-0.4,0.8c0.3,0,0.3,0.3,0.4,0.6c-0.3,0-0.4-0.3-0.4-0.5
				c-0.7,1.6-1.4,3.2-2.1,4.8c0.1,0.1,0.2,0.3,0.2,0.5c-0.1,0-0.2-0.2-0.3-0.3c-0.1,0.3-0.3,0.6-0.4,0.9c0.1,0.1,0.2,0.2,0.3,0.2
				c-0.1,0,0,0.2-0.1,0.2c-0.1-0.1-0.2-0.2-0.3-0.3c-0.1,0.2-0.2,0.5-0.3,0.7c0,0,0.1,0,0.1,0.1h-0.1c-0.3,0.6-0.5,1.2-0.8,1.7
				c0,0,0,0,0.1,0.1h-0.1l0,0c0,0,0,0,0,0.1h-0.1c-0.1,0.2-0.2,0.5-0.3,0.7h0.1c0,0.1,0.1,0.3,0.3,0.2c0.1,0.3-0.5,0.5-0.4,0.5
				c-0.1,0-0.1-0.1-0.2-0.1c-0.1,0.2-0.2,0.4-0.3,0.6l0,0c0.1,0.4,0.2,0.3,0.4,0.6c-0.1,0-0.1,0.1-0.2,0.2c0-0.2-0.1-0.2-0.2-0.2
				c0-0.2,0-0.3-0.1-0.3c-0.1,0.3-0.2,0.5-0.3,0.8h0.1c0.1,0.1,0,0.2-0.1,0.2c0-0.1-0.1-0.1-0.1-0.1c-0.4,1-0.8,1.9-1.3,2.9
				c0.1,0.1,0.1,0.2,0,0.4c-0.1,0-0.1,0-0.1-0.1c-0.1,0.3-0.3,0.6-0.4,0.9c0.1,0.1,0.2,0.1,0.2,0.3c0.1,0.1,0.2-0.2,0.3,0
				c-0.2,0.1-0.3,0.2-0.5,0.3c0-0.1,0-0.2-0.1-0.2c-0.1,0.3-0.2,0.5-0.3,0.8c0.2,0.1,0.4,0.2,0.2,0.4c0.1,0,0.2,0.2,0.4,0.1
				c0,0.1-0.1,0.1-0.2,0.2c-0.1-0.2-0.3-0.4-0.5-0.6c-0.5,1.2-1.1,2.4-1.6,3.6c0.1,0.2,0.3,0.4,0.3,0.5c-0.2,0.3-0.3,0-0.4-0.2
				c-0.1,0.2-0.2,0.4-0.3,0.6v0.1c0.1,0.2,0.3-0.2,0.4,0.1c-0.1-0.1-0.1,0-0.2,0c0.1,0,0.2,0.2,0.2,0.3c0,0,0.1-0.1,0-0.1
				c0.2,0,0,0.2-0.1,0.2c0.1,0.1,0.1-0.1,0.2-0.1c0.3,0.4-0.3,0.5-0.6,0.7c-0.1,0-0.2-0.2-0.4-0.1c0.1-0.1,0-0.2,0-0.3
				c0,0.1-0.1,0.3-0.1,0.3l0,0c0.1,0,0,0.2,0,0.3h-0.1c-0.4,0.9-0.8,1.8-1.2,2.7c0.1,0,0.1,0,0.1,0c-0.1,0-0.2,0.1-0.2,0.1
				s0,0,0,0.1c0,0.1,0,0.1-0.1,0.2l0,0c-0.1,0.2-0.2,0.4-0.3,0.6c0.2,0.1,0.2,0.4,0.3,0.6c-0.3,0.1-0.3-0.1-0.5-0.1
				c-0.1,0.2-0.2,0.5-0.3,0.7c0,0,0,0,0.1,0c0.2,0.4,0.5,0.5,0.6,0.9c-0.1,0.1-0.2,0.1-0.3,0.1c-0.1-0.2-0.3-0.5-0.5-0.8
				c-0.4,0.9-0.8,1.8-1.2,2.8c0,0.1,0.1,0.1,0.1,0.2c0,0.1-0.1,0.1-0.2,0.1c-0.1,0.3-0.3,0.6-0.4,1c0.1,0.1,0.2,0.3,0.3,0.4
				c-0.2,0.1-0.3,0-0.4-0.1c-0.1,0.2-0.2,0.5-0.3,0.7c0.1,0.1,0.3,0.2,0.4,0.4c-0.1,0,0,0.1,0,0.2c-0.1,0-0.1,0.1-0.2,0.1
				c-0.1-0.1-0.2-0.2-0.4-0.3c-0.6,1.3-1.1,2.6-1.7,3.8v0.1c0,0,0,0-0.1,0c-0.1,0.3-0.3,0.7-0.4,1c0.1,0.1,0.2,0.2,0.3,0.4
				c-0.1,0-0.2,0.1-0.3,0.1s-0.1-0.1-0.2-0.2c-0.1,0.2-0.2,0.5-0.3,0.7c0.2,0.2,0.5,0.5,0.4,0.7c-0.1-0.2-0.3-0.4-0.4-0.6
				c-0.1,0.3-0.3,0.6-0.4,0.9c0.2,0.3,0.5,0.4,0.7,0.8c0,0.1,0,0.1-0.1,0.2c-0.2-0.3-0.7-0.4-0.6-0.8c0-0.1-0.1-0.1-0.1-0.1
				c-0.4,0.9-0.8,1.8-1.2,2.8c0.1,0.1,0.2,0.3,0.1,0.4c-0.1,0-0.2,0-0.3-0.1c-0.1,0.3-0.2,0.6-0.4,0.9c0.1,0.1,0.1,0.3,0.3,0.5
				c-0.1,0-0.2-0.1-0.4-0.2c-0.1,0.3-0.2,0.6-0.4,0.8c0.1,0.1,0.4,0.3,0.4,0.6c-0.3,0-0.4-0.3-0.5-0.4c-0.2,0.4-0.3,0.7-0.5,1.1
				c0.2,0.1,0.3,0.5,0.5,0.6c-0.3,0.2-0.6-0.3-0.5-0.6c-0.4,1-0.8,2-1.3,3c0.1,0.1,0.1,0.3,0.3,0.4c0,0.1-0.1,0.1-0.1,0.1
				c-0.1-0.1-0.1-0.2-0.1-0.4h-0.1c-0.2,0.4-0.3,0.7-0.5,1.1c0,0,0.1-0.1,0.2-0.1c0.2,0.1,0.3,0.3,0.4,0.4c0,0.1-0.3-0.1-0.1,0.2
				c0,0.1-0.2-0.1-0.2,0c-0.1,0-0.2-0.2-0.3-0.4c-0.4,0.9-0.8,1.9-1.2,2.9v0.1l0,0c-10,23.3-20,47-30,71.3c0,2,0,3.9,0,5.9
				c12.2-1.4,24.4-2.7,36.6-3.9c2.9-6.7,5.8-13.4,8.7-20.1c9.3-0.7,18.7-1.3,28-1.8c-0.1,0-0.1-0.1-0.3,0c-0.1-0.2,0.1-0.2,0.1-0.4
				c0.3-0.1,0.1,0.3,0.3,0.3c0,0.1,0,0.1-0.1,0.1c3.3-0.2,6.6-0.4,9.9-0.5c0.1-0.1,0.2-0.2,0.2-0.3c0.2,0,0.2,0.2,0.2,0.3
				c0.5,0,0.9,0,1.4-0.1c0.1-0.4-0.1-0.7,0-1.3c0.2,0.1,0.2,0.3,0.4,0.3c-0.2,0.4,0.1,0.7-0.2,1c0.4,0,0.7,0,1.1-0.1
				c0-0.2,0.1-0.5,0.2-0.6c0.1,0.1,0.1,0.4,0.1,0.6c2.9-0.1,5.9-0.3,8.8-0.4c0-0.1,0-0.1-0.1-0.2c0.2-0.1,0.3,0,0.4,0.2
				c0.9,0,1.8-0.1,2.7-0.1c0-0.1,0-0.1,0-0.2c0.1,0,0.1,0.1,0.2,0.2c0.5,0,1,0,1.5-0.1c0.1-0.3-0.2-0.2-0.2-0.5c0.3,0,0-0.3,0.2-0.4
				c-0.2,0-0.3-0.6-0.1-0.9c0.3,0,0.4,0.6,0.2,0.7c0,0.2,0.3,0,0.4,0.1c-0.1,0.3,0,0.5,0,0.9c0.3,0,0.6,0,0.9,0c0-0.1,0-0.1,0-0.2
				c0.1,0,0.2,0,0.2,0.1c0.5,0,0.9,0,1.4-0.1c0.6,1.2,1.1,2.4,1.7,3.7c0-0.3,0,0.1,0-0.1c0.8,0.2,0.7-1.3,0.6,2.7H146
				c0.8,0,1.6,2.7,2.4,4.5c0-0.2,0-0.6,0.1-0.8c0.2,0.4,0.6,0.9,0.6,1.3c0,0.2-0.1,0.1-0.2,0c1.1,2.5,2.3,4.9,3.4,7.3
				c0.5,0,1,0.2,1.6,0.2c-0.2-0.2-0.3-0.5-0.4-0.5c0.1,0,0.3,0,0.4,0c0.1,0-0.2,0,0.1,0c0,0.3,0,0.2,0,0.4c0.9,0,1.9-0.1,2.8-0.2
				c0-0.1,0-0.2,0-0.2c0.1,0.1,0.2,0.1,0.2-0.2c0.1,0.1,0.1,0.2,0.2,0.4c0.9,0,1.7-0.1,2.6-0.1c0-0.1,0-0.2,0-0.3
				c0.1-0.1,0.2,0,0.2-0.2c0.1,0,0.1,0,0.1,0.1s0.1,0,0.1,0c0.1,0.1,0.1,0.2,0.1,0.4c0.8,0,1.7-0.1,2.5-0.1
				c-0.2-0.5-0.2-1.2,0.4-1.3c-0.3,0.4,0.1,0.8,0.3,1.3c0.8,0,1.6,0,2.4-0.1c-0.1-0.3-0.1-0.7,0-0.8c0.1-0.1,0.1,0,0.3-0.1
				c-0.1,0.3,0.1,0.6,0.2,0.9c0.8,0,1.7-0.1,2.5-0.1c0-0.3,0.1-0.6,0.1-0.8c0.3,0.1,0.4,0.4,0.4,0.8c0.9,0,1.7,0,2.6-0.1
				c0-0.3,0.1-0.6,0.2-0.7c0.3,0.1,0.4,0.4,0.4,0.7c0.9,0,1.8,0,2.7,0c-0.1-0.4-0.1-0.8-0.1-0.8c0-0.6,0.3,0.5,0.5,0.7l0,0
				c0.9,0,1.9,0,2.8,0c-0.2-0.3-0.2-0.4-0.2-0.7c0.4,0,0.3,0.6,0.2,0.7c1.1,0,2.2,0,3.2-0.1c0-0.4-0.2-0.5-0.3-0.8
				c-0.1-0.3,0.2-0.2,0.2-0.5c0.6-0.1,0.6,0.8,0.6,0.7c0,0.1,0.3,0.3,0.2,0.5c0.9,0,1.8,0,2.6,0c-0.2-0.2-0.1-0.8-0.2-0.9
				c0.3-0.2,1.3,0.6,1.1,0.9c1.3,0,0.6-0.1,4.6-0.1c0-1.8,0-3.7,0-5.5C190.6,458.4,177.4,432.3,177,431.3z M97.5,336.1
				c0-0.1,0.1-0.1,0-0.2c0,0.1,0.1,0.1,0.1,0.2C97.6,336.2,97.6,336.1,97.5,336.1z M131.9,414.7c-0.2,0-29.2,0.3-33.3,0.5
				c0.3-0.7,0.6-1.4,0.9-2.1c-0.2,0-0.3-0.1-0.2-0.3c0.1,0,0.1,0,0.1,0.1s0.1,0.1,0.2,0c2.2-5.3,4.3-10.6,6.5-15.8
				c0-0.1,0-0.1,0-0.1h0.1c0.2-0.5,0.5-1,0.7-1.5c-0.1,0,0,0,0,0c0-0.1,0,1.1,0,1.1h-0.1c0.6-4,1.2-3.7,1.9-5.2
				c-0.1,0-0.1-0.5,0-0.6c0,0.1,0-0.1,0.1,0c0.3-0.7,0.6-1.6,0.9-2.3c0-0.1,0-0.2-0.1-0.2c0.1-0.2,0.2-0.1,0.2,0
				c0.4-1,0.8-2,1.3-3.1c0-0.1-0.1-0.2-0.1-0.3c0.1,0,0.1,0,0.2,0c0.1-0.3,0.2-0.6,0.4-0.9c-0.1,0-0.1-0.2-0.2-0.3
				c0.1,0,0.2,0.1,0.2,0.2c0.7-1.6,1.3-3.3,2-4.9l0,0c0.1-0.2-0.4-0.8-0.1-0.6c0.1,0,0.2,0.1,0.3,0.1c0.6-1.3,1.1-2.7,1.7-4
				c0,0.1,1,2.4,1.5,3.5c0.1-0.1,4.5,10.6,4.6,10.6c0,0,1.5,3.2,1.4,3.3l1.6,3.7c0,0,0,0,0,0.1c0.8,2,1.7,3.9,2.5,5.9
				c0-0.1,0-0.2,0.1-0.2s0.1,0,0.2,0.1v-0.1c0,0,0.1,0,0.1,0.1l0,0c0.1,0.1,0,0.5,0,0.7c-0.1,0-0.1-0.1-0.2-0.2
				c0.1,0.2,0.2,0.4,0.3,0.6h0.1c0,0.2,0,0.3,0,0.4C127.7,403.7,132.2,414.4,131.9,414.7z"/>
		</g>
		<g>
			<g>
				<path d="M315.7,410.5c-0.1,0.2-0.2,0.5-0.3,0.7c-1.6,0.4-3.4,0.5-5.2,0.1c-6.3-1.7-13.9,8.2-10.6,13.8c0.9,1.5,1.6,3.1,1.5,4.9
					c-2.5,2.6-9.7,6.6-13.8,7.8c-1.4-0.8-2.6-2.2-3.4-3.6c-0.9-1.6-2.7-2.5-4.8-2.9c-2.7,0.8-5.7,1.2-8.8,1.3
					c-1.9,0.9-3.3,2.3-3.8,4c-0.4,1.7-1.2,3.3-2.5,4.5c-1.3,0-3.1-0.2-4.9-0.7v0.1c-0.1,0-0.2,0-0.2-0.1c-3.5-0.8-7.3-2.2-9.8-3.2
					c-0.3-1.8-0.5-3.6-0.1-5.3c0.1-0.4,0.2-0.9,0.2-1.3c0,0.1-0.2,0.1-0.2,0.3c-0.2-0.1,0.2-0.7-0.2-0.7c0.1-0.2,0.3,0.1,0.3,0.2
					c0-1.1-0.3-2.2-0.8-3.3c0,0,0,0-0.1,0c0,0,0,0,0-0.1c-0.2-0.4-0.5-0.8-0.8-1.3c-1.6-1.2-3.1-2.4-4.5-3.8c-2.7-1.5-5.8-2-7.9-0.7
					c-0.9,0.5-1.9,0.9-2.9,1.1c0,0.2-0.3,0.5-0.3,0.6c-0.2,0-0.1-0.3,0-0.6c-0.5,0.1-1.1,0.1-1.6,0.1c0,0,0,0,0,0.1c0,0,0,0,0-0.1
					c-0.1,0-0.3,0-0.4,0c-0.3-0.4-0.7-0.9-1.1-1.4c-0.1,0-0.2,0-0.3,0c0.1-0.2-0.1-0.4-0.2-0.5c0-0.1,0-0.1,0-0.2
					c-2.4-3.4-5.1-8.4-5.9-10.9c0.6-1.6,1.8-2.8,3.3-3.7c0-0.1,0-0.2,0.1-0.3c0.1,0,0.1,0,0.2,0c0,0.1-0.1,0.1-0.2,0.1
					c0,0,0,0.1,0.1,0.1s0.1-0.1,0.2-0.1c0.2-0.1,0.4-0.3,0.6-0.5c0-0.1-0.1-0.3-0.1-0.5c0.2,0.2,0.2-0.2,0.3-0.3l0,0
					c0.1,0,0.2,0.2,0.3,0.4c0.4-0.3,0.7-0.7,1-1.1c-0.1-0.2,0.1-0.5,0.1-0.6c0.1,0.1,0.1,0.2,0.2,0.2c0-0.1,0.1-0.1,0.1-0.2
					c-0.1-0.1-0.1-0.1-0.1-0.3c0.1,0,0.2,0,0.2,0.1c1.6-2.9,1.8-6.9,0.3-10c-0.2,0-0.2,0.2-0.4,0.2c0.2-0.3-0.1-0.1-0.2-0.2
					c0-0.2,0.2-0.3,0.3-0.4c0,0,0-0.1-0.1-0.1c0,0.1-0.1,0.1-0.1,0.2c-0.3,0,0.1-0.4-0.1-0.4l0,0c-1-1.6-2.5-2.9-4.5-3.5
					c0,0,0,0-0.1,0c0,0,0,0-0.1-0.1c-0.1,0-0.1-0.1-0.2-0.1c-1.9-0.5-4.2-2.1-4.6-2.9c0-0.3,0.1-0.6,0.1-1l0,0c0-0.1,0-0.1,0-0.2
					c0.1-0.4,0.1-0.9,0.2-1.5c0,0,0,0-0.1,0h0.1c0.2-1,0.4-2.1,0.7-3.2c-0.1,0-0.1-0.8,0.2-0.7c0.6-2.2,1.2-4.5,1.8-6.2
					c0-0.1,0-0.1,0-0.2c0.1,0,0.1,0,0.1,0c0.2-0.5,0.4-0.9,0.5-1.3c1.7-0.7,3.7-0.8,5.7-0.3c2.1,0.5,4.3-0.4,6.2-2
					c0.5-1.1,1.1-2.2,1.7-3.3c-0.1,0.1-0.2,0.1-0.3,0.1c0-0.1-0.1-0.1-0.1-0.2c0.1-0.2,0.3-0.1,0.3-0.2c0.1,0,0.1,0,0.2,0.1
					c0.1-0.1,0-0.2,0-0.3c0.2,0,0.1,0,0.2-0.1c0,0,0,0,0,0.1c0.5-0.9,1.1-1.7,1.7-2.6l0,0c0.1,0,0.1-0.1,0.2-0.1
					c0.3-0.4,0.6-0.8,1-1.2c0.1-0.7,0.2-1.4,0.2-2c-0.2,0.2-0.3,0.3-0.1,0.6c-0.2-0.1-0.4-0.1-0.5-0.4c0.2-0.1,0.1,0,0.3-0.1
					c0.1-0.1,0.1-0.4-0.1-0.2c0-0.2,0.2-0.2,0.3-0.3c-0.1-0.6-0.2-1.2-0.5-1.7c-0.2-0.4-0.4-0.7-0.5-1.1c-0.1,0-0.2,0.1-0.3,0.1
					c-0.1-0.1,0.1-0.2,0-0.3c0.1,0,0.2,0,0.2,0c-0.3-1.1-0.4-2.2-0.6-3.3c-0.1,0.1-0.2,0.1-0.3,0.2c-0.1,0-0.1-0.1-0.2-0.2
					c0-0.2,0.3,0,0.2-0.2c0.1-0.1,0.2-0.1,0.3-0.1c0-0.1,0-0.2,0-0.3c1.4-1.2,3.8-2.7,6.3-4.2c0.1-0.1,0.1-0.1,0.2-0.2l0,0
					c0.4-0.2,0.9-0.5,1.3-0.7c-0.1-0.2,0.6-0.6,0.7-0.7c0,0.2-0.1,0.3-0.3,0.5c1.9-1,3.6-1.8,4.9-2.2c0.6,0.2,1.2,0.7,1.9,1.3
					c0.2-0.2,0.3-0.4,0.5-0.4c0.1,0.2-0.3,0.2-0.1,0.4c-0.1,0-0.2,0.1-0.3,0.2c0.5,0.4,0.9,1,1.3,1.5h0.1c0,0.1,0,0.1,0,0.1
					c0.1,0.2,0.3,0.4,0.4,0.6c0.2,0.4,0.6,0.7,0.9,1.1c0.1-0.1,0.1-0.1,0.2-0.2c-0.1,0-0.2,0.1-0.2,0.2c0.3,0.2,0.5,0.4,0.8,0.6
					c0.4-0.1,0.6-0.5,0.9-0.7c0.1,0.4-0.3,0.7-0.6,0.9c0.1,0,0.1,0.1,0.2,0.1c1.3-0.3,2.6-0.6,4-0.7c0,0,0-0.1,0.1-0.1l0.1,0.1
					c0.2,0,0.4,0,0.6-0.1c-0.1,0-0.2-0.2-0.2-0.3c0.1-0.1,0.3-0.2,0.3-0.1c0.1-0.1-0.1-0.1-0.1-0.2c0.1-0.1,0.2,0,0.2-0.1
					c-0.1,0.3,0.1,0.1,0.2,0c0.1,0.2,0,0.4,0.3,0.2c0,0.2-0.2,0.2-0.3,0.3c-0.1-0.1,0-0.1,0-0.2c-0.1,0.1-0.1,0.1-0.1,0.3
					c-0.1-0.1-0.3-0.2-0.3,0.1c0.6-0.1,1.2-0.1,1.8-0.1c0.1-0.2,0.3-0.3,0.6-0.5c-0.1,0.3-0.4,0.1,0,0.4c-0.1,0-0.2,0.1-0.3,0.1
					c0.5,0,1,0,1.5,0c0,0,0,0,0-0.1c0.1,0,0.2,0,0.2,0.1c0.3,0,0.6,0,0.9,0c1,0,2.1,0.1,3,0.1c0.4-0.3,0.7-0.5,1-0.8
					c-0.2,0.1-0.4,0.1-0.6,0.2c-0.1-0.1,0-0.2-0.1-0.3c0.2,0.1,0.3-0.1,0.4-0.2c0,0.1,0.1,0,0.2,0v0.1c0.2-0.2-0.2-0.3-0.1-0.5
					c0.1-0.1,0.2,0.1,0.3,0c0,0.2-0.2-0.1-0.3,0.1c0.1-0.1,0.2,0.2,0.3,0.2c0,0.1-0.1,0.2-0.1,0.2c0.6-0.7,1.1-1.4,1.4-2.3
					c0.2-0.7,0.5-1.5,0.9-2.1c-0.1,0-0.1-0.3,0.1-0.3c0,0,0,0.1,0.1,0.1l0.1-0.1c0,0,0,0,0-0.1c0.5-0.8,1.1-1.5,1.7-1.9
					c5,0.5,11.8,2.5,14.6,3.9c0.4,1.3,0.6,3.5,0.2,5.3c-1.5,5.8,8.8,13.5,13.8,10.6c1.6-0.9,3.3-1.3,5-1.2c2.2,2.6,5.9,8.4,7.3,12.7
					c6.4,0.2,12.7,0.5,19.5,0.8c-5.8-41.9-37.8-59.3-67.7-59.7c0.1,0.3-0.5,0.4-0.6,0.7c-0.2,0,0-0.2-0.2-0.4c0.2,0,0.6-0.3,0.8-0.3
					c-0.4,0-0.8,0-1.2,0c-1.3,0-2.6,0-3.9,0.1v0.1c-0.1,0-0.1-0.1-0.2-0.1c-1,0.1-2,0.1-2.9,0.2c0,0.1,0,0.1,0.1,0.2
					c-0.3,0.2-0.3,0.3-0.6,0.4c-0.1,0-0.1-0.1-0.2-0.2c0.3-0.1,0.3-0.2,0.4-0.4c-0.5,0-1,0.1-1.6,0.2c0,0,0,0,0.1,0.1
					c-0.1,0-0.3,0-0.4,0c-0.4,0-0.8,0.1-1.2,0.1v0.1c-0.1,0-0.1,0-0.2,0c-1,0.1-2,0.3-3,0.5c0.1,0.1,0,0.3,0.2,0.3
					c-0.4,0.3-0.6,0.2-0.9,0.4c-0.1-0.1-0.2-0.3-0.2-0.4c0.1-0.1,0.1-0.1,0.2-0.1c-0.9,0.2-1.8,0.3-2.7,0.5
					c-0.1,0.2-0.3,0.4-0.3,0.4s0,0.1-0.1,0.1c0.1,0.1,0.2,0.1,0.3,0.1c-0.1,0.2-0.5,0.2-0.6,0.4c-0.1,0-0.3-0.1-0.2-0.3
					c0.2,0.3,0.1-0.2,0.4-0.1c0.1-0.2,0.2-0.3,0.3-0.4c-0.6,0.1-1.2,0.3-1.9,0.5c-0.1,0-0.1,0.1-0.2,0.1c0,0,0,0,0-0.1
					c-0.2,0.1-0.5,0.1-0.7,0.2l0.1,0.1c0.1,0.1-0.2,0.1-0.2,0c-0.1,0,0,0,0,0.1c-0.1,0.1,0-0.1-0.1-0.1c-0.8,0.2-1.5,0.4-2.3,0.6
					l0,0c-0.1,0-0.1,0.1-0.2,0.1c0,0,0,0-0.1-0.1c-0.1,0-0.2,0-0.3,0.1c0,0.1,0,0.1,0,0.2h-0.1c0,0,0,0-0.1,0v-0.1
					c-0.9,0.3-1.9,0.6-2.8,0.9c-0.1,0.2-0.7,0.3-0.7,0.2c-0.3,0.1-0.6,0.2-0.9,0.3c0,0.2-0.1,0.2-0.2,0.1c-1.2,0.5-2.5,1-3.7,1.5
					c-0.1,0.2-0.9,0.6-1,0.4c-1.7,0.8-3.4,1.6-5,2.5l-0.1,0.1l0,0c-0.5,0.3-1.1,0.6-1.6,0.9l0,0h-0.1c-0.2,0.1-0.4,0.2-0.6,0.3
					c-0.1,0.1-0.4,0.3-0.4,0.3c-0.3,0.2-0.5,0.3-0.8,0.5c0,0,0,0.1-0.1,0c-0.1,0.1-0.2,0.1-0.3,0.2c0,0.2-0.8,0.5-0.8,0.5
					c-0.4,0.3-0.9,0.6-1.3,0.9c0,0-0.7,0.6-0.7,0.5c-2,1.4-3.9,2.9-5.8,4.5c0.1,0-1,1.1-1.1,0.9c-0.2,0.2-0.4,0.4-0.6,0.6
					c0,0,0,0,0,0.1c-0.1,0-0.1,0-0.1,0c-0.2,0.2-0.4,0.4-0.6,0.5c0,0.3-0.2,0.6-0.5,0.5c-0.1,0.2-0.2,0.2-0.3,0.2
					c-0.6,0.6-1.2,1.2-1.7,1.7l-0.7,0.8c-0.7,0.7-1.3,1.5-2,2.2c0.1,0,0,0.2-0.1,0.2c-0.2,0.2-0.4,0.5-0.6,0.7
					c-0.6,0.7-1.2,1.5-1.8,2.3l0.1-0.1c0,0.2-0.1,0.2-0.1,0.1c-0.1,0.2-0.3,0.3-0.4,0.5c0,0.1,0,0.1,0,0.2c-0.1,0.1-0.2,0.1-0.2,0.1
					c-0.3,0.4-0.6,0.9-0.9,1.3c0.4-0.1-0.1,0.3-0.1,0.1c-0.6,0.8-1.2,1.7-1.7,2.6c0.1,0.1-0.1,0.6-0.4,0.7c-0.3,0.5-0.6,0.9-0.8,1.4
					c0.2-0.2,0.4,0.2-0.1,0.2c-1,1.8-2,3.7-2.9,5.7c0.1,0.1-0.1,0.4-0.3,0.5c-0.2,0.5-0.4,1-0.7,1.5c0,0,0.1,0.2-0.1,0.3v0.1l0,0
					c0,0.1,0,0.1,0,0.1c-0.2,0.5-0.4,0.9-0.6,1.4c0.1,0,0,0.2-0.1,0.2c-0.9,2.4-1.8,4.9-2.5,7.6c0.1,0,0,0.4-0.1,0.3
					c-1.6,5.9-2.5,12.3-2.8,19.2c0.1,0.2,0.1,0.7,0,0.6c0,0.9-0.1,1.8-0.1,2.7c0,5,0.4,9.8,1.2,14.4c0.1-0.1,0.1-0.1,0.3-0.1
					c0,0.2-0.2,0.3-0.2,0.4c0.2,1,0.3,2,0.5,3c0,0.1,0.1,0.1,0.3,0c-0.1,0.1-0.2,0.3-0.2,0.5c0.4,1.7,0.8,3.4,1.3,5.1
					c0-0.2,0.1-0.5,0.2-0.7c0.3,0.2,0,0.6,0.2,0.9c-0.1,0-0.2,0-0.3,0.1c0.6,2.2,1.3,4.3,2.1,6.4h0.1c0,0.1,0.1,0.3,0.1,0.5
					c3.3,8.5,8,15.9,13.6,22.1c0-0.1,0-0.2,0.1-0.3c0.2,0.2,0.3,0.4,0.3,0.7c2,2.1,4,4.1,6.2,6c0.1-0.1,0.2-0.2,0.4-0.2
					c-0.1,0.1,0,0.4,0,0.6c1,0.9,2,1.7,3.1,2.5c0-0.1,0-0.1,0-0.2c0,0.1,0,0.2,0.1,0.2c2.5,1.9,5.1,3.6,7.8,5.2c0-0.1,0-0.2-0.1-0.3
					c0.2-0.2,0.2-0.2,0.3-0.5c0.2,0.2,0.1,0.6,0.2,1c11.6,6.6,24.7,10.3,37.8,11.1c14.3,0.9,28.9-1.5,41.1-8.6c0-0.1,0-0.2,0-0.2
					c0.1,0,0.2,0.1,0.2,0.1c1.1-0.7,2.2-1.3,3.3-2.1c0-0.1,0.1-0.3,0.1-0.4c0,0.1,0,0.2,0,0.3c0.2-0.2,0.5-0.4,0.7-0.5
					c0,0-0.1-0.1-0.2-0.1c0.1-0.2,0.2,0,0.3-0.1l0,0c1.1-0.8,2.1-1.6,3.1-2.4c-0.1-0.1,0.2-0.1,0.1-0.2c0,0,0.1,0,0.1,0.1
					c0.2-0.2,0.5-0.4,0.7-0.6c0,0,0,0-0.1,0c0-0.1,0.2-0.3,0-0.3c0.1-0.1,0.2,0.1,0.3,0.2c0.2-0.2,0.5-0.4,0.7-0.7
					c0-0.1-0.1-0.1-0.2-0.2c0-0.1,0.1-0.1,0.2-0.1c0-0.1-0.1-0.1-0.1-0.2c-0.1,0-0.1,0.1-0.1,0.1c-0.1,0.1,0.1-0.2,0.1-0.3
					c0.1,0,0,0.1,0.2,0.1c-0.3,0.1,0.1,0.3-0.1,0.5c0,0,0,0.1,0.1,0.1c0.2-0.2,0.4-0.4,0.6-0.6c0-0.1,0-0.2,0-0.3
					c0.1,0,0.1,0.1,0.1,0.2l0,0c0-0.1,0-0.3,0-0.4h0.1c0-0.1-0.1-0.1-0.1-0.2c0.1-0.1,0.1,0.2,0.1,0c0,0.1,0,0.1,0.2,0
					c0,0.1,0,0.1,0,0.2c0.1-0.1,0.3-0.3,0.4-0.4c0-0.1,0.1-0.3,0-0.4c0-0.1,0.1-0.1,0.2,0c0-0.1-0.1-0.1-0.1-0.2
					c0.2,0,0.2,0.2,0.2,0.3c0.2-0.2,0.4-0.4,0.6-0.6c0-0.1,0-0.4-0.1-0.3c-0.1-0.1,0.1-0.2,0.1-0.4h0.1c0.1,0.1,0.1,0.2,0.1,0.4
					c0.2-0.2,0.3-0.4,0.5-0.6l0,0c0-0.3,0-0.5,0-0.7c0.2-0.1,0.1,0.2,0.3,0.1c0,0.1,0,0.2,0,0.2c0.2-0.2,0.4-0.4,0.6-0.7l0,0
					c0-0.1,0-0.1,0.1-0.1l0.1-0.1c-0.1,0-0.1,0-0.2,0c0.2-0.2,0-0.4-0.1-0.5c0.2-0.1,0.1-0.2,0-0.3c0.2,0,0.1,0.3,0.3,0.3
					c-0.1,0.2-0.1,0.3,0,0.5c0.2-0.3,0.5-0.5,0.7-0.8c0-0.1-0.1-0.3-0.1-0.2c-0.1,0,0.1-0.1,0-0.2c0.1,0,0.1,0,0.2,0
					c0,0.1,0,0.1,0,0.3c0.2-0.2,0.4-0.5,0.5-0.7l0,0c0-0.2,0.2-0.2,0.2-0.5c0.1,0,0.1,0,0.1,0.1c0.2-0.2,0.4-0.5,0.6-0.7
					c-0.1,0-0.1-0.1-0.1-0.2c0.1,0,0.1,0,0.2,0l0,0c0-0.1-0.2-0.1-0.1-0.3c0,0-0.1,0-0.1,0.1c-0.1-0.1,0-0.2,0-0.4
					c0.1,0,0.3-0.2,0.1-0.2c0-0.1,0-0.2,0.2-0.2c-0.1,0.2,0,0.2,0,0.5c0,0,0.1,0.1,0.2,0.2c0.3-0.4,0.5-0.7,0.7-1.1
					c-0.1,0-0.2,0-0.2,0.1c-0.1-0.1,0-0.4,0-0.6c0.2,0.1,0.2-0.2,0.5-0.1c0,0.1-0.1,0.1-0.1,0.2s0.1,0.1,0.1,0
					c0.1-0.1,0.2-0.3,0.3-0.4l0,0l0,0c0.9-1.3,1.7-2.7,2.5-4.2c-0.1-0.1,0-0.3,0.1-0.3c-0.1-0.1-0.2-0.1-0.1-0.3c0.1,0,0.1,0,0.1,0
					c0.1,0.1,0.1,0.2,0.1,0.4c0.2-0.4,0.4-0.8,0.6-1.2c0.3-0.6,0.6-1.3,0.9-1.9c0,0,0-0.1-0.1-0.1c0,0,0-0.1,0-0.2
					c0.1,0,0.1,0,0.1,0c0,0.1,0,0,0,0c-0.1,0-0.1,0.1,0,0.1c0-0.1,0-0.1,0.1-0.2c0-0.1-0.1-0.3,0-0.4c0.1,0,0.1,0.1,0.2,0.2
					c2.9-6.4,5-13.9,6-22.6C329.1,411.3,322.4,410.9,315.7,410.5z"/>
			</g>
		</g>
		<g>
			<circle cx="267.4" cy="392.9" r="13.5"/>
		</g>
	</g>
	<g>
		<g>
			<path d="M171.1,161.6c0.9,0.4,1.6,0.9,2.3,1.5c0.7,0.6,1.1,1.3,1.5,2.2c0.4,0.8,0.6,1.7,0.6,2.7v35.7c0,0.3-0.1,0.6-0.3,0.8
				c-0.2,0.2-0.5,0.3-0.8,0.3h-8.5c-0.3,0-0.6-0.1-0.8-0.3c-0.2-0.2-0.3-0.5-0.3-0.8V171H158v32.6c0,0.3-0.1,0.6-0.3,0.8
				c-0.2,0.2-0.5,0.3-0.8,0.3h-7.7c-0.3,0-0.6-0.1-0.8-0.3c-0.2-0.2-0.3-0.5-0.3-0.8V171h-6.8v32.6c0,0.7-0.4,1.1-1.2,1.1h-8.4
				c-0.8,0-1.2-0.4-1.2-1.1v-41.4c0-0.7,0.4-1.1,1.2-1.1h36.8C169.3,161,170.2,161.2,171.1,161.6z"/>
		</g>
		<g>
			<path d="M212.4,194.2c0.3,0,0.6,0.1,0.8,0.3c0.2,0.2,0.3,0.5,0.3,0.8v8.2c0,0.3-0.1,0.6-0.3,0.8c-0.2,0.2-0.5,0.3-0.8,0.3h-29
				c-0.8,0-1.2-0.4-1.2-1.2v-41.2c0-0.8,0.4-1.2,1.2-1.2h8.9c0.8,0,1.2,0.4,1.2,1.2V193c0,0.3,0.1,0.6,0.4,0.8
				c0.2,0.2,0.5,0.3,0.9,0.3h17.6V194.2z"/>
		</g>
		<g>
			<path d="M257.1,161c0.3,0,0.6,0.1,0.9,0.3c0.2,0.2,0.4,0.5,0.4,0.8v41.4c0,0.3-0.1,0.6-0.4,0.8c-0.2,0.2-0.5,0.3-0.9,0.3h-9
				c-0.3,0-0.6-0.1-0.9-0.3c-0.2-0.2-0.4-0.5-0.4-0.8v-14.3c0-0.3-0.1-0.6-0.3-0.8c-0.2-0.2-0.5-0.3-0.8-0.3h-12.8
				c-0.3,0-0.6,0.1-0.9,0.3c-0.2,0.2-0.4,0.5-0.4,0.8v14.4c0,0.8-0.4,1.2-1.2,1.2h-8.9c-0.8,0-1.2-0.4-1.2-1.2v-41.4
				c0-0.8,0.4-1.2,1.2-1.2h8.9c0.8,0,1.2,0.4,1.2,1.2v14c0,0.8,0.4,1.2,1.2,1.2h12.8c0.3,0,0.6-0.1,0.8-0.3c0.2-0.2,0.3-0.5,0.3-0.8
				v-14c0-0.3,0.1-0.6,0.4-0.8c0.2-0.2,0.5-0.3,0.9-0.3h9.1V161z"/>
		</g>
	</g>
</g>
<g id="minimum" class="st1">
	<path class="st2" d="M154.9,322.3c0-0.2,0.2-0.4,0.4-0.4h2c0.2,0,0.4,0.2,0.4,0.4v11h5.5c0.2,0,0.4,0.2,0.4,0.4v1.6
		c0,0.2-0.2,0.4-0.4,0.4h-7.8c-0.2,0-0.4-0.2-0.4-0.4v-13H154.9z M175.6,321.7c4.3,0,7.7,3.2,7.7,7.1c0,3.9-3.4,7.1-7.7,7.1
		c-4.3,0-7.7-3.1-7.7-7.1C167.9,324.9,171.3,321.7,175.6,321.7z M175.6,333.3c2.7,0,4.9-2,4.9-4.5s-2.2-4.5-4.9-4.5
		c-2.7,0-4.9,2.1-4.9,4.5C170.7,331.3,172.9,333.3,175.6,333.3z M196.1,321.7c2.2,0,3.7,0.6,5.2,1.8c0.2,0.2,0.2,0.4,0,0.6l-1.3,1.2
		c-0.2,0.2-0.4,0.2-0.5,0c-0.9-0.7-2.1-1.2-3.3-1.2c-2.7,0-4.8,2.1-4.8,4.6s2.1,4.5,4.8,4.5c1.3,0,2.4-0.5,3.3-1.1
		c0.2-0.1,0.4-0.1,0.5,0l1.3,1.3c0.2,0.1,0.1,0.4,0,0.5c-1.5,1.3-3.3,1.9-5.2,1.9c-4.3,0-7.7-3.1-7.7-7.1
		C188.4,324.9,191.8,321.7,196.1,321.7z M205.6,335.2l6.7-13.2c0.1-0.1,0.2-0.2,0.4-0.2h0.2c0.2,0,0.3,0.1,0.4,0.2l6.6,13.2
		c0.1,0.3,0,0.5-0.4,0.5h-1.9c-0.3,0-0.5-0.1-0.6-0.4l-1-2.1h-6.4l-1,2.1c-0.1,0.2-0.3,0.4-0.6,0.4h-2
		C205.6,335.7,205.5,335.4,205.6,335.2z M214.8,331l-2.1-4.3h-0.1l-2.1,4.3H214.8z M225.2,322.3c0-0.2,0.2-0.4,0.4-0.4h2
		c0.2,0,0.4,0.2,0.4,0.4v11h5.5c0.2,0,0.4,0.2,0.4,0.4v1.6c0,0.2-0.2,0.4-0.4,0.4h-7.8c-0.2,0-0.4-0.2-0.4-0.4v-13H225.2z"/>
	<g class="st2">
		<path d="M176.4,394.2h-5.8c-0.2,0-0.4,0.2-0.4,0.4v14.8c0,0.2,0.2,0.4,0.4,0.4h5.8c4.7,0,8.5-3.5,8.5-7.8
			C185,397.7,181.1,394.2,176.4,394.2z M176.2,407.1h-2.8v-10.2h2.8c3.2,0,5.5,2.2,5.5,5.1C181.6,404.9,179.3,407.1,176.2,407.1z"/>
		<path d="M203,409.2l-7.5-15c-0.1-0.1-0.2-0.2-0.4-0.2h-0.2c-0.2,0-0.3,0.1-0.4,0.2l-7.5,15c-0.1,0.3,0,0.6,0.4,0.6h2.1
			c0.4,0,0.6-0.2,0.7-0.4l1.2-2.4h7.3l1.2,2.4c0.2,0.3,0.3,0.4,0.7,0.4h2.1C202.9,409.8,203.1,409.5,203,409.2z M192.5,404.4
			l2.4-4.9h0.1l2.4,4.9H192.5z"/>
		<g>
			<path d="M209.6,402.3l-5.5-7.5c-0.2-0.3,0-0.6,0.4-0.6h2.5c0.2,0,0.3,0.1,0.4,0.2l3.9,5.1l3.9-5.1c0.1-0.1,0.2-0.2,0.4-0.2h2.5
				c0.4,0,0.6,0.4,0.4,0.6l-5.6,7.4v7.1c0,0.2-0.2,0.4-0.5,0.4H210c-0.3,0-0.5-0.2-0.5-0.4v-7H209.6z"/>
		</g>
	</g>
	<g class="st2">
		<g>
			<g>
				<path d="M152.6,364.7c0-1.2,0-2.4,0-3.7l0,0l0,0v-0.1l0,0l0,0c0-1.7,0-3.4,0-5.1l0,0c0-0.1,0-0.2-0.1-0.2c0.1,0,0.1,0,0.1-0.1
					l0,0c0-0.9,0-1.8,0-2.8v-0.1l0,0c0-0.2,0-0.4,0-0.6l0,0l0,0c0-1.2,0-2.5,0-3.7l0,0l0,0c0-0.2,0-0.3,0-0.5c0-0.1,0-0.2-0.1-0.2
					c0,0,0,0,0.1,0l0,0c0-0.7,0-1.4,0-2.2c-0.1,0-0.1,0-0.2,0v0.1c0,0-0.1,0-0.1-0.1c-0.4,0-0.8,0-1.3,0c0,0.1,0,0.1,0,0.2h-0.1
					c0-0.1-0.1-0.2,0.1-0.2c-0.2,0-0.5,0-0.7,0c0,0-0.1,0.1,0,0.1c0,0,0,0.1-0.1,0.1c0,0,0-0.1,0.1-0.1l0,0c0,0,0,0,0,0.1
					c0,0,0,0,0-0.1c-0.5,0-1,0-1.4,0c0,0,0.1,0.1,0,0.1c0,0.1,0.1,0.1,0.1,0.2h-0.1c0.1,0,0.1-0.2,0-0.2c0-0.1,0.1,0,0.1,0
					c0-0.1,0-0.1-0.1-0.1c-0.5,0-0.9,0-1.4,0c0,0-0.1,0,0,0.1c0,0,0,0,0-0.1c-0.3,0-0.7,0-1,0c0,0,0,0,0,0.1l0,0l0,0
					c-0.2,0-0.5,0-0.7,0l0,0l0,0c-0.2,0-0.4,0-0.6,0v0.1c-0.1,0-0.1,0-0.2-0.1l0,0c-0.4,0-0.9,0-1.3,0c0,0.1,0,0.1,0,0.2
					c-0.1,0-0.1,0-0.2,0c0-0.1,0-0.1,0-0.2c-0.1,0-0.1,0-0.2,0c0,0.2,0,0.4,0,0.6l0,0l0,0c0,0.2,0,0.4,0,0.6c0,0,0.1,0.1,0.1,0
					c0,0,0,0-0.1,0c0,0.2,0,0.3,0,0.5c0.1,0.1,0.1,0.2,0,0.3l0,0c0,0.9,0,1.8,0,2.7l0,0l0,0c0,0.5,0,0.9,0,1.4c0,0,0,0,0.1,0v0.1
					c0,0-0.1,0-0.1-0.1c0,0.2,0,0.5,0,0.7v0.1c0,0.2,0,0.4,0,0.6c0,0.1,0,0.2,0,0.2l0,0c0,0.2,0,0.4,0,0.5c0.1,0.1,0.1,0.2,0.1,0.3
					h-0.1c0,1.7,0,3.4,0,5.1l0,0c0,0.1,0,0.2,0,0.2l0,0c0,0.2,0,0.3,0,0.5l0,0c0,0.1,0.1,0.2,0.1,0.3h-0.1c0,0.1,0,0.3,0,0.4
					c-0.3,0-0.7,0-1,0.1c0,0.1-0.1,0-0.2,0l0,0c-0.2,0-0.4,0-0.6,0c0,0-0.1,0.1-0.2,0l0,0c-0.1,0-0.2,0-0.3,0c0,0.1,0.1,0.3,0,0.4
					c-0.1-0.1-0.1-0.3-0.1-0.4c-0.1,0-0.2,0-0.3,0c0,0,0,0-0.1,0s-0.2,0-0.4,0c0.1,0,0.1,0.3,0.1,0.4l0,0c0,0,0,0.1-0.1,0.1
					c-0.1-0.2,0-0.3,0-0.4c-0.1,0-0.2,0-0.3,0h-0.1c-0.1,0-0.2,0-0.3,0c0.1,0.1,0.1,0.2,0.1,0.4c0,0-0.1,0-0.2,0c0-0.2,0-0.3,0-0.4
					c-0.2,0-0.4,0-0.6,0c0,0.1,0,0.3,0,0.4c-0.2,0-0.2-0.2-0.1-0.4c-0.2,0-0.4,0-0.6,0c0,0.1,0,0.2,0,0.4c-0.2,0-0.2-0.4-0.1-0.3
					l0,0c-0.2,0-0.5,0-0.7,0.1l0,0l0,0c-0.2,0-0.5,0-0.7,0.1c0.1,0.1,0.1,0.3,0.1,0.4c-0.1,0-0.1-0.2-0.1-0.3c-0.2,0-0.5,0-0.7,0.1
					c0.1,0.1,0.1,0.2,0.1,0.3h-0.1c0-0.1,0-0.2,0-0.3c-0.2,0-0.4,0-0.6,0c0,0.1,0,0.1,0.1,0.2c0,0.1-0.1,0.1-0.1,0.2
					c-0.1,0-0.1-0.1-0.1,0c0-0.1,0-0.2,0-0.3l0,0c-0.2,0-0.4,0-0.7,0c0,0.1,0,0.2,0.1,0.3h-0.1c0-0.1,0-0.2,0-0.3
					c-0.2,0-0.5,0-0.7,0.1c0,0.1,0,0.2,0,0.2c-0.1,0-0.1-0.2,0-0.2c0,0,0,0-0.1,0c-0.2,0-0.4,0-0.6,0c0,0.1,0,0.2,0,0.2
					c-0.1,0-0.1-0.1-0.1-0.2c-0.2,0-0.4,0-0.6,0c0-1.2,0-2.4,0-3.6l0,0c0,0,0-0.1-0.1-0.1c0,0,0.1-0.1,0.1,0c0-0.9,0-1.9,0-2.8l0,0
					l0,0c0-0.3,0-0.7,0-1l0,0l0,0c0-0.1,0-0.1,0-0.2l0,0c0-0.1,0-0.2,0-0.2c0-0.1,0-0.3,0-0.4c0,0,0,0-0.1,0l0,0l0,0l0,0l0,0
					c0,0,0,0,0-0.1V353l0,0l0,0c0,0,0,0,0-0.1l0,0c0-0.1,0-0.1,0-0.2l0,0c0,0,0,0-0.1,0l0,0v-0.1l0,0c0-0.1,0-0.2,0-0.3l0,0l0,0
					c0,0,0,0,0-0.1l0,0c0,0,0-0.1,0,0c0-0.1,0-0.1,0-0.2c0,0,0,0,0.1,0c0-0.1,0-0.2,0-0.3l0,0c0.1-0.1-0.2-0.3,0-0.4
					c0-0.1,0,0-0.1,0l0.1-0.1c0-0.1,0-0.2,0-0.3l0,0v-0.1l0,0c-0.1-0.1-0.1-0.2,0-0.3l0,0c0-0.1,0-0.2,0-0.3V350l0,0l0,0
					c0,0,0,0-0.1,0c0-0.1,0.1-0.1,0-0.2c0,0,0,0,0.1,0v-0.1c0,0-0.1,0,0,0c-0.1,0,0-0.1,0-0.1l0,0c0-0.1,0-0.2,0-0.3
					c0-0.1-0.1-0.1-0.1-0.2c0.1-0.1,0.1-0.2,0-0.3c0.1,0.1,0.1,0,0.1-0.1v-0.1h-0.1c0-0.1,0.1-0.1,0-0.2c0-0.1,0,0,0.1,0l0,0
					c0,0-0.1,0,0-0.1l0,0v-0.1c0,0,0,0-0.1,0c0,0,0,0,0.1,0l0,0h-0.1c0,0,0,0,0.1,0c0-0.1,0-0.2,0-0.2l0,0c0-0.1,0-0.1-0.1-0.1
					c0-0.1,0.1-0.1,0-0.1l0,0l0,0l0,0c0-0.2,0-0.4,0-0.6H132c0-0.2,0-0.3,0-0.4c0.2,0.1,0.1,0.2,0.1,0.4l0,0c0,0,0,0,0-0.1
					c0,0,0,0,0-0.1l0,0c0-0.2,0-0.4,0-0.7c0,0,0,0-0.1,0v-0.1c0-0.1,0.1-0.1,0.1-0.1c-0.1,0.1,0-0.1-0.1-0.2c0.1,0,0.1,0.1,0.1,0.2
					c0-0.2,0-0.4,0-0.6c-0.1,0-0.2,0-0.3,0l0,0h-0.1c0.1,0,0.1,0.1,0,0.1c0.1,0,0.1,0.1,0.1,0.1s0,0.1-0.1,0.1c0-0.1,0-0.3,0-0.3
					c-0.1,0-0.2,0-0.3,0l0,0h-0.1c-0.2,0-0.5,0-0.7,0c0,0,0,0-0.1,0c0,0.1,0.1,0,0.1,0h-0.1c0,0,0,0,0-0.1c-0.2,0-0.4,0-0.6,0l0,0
					h-0.1c-0.2,0-0.5,0-0.7,0v0.1H129v-0.1c-0.2,0-0.5,0-0.7,0v0.1c-0.1,0-0.1-0.1-0.1-0.1c-0.2,0-0.4,0-0.6,0v0.1
					c-0.1,0-0.1-0.1,0-0.1c-0.3,0-0.5,0-0.8,0c0,0,0,0,0.1,0.1c0,0.1,0,0,0,0.1c0,0-0.1-0.1-0.1-0.2c-0.2,0-0.4,0-0.7,0v0.1
					c0.1-0.1,0.1,0,0.1,0.1s0-0.1,0-0.1v0.1c-0.1,0,0-0.1-0.1-0.2c-1.2,0-2.5,0-3.7,0c0,3,0,6,0,9v-0.1v0.1c0,7.8,0,15.7,0,23.5h0.1
					l0,0v0.1c0,0.1,0,0.2,0,0.3l0,0c0,0,0,0,0,0.1c0,0.4,0,0.8,0,1.3l0,0c0,0,0,0,0,0.1c0,0,0,0-0.1,0c0,0.1,0,0.2,0,0.3l0,0l0,0
					c0,0.3,0,0.7,0,1l0,0c0,0.1,0,0.2,0,0.3c0,0,0,0,0.1,0c0,0,0,0.1-0.1,0.1c0,0.4,0,0.8,0,1.3c0.1-0.1,0.1-0.1,0.2-0.1
					c0,0.1-0.2,0.1-0.2,0.2c0,0,0,0-0.1,0c0,0.5,0,1,0,1.5c0,0,0.1,0,0.1-0.1l0,0c0,0.1-0.1,0.1-0.1,0.2l0,0c0,0.4,0,0.8,0,1.3l0,0
					c0,0,0,0,0,0.1c0,1,0,2,0,3c0,0,0.1-0.1,0.2-0.1l0,0l0,0v0.1h-0.1c0,0.1,0,0.2,0,0.3l0,0v0.1l0,0c0,0.4,0,0.9,0,1.3h0.1
					c0,0,0,0.1-0.1,0.1c0,0.4,0,0.9,0,1.3c0,0,0.1-0.1,0.2-0.1v0.1c0.8-0.2,1.6-0.4,2.3-0.5c0,0,0,0-0.1,0c0-0.1,0.2-0.2,0.3-0.2
					c0,0.1-0.1,0.2-0.2,0.2c0.5-0.1,1-0.2,1.4-0.3h0.1l0,0c0.3-0.1,0.6-0.1,0.9-0.2l0,0l0,0l0.1-0.1c0.1,0,0,0.1-0.1,0.2
					c0.6-0.1,1.2-0.3,1.8-0.4l0,0c0.3-0.1,0.6-0.1,0.9-0.2l0.1-0.1l0,0c0,0,0,0,0,0.1c0,0,0,0-0.1,0c0.6-0.1,1.1-0.2,1.7-0.4
					c0-0.3,0-0.5,0-0.8c0,0,0,0.1-0.1,0.1s0-0.1-0.1-0.1c0-0.1,0.1-0.1,0.1-0.1c0-0.5,0-1,0-1.5c-0.1,0-0.1,0-0.1,0
					c0.1,0,0.1-0.1,0.1-0.2s0-0.1,0-0.2l0,0l0,0c0-0.5,0-0.9,0-1.4c-0.1,0.1-0.1,0.1-0.1,0.2c0,0-0.1,0-0.1-0.1
					c0.1,0,0.1-0.1,0.2-0.2c0-0.1,0-0.2,0-0.3c0,0,0,0,0,0.1c-0.1,0-0.1,0-0.1-0.1c0.1,0,0.1-0.1,0.1-0.1c0-0.1,0-0.1,0-0.2
					c0,0,0,0-0.1-0.1c0,0,0,0,0.1,0c0-0.3,0-0.6,0-0.9c0,0,0,0,0,0.1c-0.1,0-0.1,0.1-0.2,0l0.1-0.1v-0.1l0.1-0.1c0-0.1,0-0.1,0-0.2
					c0,0,0,0-0.1,0c0-0.1,0-0.1,0.1-0.1c0-0.4,0-0.8,0-1.2c-0.1,0-0.1,0.1-0.2,0.1v-0.1c0,0,0.1,0,0.1-0.1c0,0,0,0,0.1,0l0,0l0,0
					v-0.1h-0.1l0.1-0.1c0-0.1,0-0.2,0-0.3l0,0l0,0c0-0.2,0-0.3,0-0.5c-0.1,0-0.2,0.1-0.2,0.2c-0.1,0,0,0,0-0.1c0,0.1-0.1-0.1,0-0.1
					c0,0,0,0,0,0.1c0-0.1,0.1-0.1,0.2-0.2c0,0.1,0,0.1,0,0.1c0-0.1,0-0.2,0-0.3c0,0,0,0,0,0.1h-0.1c-0.2-0.1,0.1-0.1,0.1-0.2
					c0-0.1,0-0.1,0-0.2l0,0v-0.1h0.1c0-0.3,0-0.6,0-0.9c0,0-0.1,0.1-0.2,0.1c0.1,0,0,0.1-0.1,0c0.1,0,0.1-0.1,0.2-0.1h0.1
					c0-0.1,0-0.2,0-0.2l-0.1,0.1c0,0,0-0.1-0.1-0.1c0.1,0,0.1-0.1,0.2-0.1c0-0.1,0-0.1,0-0.2c0,0,0,0-0.1-0.1l0,0c0,0,0,0,0.1,0
					c0-0.2,0-0.4,0-0.6l0,0c-0.1,0.1-0.2,0.2-0.3,0.3c-0.1,0-0.1-0.1,0-0.1c0.1-0.1,0.1-0.1,0.1-0.1c-0.1-0.1,0.1,0,0.1,0v-0.1h0.1
					c0-0.2,0-0.3,0-0.5c0,0,0,0-0.1,0c0,0-0.1,0,0-0.1c0,0,0.1,0,0.1-0.1c0-0.4,0-0.8,0-1.1c0,0-0.1,0-0.1,0.1l0,0
					c-0.1,0,0,0.1,0,0.1s0-0.1-0.1,0c-0.1-0.2,0.1-0.1,0.2-0.3l0,0c0-0.1,0-0.1,0-0.2l-0.1,0.1v-0.1h0.1c0-0.2,0-0.4,0-0.5
					c0,0,0,0-0.1,0c0,0,0.1-0.1,0-0.1l0,0c0-0.2,0-0.4,0-0.6l-0.1,0.1v-0.1c0,0,0,0,0.1,0c0,0,0,0,0-0.1h0.1l0,0c0-0.1,0-0.2,0-0.2
					l0,0c0,0,0,0-0.1,0c0,0,0-0.1,0.1-0.1l0,0c0,0,0,0,0-0.1l0,0l0,0c0-0.1,0-0.2,0-0.2l0,0l0,0c0-0.3,0-0.6,0-0.8
					c-0.1,0-0.1,0-0.2,0.1v-0.1c0,0.1,0.1,0,0.1,0s0,0,0.1,0.1l0,0c0,0-0.1,0,0-0.1c0,0,0,0,0.1,0c0-0.1,0-0.2,0-0.3c0,0,0,0-0.1,0
					v-0.1c0,0,0,0,0,0.1c0-0.2,0-0.5,0-0.7c0.1,0,0.1,0,0.2,0l0,0c0,0,0,0,0.1,0c0,0,0,0,0.1,0.1c0.1,0,0.3,0,0.4-0.1l0,0l0,0
					c0.4-0.1,0.8-0.1,1.3-0.1c0,0,0,0,0.1,0l0,0c0.4,0,0.8-0.1,1.2-0.1c0.1,0,0.1,0,0.1-0.1c0.1,0-0.1,0.1,0,0.1
					c1.4-0.2,2.8-0.3,4.2-0.5c0-0.1,0-0.3,0-0.3c0.1,0,0.1,0.1,0.2,0.2v0.1c0.2,0,0.4,0,0.7-0.1v-0.1c0,0,0.1,0,0.1,0.1
					c0.9-0.1,1.9-0.2,2.8-0.3c0,0.5,0,0.9,0,1.4l0,0c0,0.1,0,0.1,0,0.2l0,0c0,0.2,0,0.4,0,0.6l0,0c0,0.1,0,0.3,0,0.4l0,0
					c0,0.2,0,0.5,0,0.7c0,0,0,0,0.1,0l0,0c0,0.1,0,0,0.1,0l0,0c0,0.1-0.1,0.1-0.1,0.1V375h-0.1c0,1,0,1.9,0,2.9l0,0v0.1
					c0,0.5,0,1,0,1.5c0,0,0.1,0,0.1-0.1c0,0.1-0.1,0.1-0.1,0.1c0,1.2,0,2.4,0,3.5l0,0l0,0c0,0.6,0,1.2,0,1.8h0.1c0,0-0.1,0-0.1,0.1
					l0,0c0,0.4,0,0.8,0,1.2c0,0,0.1,0,0.1-0.1c0,0.1-0.1,0.1-0.1,0.1s0.1,0,0,0.1l0,0c0,0.1,0,0.2,0,0.3l0,0l0,0c0,0.5,0,1,0,1.5
					l0,0l0,0c0,0,0-0.1,0.1-0.1c0,0,0,0-0.1,0l0,0c-0.1,0,0,0.1-0.1,0c0,0,0,0,0,0.1c0,0,0,0-0.1-0.1c0,0.2,0,0.3,0,0.5
					c0.5-0.1,1-0.2,1.6-0.3c0,0-0.1,0-0.1-0.1c0.1-0.1,0.2,0,0.1-0.1c0-0.1,0.1,0,0.1,0l0,0c0,0,0,0,0,0.1c0,0-0.1,0-0.1,0.1
					c0.1,0,0.2,0,0.3-0.1c0,0,0,0,0.1-0.1c0,0,0,0,0,0.1c2.5-0.4,5-0.8,7.6-1.2c0-7.1,0.1-14.2,0.1-21.3
					C152.5,364.8,152.5,364.7,152.6,364.7z"/>
			</g>
		</g>
		<g>
			<g>
				<path d="M257.2,370.8L257.2,370.8c-0.1-0.2-0.2-0.4-0.3-0.6l-0.1,0.1v-0.1c0,0,0-0.1,0.1-0.1c-0.1-0.2-0.2-0.4-0.3-0.7l-0.1,0.1
					l0,0l0,0c0,0,0.1-0.1,0.1,0c0,0,0-0.1-0.1-0.1c1-0.7,1.9-1.4,2.6-2.2l0,0l0,0c0.2-0.3,0.5-0.6,0.7-0.9c-0.1,0-0.1-0.1-0.1-0.2
					c0.1,0,0.1,0.1,0.1,0c0,0,0,0,0.1,0c0,0,0-0.1,0.1-0.1c0,0-0.1,0.1-0.1,0l0.1-0.1l0,0l0,0c0.6-0.9,1.1-1.8,1.6-2.8l0,0l0,0l0,0
					l0,0l0,0l0,0c0,0,0,0,0.1,0c0.1-0.1,0.1-0.3,0.2-0.4c0,0,0,0,0-0.1c0,0,0,0,0-0.1c-0.1,0-0.1,0.1-0.2,0.1c0,0,0-0.1-0.1-0.1
					c0.1,0,0.1,0,0.2-0.1h0.1c0.9-2.3,1.3-4.9,1.5-7.6c0,0,0,0,0-0.1c0,0,0,0,0.1,0c0.1-0.8,0.1-1.7,0.1-2.5h-0.1c0,0,0,0,0-0.1h0.1
					c0-1,0-2,0-3c0,0,0,0,0-0.1l0,0c0-0.4,0-0.8,0-1.3h-0.1h0.1c0-0.5,0-0.9,0-1.4c-1.2,0-2.3,0-3.5,0H260c-0.2,0-0.3,0-0.5,0l0,0
					l0,0c0,0.1,0,0-0.1,0c-0.5,0-0.9,0-1.4,0c0,0-0.1,0.1,0,0.2c-0.1,0-0.1,0.1-0.2,0.1c0,0,0-0.1-0.1-0.1c0,0,0.1,0,0-0.1
					c0.1-0.1,0.1,0,0.2-0.1c-0.2,0-0.4,0-0.6,0h-0.1l0,0c-0.2,0-0.3,0-0.5,0l0,0c0,0,0,0-0.1,0c-0.5,0-1,0-1.5,0
					c-0.1,0.1-0.1,0.1-0.2,0.1c0,0,0-0.1,0.1-0.1c-0.1,0-0.3,0-0.4,0l0,0l0,0c-0.2,0-0.4,0-0.5,0c0,0-0.1,0.1-0.2,0l0,0h-0.1
					c0,0.3,0,0.6,0,0.9c0,0,0-0.1,0.1-0.1c0,0,0,0,0,0.1s0.1,0,0.1,0.1c0,0-0.1,0-0.1,0.1s0,0.2,0,0.3h0.1c0,0-0.1,0-0.1,0.1l0,0
					l0,0l0,0c0,0.5,0,1.1,0,1.6l0.1-0.1c0.1,0,0.1,0,0.2,0c0,0,0,0,0,0.1c0,0,0,0-0.1,0c0,0,0,0.1,0.1,0.1c-0.1,0.1-0.2,0.1-0.1,0.1
					s0,0-0.1,0c0,0,0,0,0-0.1c0,0.1,0,0.2,0,0.3l0.1-0.1c0,0.1,0.1,0,0.2,0.1h-0.1h-0.1c0,0-0.1,0.1,0,0.1c0,0-0.1,0-0.1,0.1l0,0
					c0,0.1,0,0.2,0,0.2l0,0c0,0,0,0,0,0.1l0,0c0,0.1,0,0.2,0,0.4v0.1c0,0.2,0,0.5,0,0.7l0,0h0.1v-0.1c0.1,0,0.1,0,0.1-0.1h-0.1h0.1
					c0,0.1,0,0.1,0,0.2c0,0,0,0-0.1,0l-0.1,0.1c0,0,0.1,0.1,0,0.1c0-0.1,0,0-0.1,0c0,0.1,0,0.2,0,0.3c0,0,0.1,0,0.1-0.1
					c0,0.1,0.1,0.1,0.2,0c0,0.1-0.2,0.1-0.2,0.2h-0.1c0,0.1,0,0.2,0,0.2c0.1,0,0.1,0,0.2-0.1c0,0.1-0.1,0.1-0.2,0.1
					c0,0.1,0,0.1-0.1,0.2c0,0.1,0,0.2,0,0.3l0,0v0.1c0,0.3,0,0.6-0.1,0.8l0,0c0,0,0,0.1,0.1,0.1l-0.1-0.1c0,0.5-0.1,0.9-0.2,1.3
					c0,0,0,0,0-0.1c0,0,0.2,0,0.2-0.1c0.1,0,0,0.1,0,0.1s0.1-0.1,0.1,0c-0.1,0.1,0,0.1-0.2,0.2c0,0,0,0,0-0.1c-0.1,0,0,0.1-0.1,0.2
					v-0.1c0,0.1,0,0.3-0.1,0.4c0.1-0.1,0.2-0.3,0.3-0.1c0,0.1-0.1,0.2-0.3,0.3c0,0,0,0,0-0.1c-0.1,0.3-0.1,0.7-0.2,1
					c0.1,0,0.1-0.1,0.2-0.2v0.1c0,0.1-0.2,0.1-0.3,0.2c0.1,0-0.1,0,0,0.1l0,0c0,0.1-0.1,0.2-0.1,0.4l0,0c0,0.1-0.1,0.1,0,0.2l0,0
					c0,0.1-0.1,0.2-0.1,0.4l0,0c-0.1,0.3-0.2,0.6-0.4,0.9c0,0,0,0,0.1,0c0.1,0.1,0,0.1-0.1,0.2l0,0c0,0,0,0.1-0.1,0.1l0,0l0,0
					c-0.1,0.1-0.1,0.3-0.2,0.4c0,0,0,0,0.1-0.1c0,0.1-0.1,0.3-0.2,0.3c-0.2,0.2-0.3,0.4-0.5,0.7c0,0,0.1,0,0.1-0.1c0,0,0,0.1,0,0
					c-0.1,0.1-0.2,0.3-0.3,0.3l0,0c-0.3,0.3-0.7,0.6-1.1,0.9c0,0,0,0,0,0.1l0,0c-0.2,0.1-0.3,0.2-0.5,0.3l0,0l0,0h-0.1l0,0
					c0,0.1-0.2,0.2-0.2,0.1h0.1c-0.4,0.1-0.7,0.3-1.1,0.3c0,0.1-0.1,0.1-0.1,0.1s0,0,0-0.1l0,0c-0.1,0-0.3,0-0.4,0.1
					c0,0-0.1,0-0.1,0.1l0,0c-0.3,0-0.6,0.1-0.9,0.1c-0.1,0.1-0.1,0.1-0.2,0.1c0,0.1-0.1,0.1-0.2,0c0.1,0,0.2-0.1,0.2-0.2
					c-0.2,0-0.4,0-0.6,0c-0.1,0-0.1-0.1-0.1,0.1l0,0l0,0l0,0c-0.1,0-0.3,0-0.4,0c0,0,0,0-0.1,0l0,0h-0.1c-0.2,0-0.5,0-0.7,0
					c0-0.3,0-0.5,0-0.8c-0.1,0.1-0.1,0.1-0.2,0.2c-0.1,0-0.1-0.1-0.1-0.1c0.1-0.1,0.2-0.2,0.3-0.2c0-0.1,0-0.2,0-0.3h-0.1
					c0,0,0-0.1,0.1-0.1c0-0.6,0-1.1,0-1.7c0,0,0,0-0.1,0c0,0.1-0.1,0.2-0.2,0.1c0.1,0,0.2-0.1,0.2-0.2c0-0.1,0-0.1,0-0.2l0,0
					c-0.1-0.1-0.1-0.1-0.1-0.2c0,0,0.1,0,0.1-0.1c0-0.3,0-0.5,0-0.8c-0.1,0-0.3,0.2-0.5,0.4c-0.1,0-0.1-0.1-0.1-0.1
					c0.1-0.1,0.4-0.4,0.5-0.3c0-0.2,0-0.3,0-0.5c-0.1,0.1-0.1,0.3-0.3,0.3c0-0.2,0.2-0.2,0.3-0.4l0,0c0-0.1,0-0.2,0-0.3
					c-0.1,0.1-0.1,0.1-0.2,0.2c0,0-0.1,0-0.1-0.1c0.1-0.1,0.2-0.2,0.3-0.2c0-0.1,0-0.1,0-0.2l0,0c-0.1,0-0.1-0.1-0.1-0.2h0.1
					c0-0.5,0-1.1,0-1.6c0,0,0,0-0.1,0c0,0.1,0,0.1-0.1,0.1c-0.1-0.2,0-0.2,0.2-0.3c0-0.1,0-0.2,0-0.3c0,0,0,0-0.1,0l-0.1-0.1
					l0.1-0.1c0-0.4,0-0.8,0-1.2l0,0l0,0c0-0.1,0-0.3,0-0.4c0,0-0.1,0.1,0,0.1l0,0c0-0.1-0.1,0.1-0.2,0.1c0-0.1,0.2-0.2,0.3-0.3
					c0-0.1,0-0.2,0-0.2s0,0-0.1,0.1c0-0.1-0.1,0-0.1-0.1c0.1,0,0.1-0.1,0.2-0.2c0-0.1,0-0.2,0-0.3s-0.1-0.1-0.1-0.2c0,0,0,0,0.1,0
					c0-0.3,0-0.5,0-0.8c0,0,0,0-0.1,0c-0.1,0.1-0.2,0.3-0.4,0.3v-0.1c0.1-0.1,0.3-0.2,0.4-0.3c0-0.1,0-0.1,0-0.2
					c0,0.1-0.1,0.1-0.2,0.1l-0.1-0.1c0.1,0,0.2-0.1,0.2-0.2h0.1c0-0.1,0-0.1,0-0.2l0,0c-0.1-0.1-0.2-0.1-0.1-0.2
					c0.1,0,0.1,0,0.2-0.1c0-0.1,0-0.2,0-0.3l0,0l0,0c0-0.3,0-0.6,0-0.9h-0.1h0.1c0-0.1,0-0.2,0-0.4c-0.1,0.1-0.2,0.1-0.2,0.2
					c0,0-0.1,0-0.1-0.1c0.1,0,0.1-0.1,0.1-0.1s0,0,0,0.1c0,0,0.1-0.1,0-0.1c0.1,0,0.1,0,0.1-0.1s0-0.1,0-0.2c0,0-0.1,0-0.1,0.1
					c0,0,0-0.1-0.1-0.1V348h0.1c0-0.2,0-0.3,0-0.5c0,0,0,0,0-0.1l0,0c0-0.3,0-0.5,0-0.8l0,0c-0.1,0.1-0.2,0.2-0.2,0.3
					c0,0-0.1,0-0.1,0.1c-0.1,0-0.1-0.1-0.1-0.2c0.1,0,0.1-0.1,0.2-0.2c-0.2,0-0.3,0-0.5,0c-0.1,0-0.1,0.1-0.2,0.1s0-0.1,0.1-0.1
					c-0.2,0-0.4,0-0.6,0c0,0,0,0.1-0.1,0.1l0,0c0,0,0,0,0-0.1c-0.1,0-0.3,0-0.4,0l0,0l0,0c-0.8,0-1.5,0-2.3,0l0,0l0,0
					c-0.2,0-0.4,0-0.6,0l0,0l0,0c-1,0-1.9,0-2.8,0l0,0l0,0c-0.6,0-1.2,0-1.7,0c0,2.1,0,4.2,0,6.2h0.1c0,0.1-0.1,0.1-0.1,0.1v0.1
					c0,0.7,0,1.4,0,2.1l0,0c0,0,0,0,0-0.1l0,0c0,0,0-0.1,0,0h0.1c0.1,0,0,0,0,0v0.1c-0.1,0-0.1,0-0.1,0.1c0,0,0,0-0.1,0l0,0
					c0,0.6,0,1.1,0,1.7l0,0v0.1h-0.1c0,0.2,0,0.3,0,0.5l0,0l0,0c0,0.6,0,1.1,0,1.7c0,0,0,0,0,0.1l0,0c0,0.7,0,1.5,0,2.2
					c0.1,0,0-0.1,0.1-0.1s0.1,0,0.1,0c0,0.1-0.1,0.2-0.2,0.2c0-0.1,0-0.1,0-0.1c0,0.9,0,1.9,0,2.8l0,0c0,0,0,0,0,0.1
					c0,1.4,0,2.7,0,4.1c0,0,0,0,0.1,0c0,0,0,0.1,0.1,0.1l-0.1,0.1c0,2.8,0,5.6,0,8.3v0.1l0,0l0,0c0,0.9,0,1.9,0,2.8l0,0
					c0,0.1,0,0.1,0,0.2l0,0c0,0.1,0,0.2,0,0.2v0.1l0,0l0,0l0,0l0,0l0,0l0,0c0,0.1,0,0.2,0,0.3l0,0c0.1,0,0,0.1,0,0.2c0,0,0,0-0.1,0
					c0,0.1,0,0.2,0,0.3l0,0c0,0,0,0,0.1,0v0.1l0,0c0,0,0,0,0.1,0c0,0,0,0.1,0,0H235c0,0,0.1,0,0,0c0,0,0,0-0.1,0c0,0.4,0,0.8,0,1.2
					v0.1l0,0c0,0.1,0,0.3,0,0.4l0,0l0,0c0,0.1,0,0.2,0,0.3v0.1c0,1,0,2,0,3c0,0,0,0,0.1,0c0,0,0,0,0,0.1s0,0.2,0,0.3l0,0v0.1v0.1
					c0,0,0,0-0.1,0v0.1c0.8,0.1,1.7,0.2,2.5,0.4l0,0l0,0c0.1,0,0.3,0,0.4,0.1l0,0c0,0,0,0,0.1,0v0.1c0.5,0.1,1,0.2,1.5,0.2l0,0
					c0-0.1,0.1-0.1,0.1,0s-0.1,0.1-0.1,0c0.2,0,0.5,0.1,0.7,0.1l0,0l0,0l0,0c0.3,0.1,0.7,0.1,1,0.2c0,0,0,0,0.1,0c0,0,0,0,0,0.1
					c1,0.2,2,0.3,3.1,0.5c0-5.3,0-10.7-0.1-16c1.2,0.1,2.3,0.3,3.6,0.1c2.7,5.8,5.4,11.8,8,18c3.4,0.7,6.8,1.5,10.3,2.3
					c0-0.6,0-1.2,0-1.9c-3-7-6-13.6-9.1-19.9C257.2,370.9,257.2,370.8,257.2,370.8z"/>
			</g>
		</g>
		<g>
			<path d="M190,375.3c0,0-0.1-0.2-0.1-0.3c-0.1-0.3-0.3-0.6-0.4-0.9l0,0c-0.2-0.5-6.8-15-7.1-15.7h-0.1c0,0,0-0.1,0.1-0.1
				c-0.4-0.9-0.8-1.9-1.3-2.8c0,0,0,0,0-0.1l0,0c-0.5-1-0.9-2-1.4-3c0,0,0,0,0-0.1l0,0c-0.2-0.3-0.3-0.7-0.5-1.1c0,0.1,0,0,0,0
				c-0.8-1.9-1.7-3.6-2.5-5.6c-0.6,0-1.2,0-1.8,0c0,0,0.1,0.1,0,0.1v-0.1l0,0c-0.7,0-1.4,0-2.2,0c-0.4,1-0.9,2-1.3,3.1h0.1v0.1l0,0
				c0,0.1-0.2,0.1-0.2,0.2l0,0c0,0,0,0,0,0.1l0,0c-0.1,0.3-0.3,0.6-0.4,0.8l0,0l0,0l0,0l0,0l0,0c-0.2,0.4-0.3,0.8-0.5,1.2l0,0l0,0
				c0,0.1-0.1,0.1-0.1,0.2c0,0,0,0,0,0.1l0,0l0,0l0,0c0,0.1-0.1,0.1-0.1,0.2c0,0,0,0.1,0.1,0.1l0,0c0,0,0,0-0.1,0l0,0
				c-0.1,0.3-0.3,0.6-0.4,0.9c0,0,0,0,0,0.1c0,0,0,0-0.1,0l0,0c0,0.1-0.1,0.1-0.1,0.2c0.1,0,0.1,0.1,0.1,0.1c-0.1,0-0.1-0.1-0.1-0.1
				c-0.2,0.4-0.4,0.8-0.5,1.2l0.1,0.1c0,0,0,0-0.1-0.1c0,0.1-0.1,0.1-0.1,0.2c0,0,0.1,0,0.1,0.1l0,0c0,0,0,0-0.1-0.1
				c0,0.1-0.1,0.1-0.1,0.2l0,0l0,0c-0.1,0.1-0.1,0.3-0.2,0.4l0,0l0,0l0,0l0,0l0,0c0,0.1-0.1,0.1-0.1,0.2l0,0c0,0,0,0.1,0.1,0
				c0,0.1-0.1,0.1-0.1,0.1s0,0-0.1,0c0,0.1,0,0.1-0.1,0.2l0,0c0,0.1,0.1,0.1,0.1,0.2l0,0c0,0,0-0.1-0.1-0.1c0-0.1,0-0.1,0-0.1
				c0,0.1-0.1,0.1-0.1,0.2l0,0c0,0,0,0,0,0.1l0,0c-0.1,0.2-0.2,0.5-0.3,0.7v0.1l0,0c0,0.1-0.1,0.1-0.1,0.2c0,0,0,0,0.1,0.1
				c0,0,0-0.1,0.1,0l-0.1,0.1c0,0,0,0,0-0.1c0,0.1-0.1,0.1-0.1,0.2l0.1,0.1h0.1c0,0,0,0,0,0.1c0-0.1-0.1-0.1-0.1-0.2
				c-0.1,0.3-0.3,0.6-0.4,0.9c0,0.1,0.1,0.1,0.1,0.1c-0.1,0.1-0.1,0-0.1,0s0,0.1-0.1,0.1l0,0c0,0,0.1-0.1,0.1,0c0,0,0,0-0.1,0
				c0,0,0,0,0.1,0.1l0,0c0,0,0,0,0,0.1l0,0c0.1,0.1-0.1,0.1-0.1,0.2c0,0-0.1-0.1-0.1,0v-0.1v0.1l0,0v0.1l0,0
				c-0.1,0.2-0.2,0.4-0.3,0.7l0,0c0,0,0,0-0.1,0l0,0c0,0,0,0,0,0.1l0,0c0,0.1,0,0.1-0.1,0.2c0,0,0.1,0.1,0.1,0.2c-0.1,0-0.1,0-0.1,0
				c0,0.1-0.1,0.1-0.1,0.2l0,0c0.1,0.1,0.1,0.1,0.2,0.2c0,0,0,0-0.1,0c0,0-0.1-0.1-0.1-0.2c-0.1,0.2-0.2,0.5-0.3,0.7l0,0l0,0
				c0,0.1-0.1,0.2-0.1,0.2s0,0.1,0.1,0.1h-0.1c0,0.1-0.1,0.1-0.1,0.2l0.1,0.1l0,0l0,0l-0.1-0.1c-0.1,0.3-0.3,0.6-0.4,1l0,0l0,0
				c0,0.1-0.1,0.2-0.1,0.3c0,0,0,0.1,0.1,0.1c0,0,0,0-0.1,0l0,0c0,0.1-0.1,0.1-0.1,0.2c0.1,0,0.1,0.1,0.1,0.2l-0.1-0.1
				c0,0.1-0.1,0.2-0.1,0.2c0,0.1,0.1,0.1,0.2,0.2l0,0c-0.1-0.1-0.2-0.1-0.1-0.2l0,0c-0.1,0.2-0.2,0.5-0.3,0.7v0.1c0,0,0,0-0.1,0
				c0,0.1-0.1,0.1-0.1,0.2c0,0,0,0.1,0.1,0.1c0,0-0.1,0-0.1-0.1c0,0.1-0.1,0.1-0.1,0.2l0.1,0.1c-0.1,0-0.1-0.1-0.1-0.1
				c0,0.1-0.1,0.2-0.1,0.3c0,0,0.1,0.1,0.1,0.2c-0.1,0-0.1-0.1-0.1-0.1c-0.1,0.2-0.2,0.5-0.3,0.7c0,0,0,0.1,0.1,0.1l0,0v-0.1l0,0
				c0,0.1-0.1,0.2-0.1,0.3l0,0l0.1,0.1c0,0-0.1,0,0,0c0,0-0.1,0,0,0l-0.1-0.1c-0.1,0.2-0.2,0.5-0.3,0.7l0,0l0,0
				c-2.5,5.8-5,11.7-7.5,17.8c0,0.5,0,1,0,1.5c3-0.4,6.1-0.7,9.1-1c0.7-1.7,1.4-3.4,2.2-5c2.3-0.2,4.7-0.3,7-0.5c0,0,0,0-0.1,0
				c0-0.1,0-0.1,0-0.1c0.1,0,0,0.1,0.1,0.1l0,0c0.8,0,1.7-0.1,2.5-0.1c0,0,0,0,0-0.1c0.1,0,0.1,0,0,0.1c0.1,0,0.2,0,0.3,0
				c0-0.1,0-0.2,0-0.3c0,0,0,0.1,0.1,0.1c-0.1,0.1,0,0.2-0.1,0.2c0.1,0,0.2,0,0.3,0c0-0.1,0-0.1,0-0.1v0.1c0.7,0,1.5-0.1,2.2-0.1
				l0,0h0.1c0.2,0,0.4,0,0.7,0c0,0,0,0,0-0.1l0,0c0.1,0,0.2,0,0.4,0c0-0.1-0.1-0.1,0-0.1s0-0.1,0-0.1c-0.1,0-0.1-0.2,0-0.2
				s0.1,0.1,0.1,0.2h0.1c0,0.1,0,0.1,0,0.2c0.1,0,0.1,0,0.2,0l0,0c0,0,0,0,0.1,0s0.2,0,0.3,0c0.1,0.3,0.3,0.6,0.4,0.9c0-0.1,0,0,0,0
				c0.2,0,0.2-0.3,0.2,0.7l0,0c0.2,0,0.4,0.7,0.6,1.1v-0.2c0.1,0.1,0.2,0.2,0.2,0.3c0,0,0,0-0.1,0c0.3,0.6,0.6,1.2,0.8,1.8
				c0.1,0,0.3,0.1,0.4,0.1c-0.1,0-0.1-0.1-0.1-0.1h0.1c0,0-0.1,0,0,0c0,0.1,0,0,0,0.1c0.2,0,0.5,0,0.7,0c0,0,0,0,0-0.1l0,0v0.1
				c0.2,0,0.4,0,0.6,0c0,0,0,0,0-0.1h0.1l0,0l0,0v0.1c0.2,0,0.4,0,0.6,0c0-0.1,0-0.3,0.1-0.3c-0.1,0.1,0,0.2,0.1,0.3
				c0.2,0,0.4,0,0.6,0c0-0.1,0-0.2,0-0.2s0,0,0.1,0c0,0.1,0,0.2,0,0.2c0.2,0,0.4,0,0.6,0c0-0.1,0-0.1,0-0.2c0.1,0,0.1,0.1,0.1,0.2
				c0.2,0,0.4,0,0.7,0c0-0.1,0-0.1,0-0.2c0.1,0,0.1,0.1,0.1,0.2c0.2,0,0.4,0,0.7,0c0-0.1,0-0.2,0-0.2c0-0.2,0.1,0.1,0.1,0.2l0,0
				c0.2,0,0.5,0,0.7,0c-0.1-0.1-0.1-0.1,0-0.2c0.1,0,0.1,0.1,0,0.2c0.3,0,0.5,0,0.8,0c0-0.1-0.1-0.1-0.1-0.2c0-0.1,0.1-0.1,0-0.1
				c0.2,0,0.2,0.2,0.1,0.2c0,0,0.1,0.1,0,0.1c0.2,0,0.4,0,0.7,0c0-0.1,0-0.2,0-0.2c0.1-0.1,0.3,0.1,0.3,0.2c0.3,0,0.2,0,1.2,0
				c0-0.5,0-0.9,0-1.4C193.4,382.1,190.1,375.6,190,375.3z M170.1,351.5C170.1,351.5,170.2,351.5,170.1,351.5
				C170.2,351.5,170.2,351.5,170.1,351.5C170.2,351.5,170.2,351.5,170.1,351.5z M178.7,371.1c0,0-7.3,0.1-8.3,0.1
				c0.1-0.2,0.1-0.3,0.2-0.5c0,0-0.1,0-0.1-0.1l0,0c0,0,0,0,0.1,0c0.5-1.3,1.1-2.6,1.6-4l0,0l0,0c0.1-0.1,0.1-0.2,0.2-0.4l0,0v0.3
				l0,0c0.2-1,0.3-0.9,0.5-1.3c0,0,0-0.1,0-0.2l0,0c0.1-0.2,0.2-0.4,0.2-0.6c0,0,0,0,0-0.1c0,0,0,0,0.1,0c0.1-0.3,0.2-0.5,0.3-0.8
				c0,0,0,0,0-0.1l0,0c0-0.1,0.1-0.2,0.1-0.2v-0.1c0,0,0,0,0.1,0.1c0.2-0.4,0.3-0.8,0.5-1.2l0,0c0,0-0.1-0.2,0-0.1h0.1
				c0.1-0.3,0.3-0.7,0.4-1c0,0,0.3,0.6,0.4,0.9l1.1,2.6c0,0,0.4,0.8,0.3,0.8l0.4,0.9l0,0c0.2,0.5,0.4,1,0.6,1.5c0,0,0,0,0-0.1
				c0,0,0,0,0.1,0l0,0l0,0l0,0c0,0,0,0.1,0,0.2l0,0c0,0.1,0,0.1,0.1,0.2l0,0v0.1C177.7,368.4,178.8,371.1,178.7,371.1z"/>
		</g>
		<g>
			<g>
				<path d="M224.7,370.1c0,0.1,0,0.1-0.1,0.2c-0.4,0.1-0.9,0.1-1.3,0c-1.6-0.4-3.5,2-2.7,3.5c0.2,0.4,0.4,0.8,0.4,1.2
					c-0.6,0.6-2.4,1.7-3.5,1.9c-0.3-0.2-0.6-0.5-0.8-0.9c-0.2-0.4-0.7-0.6-1.2-0.7c-0.7,0.2-1.4,0.3-2.2,0.3c-0.5,0.2-0.8,0.6-0.9,1
					c-0.1,0.4-0.3,0.8-0.6,1.1c-0.3,0-0.8-0.1-1.2-0.2l0,0c0,0,0,0-0.1,0c-0.9-0.2-1.8-0.5-2.5-0.8c-0.1-0.4-0.1-0.9,0-1.3
					c0-0.1,0-0.2,0-0.3c0,0,0,0,0,0.1c-0.1,0,0.1-0.2,0-0.2c0,0,0.1,0,0.1,0.1c0-0.3-0.1-0.6-0.2-0.8l0,0l0,0
					c-0.1-0.1-0.1-0.2-0.2-0.3c-0.4-0.3-0.8-0.6-1.1-1c-0.7-0.4-1.4-0.5-2-0.2c-0.2,0.1-0.5,0.2-0.7,0.3c0,0-0.1,0.1-0.1,0.2v-0.1
					c-0.1,0-0.3,0-0.4,0l0,0l0,0h-0.1c-0.1-0.1-0.2-0.2-0.3-0.3h-0.1c0-0.1,0-0.1-0.1-0.1l0,0c-0.6-0.8-1.3-2.1-1.5-2.7
					c0.1-0.4,0.5-0.7,0.8-0.9c0,0,0,0,0-0.1l0,0l0,0l0,0l0,0c0.1,0,0.1-0.1,0.2-0.1v-0.1c0.1,0.1,0.1,0,0.1-0.1l0,0l0.1,0.1
					c0.1-0.1,0.2-0.2,0.2-0.3c0,0,0-0.1,0-0.2c0,0,0,0,0,0.1l0,0c0,0,0,0,0-0.1c0,0,0,0,0.1,0c0.4-0.7,0.5-1.7,0.1-2.5
					c0,0,0,0-0.1,0c0.1-0.1,0,0-0.1-0.1c0-0.1,0-0.1,0.1-0.1l0,0l0,0c-0.1,0,0-0.1,0-0.1l0,0c-0.2-0.4-0.6-0.7-1.1-0.9l0,0l0,0
					c0,0,0,0-0.1,0c-0.5-0.1-1.1-0.5-1.2-0.7c0-0.1,0-0.2,0-0.2l0,0c0,0,0,0,0-0.1c0-0.1,0-0.2,0.1-0.4l0,0l0,0
					c0-0.2,0.1-0.5,0.2-0.8v-0.2c0.1-0.6,0.3-1.1,0.5-1.6l0,0l0,0c0-0.1,0.1-0.2,0.1-0.3c0.4-0.2,0.9-0.2,1.4-0.1s1.1-0.1,1.6-0.5
					c0.1-0.3,0.3-0.6,0.4-0.8h-0.1c0,0,0,0,0-0.1c0,0,0.1,0,0.1-0.1l0,0c0,0,0,0,0-0.1c0,0,0,0,0.1,0l0,0c0.1-0.2,0.3-0.4,0.4-0.6
					l0,0l0,0c0.1-0.1,0.2-0.2,0.2-0.3c0-0.2,0.1-0.3,0-0.5c0,0-0.1,0.1,0,0.2c0,0-0.1,0-0.1-0.1c0,0,0,0,0.1,0v-0.1
					c0,0,0-0.1,0.1-0.1c0-0.2-0.1-0.3-0.1-0.4c-0.1-0.1-0.1-0.2-0.1-0.3c0,0,0,0-0.1,0c0,0,0,0,0-0.1c0,0,0,0,0.1,0
					c-0.1-0.3-0.1-0.6-0.1-0.8c0,0-0.1,0-0.1,0.1l0,0c0,0,0.1,0,0-0.1c0,0,0,0,0.1,0c0,0,0,0,0-0.1c0.4-0.3,1-0.7,1.6-1
					c0,0,0,0,0.1,0l0,0c0.1-0.1,0.2-0.1,0.3-0.2c0,0,0.2-0.1,0.2-0.2c0,0,0,0.1-0.1,0.1c0.5-0.2,0.9-0.5,1.2-0.5
					c0.1,0.1,0.3,0.2,0.5,0.3l0.1-0.1c0,0-0.1,0,0,0.1H209c0.1,0.1,0.2,0.2,0.3,0.4l0,0l0,0l0.1,0.1c0.1,0.1,0.1,0.2,0.2,0.3
					c0,0,0,0,0.1,0c0,0,0,0,0,0.1c0.1,0.1,0.1,0.1,0.2,0.2c0.1,0,0.1-0.1,0.2-0.2c0,0.1-0.1,0.2-0.2,0.2c0,0,0,0,0.1,0
					c0.3-0.1,0.7-0.1,1-0.2l0,0l0,0c0.1,0,0.1,0,0.2,0v-0.1h0.1l0,0c0,0,0,0,0.1,0c0,0.1,0,0,0,0s0,0.1,0.1,0.1c0,0,0,0-0.1,0.1l0,0
					c0,0,0,0,0,0.1c0,0-0.1-0.1-0.1,0c0.1,0,0.3,0,0.4,0l0.1-0.1c0,0.1-0.1,0,0,0.1h-0.1c0.1,0,0.2,0,0.4,0l0,0c0,0,0,0,0.1,0
					s0.2,0,0.2,0c0.3,0,0.5,0,0.8,0c0.1-0.1,0.2-0.1,0.3-0.2c0,0-0.1,0-0.1,0.1c0,0,0,0,0-0.1c0,0,0.1,0,0.1-0.1c0,0,0,0,0.1,0l0,0
					c0-0.1,0-0.1,0-0.1s0,0,0.1,0c0,0.1,0,0-0.1,0c0,0,0,0,0.1,0c0,0,0,0,0,0.1c0.2-0.2,0.3-0.4,0.3-0.6c0-0.2,0.1-0.4,0.2-0.5v-0.1
					l0,0l0,0l0,0c0.1-0.2,0.3-0.4,0.4-0.5c1.3,0.1,2.9,0.6,3.6,1c0.1,0.3,0.2,0.9,0,1.3c-0.4,1.4,2.2,3.4,3.5,2.7
					c0.4-0.2,0.8-0.3,1.2-0.3c0.5,0.7,1.5,2.1,1.8,3.2c1.6,0.1,3.2,0.1,4.9,0.2c-1.4-10.5-9.4-14.8-16.9-14.9c0,0.1-0.1,0.1-0.2,0.2
					c0,0,0-0.1-0.1-0.1c0.1,0,0.1-0.1,0.2-0.1c-0.1,0-0.2,0-0.3,0c-0.3,0-0.7,0-1,0l0,0l0,0c-0.2,0-0.5,0-0.7,0c0,0,0,0,0,0.1
					c-0.1,0-0.1,0.1-0.1,0.1l0,0c0.1,0,0.1-0.1,0.1-0.1c-0.1,0-0.3,0-0.4,0l0,0h-0.1c-0.1,0-0.2,0-0.3,0l0,0l0,0
					c-0.3,0-0.5,0.1-0.8,0.1c0,0,0,0.1,0.1,0.1c-0.1,0.1-0.1,0-0.2,0.1c0,0,0-0.1-0.1-0.1l0,0c-0.2,0-0.5,0.1-0.7,0.1l-0.1,0.1l0,0
					c0,0,0,0,0.1,0c0,0-0.1,0-0.1,0.1c0,0-0.1,0-0.1-0.1c0.1,0.1,0,0,0.1,0c0,0,0-0.1,0.1-0.1c-0.2,0-0.3,0.1-0.5,0.1l0,0l0,0
					c-0.1,0-0.1,0-0.2,0l0,0l0,0l0,0l0,0c-0.2,0-0.4,0.1-0.6,0.2l0,0c0,0,0,0-0.1,0l0,0c0,0,0,0-0.1,0l0,0l0,0l0,0l0,0
					c-0.2,0.1-0.5,0.1-0.7,0.2c0,0.1-0.2,0.1-0.2,0.1c-0.1,0-0.2,0.1-0.2,0.1s0,0.1-0.1,0c-0.3,0.1-0.6,0.2-0.9,0.4
					c0,0.1-0.2,0.1-0.2,0.1c-0.4,0.2-0.8,0.4-1.3,0.6l0,0l0,0c-0.1,0.1-0.3,0.1-0.4,0.2l0,0l0,0l-0.1,0.1l-0.1,0.1
					c-0.1,0-0.1,0.1-0.2,0.1l0,0c0,0,0,0-0.1,0l-0.2,0.1c-0.1,0.1-0.2,0.1-0.3,0.2l-0.2,0.1c-0.5,0.4-1,0.7-1.5,1.1
					c0,0-0.2,0.3-0.3,0.2c-0.1,0-0.1,0.1-0.2,0.1l0,0l0,0l-0.1,0.1c0,0.1,0,0.2-0.1,0.1c0,0,0,0.1-0.1,0.1c-0.1,0.1-0.3,0.3-0.4,0.4
					l-0.2,0.2c-0.2,0.2-0.3,0.4-0.5,0.6c0,0,0,0.1,0,0c-0.1,0-0.1,0.1-0.2,0.2c-0.2,0.2-0.3,0.4-0.4,0.6l0,0l0,0l-0.1,0.1
					c0,0,0,0,0,0.1c0,0,0,0-0.1,0c-0.1,0.1-0.1,0.2-0.2,0.3c0.1,0,0,0.1,0,0c-0.1,0.2-0.3,0.4-0.4,0.6c0,0,0,0.1-0.1,0.2
					c-0.1,0.1-0.1,0.2-0.2,0.3c0.1-0.1,0.1,0,0,0.1c-0.3,0.5-0.5,0.9-0.7,1.4c0,0,0,0.1-0.1,0.1c-0.1,0.1-0.1,0.3-0.2,0.4
					c0,0,0,0,0,0.1l0,0l0,0l0,0c0,0.1-0.1,0.2-0.1,0.4c0,0,0,0.1,0,0c-0.2,0.6-0.4,1.2-0.6,1.9v0.1c-0.4,1.5-0.6,3.1-0.7,4.8v0.2
					c0,0.2,0,0.4,0,0.7c0,1.3,0.1,2.5,0.3,3.6c0,0,0,0,0.1,0c0,0,0,0.1-0.1,0.1c0,0.3,0.1,0.5,0.1,0.8c0,0,0,0,0.1,0
					c0,0,0,0.1-0.1,0.1c0.1,0.4,0.2,0.9,0.3,1.3c0-0.1,0-0.1,0-0.2c0.1,0.1,0,0.1,0,0.2c0,0,0,0-0.1,0c0.2,0.6,0.3,1.1,0.5,1.6l0,0
					v0.1c0.8,2.1,2,4,3.4,5.5c0,0,0,0,0-0.1c0.1,0,0.1,0.1,0.1,0.2c0.5,0.5,1,1,1.5,1.5c0,0,0-0.1,0.1-0.1v0.1
					c0.3,0.2,0.5,0.4,0.8,0.6l0,0c0,0,0,0,0,0.1c0.6,0.5,1.3,0.9,2,1.3v-0.1c0,0,0-0.1,0.1-0.1c0,0,0,0.2,0.1,0.3
					c2.9,1.7,6.2,2.6,9.5,2.8c3.6,0.2,7.2-0.4,10.3-2.2c0,0,0,0,0-0.1c0,0,0,0,0.1,0c0.3-0.2,0.5-0.3,0.8-0.5v-0.1c0,0,0,0,0,0.1
					c0.1,0,0.1-0.1,0.2-0.1l0,0h0.1l0,0c0.3-0.2,0.5-0.4,0.8-0.6c0,0,0,0,0-0.1l0,0c0.1-0.1,0.1-0.1,0.2-0.2l0,0v-0.1c0,0,0,0,0.1,0
					c0.1-0.1,0.1-0.1,0.2-0.2c0,0,0,0,0-0.1c0,0,0,0,0.1,0l0,0l0,0v-0.1l0,0c-0.1,0,0,0.1,0,0.1l0,0c0.1,0,0.1-0.1,0.2-0.1
					c0,0,0,0,0-0.1c0,0,0,0,0,0.1l0,0v-0.1l0,0c0,0,0,0,0-0.1c0,0,0,0.1,0,0l0,0c0,0,0,0,0,0.1l0.1-0.1v-0.1l0,0c0,0,0,0,0-0.1
					c0,0,0,0,0,0.1c0-0.1,0.1-0.1,0.1-0.2v-0.1v-0.1l0,0v0.1l0.1-0.1l0,0c0-0.1,0-0.1,0-0.2c0.1,0,0,0,0.1,0c0,0,0,0,0,0.1
					c0-0.1,0.1-0.1,0.1-0.2l0,0l0,0l0,0l0,0v-0.1c0,0,0,0,0-0.1c0.1,0,0,0.1,0.1,0.1v0.1c0.1-0.1,0.1-0.1,0.2-0.2c0,0,0-0.1,0,0
					c0,0,0,0,0-0.1l0,0c0,0,0,0,0,0.1c0-0.1,0.1-0.1,0.1-0.2l0,0c0-0.1,0.1,0,0-0.1l0,0c0-0.1,0.1-0.1,0.1-0.2l0,0c0,0,0,0,0.1,0
					l0,0c0,0,0,0,0-0.1l0,0c0,0,0,0,0-0.1c0,0,0.1-0.1,0,0c0,0,0-0.1,0,0s0,0.1,0,0.1l0,0c0.1-0.1,0.1-0.2,0.2-0.3l0,0V378
					c0.1,0,0-0.1,0.1,0l0,0l0,0c0,0,0-0.1,0.1-0.1l0,0l0,0c0.2-0.3,0.4-0.7,0.6-1v-0.1c0,0,0,0,0-0.1l0,0v0.1
					c0.1-0.1,0.1-0.2,0.2-0.3c0.1-0.2,0.2-0.3,0.2-0.5l0,0l0,0l0,0l0,0l0,0l0,0v-0.1l0,0c0.7-1.6,1.3-3.5,1.5-5.7
					C228,370.3,226.4,370.2,224.7,370.1z"/>
			</g>
		</g>
		<g>
			<circle cx="212.6" cy="365.7" r="3.4"/>
		</g>
	</g>
	<g class="st2">
		<g>
			<path d="M188.5,303.6c0.2,0.1,0.4,0.2,0.6,0.4c0.2,0.2,0.3,0.3,0.4,0.5c0.1,0.2,0.1,0.4,0.1,0.7v8.9c0,0.1,0,0.1-0.1,0.2
				c-0.1,0.1-0.1,0.1-0.2,0.1h-2.1c-0.1,0-0.1,0-0.2-0.1c-0.1-0.1-0.1-0.1-0.1-0.2v-8.2h-1.7v8.2c0,0.1,0,0.1-0.1,0.2
				c-0.1,0.1-0.1,0.1-0.2,0.1H183c-0.1,0-0.2,0-0.2-0.1c-0.1-0.1-0.1-0.1-0.1-0.2v-8.2H181v8.2c0,0.2-0.1,0.3-0.3,0.3h-2.1
				c-0.2,0-0.3-0.1-0.3-0.3v-10.4c0-0.2,0.1-0.3,0.3-0.3h9.2C188.1,303.5,188.3,303.5,188.5,303.6z"/>
		</g>
		<g>
			<path d="M198.9,311.8c0.1,0,0.2,0,0.2,0.1c0.1,0.1,0.1,0.1,0.1,0.2v2.1c0,0.1,0,0.2-0.1,0.2c-0.1,0.1-0.1,0.1-0.2,0.1h-7.3
				c-0.2,0-0.3-0.1-0.3-0.3v-10.3c0-0.2,0.1-0.3,0.3-0.3h2.2c0.2,0,0.3,0.1,0.3,0.3v7.7c0,0.1,0,0.2,0.1,0.2
				c0.1,0.1,0.1,0.1,0.2,0.1h4.5V311.8z"/>
		</g>
		<g>
			<path d="M210,303.5c0.1,0,0.2,0,0.2,0.1c0.1,0.1,0.1,0.1,0.1,0.2v10.3c0,0.1,0,0.2-0.1,0.2c-0.1,0.1-0.1,0.1-0.2,0.1h-2.2
				c-0.1,0-0.2,0-0.2-0.1c-0.1-0.1-0.1-0.1-0.1-0.2v-3.6c0-0.1,0-0.2-0.1-0.2c-0.1-0.1-0.1-0.1-0.2-0.1H204c-0.1,0-0.2,0-0.2,0.1
				c-0.1,0.1-0.1,0.1-0.1,0.2v3.6c0,0.2-0.1,0.3-0.3,0.3h-2.2c-0.2,0-0.3-0.1-0.3-0.3v-10.3c0-0.2,0.1-0.3,0.3-0.3h2.2
				c0.2,0,0.3,0.1,0.3,0.3v3.5c0,0.2,0.1,0.3,0.3,0.3h3.2c0.1,0,0.2,0,0.2-0.1c0.1-0.1,0.1-0.1,0.1-0.2v-3.5c0-0.1,0-0.2,0.1-0.2
				s0.1-0.1,0.2-0.1H210z"/>
		</g>
	</g>
</g>
<g class="st1">
	<path class="st2" d="M319.9,649.4c-3.9,0.6-7.8,1.2-11.7,1.9c0-6.9,0.1-13.9,0.1-20.8c-4.6,0.5-9.2,1-13.8,1.6
		c0,7.3,0,14.6-0.1,21.8c-3.9,0.8-7.8,1.7-11.6,2.6c0-19,0-38,0-56.9c3.8,0,7.8,0,11.7,0c0,6.6,0,13.2,0,19.7
		c4.6-0.4,9.2-0.7,13.8-1c0-6.3,0.1-12.5,0.1-18.8c3.9,0,7.8,0,11.7,0C320.1,616.1,320,632.7,319.9,649.4z"/>
	<path class="st2" d="M361.9,639.7c-5.9,0.2-11.8,0.6-17.7,1c-0.9,2-1.8,4.1-2.7,6.2c-3.7,0.3-7.5,0.7-11.2,1.2c0-0.6,0-1.2,0-1.8
		c6.8-16.6,13.6-32.2,20.4-47.4c1.6,0,3.3,0,4.9,0c6.7,15.1,13.4,29.8,20.2,44.6c0,0.6,0,1.1,0,1.7c-3.8,0-7.5,0.1-11.3,0.3
		C363.6,643.5,362.7,641.6,361.9,639.7z M353,617.7c-1.7,4.1-3.4,8.3-5.1,12.5c3.4-0.2,6.8-0.3,10.3-0.4
		C356.4,625.7,354.7,621.7,353,617.7z"/>
	<path class="st2" d="M438.3,649.2c-0.1-16.6-0.2-33.2-0.3-49.8c3.8,0,7.7,0,11.6,0c0,6.5,0.1,13,0.1,19.5c0.3,0,0.6,0,0.8,0.1
		c11.4,0.9,10.8-9.5,10.8-19.5c3.9,0,7.8,0,11.8,0c0,11.4,0.3,22.3-8.6,28.2c4.1,8.4,8.1,17.2,12.1,26.5c0,0.8,0,1.5,0,2.3
		c-4.2-1-8.4-1.9-12.6-2.8c-3.3-7.7-6.6-15-9.9-22.1c-1.5,0.1-2.9,0-4.4-0.2c0,6.6,0.1,13.1,0.1,19.7
		C445.9,650.3,442.1,649.7,438.3,649.2z"/>
	<g class="st2">
		<g>
			<g>
				<path d="M419.4,628.7c0,0.1-0.1,0.1-0.1,0.2c-0.5,0.1-1.1,0.2-1.6,0c-1.9-0.5-4.3,2.5-3.3,4.3c0.3,0.5,0.5,1,0.5,1.5
					c-0.8,0.8-3,2-4.3,2.4c-0.4-0.2-0.8-0.7-1.1-1.1c-0.3-0.5-0.8-0.8-1.5-0.9c-0.9,0.2-1.8,0.4-2.7,0.4c-0.6,0.3-1,0.7-1.2,1.2
					c-0.1,0.5-0.4,1-0.8,1.4c-0.4,0-1-0.1-1.5-0.2l0,0h-0.1c-1.1-0.2-2.3-0.7-3-1c-0.1-0.5-0.2-1.1,0-1.6c0-0.1,0.1-0.3,0.1-0.4
					c0,0-0.1,0-0.1,0.1c-0.1,0,0.1-0.2-0.1-0.2c0-0.1,0.1,0,0.1,0.1c0-0.3-0.1-0.7-0.3-1l0,0l0,0c-0.1-0.1-0.2-0.3-0.2-0.4
					c-0.5-0.4-1-0.8-1.4-1.2c-0.8-0.5-1.8-0.6-2.5-0.2c-0.3,0.2-0.6,0.3-0.9,0.3c0,0.1-0.1,0.1-0.1,0.2c-0.1,0,0-0.1,0-0.2
					c-0.2,0-0.3,0-0.5,0l0,0l0,0h-0.1c-0.1-0.1-0.2-0.3-0.3-0.4h-0.1c0-0.1,0-0.1-0.1-0.2c0,0,0,0,0-0.1c-0.7-1-1.6-2.6-1.8-3.4
					c0.2-0.5,0.6-0.9,1-1.2V627c0,0,0,0,0.1,0c0,0,0,0-0.1,0l0,0l0,0c0.1,0,0.1-0.1,0.2-0.1c0,0,0-0.1,0-0.2
					c0.1,0.1,0.1-0.1,0.1-0.1l0,0l0.1,0.1c0.1-0.1,0.2-0.2,0.3-0.4v-0.2c0,0,0,0,0.1,0.1c0,0,0,0,0-0.1c0,0,0,0,0-0.1h0.1
					c0.5-0.9,0.6-2.1,0.1-3.1c-0.1,0-0.1,0.1-0.1,0.1c0.1-0.1,0,0-0.1-0.1c0-0.1,0.1-0.1,0.1-0.1l0,0c0,0,0,0,0,0.1
					c-0.1,0,0-0.1,0-0.1l0,0c-0.3-0.5-0.8-0.9-1.4-1.1l0,0l0,0c0,0,0,0-0.1,0c-0.6-0.2-1.3-0.6-1.4-0.9c0-0.1,0-0.2,0-0.3l0,0
					c0,0,0,0,0-0.1c0-0.1,0-0.3,0.1-0.5l0,0l0,0c0.1-0.3,0.1-0.6,0.2-1c0,0,0-0.2,0.1-0.2c0.2-0.7,0.4-1.4,0.6-1.9c0,0,0,0,0-0.1
					l0,0c0.1-0.2,0.1-0.3,0.2-0.4c0.5-0.2,1.2-0.3,1.8-0.1c0.6,0.2,1.3-0.1,1.9-0.6c0.2-0.4,0.3-0.7,0.5-1h-0.1c0,0,0,0,0-0.1
					c0-0.1,0.1,0,0.1-0.1c0,0,0,0,0.1,0v-0.1c0,0,0,0,0.1,0l0,0c0.2-0.3,0.3-0.5,0.5-0.8l0,0c0,0,0,0,0.1,0c0.1-0.1,0.2-0.2,0.3-0.4
					c0-0.2,0.1-0.4,0.1-0.6c0,0.1-0.1,0.1,0,0.2c-0.1,0-0.1,0-0.1-0.1c0.1,0,0,0,0.1,0v-0.1c0-0.1,0-0.1,0.1-0.1
					c0-0.2-0.1-0.4-0.2-0.5s-0.1-0.2-0.2-0.3h-0.1v-0.1c0,0,0,0,0.1,0c-0.1-0.3-0.1-0.7-0.2-1c0,0-0.1,0-0.1,0.1c0,0,0,0-0.1-0.1
					c0-0.1,0.1,0,0-0.1h0.1v-0.1c0.4-0.4,1.2-0.8,2-1.3c0,0,0,0,0.1,0l0,0c0.1-0.1,0.3-0.1,0.4-0.2c0-0.1,0.2-0.2,0.2-0.2
					s0,0.1-0.1,0.2c0.6-0.3,1.1-0.6,1.5-0.7c0.2,0.1,0.4,0.2,0.6,0.4c0.1-0.1,0.1-0.1,0.2-0.1c0,0-0.1,0.1,0,0.1c0,0-0.1,0-0.1,0.1
					c0.1,0.1,0.3,0.3,0.4,0.5l0,0l0,0c0,0.1,0.1,0.1,0.1,0.2c0.1,0.1,0.2,0.2,0.3,0.3c0,0,0,0,0.1-0.1c0,0-0.1,0-0.1,0.1
					c0.1,0.1,0.2,0.1,0.3,0.2c0.1,0,0.2-0.2,0.3-0.2c0,0.1-0.1,0.2-0.2,0.3c0,0,0,0,0.1,0c0.4-0.1,0.8-0.2,1.2-0.2l0,0l0,0
					c0.1,0,0.1,0,0.2,0l-0.1-0.1c0,0,0.1-0.1,0.1,0l0,0h0.1c0,0.1,0,0,0.1,0c0,0.1,0,0.1,0.1,0.1c0,0.1,0,0.1-0.1,0.1c0,0,0,0,0-0.1
					c0,0,0,0,0,0.1c0,0-0.1-0.1-0.1,0c0.2,0,0.4,0,0.5,0c0,0,0.1-0.1,0.2-0.2c0,0.1-0.1,0,0,0.1h-0.1c0.2,0,0.3,0,0.5,0l0,0h0.1
					c0.1,0,0.2,0,0.3,0c0.3,0,0.6,0,0.9,0c0.1-0.1,0.2-0.2,0.3-0.3c-0.1,0-0.1,0-0.2,0.1v-0.1c0.1,0,0.1,0,0.1-0.1c0,0,0,0,0.1,0
					l0,0c0.1-0.1-0.1-0.1,0-0.1h0.1c0,0.1-0.1,0-0.1,0s0.1,0.1,0.1,0c0,0,0,0,0,0.1c0.2-0.2,0.4-0.4,0.4-0.7
					c0.1-0.2,0.2-0.5,0.3-0.7v-0.1l0,0l0,0l0,0c0.2-0.3,0.3-0.5,0.5-0.6c1.6,0.2,3.6,0.8,4.5,1.2c0.1,0.4,0.2,1.1,0.1,1.6
					c-0.5,1.8,2.7,4.2,4.3,3.3c0.5-0.3,1-0.4,1.5-0.4c0.7,0.8,1.8,2.6,2.3,3.9c2,0.1,3.9,0.1,6,0.2c-1.8-13-11.7-18.4-20.9-18.5
					c0,0.1-0.2,0.1-0.2,0.2c-0.1,0,0-0.1-0.1-0.1c0.1,0,0.2-0.1,0.2-0.1c-0.1,0-0.3,0-0.4,0c-0.4,0-0.8,0-1.2,0l0,0c0,0,0,0-0.1,0
					c-0.3,0-0.6,0-0.9,0.1c0,0,0,0,0,0.1c-0.1,0-0.1,0.1-0.2,0.1c0,0,0,0-0.1-0.1c0.1,0,0.1-0.1,0.1-0.1c-0.2,0-0.3,0-0.5,0.1l0,0
					h-0.1c-0.1,0-0.2,0-0.4,0l0,0l0,0c-0.3,0-0.6,0.1-0.9,0.1c0,0,0,0.1,0.1,0.1c-0.1,0.1-0.2,0.1-0.3,0.1l-0.1-0.1c0,0,0,0,0.1,0
					c-0.3,0.1-0.6,0.1-0.8,0.2l-0.1,0.1l0,0c0,0,0,0,0.1,0c0,0.1-0.2,0.1-0.2,0.1s-0.1,0-0.1-0.1c0.1,0.1,0-0.1,0.1,0l0.1-0.1
					c-0.2,0-0.4,0.1-0.6,0.1c0,0,0,0-0.1,0l0,0c-0.1,0-0.2,0-0.2,0.1l0,0h-0.1l0,0l0,0c-0.2,0.1-0.5,0.1-0.7,0.2l0,0c0,0,0,0-0.1,0
					l0,0H397c0,0,0,0,0,0.1l0,0l0,0l0,0c-0.3,0.1-0.6,0.2-0.9,0.3c0,0.1-0.2,0.1-0.2,0.1c-0.1,0-0.2,0.1-0.3,0.1c0,0,0,0.1-0.1,0
					c-0.4,0.1-0.8,0.3-1.1,0.5c0,0.1-0.3,0.2-0.3,0.1c-0.5,0.2-1,0.5-1.6,0.8l0,0l0,0c-0.2,0.1-0.3,0.2-0.5,0.3l0,0l0,0
					c-0.1,0-0.1,0.1-0.2,0.1l-0.1,0.1c-0.1,0.1-0.2,0.1-0.2,0.2l0,0c0,0-0.1,0-0.1,0.1s-0.2,0.2-0.2,0.2c-0.1,0.1-0.3,0.2-0.4,0.3
					l-0.2,0.2c-0.6,0.4-1.2,0.9-1.8,1.4l-0.3,0.3c-0.1,0.1-0.1,0.1-0.2,0.2l0,0l0,0c-0.1,0.1-0.1,0.1-0.2,0.2c0,0.1,0,0.2-0.1,0.1
					c0,0.1-0.1,0.1-0.1,0.1c-0.2,0.2-0.4,0.4-0.5,0.5l-0.2,0.2c-0.2,0.2-0.4,0.5-0.6,0.7v0.1c-0.1,0.1-0.1,0.1-0.2,0.2
					c-0.2,0.2-0.4,0.5-0.6,0.7l0,0c0,0.1,0,0,0,0c0,0.1-0.1,0.1-0.1,0.2c0,0,0,0,0,0.1h-0.1c-0.1,0.1-0.2,0.3-0.3,0.4
					c0.1,0,0,0.1,0,0c-0.2,0.3-0.4,0.5-0.5,0.8c0,0,0,0.2-0.1,0.2c-0.1,0.1-0.2,0.3-0.3,0.4c0.1-0.1,0.1,0.1,0,0.1
					c-0.3,0.6-0.6,1.2-0.9,1.8c0,0,0,0.1-0.1,0.2c-0.1,0.2-0.1,0.3-0.2,0.5v0.1l0,0l0,0l0,0c-0.1,0.1-0.1,0.3-0.2,0.4c0,0,0,0.1,0,0
					c-0.3,0.8-0.5,1.5-0.8,2.3v0.1c-0.5,1.8-0.8,3.8-0.9,5.9v0.2c0,0.3,0,0.6,0,0.8c0,1.6,0.1,3,0.4,4.5c0,0,0,0,0.1,0
					c0,0.1,0,0.1-0.1,0.1c0.1,0.3,0.1,0.6,0.2,0.9c0,0,0,0,0.1,0c0,0-0.1,0.1-0.1,0.2c0.1,0.5,0.2,1.1,0.4,1.6c0-0.1,0-0.2,0.1-0.2
					c0.1,0.1,0,0.2,0.1,0.3h-0.1c0.2,0.7,0.4,1.3,0.6,2l0,0v0.1c1,2.6,2.5,4.9,4.2,6.8v-0.1c0.1,0,0.1,0.1,0.1,0.2
					c0.6,0.7,1.2,1.3,1.9,1.8l0.1-0.1c0,0,0,0.1,0,0.2c0.3,0.3,0.6,0.5,1,0.8c0,0,0,0,0-0.1v0.1c0.8,0.6,1.6,1.1,2.4,1.6v-0.1
					c0-0.1,0-0.1,0.1-0.2c0,0.1,0,0.2,0.1,0.3c3.6,2,7.7,3.2,11.7,3.4c4.4,0.3,8.9-0.5,12.7-2.7v-0.1h0.1c0.3-0.2,0.7-0.4,1-0.6
					v-0.1c0,0,0,0,0,0.1c0.1-0.1,0.2-0.1,0.2-0.2l0,0c0-0.1,0.1,0,0.1,0l0,0c0.3-0.2,0.7-0.5,1-0.8c0,0,0,0,0-0.1l0,0
					c0.1-0.1,0.1-0.1,0.2-0.2l0,0c0,0,0.1-0.1,0-0.1h0.1c0.1-0.1,0.2-0.1,0.2-0.2c0,0,0,0-0.1-0.1c0,0,0,0,0.1,0c0,0,0,0,0-0.1l0,0
					V641c0,0,0,0,0.1,0c-0.1,0,0,0.1,0,0.2l0,0c0.1-0.1,0.1-0.1,0.2-0.2c0,0,0,0,0-0.1c0,0,0,0,0,0.1l0,0v-0.1l0,0c0,0,0,0,0-0.1
					c0,0,0,0.1,0,0c0,0,0,0,0.1,0c0,0,0,0,0,0.1l0.1-0.1v-0.1c0,0,0,0,0.1,0c0,0,0,0,0-0.1c0.1,0,0.1,0.1,0.1,0.1
					c0.1-0.1,0.1-0.1,0.2-0.2v-0.1v-0.1l0,0v0.1c0.1-0.1,0.1-0.1,0.2-0.2l0,0c0-0.1,0-0.1,0-0.2c0.1,0,0,0.1,0.1,0c0,0,0,0,0,0.1
					c0.1-0.1,0.1-0.1,0.2-0.2l0,0l0,0l0,0c0,0,0,0-0.1,0c0-0.1,0-0.1,0-0.2v-0.1c0.1,0,0,0.1,0.1,0.1c0,0.1,0,0.1,0,0.1
					c0.1-0.1,0.1-0.2,0.2-0.3v-0.1c0,0,0,0,0-0.1c0,0,0,0,0.1,0c0,0,0,0,0,0.1c0.1-0.1,0.1-0.1,0.2-0.2l0,0c0-0.1,0.1-0.1,0.1-0.1
					l0,0c0.1-0.1,0.1-0.1,0.2-0.2c0,0,0,0,0-0.1c0,0,0,0,0.1,0l0,0c0,0,0,0,0-0.1l0,0v-0.1c0,0,0.1-0.1,0-0.1c0,0,0-0.1,0.1-0.1
					c0,0.1,0,0.1,0,0.1s0,0,0,0.1c0.1-0.1,0.2-0.2,0.2-0.3c0,0,0,0-0.1,0c0,0,0-0.1,0-0.2c0.1,0,0.1-0.1,0.1,0c0,0,0,0,0,0.1l0,0
					l0.1-0.1l0,0l0,0c0.3-0.4,0.5-0.8,0.8-1.3v-0.1c0,0-0.1,0,0-0.1l0,0v0.1c0.1-0.1,0.1-0.2,0.2-0.4c0.1-0.2,0.2-0.4,0.3-0.6l0,0
					c0,0,0,0,0-0.1l0,0l0,0l0,0l0,0v-0.1c0,0,0,0,0,0.1c0.9-2,1.6-4.3,1.9-7C423.6,629,421.5,628.9,419.4,628.7z"/>
			</g>
		</g>
		<g>
			<circle cx="404.5" cy="623.3" r="4.2"/>
		</g>
	</g>
</g>
<polygon class="st3" points="482.3,547.6 354.3,547.6 354.3,581.6 482.3,581.6 447.3,564.6 "/>
<polygon class="st3" points="-93.7,547.6 34.3,547.6 34.3,581.6 -93.7,581.6 -58.7,564.6 "/>
<polygon class="st4" points="402.3,581.1 354.3,547.6 354.3,644.6 402.3,644.6 "/>
<polygon class="st4" points="-13.7,581.1 34.3,547.6 34.3,644.6 -13.7,644.6 "/>
<rect x="-13.5" y="581.5" class="st5" width="415.8" height="63.8"/>
<g>
	<g>
		<path class="st6" d="M214.4,610.1H202c-0.3,0-0.6,0.3-0.6,0.6v6c0,0.3,0.3,0.6,0.6,0.6h4.8v7.5c0,0-1.1,0.4-4.1,0.4
			c-3.5,0-8.5-1.3-8.5-12.1c0-10.9,5.1-12.3,10-12.3c4.2,0,6,0.7,7.1,1.1c0.4,0.1,0.7-0.2,0.7-0.6l1.4-5.8c0-0.1-0.1-0.3-0.2-0.5
			c-0.5-0.3-3.3-1.9-10.5-1.9c-8.3,0-16.7,3.5-16.7,20.4s9.7,19.4,17.9,19.4c6.8,0,10.9-2.9,10.9-2.9c0.2-0.1,0.2-0.3,0.2-0.4v-18.8
			C215,610.4,214.7,610.1,214.4,610.1z"/>
		<path class="st6" d="M278.1,595.1c0-0.3-0.3-0.6-0.6-0.6h-7c-0.3,0-0.6,0.3-0.6,0.6v13.5h-10.8v-13.5c0-0.3-0.3-0.6-0.6-0.6h-7
			c-0.3,0-0.6,0.3-0.6,0.6v36.4c0,0.3,0.3,0.6,0.6,0.6h7c0.3,0,0.6-0.3,0.6-0.6v-15.6H270v15.6c0,0.3,0.3,0.6,0.6,0.6h7
			c0.3,0,0.6-0.3,0.6-0.6v-36.4H278.1z"/>
		<g>
			<g>
				<path class="st6" d="M227.5,599.9c0-2.5-2-4.5-4.5-4.5s-4.5,2-4.5,4.5s2,4.5,4.5,4.5S227.5,602.4,227.5,599.9z"/>
				<path class="st6" d="M227,623.8c0-0.9,0-16.8,0-16.8c0-0.3-0.3-0.6-0.6-0.6h-6.9c-0.3,0-0.6,0.3-0.6,0.6c0,0,0,20.2,0,24.1
					c0,0.7,0.4,0.9,1,0.9c0,0,3,0,6.3,0c0.7,0,0.9-0.3,0.9-0.9C227,629.9,227,624.8,227,623.8z"/>
			</g>
		</g>
		<path class="st6" d="M304.6,606.5h-6.9c-0.3,0-0.6,0.3-0.6,0.6V625c0,0-1.8,1.3-4.2,1.3s-3.2-1.1-3.2-3.6c0-2.4,0-15.6,0-15.6
			c0-0.3-0.3-0.6-0.6-0.6h-7c-0.3,0-0.6,0.3-0.6,0.6c0,0,0,9.5,0,16.8c0,7.2,4,9,9.6,9c4.6,0,8.2-2.5,8.2-2.5s0.2,1.3,0.3,1.5
			c0.1,0.2,0.3,0.3,0.5,0.3h4.5c0.3,0,0.6-0.3,0.6-0.6v-24.4C305.1,606.8,304.9,606.5,304.6,606.5z"/>
		<path class="st6" d="M323.4,605.7c-3.9,0-6.6,1.8-6.6,1.8v-12.3c0-0.3-0.3-0.6-0.6-0.6h-7c-0.3,0-0.6,0.3-0.6,0.6v36.4
			c0,0.3,0.3,0.6,0.6,0.6h4.8c0.2,0,0.4-0.1,0.5-0.3c0.1-0.2,0.3-1.7,0.3-1.7s2.9,2.7,8.3,2.7c6.3,0,10-3.2,10-14.4
			C333.2,607.1,327.4,605.7,323.4,605.7z M320.7,626.2c-2.4-0.1-4-1.2-4-1.2v-11.5c0,0,1.6-1,3.6-1.2c2.5-0.2,4.9,0.5,4.9,6.5
			C325.1,625.1,324.1,626.3,320.7,626.2z"/>
		<path class="st6" d="M247,606.4h-5.2v-6.9c0-0.3-0.1-0.4-0.4-0.4h-7.1c-0.3,0-0.4,0.1-0.4,0.4v7.1c0,0-3.6,0.9-3.8,0.9
			c-0.2,0.1-0.4,0.3-0.4,0.6v4.5c0,0.3,0.3,0.6,0.6,0.6h3.6c0,0,0,4.7,0,10.8c0,8,5.6,8.8,9.4,8.8c1.7,0,3.8-0.6,4.1-0.7
			c0.2-0.1,0.3-0.3,0.3-0.5v-4.9c0-0.3-0.3-0.6-0.6-0.6c-0.3,0-1.1,0.1-1.9,0.1c-2.6,0-3.4-1.2-3.4-2.7s0-10.2,0-10.2h5.2
			c0.3,0,0.6-0.3,0.6-0.6v-5.6C247.6,606.7,247.4,606.4,247,606.4z"/>
	</g>
	<g>
		<path class="st6" d="M68.7,623.1h-2v-8.2h-9.2v8.2h-2v-17.4h2v7.4h9.2v-7.4h2V623.1z"/>
		<path class="st6" d="M85.4,616.5c0,2.1-0.5,3.8-1.6,5s-2.6,1.8-4.4,1.8c-1.2,0-2.2-0.3-3.1-0.8c-0.9-0.5-1.6-1.3-2.1-2.4
			c-0.5-1-0.7-2.2-0.7-3.6c0-2.1,0.5-3.8,1.6-5s2.5-1.8,4.4-1.8c1.8,0,3.3,0.6,4.4,1.8C84.8,612.8,85.4,614.5,85.4,616.5z
			 M75.4,616.5c0,1.7,0.3,2.9,1,3.8s1.7,1.3,2.9,1.3c1.3,0,2.3-0.4,3-1.3s1-2.1,1-3.8c0-1.7-0.3-2.9-1-3.8s-1.7-1.3-3-1.3
			s-2.3,0.4-2.9,1.3C75.7,613.6,75.4,614.9,75.4,616.5z"/>
		<path class="st6" d="M98.1,619.5c0,1.2-0.5,2.2-1.4,2.8c-0.9,0.7-2.2,1-3.8,1c-1.7,0-3.1-0.3-4.1-0.8v-1.8c0.6,0.3,1.3,0.6,2,0.8
			c0.7,0.2,1.4,0.3,2.1,0.3c1,0,1.8-0.2,2.4-0.5c0.6-0.3,0.8-0.8,0.8-1.5c0-0.5-0.2-0.9-0.7-1.3c-0.4-0.4-1.3-0.8-2.6-1.3
			c-1.2-0.5-2.1-0.8-2.6-1.2s-0.9-0.7-1.1-1.2c-0.3-0.4-0.4-0.9-0.4-1.5c0-1.1,0.4-1.9,1.3-2.5c0.9-0.6,2.1-0.9,3.6-0.9
			c1.4,0,2.8,0.3,4.1,0.9l-0.7,1.6c-1.3-0.5-2.5-0.8-3.6-0.8c-0.9,0-1.6,0.1-2.1,0.4s-0.7,0.7-0.7,1.2c0,0.4,0.1,0.6,0.3,0.9
			c0.2,0.2,0.5,0.5,0.9,0.7c0.4,0.2,1.2,0.5,2.3,1c1.6,0.6,2.6,1.1,3.1,1.7C97.9,617.9,98.1,618.7,98.1,619.5z"/>
		<path class="st6" d="M106.4,621.7c0.4,0,0.7,0,1-0.1s0.6-0.1,0.8-0.2v1.5c-0.2,0.1-0.5,0.2-0.9,0.3s-0.8,0.1-1.1,0.1
			c-2.5,0-3.8-1.3-3.8-4v-7.8h-1.9v-1l1.9-0.8l0.8-2.8h1.1v3h3.8v1.5h-3.8v7.7c0,0.8,0.2,1.4,0.6,1.8
			C105.3,621.5,105.8,621.7,106.4,621.7z"/>
		<path class="st6" d="M117.2,623.3c-1.9,0-3.5-0.6-4.6-1.8c-1.1-1.2-1.7-2.8-1.7-4.9c0-2.1,0.5-3.8,1.6-5c1-1.2,2.4-1.9,4.2-1.9
			c1.6,0,2.9,0.5,3.9,1.6c1,1.1,1.4,2.5,1.4,4.3v1.3h-9c0,1.5,0.4,2.7,1.2,3.5c0.7,0.8,1.8,1.2,3.1,1.2c1.4,0,2.8-0.3,4.2-0.9v1.8
			c-0.7,0.3-1.4,0.5-2,0.7S118.1,623.3,117.2,623.3z M116.7,611.4c-1,0-1.9,0.3-2.5,1c-0.6,0.7-1,1.6-1.1,2.8h6.8
			c0-1.2-0.3-2.2-0.8-2.9C118.5,611.8,117.7,611.4,116.7,611.4z"/>
		<path class="st6" d="M135.2,621.3H135c-0.9,1.3-2.3,2-4.1,2c-1.7,0-3-0.6-4-1.8c-1-1.2-1.4-2.8-1.4-5s0.5-3.8,1.4-5
			c1-1.2,2.3-1.8,4-1.8c1.8,0,3.1,0.6,4.1,1.9h0.2l-0.1-0.9v-0.9v-5.3h2v18.6h-1.6L135.2,621.3z M131.2,621.7c1.4,0,2.3-0.4,2.9-1.1
			c0.6-0.7,0.9-1.9,0.9-3.6v-0.4c0-1.9-0.3-3.2-0.9-4c-0.6-0.8-1.6-1.2-3-1.2c-1.2,0-2,0.5-2.7,1.4c-0.6,0.9-0.9,2.2-0.9,3.8
			c0,1.7,0.3,2.9,0.9,3.8C129.1,621.2,130,621.7,131.2,621.7z"/>
		<path class="st6" d="M149.6,605.6h4.9c2.3,0,4,0.3,5,1s1.6,1.8,1.6,3.3c0,1-0.3,1.9-0.9,2.6c-0.6,0.7-1.4,1.1-2.5,1.3v0.1
			c2.6,0.5,4,1.8,4,4.2c0,1.6-0.5,2.8-1.6,3.7s-2.5,1.3-4.4,1.3h-6.1V605.6z M151.6,613.1h3.3c1.4,0,2.5-0.2,3.1-0.7
			c0.6-0.4,0.9-1.2,0.9-2.3c0-1-0.4-1.7-1-2.1c-0.7-0.4-1.8-0.7-3.3-0.7h-3V613.1z M151.6,614.8v6.5h3.6c1.4,0,2.5-0.3,3.2-0.8
			s1.1-1.4,1.1-2.6c0-1.1-0.4-1.9-1.1-2.4s-1.8-0.8-3.3-0.8L151.6,614.8L151.6,614.8z"/>
		<path class="st6" d="M163.9,610h2.1l2.9,7.5c0.6,1.7,1,2.9,1.2,3.7h0.1c0.1-0.4,0.3-1.1,0.7-2.1c0.3-1,1.4-4,3.2-9.1h2.1
			l-5.6,14.9c-0.6,1.5-1.2,2.5-2,3.1c-0.7,0.6-1.7,0.9-2.7,0.9c-0.6,0-1.2-0.1-1.8-0.2v-1.6c0.4,0.1,0.9,0.1,1.5,0.1
			c1.4,0,2.3-0.8,2.9-2.3l0.7-1.9L163.9,610z"/>
	</g>
</g>
</svg>
