<svg id="Layer_1" data-name="Layer 1" xmlns="http://www.w3.org/2000/svg" viewBox="0 0 424 540"><defs><style>.cls-1{fill:#135d95;}.cls-2{fill:#fff;}.cls-3{fill:#08466a;}.cls-4{fill:#f7f8fa;}.cls-5{fill:#f9fafc;}</style></defs><title>lhd_2017</title><path class="cls-1" d="M363,499.07c-.06,11.81-.15,23.62-.15,35.43,0,2.4-.15,4.65-1.87,6.5H60c-1.89-1.76-1.87-4-1.87-6.38,0-11.86-.09-23.73-.14-35.59,0-6.46,0-12.91,0-19.37,0-5.78.87-6.63,6.61-6.66q17.38-.09,34.76-.13l219.59,0c.66,0,1.33.07,2,.11q17.63,0,35.26,0c5.48,0,6.65,1.14,6.73,6.7C363,486.15,363,492.61,363,499.07ZM229.8,515.71c0-10.28,0-10.27-9.56-9.72a9.22,9.22,0,0,1-1,0c-2.21-.11-2.44,1.38-2.22,3s-1.17,4.15,2,4c4.64-.21,2.77,3.2,2.84,5.18.11,3.07-2.54,2-4.08,2-3.68,0-5.74-2.22-6.69-5.6-3.23-11.53,1.28-17.17,13.12-16.44.33,0,.65.13,1,.18,2.32.33,2.18-1.65,2.54-2.92s.9-2.83-.85-3.95c-5.76-3.65-18.38-1-21.53,5.19a26.27,26.27,0,0,0-.23,24.46c2.94,5.95,11.53,8,20,5.93C232.31,525.25,229.07,519.77,229.8,515.71Zm59.2-6.22c0-4.49-.1-9,0-13.47.08-2.79-.07-4.62-3.8-4.63s-4.65,1.3-4.29,4.65a63,63,0,0,1,0,6.48c0,1.27-.26,2-1.83,2.36-6.22,1.29-8,0-8-6.26a25,25,0,0,1,0-3c.34-2.83-.38-4.28-3.7-4.2-3.06.07-4.46.63-4.36,4.15.26,9,.22,18,0,26.93-.07,3.35.73,4.56,4.36,4.65,4,.1,3.73-2.1,3.67-4.68s0-5.32,0-8c.06-4.52,3.53-2.33,5.54-2.6s4.57-1,4.33,2.74c-.2,3.15.1,6.32-.08,9.47-.21,3.68,2.35,2.76,4.36,2.91,2.24.17,3.85-.07,3.73-3.06C288.86,519.14,289,514.31,289,509.49Zm28.19,0q0,5.48,0,11c0,6.18,0,6.09,6.39,5.66,1.39-.09,2.83.81,4.28,1.09,6.66,1.28,10.62-.84,11.9-6.55a27.07,27.07,0,0,0,.19-11.38c-1-5.11-4.62-8.35-9.62-7.07-5.66,1.44-5.6-1.2-5.17-5.07.07-.66-.07-1.34,0-2,.41-2.89-.92-3.78-3.68-3.68-2.51.09-4.57,0-4.37,3.57C317.39,499.83,317.2,504.66,317.2,509.48Zm-3,5.36c0-3-.17-6,0-9s-1.55-3.1-3.74-3c-2,.06-4.08-.34-3.9,2.88.19,3.49-.08,7,.08,10.49.13,2.9-.41,5-3.89,4.94s-2.92-2.52-2.94-4.65c0-3.33-.22-6.68,0-10s-1.5-3.71-4.22-3.72-4,.36-3.85,3.48c.25,4.15,0,8.33.09,12.49.18,7,3.72,9.83,10.76,8.69,1.79-.29,3.89-1.75,5.22-1.19,7,3,6.45-1.54,6.32-5.89C314.11,518.51,314.16,516.68,314.16,514.84ZM256.3,527.49c1-.69,3.49.8,4-1.89.3-1.44.48-4.1-.54-4.14-7.71-.35-4-6.1-4.75-9.62-.4-1.76.4-2.92,2.44-2.66,2.35.3,2.74-1,2.71-3s0-3.76-2.79-3.39c-2.12.28-2.61-1-2.39-2.74.39-3-.45-4.37-4-4.39s-4.29,1.56-3.87,4.48c.3,2.09-1.08,2.58-2.53,3.57-2.18,1.49-2.68,4.24.19,5.2,2.28.76,2.32,1.84,2.32,3.52,0,2.33-.09,4.66,0,7C247.49,525,250.16,527.49,256.3,527.49ZM241,514.58c0-2.82-.21-5.66.06-8.46.31-3.25-1.46-3.36-3.89-3.34s-4.16.12-4,3.36c.21,5.47.16,11,0,16.42-.08,2.95.43,4.54,4,4.57s4-1.73,3.88-4.6C240.89,519.89,241,517.23,241,514.58Zm-72.88-4.31c0,8.89.29,9.24,6.91,8.26,9.73-1.44,1.48-8.73,4-12.81,1.25-2-1.74-3.43-4-3.75-6.27-.87-6.84-.39-6.84,5.8Q168.13,509,168.13,510.27Zm-75.7,8.59v-17c-2.11.88-1.75,2.25-1.6,3.25.56,3.66-1.46,3.76-4.34,4-4.23.33-4.05-2.08-3.93-4.89,0-1,0-2.18-1.45-2-1.11.14-1,1.19-1,2,0,3.5-.12,7,0,10.48.06,1.26-1,3.56,1.28,3.54,1.7,0,1.24-2.16,1.08-3.33-.48-3.55,1.31-3.95,4.31-4.08,3.58-.16,4.27,1.41,4,4.41A3.18,3.18,0,0,0,92.43,518.86Zm64.41-18c-3.68,1,.18,5.19-4.16,5.17-5.79,0-8.31,3.75-6.51,9.07.85,2.51,2.83,4.2,5.27,3.52,1.77-.5,5,.79,5.24-1.75C157.2,511.73,156.84,506.46,156.84,500.9Zm24.78,22.44c3.26,1.43,5.15.26,6.17-2.11,1.83-4.26,3.4-8.64,5-13,.27-.7.85-1.69-.25-2.1-1.34-.5-1.58.72-2,1.6-1.06,2.22-1.22,4.84-2.91,6.82-2.2-2.54-1.53-6.84-5.13-8.82C181,511.85,191.72,517.55,181.61,523.34Zm-39.48-5.69c-.56-1.43-1.22-1.16-1.85-1.07-2.21.31-5.05.57-5.1-2.28,0-2.61,2.82-1,4.36-1.4,1.34-.32,3.32.47,3.26-1.93-.07-2.56-1.2-4.56-3.93-5s-5,.42-6.07,3.16c-1.19,3-1.15,6.09,1.42,8.28S139.44,519.37,142.14,517.65Zm-45.24-5.44c.29,3.7,1.89,6.51,6,6.56,3.84.05,5.65-2.47,5.7-6.14s-1.24-6.65-5.54-6.8S97.24,508.37,96.89,512.21Zm23.13-5c-2.78-2-5.65-2.37-7.62.48-2.11,3,.59,4.32,3,5.36,1.16.5,2.92.81,2.38,2.56-.47,1.53-2.07,1.31-3.43,1.19-.9-.08-1.85-1-3,.31,2.67,2.81,5.72,2.45,8.14.26,1.86-1.69,1-3.91-1.16-5.39-1.42-1-4.48-.73-4-2.88.53-2.54,3.51-.3,5.15-1.29A4.26,4.26,0,0,0,120,507.16ZM237.38,501c2.84-.33,4.13-2,4-4.67a3.84,3.84,0,0,0-4.13-4,4,4,0,0,0-4.26,4.4C233.1,499.53,234.75,500.86,237.38,501Zm-107.75,5.72c-.68-1.52-3.51.08-3.56-2.51,0-.82-.61-.74-1.3-.17-2.1,1.72-1,13.32,1.51,14.41,1.22.54,2.53.77,3.5-.62C124.72,514.71,124.67,509.55,129.64,506.75Z"/><path class="cls-2" d="M425,372c-2.68,3.09-5.93,3.56-9.82,2.67A163.89,163.89,0,0,0,399,371.72c-4.54-.57-6.85-2.73-8.32-7.13-6.3-18.89-13-37.66-19.51-56.47-.11-.31-.18-.64-.28-1-1.08-3.3-2.45-6.6-6.71-6s-5.07,4-5,7.86c.1,14.66,0,29.31,0,44,0,12.07-.06,12.16-12,10.91-4.8-.5-9.56-1.29-14.36-1.77-4.29-.43-6.21-2.71-6-6.93,0-.5,0-1,0-1.5q-.17-83.69-.33-167.37c0-7.71,1.19-8.86,9.07-8.87,5.33,0,10.66,0,16,0,6,.07,7.58,1.64,7.6,7.82,0,12.16,0,24.32,0,36.48a33.53,33.53,0,0,0,.05,3.49c.32,3.06,1.57,5.5,4.93,6,3.12.48,4.9-1.28,6.15-3.94q7.8-16.68,15.68-33.32c1.91-4.05,3.92-8.06,5.7-12.16,1.3-3,3.38-4.18,6.63-4.1,6.16.15,12.32,0,18.49.06s8.4,3.63,5.8,9.24c-5.66,12.19-11.45,24.31-17.24,36.43-5.29,11.08-10.57,22.16-16,33.17a9.47,9.47,0,0,0-.38,8.07q18,49.61,34.79,99.67c.3.91.2,2,1.26,2.58Z"/><path class="cls-3" d="M99.4,472.87q-17.38.06-34.76.13c-5.73,0-6.58.88-6.61,6.66,0,6.46,0,12.91,0,19.37-15.64,4.55-30.66,10.76-45.58,17.25-2,.87-4,2.08-5.93.07s-.53-4,.45-5.94c4.73-9.32,9.38-18.68,14.22-27.95,1.5-2.88,1.13-4.79-1.43-6.84C13.39,470.54,7.23,465.22,1,460v-4a348.32,348.32,0,0,1,91.63-31c5.84-1.08,6.5-.3,6.53,5.92Q99.28,451.91,99.4,472.87Z"/><path class="cls-2" d="M177,1c5.11,2.78,6.69,7.15,6.59,12.82q-.36,19.73,0,39.48c.08,4.25-1.38,5.4-5.46,5.3-9.15-.21-9.15,0-9.15-9.31,0-10.33-.18-20.66.1-31,.1-3.76-1.31-4.21-4.56-4.25-3.49,0-4.51.93-4.44,4.46.22,11.66-.07,23.32.17,35,.08,3.91-1,5.23-5,5.1-9.85-.31-8.34.75-8.4-8.15-.07-10.83-.2-21.66.08-32.48.1-3.82-1.73-3.77-4.5-3.87-3.06-.1-4.41.49-4.34,4,.23,12,0,24,.16,36,.05,3.27-.88,4.18-4.16,4.16-10.26-.07-10.29.08-10.26-10.29q.06-23.49.17-47Z"/><path class="cls-2" d="M291,1c1,1.48.85,3.15.85,4.81,0,15.8-.14,31.6.08,47.4.06,4-1.17,5.12-5.09,5.06-10.36-.16-10.36,0-10.36-10.1,0-12,0-12-12.09-12-7.55,0-7.55,0-7.55,7.51q0,1.75,0,3.49c0,11.91,0,11.84-12.2,11.05-2.13-.14-2.87-.67-2.86-2.86.13-18.12.16-36.25.21-54.37h15c-.06,6,0,12-.23,17.93-.12,3,1.15,3.73,3.82,3.63,4-.14,8-.16,12,0,3.08.13,4-1.19,4-4.14,0-5.81-.57-11.64.41-17.42Z"/><path class="cls-2" d="M207,1c-.05,13.13,0,26.27-.21,39.4,0,3.26,1.37,3.87,4.2,3.8,6.15-.15,12.31.05,18.47-.09,2.84-.07,3.68,1,3.78,3.8.37,10.26.47,10.26-9.61,10.26-9.48,0-19-.08-28.45.05-2.57,0-3.43-.64-3.41-3.33.17-18,.17-35.93.23-53.9Z"/><path class="cls-2" d="M7,276.72q0-45.23,0-90.46c0-6.94,1.51-8.42,8.48-8.43,5.33,0,10.66,0,16,0,6.31,0,7.68,1.37,7.68,7.59q0,29.74,0,59.47c0,7,1.51,8.39,8.61,8.09,4.48-.19,9-.54,13.44-.83,5-.33,6.74-2.11,6.76-7.2q.13-29.23.18-58.47c0-7.45,1.53-9,9.12-9,5.16,0,10.33-.08,15.49,0,6.06.11,7.72,1.75,7.71,7.84,0,15.32-.28,30.64-.3,46q-.07,61.47,0,122.94c0,7.08-.81,8-7.67,9-5.44.72-10.9,1.36-16.35,2-6.1.76-8.14-1-8.13-7.33q0-34,.15-68c0-8.2-1.17-9.38-9.21-8.93-4,.22-8,.67-11.94,1-6,.5-7.83,2.39-7.84,8.53q0,35.73,0,71.46c0,8.7-.61,9.39-9.31,10.89-4.59.79-9.18,1.57-13.74,2.49C9.61,376.71,7,374.75,7,368.18Q7,322.45,7,276.72Z"/><path class="cls-2" d="M218.84,266.27c0-17.31.14-34.63,0-51.94-.25-25.21,15.56-37.55,36-39.91,10.77-1.24,21.61-1.32,32.22,1.62,16.55,4.58,26,16.59,26.41,33.79.2,9,.09,18,0,27,0,5.73-1.82,7.36-7.58,7.23s-11.64-.28-17.46-.54c-5.49-.24-6.94-1.79-7-7.46,0-8.14,1-16.29-.32-24.42-1.44-8.63-6.26-12.46-15.78-12.44-8.5,0-13.24,4.23-14.29,12.82a44.49,44.49,0,0,0-.25,5.48c0,33.15,0,66.29.18,99.44.05,13.21,7.47,19.74,19.93,17.91,5.86-.86,8.91-3.58,10.13-9.39,1.84-8.73.64-17.6.87-26.4.19-7.39,2-9.27,9.19-8.87,5.31.3,10.63.6,15.94.82,3.92.17,6.64,2.13,6.64,6,0,12.3,1.09,24.68-1,36.9-2.26,13.17-10.4,21.36-23.05,24.77-17.31,4.66-34.41,3-50.79-3.9-14.58-6.15-20.46-18.11-20.4-33.5.07-18.32,0-36.64,0-55Z"/><path class="cls-2" d="M194.46,356.08c-3.16.14-6.31.31-9.47.42-4.26.15-6.45-2.07-7-6.17-.7-5.28-1.45-10.55-2.13-15.83-.58-4.47-2.68-6.94-7.59-6.55-5.47.45-11,.79-16.44.79-4.83,0-6.87,2.47-7.49,6.87-.75,5.27-1.77,10.51-2.4,15.79-.6,5-2.68,7.86-8.25,7.86a125,125,0,0,0-14.41,1.29c-8.13,1-10.67-1.49-9.22-9.38q8.12-43.9,16.36-87.77,7.32-39.23,14.62-78.46c1.2-6.46,2.26-7.44,8.89-7.45q10.75,0,21.5,0c6.94,0,8,.77,9.22,7.66q9.23,50.79,18.36,101.61c3.46,19.15,6.87,38.3,10.43,57.43,1.91,10.24.8,11.79-9.48,12-1.83,0-3.67,0-5.5,0Zm-34.37-55.91c8.39-.15,10.83-1.74,10.18-7.18-1.21-10.05-2.72-20.07-4.06-30.1-.44-3.32-2.17-5.1-5.59-5s-5.08,2-5.56,5.22c-1.35,9-2.78,18-4,27.09S151,300.33,160.09,300.17Z"/><path class="cls-3" d="M363,499.07c0-6.46,0-12.91-.06-19.37-.07-5.56-1.24-6.69-6.73-6.7q-17.63,0-35.26,0c1.12-12.62.35-25.27.51-37.9.15-11.25,0-11.3,11-9.17,29,5.64,56.65,15.52,83.35,28.08,5.37,2.52,5.6,4.45,1.18,8.23-5.18,4.44-10.32,8.94-15.67,13.17-2.92,2.31-3.21,4.49-1.5,7.7,4.78,8.93,9.31,18,13.92,27,1.06,2.07,2.5,4.31.38,6.4-1.91,1.88-4,.57-6-.29C393.39,509.74,378.49,503.65,363,499.07Z"/><path class="cls-2" d="M117.08,117.81a35.87,35.87,0,0,1,1.32-12.64C122.63,89,135.07,80.55,152.47,82c14.21,1.22,25.14,13.48,26.41,29.81.53,6.84.18,13.64-2.06,20.21-5,14.56-16.48,22-32.38,20.88C131.12,152,121,142.6,118,128.41,117.3,124.83,116.59,121.23,117.08,117.81Zm43.43-1.07c-.16-3.48-.33-7-1.78-10.22C156.67,101.94,153.28,99,148,99c-5,0-8.46,2.66-10.32,7.22a30.71,30.71,0,0,0-.39,22.35,10.49,10.49,0,0,0,9.64,7.43c5.15.39,8.55-2,10.9-6.27C160.07,125.71,160.32,121.23,160.51,116.74Z"/><path class="cls-2" d="M123.15,420c0-8.83.14-17.66-.06-26.48-.1-4.62,1.53-6.78,6.36-6.62,7.49.25,15,0,22.48.24,15.05.46,23.5,8,26.24,22.88a53.35,53.35,0,0,1-1.44,25.16c-3.59,12.12-11.1,17.9-23.7,18.25-8,.22-16,0-24,.08-4.25.06-6-1.8-5.94-6C123.24,438.37,123.15,429.2,123.15,420Zm18.69.06q0,5.24,0,10.48c0,7.26,4.33,9.81,11.08,6.53,3.23-1.57,5-4.37,5.95-7.63a31.83,31.83,0,0,0,.12-18.2c-1.78-6.28-5.17-8.53-11.72-8.46-3.67,0-5.61,1.37-5.46,5.31S141.85,416.11,141.85,420.1Z"/><path class="cls-2" d="M232.69,453.51c-4.08.53-8.6.29-9.44-6.15a.91.91,0,0,0-.17-.47c-4.58-5.19-10.61-2-15.95-2.63-2.91-.37-5.14,1.28-5.67,4.41-.67,3.91-3.08,5.16-6.78,4.86-2-.16-4,0-6,0-6.41-.06-7.79-1.9-5.8-7.94C188,430,193.09,414.41,198.41,398.9c4.77-13.92,1.9-11.75,16.74-11.89,8.19-.08,8.18,0,10.72,7.81q7.75,23.89,15.51,47.77C244.63,452.61,244,453.51,232.69,453.51Zm-20.25-24.33c3.05.24,5-1.15,4.92-4.17-.06-2.86-.74-5.91-4.46-6.09s-4.58,2.82-4.92,5.66C207.61,427.69,209.52,429.07,212.44,429.19Z"/><path class="cls-2" d="M274.64,84.49c12,.09,9.66-1.29,13.31,9.56,5.35,15.89,10.46,31.87,15.67,47.81,2.61,8,1.78,9.15-6.43,9.15-1.83,0-3.68-.15-5.5,0-3.62.36-5.83-1.18-6.41-4.7-.63-3.83-3-4.78-6.44-4.53a41.85,41.85,0,0,1-7,0c-5-.48-9,.24-9.63,6.31a2.77,2.77,0,0,1-2.17,2.52,43.78,43.78,0,0,1-14.38-.05c-2.43-.47-3-2.81-2.15-5.26q9.68-28.77,19.27-57.57c.85-2.56,2.42-3.33,4.85-3.27S272.31,84.49,274.64,84.49Zm-.49,42.39c2.54-.11,5.24-.78,4.8-4.09s-.07-7.45-4.57-8.46c-2.31-.52-5.39,4.66-5.18,8.6C269.35,125.86,271.34,126.81,274.15,126.88Z"/><path class="cls-2" d="M202,117a23.4,23.4,0,0,0,2.55,12.54c4.25,7.79,11.54,8.36,17.31,1.49,1.62-1.92,2.55-5.64,5.76-4.61,4.37,1.4,8.75,3.48,11.85,7,1.73,2,0,4.39-1.25,6.4-10,16.49-35.23,17.89-47.39,2.63-11.59-14.53-10.12-39.68,3.09-52.77,12.73-12.62,36.58-9.19,45.28,6.52A4.51,4.51,0,0,1,240,98c.15,6.39-6.2,6-9.45,8.79-2.16,1.89-4.69,1.6-6.45-1-3.24-4.76-6.83-8.85-13.43-6.8-5,1.56-8.43,7.63-8.69,15C202,115,202,116,202,117Z"/><path class="cls-2" d="M260.16,437.9c1.83-8.7-1.68-15.84-6.31-22.83-4.22-6.37-8-13-11.9-19.6-3-5.18-1.23-8.34,4.65-8.47a3.19,3.19,0,0,0,.5,0c8.44-1.56,13.84,1.54,16.53,9.93.88,2.75,1.87,6.6,5.76,6.78,4.36.2,4.54-4.19,6.3-6.8a11.55,11.55,0,0,0,.63-1.36c4.14-8.28,9.78-10.81,18.81-8.45,3.51.92,4.5,4.07,2.24,7.88-5,8.43-10,16.89-15.23,25.16a19.64,19.64,0,0,0-3.37,12.18c.3,5.15.06,10.32.07,15.49,0,4.1-1.95,6-6.12,6.09-12.5.38-12.57.39-12.57-12Z"/><path class="cls-2" d="M93,109.29c0,3.33,0,6.65,0,10,.1,16.77-1.92,14.59,14.46,14.72,1,0,2,0,3,0,3.29-.14,5,1.4,5,4.7.08,14,.91,12.33-11.22,12.32-8.15,0-16.3-.11-24.45,0-3.85.08-5.41-1.45-5.4-5.28q.11-28.19,0-56.39c0-3.51,1.41-5.26,5-5.25C94.28,84.2,93.09,82.78,93,96.82,93,101,93,105.13,93,109.29Z"/><path class="cls-2" d="M328.52,109.12c0,6.16.18,12.32-.06,18.46-.18,4.64,1.38,6.86,6.3,6.46,3.47-.28,7,.06,10.47-.08,3.93-.16,5.84,1.35,5.82,5.49-.08,12.42.75,11.65-11.11,11.56-8.15-.06-16.3-.12-24.45,0-4,.08-5.71-1.52-5.69-5.58q.13-27.95,0-55.89c0-3.8,1.63-5.31,5.38-5.46,13.35-.53,13.35-.59,13.35,12.53Q328.52,102.88,328.52,109.12Z"/><path class="cls-4" d="M229.8,515.71c-.73,4.07,2.51,9.55-4.6,11.26-8.5,2-17.09,0-20-5.93a26.27,26.27,0,0,1,.23-24.46c3.15-6.15,15.76-8.85,21.53-5.19,1.76,1.11,1.25,2.58.85,3.95s-.23,3.25-2.54,2.92c-.33,0-.65-.16-1-.18-11.85-.73-16.35,4.91-13.12,16.44.95,3.37,3,5.61,6.69,5.6,1.53,0,4.19,1.1,4.08-2-.07-2,1.8-5.39-2.84-5.18-3.19.15-1.81-2.48-2-4s0-3.07,2.22-3a9.22,9.22,0,0,0,1,0C229.8,505.43,229.8,505.43,229.8,515.71Z"/><path class="cls-5" d="M289,509.49c0,4.82-.14,9.65.05,14.46.12,3-1.5,3.23-3.73,3.06-2-.15-4.57.77-4.36-2.91.18-3.15-.13-6.33.08-9.47.24-3.77-2.45-3-4.33-2.74s-5.48-1.91-5.54,2.6c0,2.66-.05,5.32,0,8s.36,4.78-3.67,4.68c-3.63-.09-4.44-1.3-4.36-4.65.2-9,.24-18,0-26.93-.1-3.52,1.29-4.08,4.36-4.15,3.32-.07,4,1.37,3.7,4.2a25,25,0,0,0,0,3c0,6.24,1.78,7.55,8,6.26,1.57-.33,1.84-1.09,1.83-2.36a63,63,0,0,0,0-6.48c-.36-3.35.65-4.65,4.29-4.65s3.89,1.83,3.8,4.63C288.91,500.5,289,505,289,509.49Z"/><path class="cls-4" d="M317.2,509.48c0-4.82.2-9.65-.06-14.45-.2-3.6,1.87-3.48,4.37-3.57,2.75-.1,4.08.79,3.68,3.68-.09.65,0,1.33,0,2-.42,3.88-.49,6.52,5.17,5.07,5-1.28,8.58,2,9.62,7.07a27.07,27.07,0,0,1-.19,11.38c-1.28,5.72-5.24,7.83-11.9,6.55-1.45-.28-2.89-1.19-4.28-1.09-6.39.43-6.39.52-6.39-5.66Q317.19,515,317.2,509.48ZM325,514.7c.54,2.25-1.72,6.25,3.39,6.42,4.67.16,4.21-3.58,4.31-6.35s-.08-6.05-4.07-6.27C324.07,508.25,325.09,511.73,325,514.7Z"/><path class="cls-5" d="M314.16,514.84c0,1.83,0,3.67,0,5.5.13,4.35.66,8.86-6.32,5.89-1.33-.56-3.44.9-5.22,1.19-7,1.14-10.58-1.71-10.76-8.69-.11-4.16.16-8.34-.09-12.49-.19-3.12,1.27-3.48,3.85-3.48s4.49.29,4.22,3.72-.08,6.66,0,10c0,2.13-.41,4.6,2.94,4.65s4-2,3.89-4.94c-.16-3.49.12-7-.08-10.49-.18-3.22,1.89-2.81,3.9-2.88,2.19-.07,4,0,3.74,3S314.16,511.85,314.16,514.84Z"/><path class="cls-4" d="M256.3,527.49c-6.14,0-8.8-2.44-9.08-8-.11-2.32,0-4.66,0-7,0-1.69,0-2.76-2.32-3.52-2.87-1-2.38-3.7-.19-5.2,1.45-1,2.83-1.48,2.53-3.57-.42-2.92.24-4.5,3.87-4.48s4.34,1.35,4,4.39c-.22,1.73.27,3,2.39,2.74,2.79-.37,2.76,1.4,2.79,3.39s-.37,3.27-2.71,3c-2-.26-2.84.9-2.44,2.66.8,3.51-3,9.27,4.75,9.62,1,0,.84,2.71.54,4.14C259.78,528.29,257.3,526.8,256.3,527.49Z"/><path class="cls-4" d="M241,514.58c0,2.65-.12,5.32,0,8,.16,2.87-.19,4.63-3.88,4.6s-4.09-1.62-4-4.57c.15-5.47.2-11,0-16.42-.12-3.24,1.62-3.34,4-3.36s4.2.08,3.89,3.34C240.8,508.91,241,511.75,241,514.58Z"/><path class="cls-2" d="M168.13,510.27q0-1.25,0-2.49c0-6.19.57-6.67,6.84-5.8,2.31.32,5.29,1.72,4,3.75-2.5,4.07,5.75,11.36-4,12.81C168.42,519.51,168.13,519.15,168.13,510.27Zm5.1,6.49c1.93-.3,4.28-.42,4.27-3s-2.29-2.7-4.32-2.86c-2.27-.18-2.79,1-2.74,3S170.86,517.1,173.23,516.76Zm3.63-10.36c-.28-2.16-1.91-2.33-3.59-2.52-2.18-.25-2.84.74-2.83,2.82s1.23,2.3,2.86,2.24C175.09,508.88,176.54,508.46,176.86,506.4Z"/><path class="cls-2" d="M92.43,518.86a3.18,3.18,0,0,1-1.62-3.68c.3-3-.39-4.57-4-4.41-3,.13-4.79.54-4.31,4.08.16,1.17.62,3.32-1.08,3.33-2.3,0-1.22-2.28-1.28-3.54-.15-3.49-.06-7,0-10.48,0-.78-.15-1.84,1-2,1.48-.19,1.49,1,1.45,2-.12,2.81-.3,5.22,3.93,4.89,2.87-.23,4.9-.33,4.34-4-.15-1-.51-2.37,1.6-3.25Z"/><path class="cls-2" d="M156.84,500.9c0,5.57.36,10.83-.15,16-.25,2.54-3.48,1.25-5.24,1.75-2.44.69-4.42-1-5.27-3.52-1.8-5.33.72-9.09,6.51-9.07C157,506.08,153.16,501.87,156.84,500.9Zm-2,11.71c-.1-2.38-.4-4.65-3.31-4.75-2.59-.08-3.27,1.91-3.39,4-.13,2.3.32,4.6,3.05,4.88C154,517.08,154.56,514.78,154.79,512.61Z"/><path class="cls-2" d="M181.61,523.34c10.11-5.79-.57-11.48.91-17.59,3.6,2,2.93,6.28,5.13,8.82,1.69-2,1.85-4.59,2.91-6.82.42-.88.67-2.11,2-1.6,1.1.42.52,1.4.25,2.1-1.64,4.34-3.21,8.72-5,13C186.76,523.6,184.88,524.76,181.61,523.34Z"/><path class="cls-2" d="M142.14,517.65c-2.7,1.73-5.5,1.8-7.92-.27s-2.61-5.27-1.42-8.28c1.09-2.74,3.32-3.64,6.07-3.16s3.86,2.47,3.93,5c.06,2.4-1.92,1.62-3.26,1.93-1.54.36-4.4-1.21-4.36,1.4,0,2.85,2.88,2.59,5.1,2.28C140.92,516.49,141.58,516.21,142.14,517.65ZM137.64,511c.88-.38,2.66.69,2.4-1.42-.15-1.14-1.18-1.52-2.24-1.53-1.25,0-2.56.42-2.67,1.69C135,511.72,136.76,510.57,137.64,511Z"/><path class="cls-2" d="M96.89,512.21c.34-3.84,1.89-6.53,6.13-6.38s5.59,3.07,5.54,6.8-1.87,6.19-5.7,6.14C98.78,518.72,97.18,515.91,96.89,512.21Zm9.23-.06c0-2.42-.63-4.35-3.54-4.23s-3.37,2.3-3.31,4.56.87,4.46,3.64,4.33S106.2,514.51,106.12,512.15Z"/><path class="cls-2" d="M120,507.16a4.26,4.26,0,0,1-.54.6c-1.64,1-4.62-1.25-5.15,1.29-.45,2.15,2.61,1.93,4,2.88,2.2,1.48,3,3.7,1.16,5.39-2.42,2.2-5.47,2.56-8.14-.26,1.12-1.34,2.06-.38,3-.31,1.36.12,3,.34,3.43-1.19.54-1.74-1.22-2.06-2.38-2.56-2.42-1-5.12-2.32-3-5.36C114.37,504.79,117.24,505.21,120,507.16Z"/><path class="cls-4" d="M237.38,501c-2.64-.17-4.29-1.5-4.36-4.27a4,4,0,0,1,4.26-4.4,3.84,3.84,0,0,1,4.13,4C241.51,499.05,240.23,500.7,237.38,501Z"/><path class="cls-2" d="M129.64,506.75c-5,2.8-4.91,8,.14,11.11-1,1.39-2.27,1.16-3.5.62-2.49-1.1-3.61-12.69-1.51-14.41.69-.57,1.28-.64,1.3.17C126.12,506.82,129,505.22,129.64,506.75Z"/><path class="cls-1" d="M325,514.7c.07-3-.94-6.45,3.64-6.2,4,.22,4.16,3.5,4.07,6.27s.36,6.51-4.31,6.35C323.29,521,325.55,517,325,514.7Z"/><path class="cls-1" d="M173.23,516.76c-2.37.34-2.74-1-2.78-2.95s.46-3.14,2.74-3c2,.16,4.3.21,4.32,2.86S175.16,516.46,173.23,516.76Z"/><path class="cls-1" d="M176.87,506.4c-.32,2.06-1.78,2.48-3.56,2.55-1.63.06-2.85-.07-2.86-2.24s.65-3.07,2.83-2.82C175,504.07,176.59,504.24,176.87,506.4Z"/><path class="cls-1" d="M154.79,512.61c-.23,2.17-.75,4.47-3.64,4.18-2.73-.28-3.18-2.59-3.05-4.88.12-2.13.79-4.12,3.39-4C154.39,508,154.69,510.22,154.79,512.61Z"/><path class="cls-1" d="M137.64,511c-.88-.41-2.69.75-2.52-1.26.11-1.27,1.42-1.71,2.67-1.69,1.07,0,2.1.4,2.24,1.53C140.31,511.67,138.52,510.6,137.64,511Z"/><path class="cls-1" d="M106.12,512.15c.08,2.35-.42,4.52-3.2,4.65s-3.58-2-3.64-4.33.39-4.44,3.31-4.56S106.15,509.73,106.12,512.15Z"/></svg>