<svg id="Layer_1" data-name="Layer 1" xmlns="http://www.w3.org/2000/svg" viewBox="0 0 419.12 229.91"><defs><style>.cls-1{fill:#08466a;}.cls-2{fill:#135d95;}.cls-3{font-size:23.04px;}.cls-14,.cls-3{fill:#fff;}.cls-3,.cls-5{font-family:Outage-Regular, Outage;}.cls-4{letter-spacing:-0.01em;}.cls-5{font-size:32.16px;}.cls-6{fill:#353535;}.cls-7{fill:#c53c02;}.cls-8{fill:#751b00;}.cls-9{fill:#265a8f;}.cls-10{fill:#162f51;}.cls-11{fill:#fdee00;}.cls-12{fill:#ecc700;}.cls-13{fill:#9e1b34;}</style></defs><title>lhd_banner_2017</title><path class="cls-1" d="M98.4,161.78q-17.38.06-34.76.13c-5.73,0-6.58.88-6.61,6.66,0,6.46,0,12.91,0,19.37-15.64,4.55-30.66,10.76-45.58,17.25-2,.87-4,2.08-5.93.07s-.53-4,.45-5.94c4.73-9.32,9.38-18.68,14.22-27.95,1.5-2.88,1.13-4.79-1.43-6.84-6.34-5.09-12.5-10.4-18.73-15.62v-4a348.32,348.32,0,0,1,91.63-31c5.84-1.08,6.5-.3,6.53,5.92Q98.28,140.82,98.4,161.78Z"/><path class="cls-1" d="M362,188c0-6.46,0-12.91-.06-19.37-.07-5.56-1.24-6.69-6.73-6.7q-17.63,0-35.26,0c1.12-12.62.35-25.27.51-37.9.15-11.25,0-11.3,11-9.17,29,5.64,56.65,15.52,83.35,28.08,5.37,2.52,5.6,4.45,1.18,8.23-5.18,4.44-10.32,8.94-15.67,13.17-2.92,2.31-3.21,4.49-1.5,7.7,4.78,8.93,9.31,18,13.92,27,1.06,2.07,2.5,4.31.38,6.4-1.91,1.88-4,.57-6-.29C392.39,198.65,377.49,192.56,362,188Z"/><rect class="cls-2" x="55" y="159.94" width="308.33" height="69.88" rx="5.05" ry="5.05"/><text class="cls-3" transform="translate(58.22 201.99) scale(1.01 1)">LOCAL HACK DAY PHIL<tspan class="cls-4" x="270.38" y="0">L</tspan><tspan x="283.21" y="0">Y</tspan></text><text class="cls-5" transform="translate(252.77 48.78)">+</text><g id="Page-1"><g id="mlh-logo-color"><g id="Layer_1-2" data-name="Layer 1"><g id="Group"><path id="Shape" class="cls-6" d="M75.86,64a4.45,4.45,0,0,1,.51.3,1.05,1.05,0,0,1,.3.51,2.54,2.54,0,0,1,.1.61v7.39c0,.05,0,.15-.05.15a.19.19,0,0,1-.15.05H74.75a.18.18,0,0,1-.2-.2V66.09H73.08v6.68c0,.05,0,.15-.05.15a.19.19,0,0,1-.15.05H71.2c-.05,0-.15,0-.15-.05a.19.19,0,0,1-.05-.15V66.09H69.53v6.68a.24.24,0,0,1-.25.25H67.45a.24.24,0,0,1-.25-.25V64.11a.24.24,0,0,1,.25-.25h7.9a.62.62,0,0,1,.51.1Z"/><path id="Shape-2" data-name="Shape" class="cls-6" d="M85,63.81a2.54,2.54,0,0,1,.61.1,4.45,4.45,0,0,1,.51.3,1.05,1.05,0,0,1,.3.51,2.54,2.54,0,0,1,.1.61v7.39c0,.05,0,.15-.05.15a.19.19,0,0,1-.15.05H84.52c-.05,0-.15,0-.15-.05a.19.19,0,0,1-.05-.15V70.39c0-.05,0-.15-.05-.15a.19.19,0,0,0-.15-.05H81.53c-.05,0-.15,0-.15.05a.19.19,0,0,0-.05.15v2.33a.24.24,0,0,1-.25.25H79.25a.24.24,0,0,1-.25-.25V65.33a2.54,2.54,0,0,1,.1-.61,4.45,4.45,0,0,1,.3-.51,1.05,1.05,0,0,1,.51-.3,1.28,1.28,0,0,1,.61-.1Zm-.81,4.36V65.89H81.13v2.28Z"/><path id="Shape-3" data-name="Shape" class="cls-6" d="M94.8,63.91a.19.19,0,0,1,.05.15v7.39a2.54,2.54,0,0,1-.1.61,4.45,4.45,0,0,1-.3.51,1.05,1.05,0,0,1-.51.3,1.28,1.28,0,0,1-.61.1h-4a2.54,2.54,0,0,1-.61-.1,4.45,4.45,0,0,1-.51-.3,1.05,1.05,0,0,1-.3-.51,1.28,1.28,0,0,1-.1-.61V68.67a.24.24,0,0,1,.25-.25h1.82a.24.24,0,0,1,.25.25v1.87a.18.18,0,0,0,.2.2h1.87c.05,0,.15,0,.15-.05a.19.19,0,0,0,.05-.15V64.11c0-.05,0-.15.05-.15a.19.19,0,0,1,.15-.05H94.5a.22.22,0,0,1,.3,0Z"/><path id="Shape-4" data-name="Shape" class="cls-6" d="M103.06,63.81a2.54,2.54,0,0,1,.61.1,4.45,4.45,0,0,1,.51.3,1.05,1.05,0,0,1,.3.51,2.54,2.54,0,0,1,.1.61v6.08a2.54,2.54,0,0,1-.1.61,4.45,4.45,0,0,1-.3.51,1.05,1.05,0,0,1-.51.3,1.28,1.28,0,0,1-.61.1H98.45a2.54,2.54,0,0,1-.61-.1,4.45,4.45,0,0,1-.51-.3A1.05,1.05,0,0,1,97,72a1.28,1.28,0,0,1-.1-.61V65.33a2.54,2.54,0,0,1,.1-.61,1.69,1.69,0,0,1,.3-.51,1.05,1.05,0,0,1,.51-.3,1.28,1.28,0,0,1,.61-.1ZM102.25,66H99.16v4.71h3.09V66Z"/><path id="Shape-5" data-name="Shape" class="cls-6" d="M114.6,72.77a.09.09,0,0,1,0,.15c-.05.05-.05.05-.15.05h-2.08a.3.3,0,0,1-.2-.05l-.15-.15-1.37-2.48c0-.05-.05-.05-.1-.05H109c-.05,0-.05,0-.05.05v2.43a.24.24,0,0,1-.25.25h-1.82a.24.24,0,0,1-.25-.25V64.06a.24.24,0,0,1,.25-.25h5.93a2.54,2.54,0,0,1,.61.1,4.45,4.45,0,0,1,.51.3,1.05,1.05,0,0,1,.3.51,1.28,1.28,0,0,1,.1.61v3.44a1.52,1.52,0,0,1-.3.91,1.66,1.66,0,0,1-.76.56h-.05c-.05,0-.05.05-.05.1v.05l1.47,2.38ZM112,65.94h-3.14v2.23H112V65.94Z"/><path id="Shape-6" data-name="Shape" class="cls-6" d="M126.91,70.75a.18.18,0,0,1,.2.2v1.72c0,.05,0,.15-.05.15a.19.19,0,0,1-.15.05h-5.62a.24.24,0,0,1-.25-.25V64a.24.24,0,0,1,.25-.25h1.82a.24.24,0,0,1,.25.25v6.43a.18.18,0,0,0,.2.2h3.34v.15Z"/><path id="Shape-7" data-name="Shape" class="cls-6" d="M135.37,63.91a.19.19,0,0,1,.05.15v1.67a.18.18,0,0,1-.2.2h-4.36c-.05,0-.05,0-.05.05v1.42c0,.05,0,.05.05.05h3.75a.18.18,0,0,1,.2.2V69c0,.05,0,.15-.05.15a.19.19,0,0,1-.15.05h-3.75c-.05,0-.05,0-.05.05v.66h0v.76c0,.05,0,.05.05.05h4.36c.05,0,.15,0,.15.05a.19.19,0,0,1,.05.15v1.62c0,.05,0,.15-.05.15a.19.19,0,0,1-.15.05h-6.48a.24.24,0,0,1-.25-.25V63.81c0-.05,0-.15.05-.15a.19.19,0,0,1,.15-.05h6.48a1,1,0,0,0,.2.3Z"/><path id="Shape-8" data-name="Shape" class="cls-6" d="M143.67,63.81a2.54,2.54,0,0,1,.61.1,4.45,4.45,0,0,1,.51.3,1.05,1.05,0,0,1,.3.51,2.54,2.54,0,0,1,.1.61v7.39c0,.05,0,.15-.05.15a.19.19,0,0,1-.15.05h-1.87c-.05,0-.15,0-.15-.05a.19.19,0,0,1-.05-.15V70.39c0-.05,0-.15-.05-.15a.19.19,0,0,0-.15-.05h-2.63c-.05,0-.15,0-.15.05a.19.19,0,0,0-.05.15v2.33a.24.24,0,0,1-.25.25H137.8a.24.24,0,0,1-.25-.25V65.33a2.54,2.54,0,0,1,.1-.61,4.45,4.45,0,0,1,.3-.51,1.05,1.05,0,0,1,.51-.3,1.28,1.28,0,0,1,.61-.1Zm-.81,4.36V65.89h-3.09v2.28Z"/><path id="Shape-9" data-name="Shape" class="cls-6" d="M154.86,68.06a.19.19,0,0,1,.05.15v3.24a2.54,2.54,0,0,1-.1.61,4.45,4.45,0,0,1-.3.51,1.05,1.05,0,0,1-.51.3,1.28,1.28,0,0,1-.61.1h-4.61a2.54,2.54,0,0,1-.61-.1,4.45,4.45,0,0,1-.51-.3,1.05,1.05,0,0,1-.3-.51,1.28,1.28,0,0,1-.1-.61V65.38a2.54,2.54,0,0,1,.1-.61,1.69,1.69,0,0,1,.3-.51,1.05,1.05,0,0,1,.51-.3,1.28,1.28,0,0,1,.61-.1h5.42c.05,0,.15,0,.15.05a.19.19,0,0,1,.05.15v1.72c0,.05,0,.15-.05.15a.19.19,0,0,1-.15.05h-4.36c-.05,0-.15,0-.15.05a.19.19,0,0,0-.05.15v4.25a.18.18,0,0,0,.2.2h2.58a.18.18,0,0,0,.2-.2V68.17c0-.05,0-.15.05-.15a.19.19,0,0,1,.15-.05h1.82a.38.38,0,0,1,.2.1Z"/><path id="Shape-10" data-name="Shape" class="cls-6" d="M164.49,63.91a.19.19,0,0,1,.05.15v7.39a2.54,2.54,0,0,1-.1.61,4.45,4.45,0,0,1-.3.51,1.05,1.05,0,0,1-.51.3,1.28,1.28,0,0,1-.61.1h-4.61a2.54,2.54,0,0,1-.61-.1,4.45,4.45,0,0,1-.51-.3,1.05,1.05,0,0,1-.3-.51,1.28,1.28,0,0,1-.1-.61V64.06a.24.24,0,0,1,.25-.25H159a.24.24,0,0,1,.25.25v6.43a.18.18,0,0,0,.2.2H162a.18.18,0,0,0,.2-.2V64.06c0-.05,0-.15.05-.15a.19.19,0,0,1,.15-.05h1.82a.2.2,0,0,1,.25.05Z"/><path id="Shape-11" data-name="Shape" class="cls-6" d="M173.55,63.91a.19.19,0,0,1,.05.15v1.67a.18.18,0,0,1-.2.2H169c-.05,0-.05,0-.05.05v1.42c0,.05,0,.05.05.05h3.75a.18.18,0,0,1,.2.2V69c0,.05,0,.15-.05.15a.19.19,0,0,1-.15.05H169c-.05,0-.05,0-.05.05v.66h0v.76c0,.05,0,.05.05.05h4.36c.05,0,.15,0,.15.05a.19.19,0,0,1,.05.15v1.62c0,.05,0,.15-.05.15a.19.19,0,0,1-.15.05h-6.48a.24.24,0,0,1-.25-.25V63.81c0-.05,0-.15.05-.15a.19.19,0,0,1,.15-.05h6.48a1,1,0,0,0,.2.3Z"/><path id="Shape-12" data-name="Shape" class="cls-6" d="M187.58,63.81c.05,0,.15,0,.15.05a.19.19,0,0,1,.05.15v8.66c0,.05,0,.15-.05.15a.19.19,0,0,1-.15.05h-1.82c-.05,0-.15,0-.15-.05a.19.19,0,0,1-.05-.15v-3a.18.18,0,0,0-.2-.2h-2.58c-.05,0-.15,0-.15.05a.19.19,0,0,0-.05.15v3a.24.24,0,0,1-.25.25h-1.82a.24.24,0,0,1-.25-.25V64a.24.24,0,0,1,.25-.25h1.82a.24.24,0,0,1,.25.25v2.94a.24.24,0,0,0,.25.25h2.58a.18.18,0,0,0,.2-.2V64.06c0-.05,0-.15.05-.15a.19.19,0,0,1,.15-.05h1.77v-.05Z"/><path id="Shape-13" data-name="Shape" class="cls-6" d="M196,63.81a2.54,2.54,0,0,1,.61.1,4.45,4.45,0,0,1,.51.3,1.05,1.05,0,0,1,.3.51,2.54,2.54,0,0,1,.1.61v7.39c0,.05,0,.15-.05.15a.19.19,0,0,1-.15.05h-1.82c-.05,0-.15,0-.15-.05a.19.19,0,0,1-.05-.15V70.39c0-.05,0-.15-.05-.15a.19.19,0,0,0-.15-.05h-2.58c-.05,0-.15,0-.15.05a.19.19,0,0,0-.05.15v2.33a.24.24,0,0,1-.25.25h-1.82a.24.24,0,0,1-.25-.25V65.33a2.54,2.54,0,0,1,.1-.61,4.45,4.45,0,0,1,.3-.51,1.05,1.05,0,0,1,.51-.3,1.28,1.28,0,0,1,.61-.1Zm-.76,4.36V65.89h-3.09v2.28Z"/><path id="Shape-14" data-name="Shape" class="cls-6" d="M202,66.09a.19.19,0,0,0-.05.15v4.25a.18.18,0,0,0,.2.2h4.2c.05,0,.15,0,.15.05a.19.19,0,0,1,.05.15v1.72c0,.05,0,.15-.05.15a.19.19,0,0,1-.15.05H201.1a2.54,2.54,0,0,1-.61-.1,4.45,4.45,0,0,1-.51-.3,1.05,1.05,0,0,1-.3-.51,1.28,1.28,0,0,1-.1-.61V65.18a2.54,2.54,0,0,1,.1-.61,4.45,4.45,0,0,1,.3-.51,1.05,1.05,0,0,1,.51-.3,1.28,1.28,0,0,1,.61-.1h5.22c.05,0,.15,0,.15.05a.19.19,0,0,1,.05.15v1.72c0,.05,0,.15-.05.15a.19.19,0,0,1-.15.05h-4.2c-.05.25-.1.3-.15.3Z"/><path id="Shape-15" data-name="Shape" class="cls-6" d="M213.86,67.66c-.05.05-.05.05,0,.1l3,5a.09.09,0,0,1,0,.15c-.05.05-.05.05-.15.05h-2.18a.3.3,0,0,1-.2-.05l-.15-.15-2-3.55c-.05-.05-.05-.05-.05,0l-1.06,1.16a.26.26,0,0,0-.1.2.46.46,0,0,0-.05.25v1.92a.24.24,0,0,1-.25.25H209a.24.24,0,0,1-.25-.25V64.11a.24.24,0,0,1,.25-.25h1.82a.24.24,0,0,1,.25.25V68l3.39-4a.7.7,0,0,1,.2-.15.38.38,0,0,1,.2-.05H217c.05,0,.1,0,.1.05a.19.19,0,0,1-.05.15l-3.19,3.6Z"/><path id="Shape-16" data-name="Shape" class="cls-6" d="M220.9,72.72a.24.24,0,0,1-.25.25h-1.82a.24.24,0,0,1-.25-.25V64.06a.24.24,0,0,1,.25-.25h1.82a.24.24,0,0,1,.25.25v8.66Z"/><path id="Shape-17" data-name="Shape" class="cls-6" d="M229.71,64a4.45,4.45,0,0,1,.51.3,1.05,1.05,0,0,1,.3.51,1.28,1.28,0,0,1,.1.61v7.39c0,.05,0,.15-.05.15a.19.19,0,0,1-.15.05H228.6a.18.18,0,0,1-.2-.2V66.34a.18.18,0,0,0-.2-.2h-2.58c-.05,0-.15,0-.15.05s-.05.1-.05.15v6.43a.24.24,0,0,1-.25.25h-1.82a.24.24,0,0,1-.25-.25V64.11a.24.24,0,0,1,.25-.25h5.93a.55.55,0,0,1,.46.1Z"/><path id="Shape-18" data-name="Shape" class="cls-6" d="M240.3,68.06a.19.19,0,0,1,.05.15v3.24a2.54,2.54,0,0,1-.1.61,4.46,4.46,0,0,1-.3.51,1.05,1.05,0,0,1-.51.3,1.28,1.28,0,0,1-.61.1h-4.61a2.54,2.54,0,0,1-.61-.1,4.45,4.45,0,0,1-.51-.3,1.05,1.05,0,0,1-.3-.51,1.28,1.28,0,0,1-.1-.61V65.38a2.54,2.54,0,0,1,.1-.61,1.69,1.69,0,0,1,.3-.51,1.05,1.05,0,0,1,.51-.3,1.28,1.28,0,0,1,.61-.1h5.42c.05,0,.15,0,.15.05a.19.19,0,0,1,.05.15v1.72c0,.05,0,.15-.05.15a.19.19,0,0,1-.15.05h-4.36c-.05,0-.15,0-.15.05a.19.19,0,0,0-.05.15v4.25a.18.18,0,0,0,.2.2h2.58a.18.18,0,0,0,.2-.2V68.17c0-.05,0-.15.05-.15a.19.19,0,0,1,.15-.05h1.82a.26.26,0,0,1,.2.1Z"/></g><g id="Group-2" data-name="Group"><path id="Shape-19" data-name="Shape" class="cls-7" d="M122.3.81a9.81,9.81,0,0,1,3,2.08,10.77,10.77,0,0,1,2.08,3,9.35,9.35,0,0,1,.76,3.75v48a1.56,1.56,0,0,1-1.57,1.57h-11.5A1.31,1.31,0,0,1,114,58.8a1.67,1.67,0,0,1-.41-1.11V14h-9.27V57.68A1.67,1.67,0,0,1,104,58.8a1.38,1.38,0,0,1-1.06.46H92.47a1.56,1.56,0,0,1-1.57-1.57V14H81.63V57.68a1.37,1.37,0,0,1-1.57,1.57H68.67a1.37,1.37,0,0,1-1.57-1.57V1.62A1.37,1.37,0,0,1,68.67.05H118.5a9.6,9.6,0,0,1,3.8.76Z"/><path id="Shape-20" data-name="Shape" class="cls-8" d="M122.3.81a9.81,9.81,0,0,1,3,2.08,10.77,10.77,0,0,1,2.08,3,9.35,9.35,0,0,1,.76,3.75v4.25l-14.53.1h-32l-14.53-.1V1.57A1.37,1.37,0,0,1,68.72,0h49.83a10.58,10.58,0,0,1,3.75.81Z"/></g><g id="Group-3" data-name="Group"><path id="Shape-21" data-name="Shape" class="cls-9" d="M178.26,44.87a1.41,1.41,0,0,1,1.11.46,1.6,1.6,0,0,1,.46,1.16V57.68a1.69,1.69,0,0,1-.46,1.16,1.49,1.49,0,0,1-1.11.46H138.91a1.46,1.46,0,0,1-1.67-1.62v-56A1.46,1.46,0,0,1,138.91.05H151a1.46,1.46,0,0,1,1.67,1.62V43.4a1.37,1.37,0,0,0,.51,1.11,1.57,1.57,0,0,0,1.16.41h24v-.05Z"/><path id="Shape-22" data-name="Shape" class="cls-10" d="M152.53,59.25H138.91a1.46,1.46,0,0,1-1.67-1.62v-56A1.46,1.46,0,0,1,138.91.05H151a1.46,1.46,0,0,1,1.67,1.62V43.4c0,.41-.1,15.85-.1,15.85Z"/></g><g id="Group-4" data-name="Group"><path id="Shape-23" data-name="Shape" class="cls-11" d="M238.73.05a1.6,1.6,0,0,1,1.16.46,1.65,1.65,0,0,1,.51,1.16V57.83a1.54,1.54,0,0,1-.51,1.16,1.6,1.6,0,0,1-1.16.46H226.47a1.6,1.6,0,0,1-1.16-.46,1.65,1.65,0,0,1-.51-1.16V38.24a1.48,1.48,0,0,0-1.62-1.52H206a1.81,1.81,0,0,0-1.16.41,1.53,1.53,0,0,0-.51,1.11v19.6a1.46,1.46,0,0,1-1.67,1.62H190.52a1.46,1.46,0,0,1-1.67-1.62V1.67A1.46,1.46,0,0,1,190.52.05h12.15a1.46,1.46,0,0,1,1.67,1.62v19A1.46,1.46,0,0,0,206,22.28h17.17a1.56,1.56,0,0,0,1.62-1.62v-19a1.54,1.54,0,0,1,.51-1.16,1.6,1.6,0,0,1,1.16-.46Z"/><path id="Shape-24" data-name="Shape" class="cls-12" d="M204.39,38.24v19.6a1.46,1.46,0,0,1-1.67,1.62H190.57a1.46,1.46,0,0,1-1.67-1.62V1.67A1.46,1.46,0,0,1,190.57.05h12.15a1.46,1.46,0,0,1,1.67,1.62V38.24Z"/><path id="Shape-25" data-name="Shape" class="cls-12" d="M238.73.05a1.6,1.6,0,0,1,1.16.46,1.65,1.65,0,0,1,.51,1.16V57.83a1.54,1.54,0,0,1-.51,1.16,1.6,1.6,0,0,1-1.16.46H226.47a1.6,1.6,0,0,1-1.16-.46,1.65,1.65,0,0,1-.51-1.16V1.67a1.54,1.54,0,0,1,.51-1.16,1.6,1.6,0,0,1,1.16-.46Z"/></g></g></g></g><g id="Layer_1-3" data-name="Layer 1"><path class="cls-13" d="M352,51.47V21.87a6.32,6.32,0,0,0-3.16-5.48L323.23,1.59a6.32,6.32,0,0,0-6.32,0l-25.64,14.8a6.32,6.32,0,0,0-3.16,5.48v29.6a6.32,6.32,0,0,0,3.16,5.48l25.64,14.8a6.32,6.32,0,0,0,6.32,0l25.63-14.8A6.32,6.32,0,0,0,352,51.47Z"/><path class="cls-14" d="M310.27,44.62l-11.79-6.46a2.08,2.08,0,0,1-.78-.77,2.16,2.16,0,0,1-.28-1.1V36a2.16,2.16,0,0,1,.28-1.1,2.08,2.08,0,0,1,.78-.78l11.79-6.46a1.13,1.13,0,0,1,.47-.11,1,1,0,0,1,.84.42,1.67,1.67,0,0,1,.12,1.84,1.4,1.4,0,0,1-.58.56l-10.64,5.77,10.64,5.77a1.4,1.4,0,0,1,.58.56,1.67,1.67,0,0,1-.12,1.84,1,1,0,0,1-.84.42A1.13,1.13,0,0,1,310.27,44.62Z"/><path class="cls-14" d="M324.88,19.69a1.65,1.65,0,0,1,.34,1,2.13,2.13,0,0,1-.09.54l-7.83,28a1.57,1.57,0,0,1-.41.72,1,1,0,0,1-.74.29,1.06,1.06,0,0,1-.87-.43,1.64,1.64,0,0,1-.34-1,2.13,2.13,0,0,1,.09-.54l7.84-28a1.56,1.56,0,0,1,.41-.72,1,1,0,0,1,.74-.29A1.06,1.06,0,0,1,324.88,19.69Z"/><path class="cls-14" d="M328.55,44.32a1.67,1.67,0,0,1-.12-1.84,1.4,1.4,0,0,1,.58-.56l10.64-5.77L329,30.37a1.4,1.4,0,0,1-.58-.56,1.67,1.67,0,0,1,.12-1.84,1,1,0,0,1,.84-.42,1,1,0,0,1,.47.11l11.79,6.46a2.09,2.09,0,0,1,.78.78,2.16,2.16,0,0,1,.28,1.1v.29a2.16,2.16,0,0,1-.28,1.1,2.08,2.08,0,0,1-.78.78l-11.79,6.46a1,1,0,0,1-.47.11A1,1,0,0,1,328.55,44.32Z"/></g><text class="cls-5" transform="translate(131.53 124.35)">PRESENT</text></svg>