<?xml version="1.0" encoding="utf-8"?>
<!-- Generator: Adobe Illustrator 18.0.0, SVG Export Plug-In . SVG Version: 6.00 Build 0)  -->
<!DOCTYPE svg PUBLIC "-//W3C//DTD SVG 1.1//EN" "http://www.w3.org/Graphics/SVG/1.1/DTD/svg11.dtd">
<svg version="1.1" id="Layer_1" xmlns="http://www.w3.org/2000/svg" xmlns:xlink="http://www.w3.org/1999/xlink" x="0px" y="0px"
	 viewBox="0 0 2000 2000" enable-background="new 0 0 2000 2000" xml:space="preserve">
<path fill="#FFFFFF" d="M1488.9,621.4c-0.1-38.4-17-67.6-50.2-86.8c-133.9-77.5-267.8-154.8-401.8-232
	c-33.8-19.5-67.9-19.5-101.6-0.1c-133.4,76.9-266.7,154-400.1,230.9c-34.9,20.1-52.2,50.1-52.1,90.3c0.1,76.7,0,153.3,0,230
	c0,77.7-0.2,155.3,0.2,232.9c0.1,38.1,17,67.2,50,86.3c134.3,77.7,268.7,155.2,403.1,232.7c33.1,19.1,66.7,18.9,99.7-0.1
	c134.1-77.3,268.2-154.7,402.2-232.2c33.4-19.3,50.6-48.4,50.6-87C1489,931.4,1489,776.4,1488.9,621.4z M777.3,936.7
	c20.4,12.1,40.9,24.1,61.3,36.2c7.7,4.5,11.4,11.5,10.1,19c-1.7,9.5-5.9,17.3-15.9,20.3c-5.5,1.7-10.1-0.8-14.5-3.5
	c-38.1-23-76.2-46.1-114.2-69.1c-23.4-14.2-46.9-28.3-70.3-42.6c-14.3-8.7-19.3-22.3-13.7-37.1c2.8-7.4,8.5-12.2,15-16.1
	c18.5-11.2,37-22.2,55.5-33.3c42.5-25.4,85-50.7,127.4-76.1c9.7-5.8,14.9-6,21.5-0.8c7.4,5.7,11.6,17.4,9.2,25.4
	c-1.5,5-5.1,8-9.4,10.5c-37.4,21.8-74.8,43.7-112.2,65.5c-18.9,11.1-37.8,22.1-56.7,33.2c-1.4,0.8-2.6,1.6-4.5,2.8
	C703.5,893.2,740.4,915,777.3,936.7z M1088.3,642.4c-12.7,33.3-25.4,66.5-38.1,99.8c-42.7,112-85.5,224.1-128.2,336.1
	c-2.6,6.8-5.3,13.3-13.6,15.1c-7.9,1.7-21.3-3.8-25.4-10.6c-3.3-5.5-1.8-10.9,0.2-16.3c10.5-27.7,21.1-55.4,31.7-83.1
	c45-118.1,90-236.2,135.1-354.3c4-10.5,10.3-15.5,19.1-15.1c10.8,0.5,19.2,6.3,21.3,14.8C1091.6,633.6,1089.9,638,1088.3,642.4z
	 M1338.5,896.9c-20.2,11.8-40.1,24.1-60.2,36.2c-41.5,25.1-83.3,49.6-124.4,75.4c-16.5,10.3-29.1-2.6-31-15.3
	c-1.4-9.4,2.5-15.8,10.6-20.6c55.7-32.7,111.3-65.6,166.9-98.5c1.7-0.8,3.3-1.9,5.5-3.3c-8.8-5.2-17.1-10-25.3-14.8
	c-49.2-28.7-98.3-57.5-147.5-86.2c-8-4.7-11.5-11.2-10.2-20.3c1.3-9.2,7.8-17,16-19.1c5.1-1.3,9.4,0.8,13.6,3.3
	c36.2,21.6,72.4,43.2,108.7,64.8c23.7,14.1,47.4,28.2,71,42.4c2.7,1.6,5.3,3.5,7.9,5.2C1358.5,858.2,1359,885,1338.5,896.9z"/>
</svg>
